<?xml version="1.0" standalone="no"?>
<!DOCTYPE svg PUBLIC "-//W3C//DTD SVG 20010904//EN"
 "http://www.w3.org/TR/2001/REC-SVG-20010904/DTD/svg10.dtd">
<svg version="1.0" xmlns="http://www.w3.org/2000/svg"
 width="1585.000000pt" height="1744.000000pt" viewBox="0 0 1585.000000 1744.000000"
 preserveAspectRatio="xMidYMid meet">

<g transform="translate(0.000000,1744.000000) scale(0.100000,-0.100000)"
fill="#000000" stroke="none">
<path d="M1454 17420 c-138 -36 -337 -153 -431 -253 -191 -205 -417 -585 -548
-922 -241 -621 -288 -1176 -180 -2115 16 -141 38 -399 57 -665 7 -101 13 -368
13 -610 0 -478 -2 -495 -71 -682 -70 -186 -115 -372 -158 -653 -100 -650 -96
-1328 9 -1534 53 -104 255 -338 610 -706 484 -501 576 -660 576 -1000 0 -162
-11 -248 -81 -640 -136 -759 -171 -1059 -185 -1615 -7 -267 7 -665 30 -853 66
-528 217 -925 845 -2207 401 -819 565 -1195 680 -1559 45 -143 92 -280 105
-305 39 -76 144 -210 250 -319 95 -97 104 -104 180 -131 44 -15 157 -62 251
-104 279 -124 484 -184 705 -207 110 -11 122 -10 454 37 72 10 180 17 270 16
170 0 133 8 830 -178 531 -141 761 -185 1078 -207 378 -26 591 23 1322 302
527 201 580 208 1005 130 100 -19 140 -21 305 -17 284 8 536 51 968 167 556
149 1074 348 1041 401 -9 15 95 117 226 223 230 186 359 324 510 546 223 329
515 946 674 1424 275 826 327 1564 191 2741 -88 763 -96 1146 -30 1438 62 273
175 439 405 592 52 35 185 114 295 175 246 138 398 234 543 342 358 268 575
523 747 881 198 412 253 684 285 1427 23 510 35 577 274 1537 302 1211 333
1425 307 2173 -18 523 -47 845 -90 1010 -76 287 -197 542 -335 702 -97 114
-257 214 -406 253 -99 26 -293 31 -428 11 -647 -95 -1382 -472 -2112 -1084
-210 -176 -282 -242 -514 -471 -391 -385 -614 -658 -1086 -1331 -569 -810
-816 -1062 -1154 -1175 -131 -44 -203 -36 -896 94 -638 120 -848 152 -1230
190 -397 40 -537 46 -1040 46 -561 0 -1054 -23 -1323 -61 -60 -9 -111 -13
-114 -10 -3 2 -29 119 -58 259 -140 666 -284 1206 -474 1777 -171 511 -328
878 -476 1110 -241 377 -638 798 -1050 1110 -343 261 -751 471 -986 510 -35 5
-165 10 -289 9 -186 0 -237 -3 -296 -19z m1161 -670 c346 -169 846 -669 1152
-1153 79 -125 201 -368 231 -460 30 -92 68 -289 82 -422 38 -372 11 -1191 -50
-1548 -53 -310 -141 -464 -458 -803 -164 -175 -247 -250 -290 -261 -25 -6
-161 2 -198 13 -13 3 -27 -1 -37 -11 -15 -15 -15 -20 3 -63 10 -26 41 -93 69
-149 28 -55 54 -116 58 -133 5 -30 4 -31 -14 -22 -23 13 -103 109 -245 297
-135 178 -207 258 -208 230 0 -28 40 -177 105 -385 64 -207 116 -402 109 -409
-2 -3 -35 25 -72 61 -141 138 -158 118 -131 -156 17 -165 -5 -200 -84 -135
-55 45 -67 35 -68 -58 -1 -43 -4 -89 -8 -103 -12 -44 -65 -39 -246 24 -87 31
-160 54 -161 53 -1 -1 -20 -68 -42 -148 -75 -271 -195 -498 -361 -682 -44 -49
-128 -117 -145 -117 -8 0 -12 30 -11 103 0 120 -32 260 -119 520 -94 281 -187
479 -233 494 -19 7 -31 -28 -41 -120 -13 -118 -43 -176 -147 -284 -46 -48 -87
-85 -90 -81 -4 4 -2 46 4 95 23 190 12 277 -63 467 -66 165 -78 222 -77 361 0
142 12 249 51 481 60 344 157 717 202 772 16 18 28 -3 28 -50 0 -120 365 -901
414 -885 8 3 13 110 17 368 7 376 17 497 60 704 31 152 65 214 107 201 10 -4
59 -43 108 -87 159 -145 174 -137 111 57 -85 260 -219 780 -234 906 -9 75 0
67 187 -166 119 -148 143 -164 129 -89 -5 26 -20 84 -33 128 -34 113 -67 269
-125 585 -61 339 -108 660 -96 660 8 0 78 -145 139 -289 89 -210 144 -311 168
-311 6 0 8 11 4 28 -41 186 -94 950 -103 1503 -6 355 -2 434 20 426 6 -2 74
-91 150 -198 349 -489 517 -693 517 -626 0 23 -38 172 -75 293 -55 181 -103
379 -117 483 l-12 94 24 19 c30 24 61 19 145 -22z m11403 -2492 c66 -61 79
-150 92 -608 10 -354 27 -611 60 -877 31 -252 40 -420 30 -537 -16 -188 -48
-279 -215 -626 -121 -249 -175 -384 -175 -433 0 -62 79 -69 190 -16 83 40 207
133 350 263 308 281 463 342 576 229 68 -68 89 -159 64 -270 -16 -67 -81 -210
-154 -339 -65 -113 -124 -207 -415 -659 -67 -104 -142 -231 -167 -280 -61
-121 -50 -147 48 -119 187 51 252 53 345 8 171 -82 209 -323 90 -568 -53 -109
-108 -178 -208 -258 -241 -193 -639 -359 -957 -398 -210 -27 -396 34 -539 176
-126 126 -198 306 -224 565 -36 345 68 641 304 865 89 85 136 117 331 225 90
50 113 77 96 109 -22 41 -166 87 -445 141 -310 59 -323 83 -311 574 19 791 44
1103 106 1350 105 417 442 995 780 1336 168 170 274 215 348 147z m-1898
-1115 c0 -10 -45 -61 -101 -113 -55 -52 -98 -98 -94 -102 3 -3 31 1 61 9 31 8
60 13 66 11 6 -2 -14 -32 -43 -67 -154 -182 -189 -225 -189 -233 0 -12 35 -2
193 53 140 49 217 62 217 35 0 -16 -53 -65 -122 -115 -27 -19 -46 -36 -44 -38
2 -2 31 3 64 11 70 19 102 20 102 5 0 -25 -26 -51 -112 -114 -51 -37 -117 -91
-146 -119 -52 -50 -110 -142 -97 -154 4 -4 54 6 113 23 59 16 127 29 152 29
41 1 45 -1 48 -25 3 -23 -5 -31 -51 -57 -56 -32 -87 -68 -87 -102 0 -17 6 -20
48 -17 45 2 47 1 50 -25 4 -36 22 -35 74 3 72 51 61 15 -43 -146 -65 -101 -93
-160 -85 -181 7 -17 24 -10 88 33 50 33 78 42 78 24 0 -18 -100 -119 -194
-196 -53 -43 -94 -81 -91 -83 2 -2 51 1 108 8 109 13 147 6 147 -26 0 -23 46
-64 73 -64 62 0 73 -56 16 -86 -35 -17 -30 -34 10 -34 16 0 39 -9 52 -19 35
-29 16 -54 -46 -63 -57 -8 -80 -27 -70 -57 8 -27 51 -49 150 -77 45 -12 73
-24 65 -28 -8 -3 -76 -26 -150 -52 -74 -25 -171 -65 -215 -89 -68 -37 -316
-145 -333 -145 -3 0 14 17 39 37 81 69 189 176 189 189 0 20 -48 0 -145 -61
-47 -30 -85 -52 -85 -50 0 3 34 43 75 90 41 48 75 93 75 101 0 17 2 17 -50 -1
-23 -8 -44 -15 -46 -15 -2 0 12 21 31 46 61 80 44 109 -41 70 -54 -25 -84 -32
-84 -21 0 11 49 101 79 145 35 51 40 75 14 67 -10 -3 -33 -10 -51 -16 -46 -14
-49 1 -13 90 62 154 54 161 -61 58 -43 -39 -81 -70 -83 -68 -1 2 1 41 5 87 11
105 41 194 91 272 35 55 46 80 35 80 -2 0 -33 -13 -68 -30 -105 -50 -126 -37
-58 36 32 35 40 51 40 83 0 59 -25 72 -104 56 l-39 -8 36 48 c41 54 46 75 18
75 -37 0 -33 22 13 69 25 26 46 53 46 60 0 8 -12 25 -26 38 -17 16 -24 29 -19
41 4 9 9 23 12 30 7 16 -15 15 -66 -3 -22 -8 -41 -11 -41 -7 0 4 23 34 51 67
69 83 80 132 23 106 -15 -6 -29 -10 -31 -7 -2 2 7 27 21 55 30 59 34 86 10 77
-44 -17 -64 -18 -64 -3 0 9 30 59 66 112 36 53 77 121 90 151 27 62 62 90 194
159 166 85 260 113 260 78z m-5649 -770 c6 -17 8 -60 4 -108 -9 -116 -5 -120
127 -120 152 1 249 30 387 116 217 138 303 133 434 -25 101 -123 129 -198 148
-396 6 -63 17 -130 25 -148 28 -69 148 -82 258 -28 69 34 170 133 211 207 26
48 30 63 29 132 0 42 2 77 5 77 12 -1 88 -63 202 -165 136 -122 291 -241 325
-249 30 -8 87 21 149 74 26 22 69 52 96 65 316 160 964 -5 1460 -371 132 -97
415 -381 572 -574 503 -617 1029 -1441 1407 -2205 246 -496 349 -770 381
-1005 17 -123 24 -2022 10 -2488 -25 -805 -65 -1084 -220 -1548 -34 -100 -61
-187 -61 -195 1 -21 43 34 127 166 136 214 234 355 247 355 20 0 -80 -217
-246 -535 -347 -664 -592 -981 -855 -1108 -160 -76 -298 -74 -462 9 -286 143
-469 416 -1156 1729 -241 459 -505 957 -598 1125 -44 80 -102 187 -129 238
-73 140 -65 165 33 102 89 -58 209 -93 209 -61 0 4 -43 55 -96 112 -119 128
-366 424 -631 754 -443 551 -572 681 -918 923 -224 157 -341 209 -576 256
-277 56 -687 22 -1135 -94 -361 -93 -611 -193 -854 -339 -47 -28 -91 -51 -97
-51 -47 0 30 96 205 255 78 71 126 121 117 123 -25 6 -235 -29 -300 -49 -133
-41 -258 -155 -448 -407 -218 -288 -451 -557 -696 -803 -137 -136 -197 -188
-268 -233 -51 -32 -93 -60 -93 -61 0 -1 55 6 123 16 128 19 267 25 267 11 0
-9 -131 -246 -339 -612 -306 -541 -572 -1128 -696 -1535 -200 -661 -216 -1196
-45 -1562 65 -139 130 -221 283 -357 112 -99 114 -95 -64 -71 -179 23 -322 92
-484 232 -216 187 -430 535 -549 893 -109 328 -332 1087 -496 1687 -220 802
-254 997 -254 1473 0 271 6 374 44 680 65 530 106 1272 97 1770 -7 394 -28
548 -113 831 -27 92 -32 122 -24 143 11 29 70 69 215 145 271 141 504 369 694
678 160 259 265 394 478 614 367 377 793 704 1159 888 224 112 570 237 844
305 138 34 439 81 423 66 -4 -4 -69 -52 -143 -105 -674 -487 -1132 -1007
-1179 -1338 -24 -169 61 -425 180 -546 68 -69 125 -85 269 -79 78 4 120 11
165 29 54 22 60 27 63 56 2 18 -14 83 -37 151 -55 164 -65 229 -58 391 12 302
83 438 387 741 351 352 820 696 1248 916 145 75 195 83 213 37z m-5869 -983
c61 -40 151 -150 193 -234 30 -58 35 -79 35 -136 0 -57 -5 -78 -34 -136 -19
-38 -60 -98 -90 -134 -31 -36 -81 -94 -111 -129 -69 -82 -135 -214 -175 -356
-42 -147 -49 -156 -50 -67 0 89 20 189 67 336 46 143 49 228 13 331 -22 62
-25 86 -24 205 0 132 24 273 54 331 16 29 68 25 122 -11z m5560 -4362 c90 -45
161 -112 233 -222 30 -45 70 -96 89 -115 l35 -34 28 18 c15 10 85 74 155 142
162 158 199 177 331 171 109 -6 174 -28 279 -97 174 -113 358 -364 358 -487 0
-92 -79 -198 -216 -289 -318 -211 -518 -117 -398 188 68 170 55 317 -31 353
-32 13 -38 13 -74 -5 -51 -26 -150 -136 -189 -209 -61 -114 -67 -155 -66 -482
0 -308 10 -419 44 -497 10 -24 27 -44 40 -48 28 -9 110 31 342 169 271 161
317 181 303 134 -12 -42 -87 -166 -154 -255 -187 -251 -464 -467 -625 -489
-69 -10 -91 9 -111 98 -26 115 -61 372 -86 633 -12 132 -25 243 -29 247 -5 7
-61 -264 -129 -621 -41 -217 -108 -270 -305 -242 -208 29 -370 175 -476 428
-38 90 -99 263 -94 263 3 0 49 -39 102 -86 122 -109 145 -127 207 -157 66 -32
109 -39 159 -26 88 23 177 115 218 225 21 57 22 72 23 414 0 409 -4 439 -66
501 -22 22 -48 39 -59 39 -56 0 -140 -129 -140 -214 0 -84 -143 -292 -232
-337 -34 -17 -45 -19 -69 -9 -100 42 -201 264 -203 445 -1 69 2 86 25 125 54
91 233 232 376 297 190 85 280 92 405 31z m-1016 -1883 c31 -9 76 -37 121 -74
40 -33 90 -65 110 -72 28 -10 120 -14 343 -15 254 -1 315 -4 364 -18 119 -34
146 -75 146 -218 0 -175 -48 -487 -93 -597 -35 -88 -113 -190 -328 -431 -331
-372 -461 -541 -669 -874 -245 -391 -330 -504 -591 -786 -210 -225 -357 -350
-414 -350 -66 0 -163 89 -212 195 -22 49 -25 69 -25 168 0 176 20 234 145 423
128 195 217 375 217 439 0 65 -96 72 -233 19 -117 -46 -201 -55 -237 -26 -55
45 -23 156 99 345 158 244 218 459 146 527 -22 21 -27 22 -71 11 -53 -14 -130
-51 -192 -93 -64 -44 -172 -92 -183 -81 -30 30 119 320 314 613 186 279 368
484 532 602 110 78 301 192 399 239 140 66 223 81 312 54z m1672 -386 c41 -11
151 -50 245 -86 280 -107 317 -114 627 -123 218 -7 279 -12 343 -29 144 -38
367 -142 416 -195 l25 -26 -18 -70 c-21 -81 -17 -152 16 -258 44 -143 114
-257 241 -389 145 -152 206 -258 207 -355 0 -38 -5 -50 -25 -67 -33 -25 -55
-30 -201 -40 -123 -8 -164 -20 -164 -47 0 -29 63 -137 250 -424 159 -244 215
-342 231 -402 18 -66 4 -81 -71 -76 -125 9 -471 227 -721 454 -41 38 -160 159
-264 269 -437 463 -693 715 -808 796 -38 27 -140 85 -225 130 -248 129 -302
174 -331 275 -18 60 -25 343 -12 504 9 128 13 147 32 163 29 24 114 22 207 -4z
m-258 -1130 c159 -37 410 -204 717 -481 244 -219 347 -355 487 -643 180 -368
277 -709 247 -871 -13 -70 -82 -203 -195 -373 -97 -147 -180 -251 -200 -251
-36 0 -90 90 -211 351 l-92 199 -33 -92 c-17 -51 -59 -147 -93 -213 -100 -194
-177 -255 -324 -255 -80 0 -127 11 -278 67 -140 53 -154 52 -251 -6 -37 -23
-71 -41 -75 -41 -21 0 -68 55 -143 168 -107 161 -145 205 -201 232 -40 20 -54
21 -143 15 -87 -6 -104 -5 -144 13 -95 42 -179 143 -270 327 -93 185 -103 221
-103 365 0 153 11 191 131 429 151 301 288 497 483 691 143 142 254 224 410
304 145 74 193 85 281 65z"/>
<path d="M9300 11701 c0 -15 72 -106 181 -228 131 -146 188 -220 272 -348 131
-201 244 -442 317 -676 119 -381 140 -432 154 -374 9 34 -11 293 -30 404 -36
209 -96 391 -189 569 -137 262 -322 450 -600 609 -80 46 -105 56 -105 44z"/>
<path d="M5196 10141 c-11 -17 12 -51 88 -131 39 -41 93 -107 119 -146 107
-162 229 -461 257 -634 8 -47 10 -109 6 -166 -5 -71 -3 -94 8 -103 29 -25 59
48 82 200 47 320 -48 578 -302 818 -129 122 -240 192 -258 162z"/>
<path d="M8542 9995 c-135 -64 -219 -124 -309 -219 -90 -95 -150 -198 -182
-316 -17 -60 -21 -103 -21 -220 l1 -145 88 180 c124 250 228 407 406 610 95
109 131 155 118 154 -4 0 -50 -20 -101 -44z"/>
<path d="M6374 9992 c24 -66 41 -233 56 -538 11 -221 28 -311 74 -386 124
-200 154 -253 188 -333 58 -131 81 -238 81 -373 1 -136 -6 -150 -111 -205
-138 -73 -160 -74 -884 -51 -215 7 -273 1 -378 -42 -144 -58 -358 -210 -333
-235 8 -8 49 2 145 35 199 66 278 81 448 81 227 0 384 -42 675 -178 362 -169
499 -177 789 -46 285 129 388 158 586 166 103 4 157 1 225 -11 228 -43 529
-183 666 -311 25 -24 60 -50 78 -59 28 -15 32 -15 37 -1 13 32 -140 185 -324
323 -174 131 -339 201 -637 271 -246 58 -504 152 -620 226 -125 79 -116 148
76 602 54 127 108 265 121 305 42 137 29 229 -69 493 l-48 130 -12 -125 c-25
-257 -52 -370 -125 -518 -62 -126 -147 -212 -212 -212 -84 0 -177 197 -232
495 -21 118 -65 249 -119 362 -46 94 -109 173 -138 173 -14 0 -15 -4 -3 -38z"/>
<path d="M4764 9796 c-130 -34 -206 -76 -290 -160 -98 -98 -152 -210 -204
-422 -22 -90 -46 -164 -57 -176 -20 -22 -59 -19 -101 8 l-23 15 25 44 c41 69
50 129 32 213 -49 237 -181 321 -505 322 -317 0 -547 -74 -811 -263 -115 -83
-220 -186 -220 -216 0 -23 2 -23 53 -17 28 3 124 24 212 47 250 64 427 65 610
3 141 -48 168 -113 33 -79 -17 5 -28 3 -28 -3 0 -13 40 -37 264 -154 224 -117
301 -167 379 -245 130 -130 163 -289 112 -537 -23 -110 -52 -183 -90 -224 -26
-29 -36 -34 -58 -29 -30 8 -93 99 -157 227 -84 168 -175 290 -216 290 -25 0
-94 39 -206 117 -124 85 -165 104 -182 81 -26 -35 -55 -41 -138 -28 -90 14
-246 8 -362 -15 -99 -19 -125 -30 -137 -62 -6 -16 -70 -86 -143 -158 -73 -71
-149 -155 -169 -186 -130 -201 -187 -415 -189 -719 -2 -134 1 -151 26 -224 99
-289 380 -600 722 -802 170 -100 443 -214 511 -214 49 0 63 19 73 97 26 203
227 503 546 813 138 134 221 203 391 323 67 48 129 97 137 109 19 26 11 37
-49 73 -85 50 -123 188 -104 386 16 171 79 343 189 518 49 79 76 150 90 238
15 90 5 168 -42 353 -78 304 -49 400 166 545 92 62 141 108 132 124 -12 18
-126 11 -222 -13z m-1283 -1715 c25 -30 28 -181 4 -204 -31 -32 -145 -32 -207
-1 -93 48 -90 166 7 215 58 29 169 24 196 -10z m-726 -571 c35 -105 70 -151
142 -186 56 -28 62 -29 218 -29 201 0 209 3 380 166 114 108 145 132 145 112
0 -25 -48 -170 -76 -232 -44 -96 -89 -149 -155 -186 -53 -30 -56 -30 -209 -30
-136 0 -163 3 -222 23 -160 56 -264 185 -299 374 -10 55 -10 70 1 83 12 14 15
14 31 -1 10 -9 30 -51 44 -94z"/>
<path d="M11185 9678 c11 -35 38 -78 168 -266 306 -443 542 -908 698 -1374
100 -298 146 -518 174 -823 22 -252 40 -334 65 -309 50 50 32 893 -26 1174
-85 411 -266 770 -571 1132 -101 120 -322 348 -412 425 -79 67 -107 79 -96 41z"/>
<path d="M8986 9659 c5 -8 33 -43 61 -79 147 -188 276 -455 297 -616 5 -33 2
-73 -9 -119 -8 -37 -14 -69 -12 -71 9 -9 142 158 168 211 58 118 48 208 -37
337 -75 113 -187 203 -364 294 -119 61 -117 60 -104 43z"/>
<path d="M10170 9442 c0 -12 36 -27 155 -69 402 -140 554 -231 810 -488 240
-239 352 -395 497 -690 83 -170 111 -247 178 -495 23 -85 48 -166 55 -180 57
-107 -6 302 -91 595 -36 124 -107 301 -166 417 -217 424 -564 715 -1007 843
-204 58 -431 94 -431 67z"/>
<path d="M9910 8764 c-228 -48 -330 -86 -453 -168 -113 -75 -181 -149 -201
-217 -11 -37 -19 -133 -26 -299 -15 -389 -50 -499 -206 -652 l-86 -85 219
-205 c399 -376 580 -513 846 -638 139 -65 218 -88 355 -101 148 -15 487 -6
557 14 159 45 424 248 532 407 47 69 64 106 102 222 l36 107 110 -65 c152 -89
222 -108 185 -49 -8 12 -49 74 -91 136 -42 63 -132 206 -199 319 -310 517
-385 617 -527 711 -252 165 -627 214 -942 123 -199 -58 -350 -184 -452 -378
-56 -107 -101 -167 -136 -184 -32 -15 -34 -15 -58 8 -36 34 -56 109 -62 235
-14 291 119 476 463 648 98 49 154 90 154 113 0 17 -32 17 -120 -2z m365 -958
c95 -40 103 -212 13 -262 -45 -25 -101 -17 -186 28 -71 36 -85 40 -114 32 -26
-7 -38 -20 -58 -59 -22 -44 -25 -62 -25 -160 1 -324 184 -565 513 -676 159
-54 210 -50 367 29 151 75 236 146 326 273 98 139 127 129 69 -23 -70 -188
-287 -377 -486 -424 -244 -57 -566 59 -768 277 -155 167 -226 332 -226 529 0
218 64 316 255 391 143 56 256 71 320 45z m1073 -659 c6 -86 -48 -224 -109
-283 -16 -15 -31 -25 -34 -23 -2 3 6 36 19 75 13 38 31 105 41 149 22 98 40
137 63 133 13 -2 18 -16 20 -51z"/>
<path d="M2075 8279 c-93 -104 -162 -249 -197 -419 -24 -114 -20 -266 12 -425
34 -171 76 -292 96 -273 10 10 23 189 24 318 1 179 17 417 36 528 9 52 31 137
50 189 49 136 45 154 -21 82z"/>
<path d="M2082 6463 c-4 -10 -7 -90 -6 -178 2 -290 89 -688 199 -905 108 -213
340 -476 513 -581 48 -29 66 -34 122 -35 79 -1 108 -15 176 -86 66 -68 104
-126 104 -158 0 -14 7 -36 16 -48 38 -54 58 19 74 263 10 150 34 431 45 520
12 92 54 475 59 538 10 106 -9 90 -109 -93 -78 -143 -121 -205 -181 -265 -72
-70 -132 -99 -222 -103 -67 -4 -79 -1 -140 29 -87 43 -191 147 -257 260 -148
251 -295 600 -316 749 -10 69 -30 110 -55 110 -8 0 -18 -8 -22 -17z"/>
<path d="M11918 6249 c-25 -46 -93 -179 -151 -295 -97 -194 -184 -350 -222
-398 -11 -15 -18 -17 -26 -9 -9 9 -7 38 5 115 19 111 33 375 22 404 -6 15 -9
15 -34 -9 -15 -15 -57 -77 -92 -137 -245 -421 -442 -639 -688 -762 -96 -49
-108 -52 -193 -56 -85 -4 -93 -3 -157 28 -92 45 -244 198 -338 340 -101 152
-239 441 -264 556 -6 26 -16 54 -22 61 -16 20 -38 15 -38 -8 0 -28 220 -813
311 -1111 149 -487 334 -976 494 -1303 93 -190 155 -282 155 -230 0 8 -29 86
-64 172 -116 286 -166 479 -166 642 0 108 19 165 62 187 40 21 84 11 211 -48
138 -64 178 -70 252 -33 98 47 234 227 424 560 167 292 299 564 389 805 82
221 188 576 180 602 -3 7 -25 -26 -50 -73z"/>
<path d="M6477 2838 c-102 -119 -96 -114 -107 -98 -5 8 -10 33 -10 56 0 48
-19 78 -45 72 -20 -3 -27 -19 -42 -93 -8 -40 -8 -40 -56 -40 -52 0 -67 -12
-67 -57 0 -29 -46 -91 -61 -82 -6 3 -9 58 -7 130 4 197 -30 193 -107 -11 -61
-163 -106 -165 -141 -5 -9 43 -20 84 -25 91 -23 38 -85 -62 -120 -196 -16 -59
-22 -113 -23 -205 -1 -119 0 -128 27 -178 15 -29 59 -149 98 -267 47 -144 75
-215 84 -215 9 0 23 27 36 72 l22 72 23 -76 c29 -98 48 -134 80 -150 22 -11
30 -26 45 -85 20 -82 55 -167 75 -184 10 -8 20 -4 44 22 35 38 41 35 64 -37
19 -57 47 -90 70 -81 9 4 30 37 48 74 28 58 37 68 61 70 35 2 71 28 178 125
47 43 89 78 92 78 3 0 3 -31 0 -70 l-6 -70 27 0 c52 0 238 212 348 398 26 43
56 86 68 97 20 18 21 18 41 -4 27 -28 50 -24 68 14 23 46 27 309 7 475 -19
162 -37 238 -75 304 -36 64 -56 77 -75 51 -11 -16 -26 -20 -68 -20 l-53 0 -9
-40 c-12 -51 -11 -49 -51 -47 -31 2 -37 -1 -49 -30 -42 -101 -46 -108 -64
-108 -23 0 -38 31 -47 96 -13 87 -43 124 -100 124 -39 0 -95 30 -108 57 -16
36 -42 28 -90 -29z"/>
</g>
</svg>
