<?xml version="1.0" standalone="no"?>
<!DOCTYPE svg PUBLIC "-//W3C//DTD SVG 20010904//EN"
 "http://www.w3.org/TR/2001/REC-SVG-20010904/DTD/svg10.dtd">
<svg version="1.0" xmlns="http://www.w3.org/2000/svg"
 width="5197.000000pt" height="6296.000000pt" viewBox="0 0 5197.000000 6296.000000"
 preserveAspectRatio="xMidYMid meet">

<g transform="translate(0.000000,6296.000000) scale(0.100000,-0.100000)"
fill="#000000" stroke="none">
<path d="M10495 62916 c-158 -52 -241 -90 -335 -150 -154 -100 -411 -386 -537
-597 -34 -57 -118 -223 -187 -369 -70 -146 -141 -287 -158 -315 -92 -145 -216
-453 -328 -810 -34 -110 -95 -304 -135 -430 -80 -251 -115 -403 -175 -765
-137 -819 -277 -2109 -345 -3155 -61 -940 -142 -1928 -206 -2510 -36 -327
-103 -674 -200 -1029 -108 -397 -208 -638 -295 -715 -106 -94 -252 -159 -417
-187 -179 -30 -286 -110 -263 -197 3 -12 28 -89 56 -172 87 -258 122 -422 159
-760 48 -430 65 -842 58 -1355 -10 -630 -43 -942 -132 -1249 -71 -245 -168
-471 -230 -539 -72 -81 -158 -76 -367 18 -211 96 -360 153 -401 153 -83 0
-108 -82 -55 -178 99 -178 170 -368 193 -509 31 -196 37 -462 36 -1701 0
-1281 -8 -1702 -31 -1730 -30 -36 -120 -4 -222 80 -78 64 -175 185 -250 312
-108 181 -223 306 -306 334 -27 9 -37 8 -58 -6 -53 -34 -53 -66 -9 -421 49
-383 90 -556 190 -794 131 -311 126 -297 123 -352 -3 -46 -6 -54 -30 -66 -36
-17 -78 1 -173 72 -185 140 -383 341 -497 508 -66 97 -140 171 -166 166 -28
-5 -26 -61 8 -244 87 -469 131 -658 206 -877 49 -141 64 -175 131 -286 64
-105 151 -286 170 -351 8 -30 40 -92 69 -138 97 -149 154 -280 154 -353 0 -33
-4 -40 -25 -45 -37 -9 -111 20 -200 80 -103 69 -150 84 -193 62 -23 -12 -34
-27 -43 -58 -15 -56 -6 -112 37 -244 127 -387 193 -1154 140 -1632 -37 -341
-85 -538 -281 -1166 -187 -598 -240 -736 -360 -941 -19 -33 -41 -83 -50 -111
-22 -76 -74 -185 -199 -418 -62 -116 -183 -344 -268 -506 -185 -352 -269 -498
-393 -685 -52 -77 -136 -223 -188 -325 -52 -102 -150 -279 -218 -395 -249
-424 -355 -621 -600 -1115 -266 -535 -304 -616 -364 -775 -75 -201 -244 -735
-285 -905 -24 -96 -70 -272 -103 -390 -89 -318 -88 -387 5 -383 92 4 362 142
628 321 138 93 311 176 368 176 40 1 48 -3 61 -26 14 -25 14 -34 -2 -95 -21
-81 -77 -200 -109 -230 -13 -12 -39 -36 -58 -52 -19 -16 -55 -64 -79 -107
-219 -391 -674 -1062 -892 -1315 -41 -48 -106 -133 -144 -190 -50 -75 -108
-142 -207 -240 -81 -80 -144 -151 -153 -172 -29 -70 -364 -411 -745 -757 -214
-194 -337 -287 -559 -422 l-61 -37 0 -85 0 -85 42 24 c57 31 204 89 473 187
121 44 272 106 335 137 221 112 387 159 404 115 26 -68 -21 -196 -106 -291
-134 -147 -280 -365 -414 -615 -68 -127 -100 -179 -193 -317 -92 -135 -260
-641 -279 -836 -10 -111 -4 -139 31 -143 23 -3 41 10 110 80 45 46 151 167
236 268 344 415 526 608 691 733 96 71 140 90 191 82 53 -9 52 -28 -16 -180
-82 -186 -144 -406 -200 -708 -116 -633 -128 -1157 -44 -1842 56 -457 140
-825 288 -1255 116 -339 166 -447 228 -487 25 -16 26 -16 48 9 13 15 26 46 30
70 18 104 67 168 130 168 41 0 79 -41 95 -103 6 -23 15 -58 20 -77 19 -74 62
-359 155 -1015 211 -1494 396 -2432 670 -3395 30 -107 67 -249 81 -315 36
-166 95 -403 148 -591 25 -88 63 -231 86 -319 23 -88 77 -268 120 -400 91
-280 121 -378 185 -610 59 -212 166 -534 257 -775 101 -265 131 -356 204 -620
111 -397 203 -660 233 -660 15 0 31 -52 40 -129 6 -46 17 -84 29 -101 34 -46
69 -122 102 -225 87 -271 106 -328 145 -430 24 -60 48 -140 53 -176 10 -68 37
-130 77 -184 42 -56 96 -176 152 -338 31 -89 76 -209 100 -267 25 -58 56 -136
70 -175 52 -147 70 -187 193 -450 146 -310 176 -381 202 -485 20 -81 121 -293
286 -597 54 -100 120 -232 146 -295 70 -165 165 -357 241 -488 37 -63 100
-182 141 -265 125 -254 173 -343 282 -525 58 -96 141 -240 185 -320 80 -147
171 -282 272 -407 116 -142 175 -222 208 -285 19 -36 84 -142 145 -234 160
-248 237 -382 465 -819 241 -462 365 -716 372 -758 15 -96 87 -274 260 -637
59 -124 152 -324 207 -445 55 -121 174 -374 265 -562 l166 -343 143 0 c79 0
145 -4 148 -9 3 -5 -8 -22 -24 -40 -17 -17 -30 -41 -30 -54 0 -48 136 -295
283 -517 118 -177 229 -319 356 -455 100 -107 128 -144 161 -213 74 -154 229
-388 416 -629 64 -82 130 -180 149 -220 20 -41 55 -92 83 -120 66 -66 114
-127 151 -193 58 -104 105 -130 237 -130 75 0 134 -8 134 -19 0 -3 -16 -16
-35 -29 -44 -28 -45 -51 -7 -135 42 -92 74 -125 128 -133 104 -15 393 27 698
102 100 25 232 54 294 65 115 19 302 26 302 11 0 -5 -14 -21 -30 -35 -17 -15
-30 -33 -30 -40 0 -6 15 -37 33 -67 18 -30 53 -92 77 -138 55 -107 68 -113
228 -122 67 -4 125 -10 129 -13 3 -4 -4 -18 -17 -32 -18 -19 -22 -31 -17 -61
8 -49 51 -112 85 -125 39 -16 190 -5 602 41 410 45 736 73 1110 95 392 23 590
50 590 80 0 31 -66 73 -222 141 -166 71 -318 183 -613 449 -294 264 -886 819
-942 882 -118 133 -152 206 -100 218 12 2 238 11 502 20 799 26 1005 45 1005
94 0 27 -27 46 -125 86 -112 46 -642 303 -830 403 -160 85 -352 209 -475 308
-333 266 -903 812 -955 915 -16 31 -26 63 -22 71 8 21 61 25 632 43 787 26
905 40 888 105 -8 31 -46 56 -121 81 -163 53 -572 252 -808 392 -349 208 -974
710 -1273 1023 -104 109 -181 213 -181 245 0 43 150 85 420 118 236 29 421 40
870 51 217 6 429 15 470 20 98 13 169 29 176 42 14 22 -25 34 -441 143 -464
121 -517 141 -1085 415 -291 140 -366 184 -403 232 -50 68 -84 96 -128 108
-56 15 -119 50 -291 162 -76 49 -171 104 -211 122 -41 19 -122 72 -187 123
-155 120 -205 153 -255 168 -56 17 -122 52 -230 121 -274 174 -375 236 -556
339 -227 131 -437 269 -636 419 -519 390 -966 811 -1183 1116 -62 86 -123 161
-288 351 -31 37 -80 106 -109 155 -93 159 -113 188 -168 247 -104 111 -296
392 -355 520 -15 34 -66 113 -112 175 -100 133 -191 283 -323 527 -54 99 -141
257 -194 350 -140 244 -181 324 -246 470 -31 72 -97 211 -145 310 -48 99 -114
248 -145 330 -131 340 -302 896 -325 1053 -24 166 -41 241 -64 294 -36 82 -56
193 -56 315 0 125 12 177 44 198 46 30 96 -7 370 -273 553 -537 934 -820 1451
-1077 335 -166 402 -229 392 -363 -8 -101 -52 -179 -166 -292 -92 -91 -113
-106 -241 -164 -27 -13 -36 -46 -26 -102 11 -56 58 -90 177 -129 60 -19 139
-50 176 -69 191 -96 595 -151 1293 -178 243 -9 424 -9 790 0 435 11 637 7 668
-11 12 -8 4 -45 -23 -98 -53 -105 -261 -332 -426 -466 -109 -88 -229 -167
-296 -193 -81 -32 -113 -64 -113 -112 0 -83 135 -180 484 -348 197 -95 242
-109 621 -194 240 -54 1091 -232 1165 -245 182 -30 727 -70 792 -57 48 9 62
34 55 98 -8 64 -52 153 -128 258 -34 47 -71 108 -84 135 -12 28 -46 82 -74
120 -120 163 -295 569 -382 888 -16 60 -45 139 -64 175 -19 37 -39 87 -45 112
-14 61 -29 513 -30 905 0 375 -16 815 -30 829 -14 14 -70 -32 -202 -165 -171
-173 -256 -213 -326 -154 -19 16 -58 82 -105 178 -52 106 -130 235 -256 425
-99 150 -185 290 -191 310 -5 20 -38 74 -72 119 -227 297 -272 360 -333 462
-78 130 -124 190 -241 312 -45 48 -91 104 -103 126 -50 99 -656 917 -802 1084
-32 36 -111 146 -175 245 -87 133 -137 198 -195 254 -79 77 -120 130 -273 354
-49 71 -143 201 -210 290 -197 262 -255 348 -392 587 -42 74 -96 162 -120 195
-57 81 -123 214 -240 485 -99 230 -187 409 -230 468 -32 45 -91 230 -159 501
-44 178 -57 247 -69 386 -16 183 -32 491 -41 814 -10 354 -29 517 -62 527 -6
3 -29 -13 -50 -35 -158 -164 -398 -858 -493 -1430 -34 -202 -64 -294 -115
-348 -43 -45 -69 -44 -94 3 -28 56 -96 304 -282 1028 -108 423 -152 845 -152
1480 0 339 20 776 44 960 6 44 13 99 16 123 5 36 2 47 -18 68 -53 57 -130 14
-374 -212 -207 -192 -271 -244 -301 -244 -173 0 -280 421 -356 1390 -19 251
-16 892 5 1110 48 475 123 791 282 1172 47 114 95 244 106 289 11 45 44 143
73 218 67 172 78 215 74 276 l-3 50 -38 -1 c-41 -1 -75 -26 -225 -159 -43 -38
-139 -120 -213 -181 -301 -249 -697 -643 -1084 -1079 -264 -298 -413 -450
-467 -479 -44 -24 -85 -16 -94 18 -13 53 67 339 191 681 97 269 139 366 188
434 59 83 98 153 215 381 141 277 224 415 353 586 54 73 147 204 205 290 151
225 281 391 488 619 183 202 265 317 251 352 -18 47 -372 -47 -655 -175 -166
-75 -250 -92 -250 -53 0 51 107 169 355 392 210 188 811 788 927 924 88 104
246 312 504 665 358 489 530 743 603 889 78 157 276 456 368 556 l37 40 8 -30
c5 -16 13 -214 18 -440 10 -488 19 -549 80 -530 45 14 178 134 455 411 160
160 364 357 455 440 90 82 228 209 305 283 155 148 283 238 415 295 47 20 110
54 140 75 73 51 310 194 492 297 134 77 227 114 283 114 26 0 45 18 45 43 0
31 -76 56 -207 69 -196 19 -538 -12 -856 -76 -231 -46 -297 -44 -297 10 0 21
23 49 98 124 134 133 194 176 299 212 48 16 136 52 195 79 136 62 201 77 386
89 297 19 999 8 1240 -21 68 -8 172 -35 375 -99 338 -106 450 -146 673 -238
164 -68 434 -157 757 -248 87 -25 269 -83 405 -130 456 -157 743 -209 1227
-221 324 -8 558 13 755 68 92 25 725 348 873 445 60 39 146 109 207 168 58 56
139 129 180 163 119 96 185 174 329 388 155 230 182 283 189 371 5 71 -13 114
-49 114 -30 0 -111 -56 -223 -153 -230 -199 -321 -195 -319 13 2 160 46 314
180 625 47 110 103 246 125 303 21 57 52 131 69 165 54 107 208 361 264 433
29 38 75 107 102 153 26 45 73 117 104 160 206 279 959 1026 1225 1217 235
167 691 411 814 434 58 11 86 26 155 80 28 22 113 72 190 112 171 87 245 133
245 152 0 8 -15 19 -32 25 -84 27 -205 32 -694 29 -367 -2 -506 0 -514 8 -15
15 41 54 169 118 214 108 487 206 656 236 402 72 1039 143 1427 159 268 12
299 19 344 80 83 113 217 412 230 511 4 30 26 111 50 180 77 226 99 470 91
1030 -6 473 -26 668 -94 949 -14 58 -26 138 -27 177 -1 61 3 76 26 111 52 79
46 78 540 78 305 0 440 3 448 11 19 19 -38 86 -378 447 -129 138 -192 229
-192 279 0 34 25 65 63 77 143 46 1133 111 1712 111 273 1 485 12 557 30 56
14 83 40 75 73 -7 24 -77 123 -233 327 -109 143 -180 274 -170 314 3 14 18 34
33 43 24 16 53 18 258 17 407 -2 500 -24 928 -218 314 -142 580 -283 693 -366
163 -121 729 -695 1029 -1045 80 -93 369 -521 540 -800 335 -545 635 -1134
850 -1665 313 -772 522 -1636 565 -2335 6 -93 16 -190 21 -215 14 -62 28 -423
29 -730 1 -338 16 -682 34 -770 10 -44 33 -103 61 -155 70 -128 73 -199 30
-591 -34 -308 -30 -873 11 -1329 43 -491 130 -870 199 -870 35 0 40 84 26 393
-17 359 -3 557 44 628 23 35 41 30 70 -21 65 -110 128 -335 145 -514 11 -119
17 -140 56 -214 14 -26 41 -93 60 -149 56 -167 150 -304 333 -489 225 -226
409 -333 672 -391 97 -22 125 -23 434 -22 587 1 799 41 1032 197 285 191 737
661 906 942 32 55 45 91 62 178 3 15 13 31 23 34 32 11 52 36 52 65 0 48 -25
45 -141 -15 -125 -66 -153 -71 -145 -29 12 62 67 519 81 677 28 317 18 496
-40 775 -45 214 -162 665 -235 910 -202 676 -304 1046 -390 1419 -22 96 -54
204 -70 240 -42 93 -62 197 -99 521 -72 627 -96 1143 -71 1522 21 300 65 646
116 903 28 141 175 662 225 797 109 297 349 779 577 1158 206 343 293 439 334
368 9 -16 15 -89 18 -238 l5 -215 295 290 c431 424 552 527 989 839 195 139
347 231 661 399 522 278 772 392 966 439 75 19 87 20 121 7 63 -24 59 -78 -11
-155 -60 -68 -118 -160 -225 -360 -113 -212 -234 -471 -272 -585 -43 -130 -38
-249 13 -265 40 -12 78 6 99 49 24 48 365 392 506 511 171 143 221 167 258
126 17 -18 17 -22 1 -71 -10 -28 -35 -80 -57 -115 -21 -35 -58 -94 -81 -131
-86 -140 -178 -370 -178 -447 0 -62 -12 -61 484 -61 l451 0 45 -26 c25 -15 83
-39 130 -54 100 -31 213 -90 353 -181 196 -128 367 -272 367 -308 0 -19 -48
-33 -165 -47 -105 -13 -166 -36 -191 -74 -27 -41 -8 -94 81 -225 109 -163 355
-666 355 -728 0 -74 64 -221 340 -772 173 -347 234 -456 318 -574 73 -101 321
-342 443 -429 198 -141 458 -247 879 -357 379 -99 561 -170 689 -269 76 -58
197 -133 365 -226 77 -43 104 -66 189 -160 237 -262 417 -514 512 -719 105
-225 225 -551 255 -694 27 -128 44 -564 32 -814 -10 -206 -15 -219 -91 -242
-27 -8 -58 -19 -69 -25 -72 -39 -54 -227 89 -907 83 -398 99 -466 139 -575 17
-45 34 -110 39 -145 6 -36 25 -95 44 -136 48 -99 182 -299 252 -376 157 -173
451 -302 755 -332 288 -29 1127 79 1450 186 138 46 379 165 510 252 139 92
251 197 286 267 30 62 28 88 -10 132 -19 22 -33 28 -64 28 -24 0 -48 -7 -59
-17 -41 -37 -339 -125 -485 -142 -81 -10 -136 7 -153 46 -29 70 12 122 195
243 302 199 780 433 981 480 127 29 325 46 644 55 318 9 453 21 466 42 16 26
-28 84 -120 158 -87 70 -164 107 -284 136 -173 42 -207 67 -178 130 46 103
534 137 913 64 355 -68 819 -329 1075 -603 111 -119 180 -242 190 -340 5 -47
2 -58 -16 -76 -26 -26 -49 -26 -126 -2 -182 57 -730 91 -807 50 -57 -31 33
-168 446 -677 435 -535 657 -884 937 -1472 84 -176 126 -282 230 -585 70 -203
139 -401 153 -439 30 -77 60 -238 110 -596 67 -465 81 -706 96 -1585 19 -1126
30 -1392 69 -1690 51 -389 75 -770 76 -1185 0 -279 -4 -387 -18 -505 -57 -482
-134 -860 -187 -928 -12 -15 -27 -60 -36 -104 -19 -102 -88 -233 -282 -532
l-152 -235 -1 -320 c0 -540 -14 -898 -38 -987 -40 -153 -177 -387 -282 -483
-117 -105 -244 -154 -464 -176 -177 -19 -468 1 -678 46 -117 25 -279 44 -320
37 -45 -7 -63 -32 -46 -65 6 -13 115 -126 243 -253 195 -194 239 -243 279
-311 122 -211 179 -457 147 -630 -42 -226 -208 -518 -410 -723 -188 -190 -631
-457 -1032 -621 -161 -67 -226 -86 -371 -110 -135 -23 -204 -51 -227 -92 -38
-70 62 -232 310 -505 71 -78 100 -118 138 -198 27 -55 101 -193 165 -307 209
-373 265 -498 426 -960 159 -456 213 -684 257 -1073 21 -191 30 -687 15 -900
-36 -520 -116 -924 -231 -1160 -38 -79 -88 -145 -110 -145 -29 0 -44 81 -70
394 -15 177 -51 372 -115 632 -66 269 -127 456 -201 616 -30 67 -62 146 -69
176 -26 99 -83 165 -124 143 -46 -25 -48 -159 -6 -430 30 -196 38 -430 32
-1005 -3 -309 -11 -640 -16 -736 -44 -736 -84 -1081 -155 -1325 -66 -227 -126
-461 -206 -800 -101 -427 -145 -574 -224 -744 -64 -137 -150 -339 -246 -574
-126 -307 -566 -1126 -703 -1308 -39 -53 -103 -150 -141 -217 -82 -144 -149
-232 -175 -232 -46 0 -133 115 -256 340 -147 267 -174 313 -259 440 -119 177
-385 510 -407 510 -31 0 -60 -165 -79 -440 -30 -448 -42 -606 -55 -725 -43
-374 -105 -633 -272 -1138 -70 -213 -87 -252 -245 -565 -227 -449 -310 -598
-374 -674 -29 -35 -81 -111 -114 -169 -118 -209 -342 -505 -527 -700 -56 -59
-111 -126 -123 -150 -41 -80 -514 -539 -870 -844 -254 -218 -298 -273 -319
-405 -17 -104 -39 -423 -51 -715 -17 -433 -43 -601 -111 -738 -17 -34 -84
-138 -149 -232 -64 -93 -161 -237 -215 -319 -119 -181 -202 -270 -431 -461
-282 -236 -291 -251 -304 -525 -14 -269 -47 -403 -144 -586 -57 -106 -117
-185 -202 -263 -138 -126 -253 -156 -564 -148 -255 7 -482 46 -725 124 -201
65 -332 131 -452 229 -110 89 -216 134 -508 218 -319 91 -328 92 -402 71 -186
-54 -350 -208 -369 -347 -6 -40 -3 -48 25 -80 85 -97 593 -397 956 -565 166
-77 501 -211 670 -269 259 -87 209 -84 1075 -84 828 0 812 -1 985 56 170 57
666 283 828 378 147 86 229 156 547 470 291 287 474 453 660 596 288 222 426
366 647 670 379 524 546 786 681 1069 41 86 71 133 116 182 90 98 317 424 696
1000 63 95 159 233 213 304 54 72 114 164 133 205 58 126 104 210 184 335 80
125 145 233 250 420 34 61 129 211 210 335 135 207 193 301 343 560 30 52 75
122 100 155 25 33 118 179 207 325 89 145 215 343 279 440 65 96 145 226 179
287 34 62 111 191 171 287 152 240 548 902 638 1066 188 341 483 967 564 1197
57 164 119 314 167 404 27 52 42 96 47 135 9 80 21 124 61 227 88 224 247 993
273 1320 17 197 70 363 133 410 25 19 31 19 88 7 126 -27 132 -11 210 555 153
1121 375 1942 714 2640 237 489 427 758 781 1108 242 240 326 304 565 432 327
175 508 313 487 369 -7 17 -172 111 -522 296 -320 170 -437 227 -505 246 -62
18 -89 45 -90 90 0 60 17 69 123 67 51 -1 165 -14 253 -28 87 -15 211 -29 275
-32 109 -5 118 -4 137 15 26 26 22 40 -32 111 -45 59 -277 276 -451 421 -203
170 -315 249 -620 440 -178 111 -226 154 -267 238 l-33 67 0 280 c0 296 7 375
51 572 52 235 133 427 269 643 44 69 232 354 418 633 534 803 611 930 871
1447 126 250 169 351 240 570 256 787 308 1676 151 2588 -31 178 -32 242 -5
267 37 34 125 -15 215 -121 109 -127 190 -164 224 -102 32 57 -34 527 -134
953 -67 285 -97 378 -169 528 -30 62 -75 171 -101 242 -87 244 -128 347 -159
393 -25 37 -30 56 -31 102 0 63 18 106 48 116 26 8 124 -60 256 -178 214 -192
330 -278 373 -278 29 0 40 33 28 87 -17 74 -66 227 -140 437 -121 342 -201
521 -267 598 -47 54 -78 103 -188 298 -112 199 -236 385 -320 480 -67 77 -86
113 -67 132 7 7 43 9 95 6 76 -4 95 -9 178 -50 167 -80 306 -200 506 -434 139
-162 227 -246 257 -242 43 6 51 47 51 263 -1 249 -17 367 -125 905 -100 500
-135 638 -259 1006 -98 294 -130 415 -118 448 6 15 9 15 35 2 36 -19 124 -113
184 -197 50 -71 96 -149 223 -384 88 -162 134 -225 167 -225 28 0 33 40 32
240 -2 199 -20 427 -60 717 -38 287 -68 430 -170 822 -120 461 -165 618 -215
748 -28 73 -42 130 -48 193 -10 95 -17 114 -50 144 -11 10 -23 35 -26 55 -11
69 -27 116 -51 148 -14 18 -77 140 -140 270 -300 616 -297 612 -615 1108 -46
71 -145 211 -220 310 -74 99 -167 227 -207 285 -85 126 -178 233 -491 569
-382 410 -491 539 -491 581 0 48 176 299 282 402 50 48 68 74 68 93 0 50 -184
213 -423 374 -268 180 -637 568 -637 670 0 32 55 86 112 111 28 12 101 33 162
45 162 35 236 64 289 113 15 14 27 33 27 42 0 21 -49 66 -127 118 -34 23 -108
79 -165 124 -57 46 -137 103 -177 127 -146 89 -207 163 -364 441 -189 337
-217 496 -292 1670 -35 547 -54 790 -70 895 -23 152 -48 452 -121 1440 -69
952 -47 1413 151 3105 61 523 75 683 75 849 0 122 -12 191 -34 191 -15 0 -91
-73 -198 -188 -66 -72 -80 -83 -105 -80 -23 2 -30 10 -41 42 -37 113 -67 810
-92 2091 -25 1332 -62 2197 -136 3235 -35 501 -50 642 -78 754 -38 147 -71
191 -116 151 -10 -9 -50 -87 -89 -173 -82 -180 -136 -267 -166 -267 -36 0 -62
103 -110 434 -114 791 -175 1148 -276 1621 -116 542 -206 892 -264 1021 -19
41 -50 133 -69 205 -19 71 -48 158 -65 193 -17 36 -35 90 -42 120 -40 199
-194 659 -317 946 -70 163 -230 591 -295 785 -66 197 -105 303 -189 505 -41
99 -103 257 -138 350 -165 449 -580 1273 -743 1475 -29 36 -90 121 -136 189
-126 187 -228 309 -411 493 -199 200 -235 223 -350 221 -166 -3 -671 -161
-990 -311 -47 -22 -196 -92 -333 -155 -276 -130 -395 -195 -607 -334 -253
-167 -554 -403 -835 -658 -205 -185 -670 -657 -930 -945 -137 -151 -319 -351
-405 -445 -190 -206 -378 -425 -536 -623 -149 -186 -630 -731 -1038 -1177 -66
-71 -172 -191 -235 -265 -64 -74 -258 -293 -431 -485 -493 -549 -1792 -2009
-2200 -2475 -232 -265 -391 -429 -485 -501 -76 -58 -109 -75 -166 -83 -25 -4
-55 -15 -66 -25 -42 -39 -67 -45 -206 -49 -138 -4 -138 -4 -201 27 -46 22 -87
56 -157 128 -93 96 -199 234 -199 259 0 7 -12 26 -26 43 -35 43 -73 42 -112
-3 -43 -49 -81 -161 -188 -551 -15 -55 -37 -124 -50 -153 -21 -47 -25 -51 -42
-41 -50 31 -142 205 -142 268 0 16 -7 34 -15 41 -37 30 -94 -32 -233 -252
-188 -297 -441 -570 -730 -788 -173 -130 -430 -258 -560 -279 -35 -6 -92 -24
-128 -41 -252 -119 -1069 -190 -2179 -190 -691 0 -1100 20 -1520 75 -104 13
-327 36 -495 50 -714 60 -1301 145 -1728 251 -207 51 -309 88 -385 140 -28 20
-155 87 -282 149 -391 192 -754 452 -1059 758 -153 154 -207 197 -247 197 -99
0 -74 -176 71 -503 33 -75 57 -146 66 -199 9 -51 25 -101 45 -137 63 -113 72
-136 76 -201 4 -68 -10 -112 -38 -118 -63 -12 -399 332 -556 568 -127 191
-461 831 -504 965 -42 133 -42 133 -89 87 -52 -52 -54 -74 -54 -632 -1 -562
-2 -570 -55 -570 -68 0 -323 337 -458 605 -97 193 -154 365 -207 632 -37 185
-61 220 -116 168 -97 -93 -201 -359 -236 -605 -27 -189 -62 -291 -110 -312
-21 -10 -28 -8 -50 13 -82 77 -337 452 -408 602 -29 62 -129 243 -222 402 -94
160 -201 346 -239 415 -140 255 -199 357 -252 438 -30 45 -112 194 -183 332
-70 137 -149 280 -174 317 -26 37 -67 97 -92 133 -25 36 -75 123 -111 195
-100 196 -160 296 -337 559 -88 133 -192 291 -231 351 -38 60 -118 169 -176
242 -58 73 -148 194 -200 269 -141 205 -318 439 -399 528 -40 43 -195 217
-344 385 -325 365 -602 656 -992 1041 -363 358 -524 508 -893 829 -385 336
-702 582 -836 651 -61 31 -209 142 -313 234 -87 76 -149 114 -377 229 -93 47
-246 132 -340 188 -178 107 -317 174 -525 254 -166 63 -470 165 -653 221
l-149 44 -926 0 -927 -1 -130 -43z m1766 -951 c128 -15 392 -77 484 -113 28
-11 147 -67 266 -125 177 -86 225 -114 265 -154 28 -28 90 -71 139 -98 164
-89 315 -199 565 -414 463 -397 1141 -1068 1547 -1531 325 -370 718 -847 850
-1030 78 -108 185 -242 293 -365 112 -128 162 -196 199 -269 29 -58 57 -94
247 -320 45 -53 92 -118 105 -144 38 -76 76 -130 174 -247 163 -197 178 -217
322 -409 79 -105 156 -216 172 -246 17 -31 70 -101 119 -157 102 -114 160
-193 227 -308 65 -110 147 -221 254 -345 54 -63 103 -131 122 -170 63 -132
245 -417 378 -594 46 -61 121 -175 169 -255 108 -184 180 -292 271 -406 40
-49 79 -106 88 -125 71 -162 184 -354 296 -501 116 -153 140 -191 242 -387 55
-108 143 -264 193 -345 186 -297 430 -776 440 -863 4 -37 0 -44 -49 -98 -72
-79 -189 -168 -355 -272 -255 -159 -517 -357 -744 -564 -511 -465 -1400 -1347
-1739 -1725 -237 -266 -774 -790 -1111 -1085 -180 -157 -251 -206 -339 -234
-133 -42 -241 -58 -371 -54 l-117 3 -99 49 c-86 43 -112 62 -200 150 -259 260
-488 748 -598 1276 -38 177 -67 282 -156 555 -109 335 -162 519 -215 745 -93
401 -221 841 -300 1033 -64 157 -138 372 -165 479 -51 196 -197 454 -454 798
-260 348 -394 423 -811 450 -297 19 -745 6 -866 -25 -215 -56 -563 -322 -790
-605 -78 -97 -87 -159 -31 -212 40 -38 90 -48 305 -58 634 -32 979 -150 1337
-460 58 -50 136 -112 173 -137 76 -50 95 -74 200 -242 39 -63 92 -142 119
-175 26 -34 71 -95 98 -136 72 -107 223 -413 243 -492 9 -37 48 -147 86 -245
79 -206 107 -293 155 -493 89 -363 136 -741 136 -1090 1 -405 100 -1891 155
-2320 30 -227 94 -450 170 -585 20 -36 74 -113 121 -172 143 -178 166 -253
101 -318 -51 -51 -97 -60 -302 -60 -182 1 -365 21 -673 75 -111 20 -114 20
-155 2 -56 -25 -92 -69 -106 -130 -11 -43 -10 -57 9 -113 25 -73 121 -269 251
-510 148 -275 166 -339 111 -392 -15 -15 -52 -35 -82 -46 -69 -23 -167 -67
-435 -191 -115 -54 -264 -121 -330 -149 -70 -30 -233 -118 -390 -211 -247
-147 -425 -242 -531 -285 -22 -9 -67 -41 -100 -71 -78 -73 -182 -152 -333
-255 -376 -255 -954 -786 -1371 -1259 -115 -131 -194 -232 -298 -381 -45 -64
-125 -172 -178 -240 -53 -68 -107 -149 -121 -179 -41 -94 -83 -170 -173 -310
-262 -405 -509 -950 -605 -1335 -25 -98 -27 -121 -22 -230 3 -75 13 -148 26
-195 35 -126 27 -180 -34 -233 -31 -28 -179 -100 -305 -150 -185 -73 -279
-115 -339 -151 -42 -26 -72 -36 -121 -41 -87 -9 -100 -13 -100 -35 0 -41 98
-98 473 -274 120 -56 205 -111 219 -142 9 -18 7 -29 -7 -51 -34 -52 -139 -155
-330 -323 -104 -92 -264 -237 -355 -321 -225 -210 -335 -307 -400 -355 -30
-23 -104 -101 -165 -173 -120 -145 -233 -244 -330 -291 -92 -43 -111 -45 -132
-13 -34 51 -14 342 53 773 36 231 63 358 236 1115 184 809 210 896 367 1253
82 188 132 331 163 473 20 91 23 131 22 329 0 318 -21 452 -133 854 -90 322
-113 474 -130 851 -20 430 26 770 225 1675 111 502 182 773 273 1031 38 110
126 461 186 744 54 258 149 637 275 1105 94 347 150 594 245 1080 52 261 162
746 265 1160 49 197 87 420 129 745 66 512 173 1332 206 1575 43 316 116 974
150 1340 46 506 65 822 75 1235 10 410 22 694 40 920 15 193 38 626 60 1125
11 256 22 508 25 560 59 1036 123 1733 176 1917 10 37 24 129 29 203 6 74 17
178 25 230 26 164 197 966 241 1130 79 293 253 758 375 1001 71 142 255 344
466 511 238 190 406 260 663 278 169 12 556 4 711 -15z m30277 -911 c107 -22
273 -86 362 -140 92 -55 218 -164 306 -264 104 -118 236 -283 241 -303 5 -16
34 -80 225 -492 122 -264 266 -649 338 -905 55 -197 139 -475 201 -669 116
-358 177 -579 274 -981 146 -613 153 -637 196 -739 31 -72 43 -117 51 -186 16
-145 17 -150 49 -198 27 -42 31 -57 39 -165 10 -133 28 -229 65 -353 44 -144
92 -345 140 -579 25 -124 68 -310 95 -415 27 -104 59 -228 70 -275 27 -119
210 -1076 260 -1365 65 -379 88 -491 114 -556 29 -70 54 -190 97 -464 17 -110
64 -378 104 -595 41 -217 92 -512 115 -655 73 -463 102 -618 170 -905 61 -256
94 -446 220 -1275 129 -849 184 -1180 221 -1335 45 -189 68 -347 79 -535 5
-93 19 -224 30 -290 41 -233 60 -425 80 -790 54 -1036 32 -2831 -46 -3624 -26
-272 -57 -362 -113 -332 -25 14 -122 135 -231 286 -181 253 -305 400 -520 619
-302 307 -526 490 -970 791 -232 157 -348 245 -441 332 -51 47 -91 76 -118 84
-22 7 -76 40 -118 74 -167 135 -653 618 -789 785 -83 103 -156 235 -238 433
-79 193 -106 278 -106 339 0 65 -21 139 -49 170 -57 64 -153 41 -166 -40 -20
-115 -109 -305 -192 -409 -64 -80 -118 -48 -207 126 -89 173 -163 400 -306
934 -275 1027 -321 1444 -322 2912 -1 949 23 1401 103 1965 109 767 362 1670
545 1942 52 78 95 174 118 262 38 143 -13 123 -439 -172 -242 -168 -306 -222
-359 -301 -25 -36 -103 -136 -174 -222 -71 -86 -164 -204 -207 -263 -88 -120
-111 -131 -145 -67 -33 64 48 313 244 746 185 409 405 825 509 963 129 170
178 304 120 326 -26 10 -109 -36 -208 -115 -112 -90 -492 -470 -644 -644 -159
-182 -338 -406 -412 -516 -34 -51 -95 -154 -135 -229 -39 -75 -92 -166 -116
-201 -57 -84 -104 -196 -188 -449 -171 -514 -197 -709 -207 -1525 -6 -529 4
-817 37 -1103 34 -292 45 -582 32 -834 -18 -334 -55 -534 -110 -599 -29 -35
-52 -37 -79 -6 -49 54 -81 156 -123 397 -51 294 -121 532 -253 865 -167 421
-391 818 -609 1080 -113 137 -412 440 -588 597 -212 190 -590 468 -1045 770
-430 285 -590 397 -784 549 -265 208 -356 217 -532 53 -49 -46 -101 -87 -114
-90 -92 -23 -145 93 -95 204 11 24 44 78 74 121 30 42 58 90 62 105 8 33 75
137 204 316 111 153 171 249 188 299 10 29 10 38 -3 50 -30 30 -184 -36 -320
-136 -106 -78 -311 -210 -577 -371 -257 -155 -353 -206 -373 -198 -28 10 -37
56 -25 120 17 85 49 152 123 255 36 50 71 108 77 128 7 21 35 70 63 108 177
244 293 412 641 930 214 319 430 636 479 705 50 69 133 188 185 265 52 77 199
280 326 450 259 346 328 444 377 535 18 34 42 65 54 70 26 10 88 90 200 259
53 80 118 163 165 210 44 44 116 135 168 212 102 152 233 316 446 564 81 94
227 265 324 380 97 116 217 255 266 310 261 294 939 990 1411 1449 578 562
843 804 1015 926 52 37 142 107 200 155 124 105 231 176 358 239 231 116 372
145 540 110z m-8912 -9404 c355 -28 516 -77 789 -242 159 -96 330 -189 555
-304 132 -67 165 -89 222 -145 59 -59 167 -133 268 -184 110 -55 600 -404 855
-608 204 -164 417 -359 680 -622 308 -307 438 -455 680 -773 223 -294 236
-312 299 -439 121 -241 124 -333 9 -275 -61 32 -138 95 -391 325 -439 399
-517 459 -713 560 -117 60 -153 82 -297 180 -31 21 -97 51 -160 71 -200 64
-385 95 -727 121 -294 23 -358 36 -395 80 -19 22 -7 146 30 327 16 81 27 154
24 163 -26 66 -265 9 -564 -135 -134 -65 -174 -80 -212 -80 -83 0 -139 71
-173 220 -67 296 -121 412 -211 452 -36 16 -50 17 -82 8 -96 -25 -192 -141
-325 -391 -75 -140 -135 -221 -181 -243 -36 -17 -38 -17 -58 1 -11 10 -54 70
-96 133 -135 206 -146 222 -210 287 -64 65 -145 113 -192 113 -35 0 -70 -26
-86 -67 -8 -19 -19 -94 -24 -168 -16 -223 -38 -295 -91 -295 -62 0 -181 88
-290 215 -61 71 -80 101 -123 195 -6 13 -31 38 -55 55 -136 95 -195 179 -233
331 -21 81 -23 113 -23 354 0 226 2 270 17 302 52 115 135 82 458 -188 231
-192 266 -213 322 -183 33 18 57 89 133 396 76 308 106 388 156 424 53 37 188
47 415 29z m-10838 -400 c52 -24 131 -101 197 -194 67 -94 168 -298 204 -410
40 -124 70 -333 78 -535 l6 -165 -59 34 c-32 18 -106 63 -164 100 -135 86
-255 154 -350 198 -90 41 -440 162 -470 162 -13 0 -24 -9 -30 -25 -14 -37 11
-105 68 -182 100 -136 193 -360 195 -473 2 -61 1 -65 -26 -78 -25 -12 -43 -10
-170 22 -223 56 -571 115 -877 150 -146 17 -321 23 -339 12 -49 -31 47 -220
216 -427 125 -152 173 -235 173 -299 0 -35 -4 -42 -27 -51 -14 -5 -45 -7 -67
-4 -769 101 -880 92 -1436 -112 -263 -96 -345 -142 -555 -312 -98 -80 -341
-318 -439 -431 -179 -205 -688 -867 -845 -1097 -34 -51 -91 -117 -125 -147
-43 -37 -95 -102 -157 -193 -141 -207 -220 -293 -269 -293 -32 0 26 140 170
412 181 338 268 481 460 753 71 101 191 272 266 382 193 280 371 515 519 683
70 80 179 209 242 288 155 193 325 375 561 599 603 571 1179 1036 1490 1202
56 30 123 72 149 93 73 57 134 86 230 108 47 12 130 38 182 59 165 66 460 146
646 175 140 22 300 20 353 -4z"/>
<path d="M37955 37594 c-320 -50 -704 -205 -1010 -410 -500 -334 -893 -708
-1151 -1095 -36 -54 -102 -170 -146 -256 -97 -191 -152 -275 -237 -366 -84
-89 -114 -109 -159 -109 -72 1 -268 99 -377 187 -111 91 -127 92 -139 10 -23
-168 114 -829 236 -1137 49 -125 120 -189 176 -159 26 14 52 81 52 132 0 81
66 184 164 253 81 58 127 76 193 76 81 0 96 -20 116 -150 9 -58 21 -190 27
-295 21 -367 46 -465 148 -573 81 -87 123 -79 193 33 76 120 148 128 530 55
315 -60 696 -86 1139 -77 311 7 436 20 625 66 235 58 424 139 610 262 61 40
151 91 200 115 114 53 165 99 308 277 63 78 141 167 173 197 43 41 67 75 95
135 52 113 123 297 174 448 54 160 84 209 207 344 54 60 117 135 139 168 35
51 40 66 36 98 -7 51 -67 175 -166 342 -45 75 -134 231 -197 348 -157 286
-224 383 -366 533 -132 139 -269 227 -374 240 -65 8 -126 44 -168 100 -92 120
-182 159 -436 189 -131 15 -554 28 -615 19z m575 -745 c36 -5 84 -19 108 -29
66 -30 204 -142 337 -275 142 -141 215 -238 215 -283 0 -93 -191 -189 -451
-228 -277 -40 -595 23 -694 139 -19 21 -51 71 -72 110 -35 66 -38 78 -38 152
0 66 5 90 27 137 63 135 224 249 391 277 73 12 103 12 177 0z m-1404 -340 c18
-20 19 -47 26 -413 3 -215 11 -423 17 -461 24 -164 73 -264 184 -381 195 -206
521 -344 811 -344 237 1 590 120 825 280 103 70 155 94 187 86 46 -12 39 -77
-21 -196 -93 -183 -235 -355 -363 -438 -200 -129 -522 -190 -874 -164 -411 29
-704 124 -918 298 -52 42 -111 87 -132 100 -58 37 -130 142 -213 309 -82 165
-114 265 -140 430 -24 149 -17 394 14 509 27 100 82 214 128 261 73 75 255
138 414 144 25 1 42 -5 55 -20z"/>
<path d="M21058 37214 c-270 -33 -571 -138 -623 -218 -33 -51 25 -86 141 -86
128 0 227 -31 197 -61 -6 -6 -34 -19 -61 -28 -27 -10 -121 -65 -208 -123 -88
-59 -224 -143 -304 -189 -181 -102 -327 -199 -495 -324 -193 -145 -294 -209
-450 -285 -146 -71 -330 -186 -379 -238 -22 -24 -27 -36 -22 -57 4 -14 71 -92
149 -173 225 -234 506 -587 527 -663 20 -72 314 -495 473 -681 36 -42 104
-106 150 -141 194 -152 475 -306 607 -333 48 -10 127 -40 221 -84 80 -38 169
-74 198 -81 29 -6 94 -28 145 -50 172 -71 392 -94 856 -86 331 5 458 18 562
56 29 11 114 42 188 69 191 71 351 118 525 154 136 29 167 32 340 32 230 1
237 -1 350 -130 108 -124 156 -159 216 -159 79 0 101 31 205 290 31 77 70 181
86 230 35 102 119 237 219 350 146 166 226 292 255 406 17 66 13 107 -16 192
-28 81 -33 161 -16 252 9 44 16 85 16 91 0 8 -56 13 -177 17 -196 5 -242 15
-353 73 -36 19 -98 61 -138 95 -71 59 -99 90 -322 359 -138 166 -335 392 -448
513 -101 109 -427 406 -529 483 -358 270 -913 471 -1466 529 -178 18 -460 18
-619 -1z m1545 -899 c122 -32 271 -130 431 -285 129 -125 181 -219 162 -295
-25 -100 -237 -196 -498 -225 -237 -27 -462 54 -630 227 -186 192 -134 361
157 504 170 84 268 103 378 74z m-1460 -342 l67 -6 0 -216 c1 -276 16 -633 30
-691 6 -25 33 -79 59 -120 27 -41 63 -103 80 -138 55 -110 169 -199 421 -331
180 -94 228 -105 398 -97 232 11 343 42 622 176 216 104 352 152 413 148 39
-3 42 -5 40 -32 -5 -64 -147 -274 -275 -405 -167 -172 -416 -286 -702 -321
-120 -15 -375 -8 -494 14 -732 135 -1200 574 -1262 1184 -20 194 21 449 99
617 57 121 116 180 214 211 46 14 183 18 290 7z"/>
<path d="M40044 32382 c-51 -38 -183 -178 -223 -238 -17 -26 -36 -65 -41 -85
-6 -20 -31 -63 -56 -96 -156 -202 -191 -251 -261 -373 -42 -74 -132 -231 -200
-348 -187 -324 -254 -449 -357 -667 -51 -110 -148 -304 -214 -430 -67 -127
-174 -343 -237 -480 -120 -259 -164 -339 -192 -350 -10 -3 -28 2 -43 13 -60
45 -233 341 -270 464 -12 39 -52 108 -117 206 -55 81 -141 216 -192 299 -51
84 -125 196 -165 248 -232 304 -501 544 -529 471 -17 -44 244 -694 398 -991
45 -88 120 -248 165 -355 86 -204 245 -571 326 -750 72 -163 197 -487 304
-795 54 -154 125 -350 158 -436 34 -85 86 -240 117 -345 88 -300 144 -466 171
-504 26 -37 58 -59 87 -60 35 0 59 112 82 390 90 1107 258 2116 454 2743 26
84 74 235 105 337 167 540 344 1040 455 1287 23 51 46 119 51 150 6 34 31 100
59 158 27 55 69 154 92 220 44 125 89 223 120 264 22 28 26 81 6 81 -8 0 -32
-13 -53 -28z"/>
<path d="M20186 31277 c-33 -24 1 -79 174 -283 41 -49 128 -161 192 -250 64
-88 163 -210 220 -271 188 -200 689 -950 760 -1135 29 -78 48 -110 82 -144 40
-40 97 -138 238 -409 223 -428 428 -873 428 -927 0 -13 27 -77 59 -143 39 -77
99 -232 167 -430 201 -585 209 -613 240 -832 3 -18 16 -46 30 -62 28 -33 38
-80 54 -246 5 -60 22 -164 36 -230 81 -382 112 -536 174 -867 38 -202 76 -381
85 -398 36 -69 73 -8 75 120 1 113 23 352 95 1030 147 1381 159 1481 291 2295
113 697 148 904 208 1202 56 277 65 363 42 398 -9 14 -21 25 -26 25 -24 0 -98
-84 -204 -233 -212 -299 -332 -429 -445 -487 -106 -53 -262 -62 -394 -23 -163
48 -379 213 -767 588 -91 87 -435 427 -765 755 -678 673 -991 970 -1024 970
-4 0 -15 -6 -25 -13z"/>
<path d="M43475 30133 c-15 -40 -25 -257 -35 -783 -12 -660 -23 -881 -50 -983
-29 -115 -162 -369 -314 -602 -211 -322 -453 -550 -811 -764 -156 -94 -268
-150 -345 -173 -33 -9 -120 -13 -330 -13 -243 0 -294 3 -348 18 -132 37 -222
90 -422 247 -109 86 -174 125 -190 115 -41 -25 25 -190 340 -850 215 -449 288
-614 306 -688 9 -34 40 -114 69 -177 104 -224 167 -442 184 -638 14 -154 60
-285 110 -312 17 -8 25 -4 54 33 93 115 331 482 389 601 51 101 183 315 258
414 59 79 97 143 263 437 52 94 137 233 187 310 101 153 243 431 334 650 86
208 130 296 175 347 51 57 59 80 70 188 6 53 18 104 30 128 47 92 122 429 145
652 62 584 67 1645 9 1807 -10 29 -35 53 -53 53 -10 0 -21 -8 -25 -17z"/>
<path d="M32020 27050 c-217 -15 -536 -69 -820 -140 -85 -21 -207 -50 -270
-64 -148 -33 -212 -55 -330 -115 -511 -257 -1245 -918 -1585 -1427 -113 -168
-256 -471 -339 -718 -154 -456 -171 -846 -55 -1241 32 -107 125 -337 187 -460
72 -145 133 -245 392 -645 356 -549 386 -600 620 -1040 289 -545 696 -976
1176 -1244 160 -89 509 -241 599 -261 17 -3 60 -24 97 -46 85 -52 139 -68 262
-79 75 -6 106 -14 127 -29 36 -26 122 -47 264 -62 207 -21 320 -63 405 -150
116 -118 154 -291 148 -674 -4 -235 -10 -269 -61 -323 -40 -43 -110 -69 -468
-177 -606 -182 -802 -251 -1074 -378 -174 -81 -234 -104 -309 -118 -147 -26
-562 -176 -761 -274 -122 -60 -340 -135 -667 -229 -117 -34 -568 -134 -853
-190 -321 -63 -432 -71 -950 -71 -476 0 -619 9 -817 51 -418 88 -1031 316
-1174 437 -53 46 -163 119 -319 212 -189 113 -320 205 -400 280 -38 36 -99 84
-135 106 -228 146 -333 228 -590 464 -275 253 -719 716 -921 960 -296 359
-897 1234 -1064 1550 -71 134 -104 183 -170 255 -71 77 -124 150 -180 250 -77
136 -217 335 -453 644 -118 153 -151 211 -152 259 0 37 38 74 86 82 76 12 87
16 117 46 28 28 29 33 23 82 -15 115 -102 324 -187 448 -93 137 -331 293 -574
375 -98 33 -121 37 -210 38 -112 0 -179 -12 -311 -55 -182 -59 -323 -147 -445
-277 -132 -141 -163 -234 -90 -276 29 -16 60 -21 169 -26 l135 -5 34 -130 c19
-71 81 -296 138 -500 126 -450 138 -493 165 -620 38 -174 220 -724 311 -937
99 -235 156 -379 174 -443 29 -105 177 -465 243 -595 82 -160 182 -376 284
-610 96 -221 148 -326 194 -393 63 -92 348 -672 388 -792 9 -26 50 -96 90
-154 90 -131 144 -220 254 -420 123 -225 201 -348 316 -501 56 -74 143 -196
193 -270 162 -240 321 -419 902 -1019 411 -423 611 -605 1026 -931 272 -213
467 -390 645 -585 264 -289 393 -487 460 -703 22 -69 23 -92 40 -477 18 -399
69 -974 106 -1195 43 -252 113 -378 338 -609 139 -141 258 -235 319 -252 112
-29 446 -201 507 -260 46 -45 76 -101 119 -224 77 -219 189 -400 342 -553 101
-101 192 -169 379 -283 305 -184 401 -275 369 -350 -15 -37 -73 -72 -157 -95
-55 -15 -73 -16 -132 -6 -90 15 -225 65 -289 106 -28 18 -70 36 -92 40 -55 9
-119 43 -216 115 -94 70 -220 152 -314 204 -225 124 -806 637 -1238 1090 -190
200 -289 319 -426 512 -59 83 -131 179 -159 215 -74 92 -196 267 -439 630
-308 461 -410 601 -618 852 -47 56 -98 121 -112 143 -50 75 -561 596 -1188
1210 -726 712 -907 905 -1178 1255 -243 313 -393 557 -474 766 -42 109 -80
185 -118 239 -17 24 -33 64 -40 100 -6 33 -35 112 -64 175 -122 265 -190 606
-260 1315 -33 332 -58 516 -101 738 -19 98 -34 180 -34 183 0 2 -13 4 -30 4
-24 0 -36 -9 -61 -42 -134 -184 -177 -452 -186 -1151 -7 -558 18 -951 78
-1193 35 -143 17 -179 -68 -135 -72 36 -151 110 -315 294 -90 100 -242 267
-338 372 -96 105 -323 355 -505 555 -482 533 -533 584 -592 596 -16 3 -36 0
-47 -9 -18 -13 -18 -15 2 -60 12 -26 72 -127 136 -225 139 -218 205 -325 281
-462 57 -103 144 -237 299 -455 43 -60 88 -133 101 -161 45 -101 225 -350 349
-483 75 -79 108 -126 184 -256 22 -38 68 -101 101 -140 34 -38 106 -126 162
-195 55 -69 130 -163 168 -210 227 -282 1447 -1579 2516 -2674 1140 -1167
1482 -1547 1997 -2216 91 -118 197 -250 234 -293 158 -179 185 -212 294 -367
293 -416 338 -476 422 -577 115 -140 382 -418 523 -547 214 -195 351 -284 710
-461 350 -173 535 -240 1120 -409 311 -90 404 -121 640 -215 194 -78 295 -129
445 -224 52 -33 132 -78 176 -99 70 -33 86 -45 114 -87 38 -60 104 -122 159
-150 22 -12 160 -93 307 -182 379 -229 540 -313 863 -450 548 -233 653 -260
1121 -280 290 -12 675 0 825 26 170 30 340 92 584 215 339 170 716 490 1152
980 356 399 761 972 936 1323 113 227 273 610 273 655 0 10 19 48 42 83 61 95
85 160 201 550 455 1521 532 2038 567 3789 20 1013 30 1294 55 1490 26 204 46
256 161 426 36 54 86 139 110 189 87 184 578 889 776 1116 82 94 181 229 290
394 47 72 103 147 124 169 55 57 117 166 286 501 83 165 174 343 203 395 124
221 470 1303 715 2230 252 953 509 1744 630 1937 49 77 80 145 131 286 68 188
103 332 103 427 1 77 -2 92 -32 152 -41 84 -86 122 -177 151 -63 20 -91 22
-280 22 -250 0 -305 -12 -421 -93 -204 -144 -231 -287 -254 -1302 -26 -1186
-53 -1462 -200 -2035 -80 -311 -142 -477 -300 -800 -366 -748 -932 -1497
-1334 -1767 -269 -180 -602 -278 -946 -278 -328 0 -756 102 -1235 295 -408
164 -687 240 -1102 299 -268 39 -409 84 -456 148 -36 49 -46 186 -27 379 23
234 74 403 152 502 16 20 38 59 48 86 37 103 194 300 335 423 205 177 305 236
510 301 319 101 494 160 525 176 66 33 335 184 400 224 399 246 1024 860 1197
1177 65 119 123 208 167 257 53 59 72 95 79 151 3 24 17 61 31 83 41 62 68
284 101 849 40 701 54 1641 27 1900 -36 344 -86 520 -210 740 -146 259 -284
451 -437 609 -188 194 -350 307 -665 465 -495 247 -685 300 -1540 430 -530 80
-720 101 -1175 126 -260 14 -913 20 -1065 10z m1730 -990 c552 -19 1015 -61
1547 -140 534 -79 889 -262 1020 -527 34 -69 38 -85 38 -152 0 -100 -25 -151
-129 -259 -171 -178 -281 -220 -931 -357 -338 -71 -523 -118 -590 -151 -118
-58 -278 -221 -407 -413 -175 -262 -252 -501 -252 -781 0 -210 26 -314 127
-515 160 -315 310 -469 617 -633 202 -108 259 -119 699 -132 700 -22 742 -38
663 -265 -90 -257 -356 -491 -771 -676 -217 -97 -449 -167 -841 -254 -113 -25
-236 -54 -275 -65 -153 -44 -184 -20 -234 181 -28 116 -45 243 -80 599 -17
168 -53 535 -81 815 -76 764 -178 1664 -195 1723 -42 139 -149 97 -214 -83
-111 -306 -174 -1017 -206 -2295 -21 -847 -52 -1158 -121 -1184 -22 -8 -85 30
-154 95 -122 114 -221 162 -523 254 -594 180 -1059 351 -1241 455 -251 143
-560 440 -662 633 -48 91 -50 139 -9 174 25 22 35 25 76 20 27 -3 92 -25 146
-47 203 -86 281 -99 678 -107 441 -9 568 11 760 119 240 134 389 288 507 523
98 194 101 206 106 490 4 273 -11 657 -34 854 -11 100 -21 139 -45 191 -17 36
-40 92 -51 125 -28 84 -96 182 -180 260 -108 100 -110 100 -528 98 -475 -2
-564 -18 -780 -135 -282 -155 -534 -350 -845 -656 -306 -302 -497 -432 -633
-432 -91 0 -245 117 -321 243 -71 119 -85 170 -85 297 0 205 67 383 211 562
43 53 93 123 112 155 72 123 110 172 226 288 140 141 283 258 416 340 120 74
375 198 645 313 537 229 752 282 1504 372 140 17 316 40 390 52 74 11 167 24
205 28 108 11 422 11 725 0z m1613 -10278 c109 -30 190 -76 275 -157 132 -124
251 -331 360 -625 87 -233 124 -428 159 -820 21 -245 24 -1083 5 -1345 -45
-607 -89 -871 -209 -1260 -93 -304 -294 -902 -346 -1030 -154 -381 -546 -1174
-830 -1677 -52 -92 -102 -194 -111 -225 -21 -72 -56 -144 -73 -150 -21 -8
-114 -138 -189 -263 -231 -385 -773 -914 -1109 -1082 -162 -82 -498 -186 -686
-214 -139 -20 -487 -15 -644 10 -344 55 -617 158 -825 311 -58 42 -136 95
-175 117 -217 126 -324 216 -681 572 -303 304 -349 357 -615 721 -209 286
-243 339 -318 499 -32 67 -79 154 -104 193 -48 74 -74 126 -102 206 -9 26 -33
71 -52 100 -54 78 -162 307 -251 532 -109 272 -193 468 -235 545 -45 82 -87
203 -193 558 -47 155 -102 326 -124 379 -22 53 -44 119 -49 147 -10 55 -55
176 -95 254 -28 55 -69 189 -86 282 -6 36 -45 182 -86 325 -99 343 -107 379
-144 590 -48 276 -88 462 -121 555 -34 99 -57 221 -98 513 -48 335 -73 572
-74 702 -2 106 1 126 21 172 39 84 59 97 165 104 51 3 169 15 262 27 94 12
370 40 615 62 245 22 666 62 935 90 1433 145 1867 167 2215 110 165 -27 650
-37 1010 -21 530 24 920 61 1480 141 190 27 395 54 455 59 61 6 124 13 140 15
17 2 125 3 240 1 177 -2 222 -6 288 -23z"/>
<path d="M18604 25430 c-100 -40 -261 -406 -385 -875 -73 -276 -121 -385 -170
-385 -60 0 -154 74 -399 314 -469 461 -524 509 -579 504 -23 -2 -37 -9 -39
-19 -6 -30 360 -601 502 -781 236 -302 334 -458 522 -833 304 -606 462 -1070
467 -1370 1 -75 -2 -97 -20 -130 -26 -48 -205 -226 -250 -249 -74 -37 -241 -8
-401 69 -259 124 -490 338 -814 752 -76 98 -187 237 -247 308 -242 292 -470
634 -471 706 0 30 -17 49 -42 49 -121 0 112 -717 345 -1062 36 -53 108 -173
158 -265 189 -344 277 -457 711 -919 328 -349 482 -468 678 -521 50 -14 103
-18 235 -18 210 0 229 7 345 124 135 137 210 268 255 446 82 322 48 704 -125
1424 -135 559 -199 911 -242 1321 -21 203 -17 824 6 1035 24 210 26 345 7 368
-15 19 -17 19 -47 7z"/>
<path d="M9824 24975 c-27 -70 142 -323 310 -465 158 -133 415 -462 391 -500
-3 -6 -39 -10 -80 -10 -58 0 -100 8 -197 39 -235 75 -522 126 -573 103 -33
-15 -24 -35 32 -68 48 -28 137 -100 238 -193 93 -85 218 -181 236 -181 21 0
134 -81 239 -171 144 -125 207 -171 440 -329 240 -162 279 -192 405 -308 105
-97 216 -180 328 -246 94 -56 110 -69 175 -145 20 -25 113 -105 207 -180 187
-149 294 -241 430 -370 189 -180 453 -371 515 -371 56 0 -133 283 -369 553
-111 127 -288 319 -491 532 -304 320 -497 546 -484 567 9 15 78 3 188 -32 142
-46 483 -183 610 -246 132 -65 200 -78 230 -45 17 18 18 26 8 60 -13 42 -69
98 -194 194 -42 31 -156 135 -254 229 -266 255 -453 407 -774 628 -121 83
-320 231 -508 378 -37 28 -105 71 -152 94 -141 70 -259 138 -365 208 -223 149
-475 290 -518 290 -9 0 -20 -7 -23 -15z"/>
<path d="M43099 18712 c-103 -67 -526 -473 -750 -722 -240 -267 -308 -379
-248 -411 40 -21 108 1 288 91 189 95 239 112 260 86 35 -42 -6 -119 -249
-476 -376 -551 -542 -813 -746 -1178 -64 -114 -159 -272 -212 -352 -61 -91
-109 -177 -130 -230 -18 -47 -49 -119 -69 -160 -19 -41 -66 -165 -103 -275
-37 -110 -98 -275 -134 -368 -100 -253 -186 -562 -186 -669 0 -61 15 -100 37
-96 45 8 114 132 323 578 102 217 413 818 543 1050 174 309 525 875 666 1075
128 181 207 299 245 366 45 81 120 180 250 330 54 63 142 173 197 244 107 142
176 224 463 547 293 331 399 483 366 523 -20 24 -90 18 -212 -21 -178 -56
-357 -97 -428 -98 l-65 -1 3 83 c5 119 -21 140 -109 84z"/>
</g>
</svg>
