<?xml version="1.0" standalone="no"?>
<!DOCTYPE svg PUBLIC "-//W3C//DTD SVG 20010904//EN"
 "http://www.w3.org/TR/2001/REC-SVG-20010904/DTD/svg10.dtd">
<svg version="1.0" xmlns="http://www.w3.org/2000/svg"
 width="474.000000pt" height="380.000000pt" viewBox="0 0 474.000000 380.000000"
 preserveAspectRatio="xMidYMid meet">

<g transform="translate(0.000000,380.000000) scale(0.100000,-0.100000)"
fill="#000000" stroke="none">
<path d="M1338 3791 c-1 -5 -66 -51 -143 -101 -513 -339 -881 -721 -1066
-1105 -56 -116 -109 -272 -109 -321 0 -13 -4 -24 -10 -24 -6 0 -10 -60 -10
-160 0 -88 4 -160 8 -160 5 0 16 -32 25 -70 20 -84 81 -210 145 -300 115 -162
330 -336 545 -439 180 -87 188 -81 50 39 -153 133 -312 298 -382 396 -79 110
-154 263 -182 369 -27 102 -36 271 -19 372 35 220 171 484 387 753 149 187
519 533 730 684 40 28 72 57 72 64 1 14 -36 17 -41 3z"/>
<path d="M3350 3786 c0 -7 51 -52 113 -98 243 -186 511 -436 680 -638 181
-216 327 -465 383 -655 35 -121 44 -313 20 -434 -60 -295 -251 -553 -657 -888
-14 -11 -20 -9 -43 14 -45 45 -59 89 -60 183 0 130 40 274 146 524 32 77 68
171 79 210 25 91 42 280 34 371 -28 307 -166 606 -388 841 -49 52 -91 93 -93
91 -2 -2 27 -64 65 -138 165 -322 235 -574 235 -844 0 -178 -9 -225 -79 -448
-30 -92 -61 -202 -70 -242 -13 -59 -22 -77 -43 -91 -52 -34 -145 -130 -183
-187 -22 -35 -42 -79 -47 -110 -28 -155 -35 -184 -48 -212 l-15 -30 30 32 c21
22 38 60 56 120 36 122 44 142 79 193 36 54 138 180 145 180 4 0 5 -48 3 -107
-6 -198 51 -321 170 -363 36 -13 40 -12 165 49 339 166 588 425 675 701 12 41
26 77 30 78 11 5 10 372 0 372 -5 0 -15 26 -21 58 -27 120 -102 289 -193 436
-198 318 -629 716 -1063 982 -44 27 -81 52 -83 56 -6 13 -22 9 -22 -6z"/>
<path d="M1093 3216 c-187 -195 -314 -434 -370 -696 -13 -63 -18 -125 -17
-240 1 -186 22 -278 107 -478 168 -391 194 -605 90 -715 -22 -22 -24 -27 -9
-27 9 0 41 24 71 54 73 72 90 129 90 293 0 141 -4 140 89 18 87 -112 92 -122
121 -226 34 -121 69 -189 98 -189 6 0 2 9 -7 19 -11 12 -25 63 -37 132 -12 68
-31 135 -46 167 -27 54 -106 142 -181 203 -38 30 -45 41 -57 99 -7 36 -32 124
-55 195 -93 284 -114 440 -91 645 27 226 132 533 260 759 23 41 40 76 38 78
-2 2 -45 -39 -94 -91z"/>
<path d="M1477 2500 c-61 -22 -112 -51 -162 -96 -34 -30 -35 -30 65 18 100 48
157 62 235 56 63 -6 192 -56 216 -84 6 -8 16 -14 22 -14 24 0 -62 73 -119 101
-82 41 -176 48 -257 19z"/>
<path d="M3023 2505 c-58 -17 -122 -57 -158 -96 l-30 -32 45 27 c152 92 279
98 438 20 101 -50 103 -50 62 -14 -104 92 -246 130 -357 95z"/>
<path d="M1485 2365 c-33 -14 -62 -25 -64 -25 -13 0 12 -121 34 -165 63 -130
201 -175 343 -114 46 19 47 19 55 -31 2 -14 5 9 6 51 1 93 -18 162 -63 221
-67 87 -191 112 -311 63z"/>
<path d="M3031 2364 c-60 -30 -102 -81 -125 -152 -18 -55 -25 -134 -15 -177 7
-29 7 -29 8 8 0 20 3 37 5 37 2 0 24 -9 48 -20 173 -76 330 10 370 204 15 68
8 77 -75 106 -80 28 -151 26 -216 -6z"/>
<path d="M1529 1363 c-23 -61 -59 -198 -78 -295 -92 -484 -12 -840 214 -947
69 -33 170 -39 271 -16 44 9 87 21 96 26 14 7 29 1 66 -28 26 -21 72 -49 102
-63 30 -14 57 -28 58 -32 5 -12 222 -10 222 2 0 6 7 10 15 10 23 0 93 37 150
80 l50 37 55 -20 c43 -16 81 -21 170 -21 108 -1 118 1 169 27 105 56 177 158
216 307 23 89 31 330 15 470 -6 62 -23 159 -36 217 -27 122 -73 277 -80 270
-2 -2 3 -82 12 -178 9 -97 17 -269 17 -389 0 -240 -16 -353 -69 -470 -89 -199
-287 -226 -638 -85 -61 25 -111 43 -113 41 -5 -5 95 -71 181 -119 l79 -45 -39
-20 c-99 -49 -170 -64 -282 -60 -91 4 -118 9 -181 36 -41 17 -78 35 -84 41 -5
5 17 23 60 47 81 45 186 114 181 120 -2 2 -47 -15 -100 -36 -215 -89 -399
-115 -498 -72 -151 66 -220 262 -220 629 0 125 23 477 36 536 3 15 3 27 0 27
-4 0 -11 -12 -17 -27z"/>
<path d="M2184 985 c-127 -27 -204 -94 -224 -191 -13 -62 -7 -100 26 -165 26
-53 127 -150 187 -181 179 -91 388 -51 532 103 60 65 85 119 85 192 0 132 -73
210 -229 243 -83 17 -295 17 -377 -1z"/>
<path d="M1625 631 c-7 -12 12 -24 25 -16 11 7 4 25 -10 25 -5 0 -11 -4 -15
-9z"/>
<path d="M3092 628 c6 -18 28 -21 28 -4 0 9 -7 16 -16 16 -9 0 -14 -5 -12 -12z"/>
<path d="M1784 609 c-10 -17 13 -36 27 -22 12 12 4 33 -11 33 -5 0 -12 -5 -16
-11z"/>
<path d="M1920 600 c0 -11 7 -20 15 -20 8 0 15 9 15 20 0 11 -7 20 -15 20 -8
0 -15 -9 -15 -20z"/>
<path d="M2795 610 c-8 -14 3 -30 21 -30 8 0 14 9 14 20 0 21 -24 28 -35 10z"/>
<path d="M2934 609 c-10 -17 13 -36 27 -22 12 12 4 33 -11 33 -5 0 -12 -5 -16
-11z"/>
<path d="M1700 495 c0 -8 7 -15 15 -15 8 0 15 7 15 15 0 8 -7 15 -15 15 -8 0
-15 -7 -15 -15z"/>
<path d="M3020 494 c0 -9 5 -14 12 -12 18 6 21 28 4 28 -9 0 -16 -7 -16 -16z"/>
<path d="M1840 485 c-11 -13 -11 -19 3 -33 20 -19 41 -5 35 24 -4 24 -22 28
-38 9z"/>
<path d="M2870 484 c-11 -12 -10 -18 3 -32 16 -15 18 -15 34 0 13 14 14 20 3
32 -7 9 -16 16 -20 16 -4 0 -13 -7 -20 -16z"/>
<path d="M1971 461 c-15 -10 -8 -41 9 -41 15 0 25 29 14 40 -5 5 -15 5 -23 1z"/>
<path d="M2751 456 c-8 -10 -7 -17 3 -26 17 -13 36 -6 36 15 0 19 -27 26 -39
11z"/>
<path d="M1757 374 c-14 -15 -6 -34 14 -34 14 0 19 5 17 17 -3 18 -20 27 -31
17z"/>
<path d="M2967 374 c-14 -14 -7 -35 11 -32 9 2 17 10 17 17 0 16 -18 25 -28
15z"/>
<path d="M1890 355 c0 -8 7 -15 15 -15 8 0 15 7 15 15 0 8 -7 15 -15 15 -8 0
-15 -7 -15 -15z"/>
<path d="M2830 355 c0 -9 5 -15 11 -13 6 2 11 8 11 13 0 5 -5 11 -11 13 -6 2
-11 -4 -11 -13z"/>
</g>
</svg>
