<?xml version="1.0" standalone="no"?>
<!DOCTYPE svg PUBLIC "-//W3C//DTD SVG 20010904//EN"
 "http://www.w3.org/TR/2001/REC-SVG-20010904/DTD/svg10.dtd">
<svg version="1.0" xmlns="http://www.w3.org/2000/svg"
 width="1409.000000pt" height="1086.000000pt" viewBox="0 0 1409.000000 1086.000000"
 preserveAspectRatio="xMidYMid meet">

<g transform="translate(0.000000,1086.000000) scale(0.100000,-0.100000)"
fill="#000000" stroke="none">
<path d="M6380 10693 c73 -280 197 -638 275 -793 75 -150 68 -166 -33 -76
-413 369 -770 490 -1401 473 -277 -7 -468 -29 -656 -78 l-150 -38 170 7 c385
16 739 0 992 -44 101 -17 190 -42 198 -54 8 -13 -108 -20 -495 -30 -201 -5
-401 -14 -445 -20 -330 -43 -606 -144 -904 -329 -355 -222 -588 -453 -996
-990 -301 -395 -609 -674 -1205 -1091 -712 -497 -1065 -864 -1220 -1268 -63
-163 -93 -362 -125 -822 -28 -415 -36 -514 -51 -630 -40 -310 -98 -469 -260
-718 -41 -62 -74 -115 -74 -118 0 -15 161 142 216 211 162 202 261 505 328
1005 14 102 34 257 46 345 51 388 97 513 210 570 27 14 54 25 60 25 19 0 10
-45 -30 -165 -79 -233 -123 -441 -199 -925 -28 -179 -60 -370 -70 -425 -11
-55 -18 -101 -17 -103 7 -7 75 127 109 213 19 50 63 178 97 285 34 107 86 272
116 367 62 193 83 228 86 142 9 -246 -82 -662 -212 -959 -57 -133 -203 -353
-370 -560 -101 -125 -104 -132 -40 -85 128 92 180 134 255 211 157 157 271
316 368 510 58 116 87 154 87 115 0 -55 -39 -166 -106 -300 -83 -168 -155
-278 -263 -406 -42 -49 -83 -99 -91 -110 -14 -19 -14 -19 5 -4 11 9 63 50 115
91 124 98 273 236 405 375 105 111 161 160 171 150 13 -13 -115 -221 -227
-368 -95 -126 -205 -225 -378 -342 -49 -33 -70 -53 -59 -55 24 -5 148 39 276
98 83 38 121 50 148 48 35 -3 38 -6 49 -52 11 -44 22 -60 50 -69 10 -4 12
-101 6 -337 -4 -127 7 -186 32 -178 19 7 36 49 56 149 33 158 75 261 165 407
32 51 59 92 60 90 2 -2 -5 -79 -15 -173 -29 -279 -32 -276 64 -90 45 88 93
176 106 195 31 45 73 90 83 90 18 0 6 -64 -31 -167 -51 -143 -74 -247 -111
-493 -32 -221 -34 -240 -22 -240 12 0 62 82 141 230 137 255 339 534 538 740
116 120 174 163 194 143 17 -17 -19 -78 -111 -188 -231 -278 -511 -746 -486
-811 6 -15 11 -13 37 12 17 16 83 94 147 174 130 162 198 234 212 225 12 -7
-16 -59 -71 -135 -23 -30 -79 -120 -127 -200 -116 -197 -176 -285 -229 -335
l-44 -42 26 -31 c14 -17 69 -59 123 -95 228 -151 196 -181 -80 -72 -190 75
-210 73 -112 -11 31 -27 52 -50 46 -52 -5 -1 -40 4 -77 13 -92 21 -94 20 -39
-22 67 -49 114 -95 114 -109 0 -6 -9 -14 -21 -17 -19 -5 -19 -7 -5 -34 8 -15
40 -57 71 -93 76 -89 102 -146 124 -276 21 -125 48 -211 121 -379 140 -328
372 -675 451 -675 23 0 63 -23 148 -85 19 -14 38 -25 44 -25 18 0 -3 64 -37
115 -51 78 -69 115 -54 115 27 0 82 -44 201 -158 147 -142 237 -208 237 -174
0 5 -27 40 -60 78 -106 122 -141 167 -135 172 6 6 99 -57 300 -203 185 -135
285 -185 247 -125 -15 25 -15 40 0 40 7 0 65 -25 130 -56 130 -62 203 -80 196
-48 -2 10 -30 40 -63 66 -60 49 -82 75 -71 86 13 13 117 -31 244 -103 73 -41
136 -75 140 -75 3 0 -43 51 -104 112 -115 118 -184 196 -184 210 0 24 27 10
230 -119 53 -34 116 -66 140 -73 49 -13 310 -117 322 -129 4 -3 -40 -44 -97
-89 -58 -46 -105 -90 -105 -97 0 -14 15 -11 225 50 88 25 175 33 175 15 0 -13
-69 -59 -173 -115 -48 -26 -86 -49 -84 -51 5 -5 329 43 417 61 39 8 86 15 103
15 l32 -1 -40 -36 c-22 -20 -94 -66 -159 -103 -66 -37 -122 -73 -124 -80 -3
-9 1 -11 13 -6 39 15 323 56 387 56 52 0 68 -3 68 -14 0 -18 -32 -41 -172
-123 l-113 -65 60 6 c33 4 111 9 173 13 141 8 142 4 33 -90 -76 -66 7 -59 352
28 275 69 457 107 497 103 l31 -3 -23 -31 c-13 -17 -52 -56 -88 -85 l-64 -54
89 -3 c117 -4 205 16 379 85 89 35 142 51 148 45 6 -6 0 -28 -16 -60 -35 -68
-34 -86 1 -77 15 3 135 60 266 126 132 66 242 118 245 114 3 -3 -8 -35 -26
-71 -18 -35 -32 -73 -32 -84 0 -17 3 -18 27 -9 15 5 71 39 125 74 119 78 151
95 179 95 24 0 24 -6 -12 -88 -16 -37 -20 -55 -12 -63 16 -16 76 13 158 76 85
65 121 83 136 68 6 -6 14 -50 16 -97 4 -54 10 -86 17 -86 6 0 31 25 55 56 32
41 49 54 64 52 12 -2 58 -45 107 -101 l85 -97 6 98 c7 110 14 142 33 142 20 0
84 -46 141 -99 88 -83 91 -82 46 7 -22 45 -41 91 -41 102 0 28 12 24 170 -51
116 -55 180 -72 180 -50 0 6 -22 36 -48 68 -68 83 -82 104 -82 130 0 31 9 29
70 -12 29 -19 54 -35 57 -35 5 0 -1 31 -13 73 -7 24 31 23 97 -3 119 -47 557
-145 517 -116 -9 7 -53 32 -97 56 -84 45 -151 101 -151 125 0 20 15 19 102 -4
95 -26 214 -44 258 -39 l35 3 -33 18 c-18 10 -31 24 -29 30 6 17 123 14 237
-6 86 -15 321 -24 308 -12 -3 3 -44 17 -92 31 -92 26 -156 53 -156 65 0 12 62
16 139 8 110 -11 287 -11 377 2 151 21 190 50 115 84 -42 18 -58 42 -42 58 5
5 49 14 98 19 109 12 246 49 335 90 69 31 125 79 114 97 -10 16 34 39 114 62
82 22 122 41 163 75 33 27 57 31 57 9 0 -15 -35 -50 -130 -134 l-35 -30 75 23
c103 32 168 62 286 134 106 65 134 74 134 45 0 -42 -92 -117 -272 -225 -144
-86 -205 -137 -195 -163 10 -26 84 -16 221 29 60 20 123 36 140 36 l31 -1 -22
-18 c-12 -10 -67 -44 -123 -76 -56 -31 -100 -59 -98 -61 8 -8 262 39 383 71
279 73 469 154 609 259 49 37 91 65 93 62 19 -19 -92 -143 -262 -294 -44 -39
-77 -74 -73 -77 9 -10 181 82 287 152 93 63 267 229 346 333 101 130 115 65
26 -117 -61 -125 -63 -136 -21 -121 50 17 132 101 210 214 107 155 132 157 82
6 -47 -141 -42 -179 15 -105 16 21 41 56 55 79 128 200 289 681 305 911 3 50
9 97 13 104 13 20 55 2 141 -63 128 -96 183 -180 264 -402 26 -69 50 -126 54
-126 9 1 131 154 164 207 72 116 105 263 113 508 6 204 11 245 29 245 34 0 40
-40 41 -280 0 -268 1 -270 14 -270 35 0 50 144 58 537 6 291 11 347 27 331 12
-12 36 -156 59 -364 25 -220 31 -254 46 -254 18 0 30 99 30 242 0 230 -29 524
-71 736 -11 56 -19 110 -17 120 3 15 6 14 25 -5 28 -28 65 -147 102 -330 32
-153 54 -237 71 -263 38 -59 53 190 26 409 -23 177 -195 951 -245 1102 -23 68
-66 174 -96 235 -55 111 -67 154 -42 154 19 0 57 -44 120 -138 30 -46 57 -80
60 -75 9 16 -24 116 -77 231 -66 143 -75 192 -34 192 33 0 99 -76 142 -165 49
-101 80 -191 106 -313 12 -53 23 -98 26 -101 7 -8 4 139 -6 276 -19 245 -71
493 -169 794 -58 177 -60 190 -30 163 70 -63 232 -485 343 -893 31 -111 60
-210 65 -219 42 -75 0 296 -65 573 -67 281 -159 536 -295 808 -85 171 -99 207
-81 207 29 0 94 -99 227 -345 53 -99 107 -193 119 -210 19 -27 21 -28 24 -9 6
45 -103 312 -275 669 -64 132 -135 285 -158 340 -70 171 -336 542 -576 805
-171 187 -181 226 -34 129 42 -27 79 -48 82 -46 8 9 -121 139 -262 265 -444
396 -1044 830 -1455 1052 -343 185 -396 215 -493 279 -166 110 -236 191 -155
179 31 -5 31 -5 11 11 -154 121 -214 171 -300 255 -57 54 -103 103 -103 108 0
7 25 8 68 3 l67 -7 -20 22 c-86 96 -841 612 -1061 724 -168 86 -379 120 -699
113 -439 -10 -787 -103 -1075 -288 -91 -58 -184 -102 -207 -97 -9 2 -85 98
-170 213 -173 238 -322 429 -329 423 -2 -3 7 -42 21 -86 14 -45 36 -119 50
-164 14 -45 24 -89 23 -98 -3 -16 -96 102 -228 290 -137 195 -288 376 -352
421 l-27 19 39 -147z m2438 -699 c213 -31 415 -95 604 -189 124 -62 200 -115
217 -151 21 -45 48 -71 166 -159 148 -110 315 -259 585 -520 391 -378 451
-421 780 -549 427 -167 567 -245 710 -393 85 -88 85 -88 55 -91 -16 -1 -122
20 -234 48 -216 53 -321 71 -321 52 0 -21 103 -99 242 -183 144 -87 295 -170
622 -340 432 -224 565 -355 962 -938 76 -113 143 -211 148 -219 11 -18 24 -27
-198 120 -98 65 -185 118 -194 118 -18 0 -5 -16 121 -156 103 -114 199 -248
253 -354 37 -73 38 -78 40 -190 2 -122 8 -150 116 -570 53 -201 64 -260 50
-245 -19 18 -88 147 -275 510 -186 362 -269 514 -337 615 -42 62 -77 97 -87
87 -10 -11 41 -156 128 -362 123 -292 152 -385 106 -346 -8 6 -52 64 -97 129
-172 243 -206 290 -301 413 -317 408 -743 839 -1043 1053 -73 53 -106 67 -106
48 0 -14 50 -80 144 -187 275 -317 514 -747 743 -1335 60 -154 107 -299 100
-307 -3 -3 -192 230 -312 385 -26 34 -50 60 -52 58 -2 -2 -10 -45 -18 -96 -8
-51 -16 -95 -20 -98 -18 -18 -44 54 -140 378 -98 333 -171 559 -227 703 -27
70 -51 127 -53 127 -2 0 -1 -235 2 -522 3 -288 3 -545 -1 -571 -7 -44 -9 -47
-21 -30 -7 10 -17 14 -21 10 -13 -12 -23 -131 -24 -277 -1 -130 -10 -213 -24
-228 -19 -18 -44 66 -56 186 -9 86 -26 122 -50 107 -9 -6 -11 -28 -7 -76 5
-60 -2 -85 -17 -61 -12 20 -37 173 -51 317 -25 252 -50 375 -85 407 -23 22
-40 79 -40 135 0 95 -71 526 -113 685 -27 101 -48 114 -67 41 l-12 -48 -33
130 c-89 349 -362 1057 -555 1440 -209 415 -328 561 -694 849 -273 215 -390
284 -641 375 -328 119 -458 147 -635 137 -249 -13 -532 -115 -772 -277 -156
-106 -388 -358 -400 -434 -3 -17 2 -20 30 -17 31 2 33 0 26 -20 -17 -56 -54
-115 -79 -126 -20 -9 -82 -11 -239 -6 -243 7 -264 3 -497 -85 l-134 -50 -52
37 c-210 147 -291 187 -453 218 -100 20 -269 19 -356 -1 -197 -45 -479 -256
-634 -473 -222 -311 -424 -733 -499 -1042 -53 -218 -65 -337 -65 -615 0 -252
6 -333 49 -660 76 -572 83 -908 29 -1395 -26 -234 -56 -390 -75 -390 -14 0
-45 76 -82 202 -18 59 -34 108 -38 108 -3 0 -13 -57 -23 -127 -56 -413 -147
-772 -283 -1118 -65 -165 -113 -303 -113 -323 0 -47 93 102 209 334 90 182
160 354 191 469 30 110 40 115 40 18 0 -98 -20 -216 -65 -390 -73 -280 -157
-493 -297 -761 l-86 -162 49 41 c194 162 350 451 454 841 67 250 149 433 286
638 126 189 300 352 412 385 32 9 88 15 151 14 l101 -1 -127 -43 c-164 -56
-237 -96 -312 -170 -108 -106 -187 -254 -296 -555 -49 -136 -73 -188 -163
-365 -20 -38 -66 -153 -102 -255 -120 -334 -243 -553 -407 -726 -95 -99 -200
-177 -302 -225 -63 -30 -166 -62 -174 -55 -2 2 56 43 128 91 136 90 306 241
298 266 -8 25 -28 19 -154 -46 -71 -37 -123 -61 -118 -54 6 8 32 40 58 73 81
100 55 106 -132 32 -163 -65 -264 -91 -420 -107 -130 -13 -361 -7 -410 11 -60
22 -37 36 156 90 74 21 93 42 50 54 -13 4 -117 11 -233 16 -154 7 -231 14
-290 29 -116 30 -375 161 -375 190 0 12 143 93 345 194 215 109 364 196 510
300 448 318 778 683 868 962 9 28 21 91 26 140 11 108 35 173 104 280 197 309
419 1115 286 1044 -10 -5 -19 -19 -19 -30 0 -51 -198 -504 -229 -523 -13 -9
28 106 93 258 174 406 264 857 306 1546 32 521 83 843 175 1110 48 141 227
500 313 630 184 276 332 393 794 626 l269 135 111 -51 c137 -62 274 -152 391
-256 140 -125 201 -174 215 -174 54 0 -304 380 -493 522 -241 183 -484 213
-886 109 -202 -52 -334 -107 -454 -187 -188 -126 -409 -336 -438 -416 -14 -40
28 -14 116 70 100 94 179 158 270 216 85 54 278 149 388 190 111 41 303 96
333 96 20 -1 20 -2 -3 -21 -14 -11 -92 -55 -175 -96 -282 -143 -511 -318 -786
-599 -202 -206 -301 -339 -390 -519 -131 -265 -102 -261 105 14 226 301 572
646 835 833 82 58 306 181 321 176 7 -2 -44 -46 -112 -98 -231 -176 -372 -317
-497 -498 -290 -419 -459 -1000 -627 -2152 -155 -1067 -311 -1513 -723 -2070
-39 -52 -69 -97 -66 -99 7 -8 72 49 222 194 126 122 152 143 152 123 0 -37
-103 -235 -165 -318 -172 -229 -439 -489 -492 -478 -14 3 1 23 67 89 47 47
112 108 145 137 l60 51 -95 1 c-121 0 -187 -18 -404 -110 -91 -39 -171 -70
-177 -68 -12 4 95 138 207 258 48 52 83 95 77 97 -6 2 -38 -3 -71 -11 -71 -19
-102 -20 -102 -5 0 7 81 93 179 193 244 246 300 318 376 479 46 97 78 205 95
322 15 99 25 475 14 475 -14 0 -79 -70 -154 -165 -127 -159 -205 -248 -249
-281 -24 -19 -46 -32 -49 -29 -7 6 41 78 93 140 137 162 315 508 315 612 0 27
-3 32 -15 26 -25 -14 -90 -107 -172 -244 -42 -71 -89 -143 -105 -161 -27 -31
-28 -31 -22 -8 3 14 55 123 115 243 160 323 288 661 373 987 38 145 89 396 84
409 -4 10 -258 -61 -433 -120 -388 -131 -754 -321 -995 -516 -91 -74 -238
-225 -303 -312 -133 -178 -208 -362 -358 -876 -108 -369 -214 -684 -226 -671
-3 2 4 60 16 128 40 235 54 481 31 518 -15 23 -43 0 -57 -46 -6 -21 -20 -66
-30 -99 -19 -63 -120 -276 -147 -310 -15 -20 -15 -19 -16 8 0 15 9 67 19 115
30 131 51 335 58 545 5 155 4 187 -8 187 -7 0 -55 -42 -106 -92 -57 -57 -93
-86 -93 -76 0 9 26 90 59 180 119 331 151 459 120 485 -30 25 -173 -54 -264
-147 -47 -47 -75 -62 -75 -40 0 20 42 95 90 160 117 158 289 288 755 570 461
278 651 417 871 635 147 146 281 307 423 510 301 429 391 546 583 755 119 129
284 282 417 384 300 232 663 409 981 477 90 20 135 23 320 23 191 0 233 -3
372 -27 210 -37 487 -107 570 -145 82 -37 130 -71 233 -161 109 -97 132 -95
74 7 -17 30 -28 56 -26 58 2 3 99 -93 216 -211 121 -125 213 -211 215 -203 11
36 36 315 36 399 0 53 -7 131 -16 174 -9 42 -14 78 -12 81 3 2 63 -56 135
-129 94 -95 132 -141 138 -165 5 -23 -1 -56 -19 -115 -33 -106 -46 -176 -46
-248 0 -97 10 -91 130 81 126 181 294 328 508 447 188 104 446 189 657 216 83
11 337 6 433 -9z m180 -323 c315 -61 618 -231 854 -480 286 -300 515 -727 819
-1523 257 -673 491 -1449 563 -1864 43 -246 70 -799 55 -1116 -9 -206 -16
-243 -45 -243 -15 0 -20 10 -26 49 -9 62 -28 85 -51 61 -22 -21 -37 -79 -37
-142 0 -29 -3 -53 -7 -53 -5 0 -32 46 -60 103 -104 205 -356 457 -548 548 -72
35 -119 36 -202 8 -59 -20 -144 -80 -132 -94 4 -3 59 -10 122 -15 105 -8 255
-45 315 -79 21 -12 10 -16 -128 -42 -136 -26 -134 -35 10 -38 80 -2 156 -16
177 -32 33 -28 -21 -56 -170 -88 -49 -11 -91 -21 -93 -23 -2 -3 44 -15 104
-27 134 -28 282 -97 362 -169 30 -27 52 -53 47 -58 -4 -4 -55 7 -113 25 -65
20 -110 29 -116 23 -9 -9 15 -43 141 -198 92 -114 114 -166 119 -287 6 -149
-22 -272 -103 -442 -55 -114 -124 -221 -206 -314 -117 -135 -148 -175 -143
-183 10 -16 114 -7 200 17 49 14 138 50 198 81 60 30 110 53 112 51 3 -2 -5
-15 -16 -30 -21 -26 -27 -57 -11 -57 24 0 62 22 125 74 71 58 95 66 116 41 12
-15 11 -49 -6 -183 l-7 -52 30 6 c26 5 31 2 37 -18 15 -52 18 -191 7 -313 -17
-182 -44 -312 -101 -483 -27 -82 -54 -179 -61 -217 -13 -80 -27 -110 -63 -144
-44 -41 -56 -24 -56 77 0 99 -8 152 -22 152 -5 0 -17 -14 -26 -31 -9 -17 -25
-41 -34 -53 -17 -21 -17 -21 -31 -1 -8 10 -32 73 -53 140 -127 406 -294 687
-565 951 -130 125 -235 204 -391 291 -67 37 -144 89 -171 114 l-48 46 20 52
c10 28 46 95 78 149 94 154 132 271 153 463 14 123 6 226 -26 337 -30 102 -30
125 -1 145 l22 15 -52 50 c-139 136 -414 200 -658 154 -60 -12 -136 -26 -167
-31 -31 -6 -75 -19 -98 -31 -29 -15 -40 -17 -40 -7 0 23 74 139 143 221 102
123 127 158 121 167 -12 21 -114 -53 -241 -173 -74 -71 -140 -128 -148 -128
-16 0 -25 31 -25 88 0 51 -14 48 -37 -9 -8 -22 -20 -38 -26 -36 -6 2 -21 44
-32 94 -21 89 -46 143 -65 143 -19 0 -33 -45 -33 -104 1 -34 2 -117 3 -186 2
-102 -1 -135 -16 -179 -24 -69 -48 -85 -75 -52 -16 20 -24 23 -37 15 -33 -21
-44 -81 -38 -208 l6 -118 -23 6 c-65 18 -67 18 -67 3 0 -8 12 -40 26 -72 18
-40 23 -60 16 -67 -14 -14 -62 6 -93 38 -27 29 -55 33 -44 7 13 -33 18 -83 8
-83 -9 0 -62 37 -154 108 -23 17 -46 32 -51 32 -50 0 128 -280 248 -389 108
-99 268 -176 654 -316 475 -171 846 -338 1036 -463 82 -54 211 -169 201 -179
-2 -2 -35 14 -72 36 -87 51 -216 83 -342 84 -71 0 -97 -3 -118 -17 l-27 -18
24 -25 c35 -38 120 -93 258 -167 142 -77 321 -194 395 -258 28 -24 81 -76 119
-116 l70 -72 -166 80 c-153 74 -366 155 -377 144 -11 -11 33 -37 176 -102 162
-74 243 -118 243 -131 0 -18 -51 -20 -216 -9 -191 13 -237 7 -242 -30 -4 -26
16 -36 99 -52 121 -23 327 -149 439 -266 105 -111 96 -117 -74 -50 -61 25
-128 52 -148 61 -21 8 -38 11 -38 6 0 -4 50 -62 111 -127 61 -66 137 -154 170
-197 91 -120 79 -137 -41 -57 -73 49 -103 59 -115 41 -3 -5 22 -62 55 -127 33
-64 60 -122 60 -129 0 -6 -11 -17 -25 -23 -26 -12 -28 -17 -25 -100 2 -73 -20
-81 -70 -24 -73 86 -98 33 -63 -140 l6 -29 -92 56 c-120 72 -262 167 -332 222
-107 83 -98 51 39 -142 47 -66 89 -125 94 -131 6 -8 -18 -32 -72 -73 -75 -57
-85 -61 -133 -61 -69 0 -130 36 -334 197 -172 136 -191 149 -204 136 -23 -23
58 -168 157 -281 54 -61 61 -59 -111 -37 -183 22 -206 37 -449 274 -355 346
-531 467 -888 607 -270 106 -335 167 -372 347 -20 94 -20 128 -2 152 13 19 16
19 48 3 19 -9 56 -35 82 -57 27 -23 51 -40 53 -37 3 3 0 26 -6 51 -21 85 5 86
95 5 42 -38 75 -60 90 -60 33 0 30 15 -11 66 -19 23 -35 48 -35 54 0 17 54 3
130 -35 150 -74 260 -105 260 -72 0 17 -110 118 -189 174 -2 2 36 44 86 95
171 178 200 316 106 508 -54 110 -186 239 -308 302 -451 231 -1060 163 -1358
-150 -160 -169 -154 -342 21 -577 85 -115 112 -172 112 -239 0 -48 -5 -60 -44
-113 -74 -101 -80 -123 -31 -123 26 0 96 49 168 118 26 26 47 43 47 38 0 -4
-7 -31 -15 -59 -8 -29 -21 -80 -29 -115 l-14 -63 59 53 c169 150 188 157 202
71 12 -74 29 -76 93 -8 29 30 55 55 59 55 19 0 -36 -338 -57 -351 -6 -4 -66
-22 -132 -39 -150 -40 -272 -83 -357 -125 -177 -90 -354 -238 -474 -399 -89
-120 -188 -228 -299 -329 -159 -142 -334 -267 -376 -267 -17 0 -11 38 14 88
13 27 27 65 31 85 11 55 -14 58 -78 9 -75 -58 -191 -114 -246 -120 -99 -9
-105 51 -22 225 84 179 70 185 -89 38 -117 -109 -290 -215 -351 -215 -72 0
-47 54 170 363 184 263 243 355 239 369 -6 17 -113 -78 -227 -200 -119 -129
-250 -244 -322 -286 -115 -66 -86 3 180 417 45 71 76 125 69 121 -7 -4 -60
-47 -118 -94 -257 -212 -404 -287 -506 -259 -70 20 -83 97 -38 219 15 39 24
74 20 78 -4 3 -26 -16 -49 -43 -65 -78 -149 -165 -159 -165 -17 0 -7 37 32
115 51 101 145 232 242 338 81 89 114 134 105 144 -15 15 -55 -5 -242 -124
-89 -57 -125 -72 -125 -51 0 7 92 103 205 213 113 110 205 206 205 213 0 17
-25 10 -102 -29 -64 -32 -78 -35 -78 -16 0 23 97 213 142 280 104 154 295 302
532 412 107 50 125 61 105 66 -13 4 -106 7 -207 8 -101 1 -181 5 -178 10 3 4
75 28 160 52 87 24 149 47 143 51 -7 4 -57 8 -112 8 -112 0 -175 13 -175 36 0
45 289 122 709 190 50 8 33 14 -67 24 -94 10 -233 49 -267 75 -17 13 -18 16
-5 25 18 12 126 45 312 96 76 21 136 40 133 42 -2 3 -60 -1 -127 -7 -173 -17
-284 -19 -299 -4 -37 37 93 112 316 182 195 62 403 107 670 147 135 19 255 43
275 52 34 17 35 18 32 69 -3 60 10 73 73 73 63 0 75 13 75 78 0 83 11 94 52
56 91 -86 124 -62 71 52 -25 53 -28 70 -28 169 0 146 20 208 145 460 116 231
140 310 140 451 0 101 -14 132 -25 57 -22 -149 -86 -311 -150 -381 -41 -46
-50 -49 -75 -27 -14 13 -19 13 -28 2 -12 -14 -52 -159 -52 -189 0 -36 -17 -23
-90 65 l-75 91 -7 -130 c-7 -139 -31 -250 -74 -343 -44 -97 -73 -114 -151 -92
-41 12 -54 -1 -42 -42 10 -36 3 -67 -14 -67 -28 1 -41 22 -49 80 -11 84 -58
168 -130 235 -82 76 -129 106 -310 201 -213 112 -288 162 -386 257 -45 44 -83
76 -83 71 -1 -5 0 -17 1 -27 5 -54 -53 -57 -178 -11 -76 29 -105 23 -123 -23
l-11 -28 -32 38 c-33 40 -46 40 -46 0 0 -31 -35 -32 -44 0 -29 109 -42 1519
-17 1892 60 897 372 1578 828 1808 28 15 91 39 140 53 77 24 106 27 233 28
140 1 210 -11 210 -35 0 -18 -44 -47 -110 -73 -82 -32 -130 -73 -130 -110 0
-39 31 -50 124 -43 l81 6 -38 -22 c-170 -97 -265 -181 -352 -312 -63 -94 -112
-192 -102 -202 4 -3 56 41 115 99 59 57 128 119 154 137 117 78 217 102 258
61 63 -63 -19 -134 -340 -295 -282 -141 -365 -200 -479 -339 -143 -174 -134
-210 25 -110 249 158 519 243 749 235 52 -1 39 -12 -74 -57 -107 -43 -222
-115 -366 -231 -113 -91 -265 -245 -265 -268 0 -29 48 -16 99 28 76 65 441
260 456 245 7 -7 -40 -56 -122 -127 -136 -118 -269 -318 -336 -506 -25 -70
-67 -248 -67 -282 0 -10 22 20 48 67 134 238 355 515 559 700 66 60 151 116
161 106 6 -6 -63 -106 -142 -204 -236 -298 -364 -590 -431 -983 -51 -306 -30
-296 100 46 112 291 234 534 347 687 124 169 260 300 291 281 13 -8 1 -70 -34
-177 -16 -50 -36 -129 -44 -176 -36 -203 -36 -611 -1 -761 19 -83 34 -121 44
-115 5 3 12 91 16 195 10 281 36 481 76 586 24 62 25 52 70 -535 15 -186 38
-378 52 -419 30 -95 37 91 24 699 -6 284 -5 412 2 405 13 -13 50 -201 102
-520 47 -286 68 -385 81 -385 15 0 10 112 -16 323 -54 441 -70 823 -40 942 11
41 36 90 80 155 77 113 114 209 115 296 0 101 44 129 165 104 66 -14 85 -30
133 -116 18 -32 85 -124 149 -204 64 -80 141 -183 171 -230 119 -184 231 -423
312 -670 46 -139 63 -207 111 -442 30 -150 43 -131 36 51 -12 302 -112 717
-240 996 -40 87 -77 179 -77 191 0 33 148 -96 227 -198 87 -114 216 -347 304
-554 23 -54 80 -198 125 -319 46 -121 83 -215 84 -210 0 6 -7 65 -15 130 -26
206 -50 312 -121 538 -48 153 -45 185 8 82 88 -172 252 -609 309 -821 52 -195
96 -254 92 -123 -1 65 -10 117 -83 471 -39 195 -48 268 -32 268 14 0 96 -183
136 -301 20 -59 56 -187 80 -284 55 -221 67 -237 102 -133 14 42 16 75 11 192
-8 205 -64 423 -158 621 -103 217 -229 359 -656 743 -89 81 -161 147 -159 149
1 2 72 -29 157 -68 329 -152 622 -269 672 -269 45 0 7 31 -155 129 -113 68
-208 139 -208 157 0 18 -4 19 92 -16 141 -51 141 -44 5 98 -149 155 -303 372
-343 484 -25 72 -5 62 181 -87 77 -62 175 -138 218 -168 117 -84 548 -359 554
-354 6 7 -117 144 -222 247 -47 47 -110 112 -138 144 -64 74 -54 69 176 -83
235 -155 255 -164 218 -93 -30 59 -142 179 -309 333 -144 134 -196 189 -177
189 12 0 172 -69 275 -118 235 -113 381 -224 682 -519 114 -112 212 -203 217
-203 35 0 -157 301 -385 605 -152 203 -246 310 -284 324 -38 13 -30 36 9 26
14 -3 58 -19 98 -35 83 -34 93 -36 93 -14 0 60 -405 321 -673 433 -66 27 -73
47 -21 57 60 11 161 -4 314 -46 142 -39 210 -49 210 -31 0 15 -88 75 -165 113
-88 44 -264 106 -420 148 -120 32 -161 47 -152 56 3 3 48 16 100 29 112 27
139 40 135 63 -4 23 -74 41 -208 52 -122 10 -221 3 -349 -25 -78 -17 -127 -17
-124 0 0 6 99 47 220 92 120 45 214 82 208 82 -5 1 -50 -4 -100 -9 -125 -14
-262 -53 -378 -107 -53 -26 -99 -44 -102 -41 -3 3 16 23 42 45 195 163 459
272 738 303 114 13 326 3 443 -19z m-793 -432 c9 -14 -5 -24 -190 -135 -163
-98 -245 -157 -245 -176 0 -17 61 -1 265 67 203 68 291 89 302 72 7 -12 -12
-27 -97 -74 -36 -20 -73 -43 -83 -52 -18 -15 -18 -16 0 -22 10 -4 46 -8 81 -8
54 -1 122 -21 122 -36 0 -3 -11 -12 -24 -20 -16 -11 -63 -19 -148 -24 -126 -8
-180 -23 -186 -52 -3 -19 46 -42 143 -66 39 -9 63 -19 55 -20 -8 -2 -49 -9
-90 -16 -91 -15 -100 -31 -39 -73 57 -39 35 -42 -99 -10 -59 14 -145 30 -192
36 -123 17 -125 17 -161 47 -66 56 -87 158 -49 241 41 91 204 218 350 273 131
50 270 73 285 48z m-1137 -512 c19 -15 10 -139 -12 -172 -21 -32 -73 -45 -176
-45 -103 0 -134 13 -138 57 -2 25 5 40 32 70 37 41 119 91 170 104 38 10 105
2 124 -14z m503 -203 c7 -9 13 -37 13 -64 0 -55 -16 -80 -50 -80 -53 0 -73 92
-29 135 28 29 47 31 66 9z m29 -331 c24 -41 102 -224 97 -229 -6 -6 -102 121
-124 164 -43 85 -19 143 27 65z m-195 -112 c68 -36 247 -158 330 -226 60 -50
-3 -24 -187 78 -195 106 -278 159 -278 177 0 22 62 8 135 -29z m-3995 -650 c0
-105 -223 -698 -465 -1236 -329 -733 -707 -1238 -1280 -1711 l-60 -49 54 60
c30 33 96 106 146 162 219 241 261 321 365 698 88 315 204 556 380 790 75 99
134 167 289 336 58 62 100 114 94 116 -17 6 -100 -39 -169 -90 -144 -109 -384
-392 -505 -595 -81 -136 -131 -212 -139 -212 -19 0 25 127 120 343 28 66 49
121 47 123 -2 3 -29 -17 -58 -44 -67 -61 -167 -226 -310 -512 -56 -113 -104
-200 -106 -194 -6 17 102 323 158 444 106 232 230 440 304 510 36 34 65 79 65
100 0 5 -10 10 -22 10 -30 0 -193 -169 -277 -286 -122 -171 -186 -342 -316
-844 -108 -418 -199 -663 -276 -739 -65 -65 -69 -23 -15 159 39 135 129 530
171 755 143 767 402 1129 1111 1553 159 95 670 372 687 372 4 0 7 -9 7 -19z
m8962 -1238 c91 -135 217 -353 288 -498 239 -490 598 -1452 760 -2040 37 -137
96 -433 86 -442 -2 -2 -39 56 -82 129 -125 211 -242 358 -285 358 -20 0 -3
-69 76 -309 106 -324 132 -422 105 -406 -6 4 -33 41 -62 83 -61 93 -87 122
-106 122 -20 0 -10 -44 38 -174 41 -107 113 -346 107 -352 -2 -2 -50 49 -107
113 -100 111 -154 158 -172 147 -16 -10 -7 -88 27 -227 44 -183 84 -361 80
-365 -1 -1 -38 40 -81 92 -99 119 -109 124 -101 54 l6 -53 -27 32 c-15 17 -54
76 -86 130 -92 151 -213 331 -273 405 -80 98 -104 100 -77 7 9 -30 33 -99 54
-154 45 -121 54 -155 40 -155 -20 0 -112 156 -216 370 -58 118 -120 244 -137
279 -18 36 -36 64 -42 62 -29 -6 3 -156 90 -423 30 -91 55 -181 55 -200 l-1
-33 -30 35 c-29 34 -82 124 -185 315 -53 99 -65 96 -44 -9 37 -192 214 -541
370 -731 87 -106 95 -126 94 -225 -1 -95 -26 -225 -56 -283 -34 -68 -55 -34
-57 91 -1 39 -5 72 -11 72 -5 0 -21 -39 -35 -87 -57 -194 -108 -309 -164 -373
l-31 -35 16 45 c26 78 46 295 48 517 0 116 -2 214 -6 218 -3 3 -16 0 -27 -7
-30 -18 -36 -5 -57 112 -37 211 -152 538 -175 499 -6 -12 1 -47 23 -115 30
-94 31 -108 32 -262 l1 -163 -33 -27 c-26 -22 -34 -38 -43 -87 -16 -89 -82
-255 -96 -242 -3 3 7 69 22 145 28 139 28 176 2 166 -29 -11 -39 26 -48 173
-6 81 -12 149 -14 151 -5 6 -25 -72 -39 -153 -14 -78 -16 -75 -41 55 -43 223
-175 679 -209 725 -15 19 -15 19 -16 -12 0 -17 23 -119 50 -227 65 -254 82
-366 82 -551 0 -160 -15 -279 -58 -440 -44 -163 -45 -160 35 -77 l70 73 -20
-48 c-50 -114 -181 -281 -212 -270 -8 3 -11 32 -8 95 3 79 1 93 -14 98 -29 11
-63 -13 -94 -68 -17 -29 -31 -50 -31 -46 0 4 29 89 65 189 77 214 101 323 114
519 17 251 -10 430 -66 438 -15 2 -27 18 -42 53 -25 58 -71 253 -71 301 0 47
36 119 139 276 189 291 226 388 327 857 46 218 47 217 35 -61 -9 -185 -6 -244
9 -244 4 0 21 31 38 69 17 38 36 72 41 75 13 9 6 -34 -40 -244 -50 -229 -56
-274 -38 -269 23 7 101 175 146 314 50 156 75 252 102 405 34 186 37 190 45
61 4 -63 10 -120 13 -128 23 -60 56 68 113 442 17 109 32 200 33 201 1 2 36
-57 76 -129 89 -157 121 -210 126 -205 2 2 -11 66 -30 143 -19 76 -33 140 -31
142 1 2 21 -23 44 -55 64 -92 117 -217 244 -582 l88 -255 -5 90 c-10 149 -24
469 -22 472 6 5 142 -300 163 -364 36 -111 44 -213 44 -558 0 -320 -10 -520
-31 -625 -6 -31 -9 -69 -7 -85 l4 -30 17 38 c23 49 70 244 99 404 20 114 23
161 23 423 0 230 -4 325 -18 430 -55 403 -129 658 -319 1095 -94 215 -259 550
-353 715 -81 142 -91 160 -81 160 3 0 29 -35 58 -77z m-9136 -554 c-14 -107
-88 -268 -185 -404 -115 -162 -254 -317 -621 -690 -341 -347 -457 -474 -551
-606 -73 -103 -99 -121 -99 -69 0 71 70 225 178 392 88 136 116 187 108 195
-8 8 -72 -35 -161 -106 -127 -103 -229 -174 -233 -161 -2 6 8 36 23 67 53 108
264 306 668 627 322 255 572 482 766 694 56 61 105 112 108 112 3 0 3 -23 -1
-51z m8214 -925 c15 -39 12 -200 -6 -305 -36 -208 -117 -441 -234 -666 -76
-147 -196 -336 -236 -374 l-26 -24 7 25 c4 14 47 108 95 210 179 373 274 663
324 982 16 99 41 178 57 178 5 0 14 -12 19 -26z m250 -88 c0 -90 -30 -272 -63
-381 -101 -331 -315 -710 -497 -879 -61 -56 -113 -90 -131 -84 -9 3 8 25 137
180 197 236 311 491 474 1058 23 80 46 153 51 162 19 36 29 16 29 -56z m-8079
-196 c-89 -149 -223 -291 -360 -379 -35 -22 -68 -41 -73 -41 -18 0 28 62 122
165 107 118 339 339 347 331 3 -3 -13 -37 -36 -76z m6149 -48 c49 -111 76
-278 60 -378 -37 -228 -231 -444 -400 -444 -55 0 -102 16 -104 35 0 6 35 33
79 62 233 152 305 299 305 626 0 84 3 157 7 160 11 11 32 -13 53 -61z m-3922
-54 c47 -68 81 -143 97 -210 17 -71 19 -156 6 -177 -5 -8 -38 -23 -73 -32 -95
-27 -93 -31 -93 219 0 260 7 282 63 200z m2883 21 c6 -12 15 -101 20 -197 10
-217 21 -273 60 -313 16 -16 29 -33 29 -37 0 -24 -30 -44 -71 -49 -38 -4 -50
0 -87 27 -51 37 -110 124 -137 203 -16 49 -18 64 -8 110 15 72 68 179 116 233
43 49 61 54 78 23z m496 10 c42 -15 103 -79 103 -107 0 -30 -50 -51 -139 -59
-78 -6 -135 12 -152 50 -33 72 95 151 188 116z m-3587 -42 c33 -16 36 -46 9
-80 -51 -66 -209 -109 -264 -73 -35 23 -31 46 14 90 64 62 182 93 241 63z
m-661 -547 c78 -65 80 -100 5 -100 -47 0 -144 116 -144 173 0 16 3 16 39 -3
22 -11 67 -42 100 -70z m2569 -581 c87 -15 117 -43 109 -101 -3 -23 -15 -50
-27 -62 -19 -19 -31 -21 -123 -19 -175 3 -342 37 -389 80 -25 23 -23 69 3 84
53 28 307 39 427 18z m3240 -86 c-3 -16 -125 -90 -133 -81 -5 5 116 97 128 98
5 0 7 -7 5 -17z m-2798 -212 c36 -68 -28 -171 -105 -171 l-26 0 26 23 c18 16
28 39 36 82 6 33 15 66 21 73 15 18 36 15 48 -7z m-5157 -548 c-45 -2 -122 -2
-170 0 -48 1 -11 3 82 3 94 0 133 -2 88 -3z m8474 -270 c-17 -144 -83 -373
-108 -373 -33 0 -16 169 30 305 31 89 67 158 80 151 4 -3 3 -40 -2 -83z
m-7487 -20 c0 -41 -9 -119 -20 -174 -21 -102 -91 -314 -109 -332 -17 -17 -13
36 8 133 11 47 18 86 17 87 -1 1 -29 -45 -61 -102 -128 -226 -295 -424 -441
-525 -41 -29 -77 -50 -80 -48 -7 8 215 567 271 683 30 61 63 116 74 122 19 12
20 11 10 -13 -5 -15 -8 -29 -5 -31 9 -9 78 85 94 129 l17 48 31 -31 32 -31 15
23 c9 13 19 36 22 51 9 36 38 60 67 56 16 -2 26 4 33 19 16 37 25 15 25 -64z
m-1354 -25 c21 -15 64 -32 94 -39 75 -16 124 -42 156 -84 29 -38 44 -34 44 13
0 29 14 28 54 -3 18 -14 40 -25 48 -25 8 0 20 11 26 25 16 34 43 32 127 -11
92 -47 102 -56 78 -65 -10 -4 -33 -8 -50 -8 -18 -1 -33 -4 -33 -8 0 -5 24 -29
52 -56 l53 -47 -38 6 c-29 5 -43 2 -57 -11 -31 -28 -24 -61 21 -110 29 -32 40
-51 37 -69 l-3 -26 -30 20 c-16 11 -38 25 -47 32 -13 9 -20 10 -29 1 -8 -8 -2
-31 24 -90 23 -49 33 -81 27 -87 -11 -11 -85 40 -181 124 -70 62 -71 65 30
-110 56 -96 70 -130 55 -130 -3 0 -25 11 -48 25 -87 51 -183 171 -308 385 -56
96 -89 136 -101 123 -4 -3 -7 -32 -7 -64 0 -32 -4 -61 -10 -64 -5 -3 -31 22
-57 55 -26 34 -49 56 -51 50 -2 -6 1 -40 8 -76 20 -104 1 -101 -53 8 -48 100
-97 243 -97 284 0 49 38 65 146 62 69 -3 86 -7 120 -30z m5201 -562 c88 -28
83 -38 -37 -88 -82 -35 -139 -35 -208 -3 -62 29 -114 32 -133 9 -23 -28 -67
-44 -123 -44 -70 0 -113 31 -102 73 15 62 91 77 356 72 143 -2 209 -7 247 -19z
m727 -369 c131 -63 344 -244 330 -281 -8 -21 19 -62 68 -105 21 -18 37 -35 35
-38 -8 -7 -199 29 -271 52 -75 24 -95 21 -76 -14 6 -12 8 -26 4 -32 -10 -17
-92 -3 -204 35 -132 45 -178 53 -186 31 -5 -12 10 -34 50 -74 31 -31 56 -60
56 -65 0 -18 -90 3 -202 48 -166 65 -160 67 -156 -46 l3 -93 -30 3 c-38 4
-125 43 -168 76 -19 14 -43 26 -55 26 -25 0 -59 -41 -72 -89 -5 -20 -14 -42
-18 -49 -12 -18 -26 0 -82 110 l-47 90 -86 -109 c-48 -59 -102 -119 -122 -132
-34 -23 -37 -23 -53 -7 -13 13 -18 39 -20 111 -2 52 -7 95 -10 94 -4 0 -50
-53 -102 -118 l-95 -118 -5 115 -5 116 -68 -60 c-82 -73 -182 -134 -219 -134
-32 0 -33 7 -13 73 13 42 13 49 0 53 -8 4 -72 -26 -142 -64 -223 -123 -363
-182 -363 -152 0 6 14 37 31 70 17 33 29 67 27 77 -6 32 -67 28 -169 -13 -124
-48 -178 -64 -183 -55 -17 27 430 499 538 569 160 104 281 101 616 -14 177
-60 207 -61 370 -3 l125 44 210 0 c221 1 257 6 375 57 153 66 267 71 384 15z"/>
<path d="M3839 4348 c-103 -211 -197 -338 -398 -538 -221 -220 -474 -409 -791
-590 -212 -121 -264 -160 -214 -160 54 0 386 143 519 224 127 77 269 191 420
336 214 207 315 300 326 300 19 0 8 -39 -36 -125 -150 -293 -503 -638 -805
-786 -222 -109 -178 -138 79 -53 329 109 524 266 698 563 110 186 236 512 267
693 14 77 11 227 -5 242 -3 3 -30 -45 -60 -106z"/>
<path d="M9360 9202 c0 -13 71 -71 185 -152 322 -229 745 -822 894 -1252 43
-122 82 -209 91 -203 26 16 -146 527 -240 715 -92 183 -208 348 -349 493 -111
114 -174 167 -321 264 -164 108 -260 158 -260 135z"/>
<path d="M9166 9007 c156 -115 230 -179 363 -310 217 -215 352 -400 527 -722
112 -207 171 -305 186 -305 27 0 -45 178 -177 440 -258 510 -552 818 -898 939
-49 17 -91 31 -94 31 -4 0 38 -33 93 -73z"/>
<path d="M9210 7282 c0 -13 112 -142 255 -292 134 -142 257 -298 345 -439 119
-192 264 -498 380 -806 160 -423 331 -664 601 -844 122 -82 352 -191 368 -175
9 9 -95 102 -258 232 -175 139 -282 244 -339 332 -55 85 -129 230 -236 463
-96 207 -200 408 -309 592 -137 230 -450 619 -675 838 -102 98 -132 121 -132
99z"/>
<path d="M10210 7094 c-1 -47 38 -191 71 -267 51 -116 174 -337 299 -537 127
-204 273 -449 346 -582 111 -203 126 -199 55 12 -55 164 -148 367 -232 507
-29 49 -130 203 -225 345 -179 267 -227 346 -281 463 -18 39 -33 65 -33 59z"/>
<path d="M7653 6468 c-4 -7 -9 -168 -11 -358 -5 -478 20 -1050 48 -1099 60
-108 60 1193 -1 1421 -11 42 -24 54 -36 36z"/>
<path d="M5754 5278 c-4 -15 11 -55 55 -142 33 -67 61 -129 61 -139 0 -26 -26
-21 -89 17 -79 47 -101 53 -108 27 -3 -12 -8 -21 -12 -21 -11 0 -52 30 -112
82 -49 42 -89 61 -89 42 0 -3 14 -39 31 -80 44 -104 107 -159 298 -258 192
-100 297 -164 364 -226 30 -28 58 -50 61 -50 3 0 6 48 6 108 -1 196 -29 332
-83 397 -36 44 -59 44 -93 -1 l-28 -35 -11 33 c-9 29 -14 33 -42 31 -37 -3
-57 20 -102 119 -28 62 -71 118 -90 118 -5 0 -13 -10 -17 -22z"/>
<path d="M1470 2961 c0 -59 12 -86 24 -55 8 20 8 78 0 98 -13 34 -24 14 -24
-43z"/>
</g>
</svg>
