<?xml version="1.0" standalone="no"?>
<!DOCTYPE svg PUBLIC "-//W3C//DTD SVG 20010904//EN"
 "http://www.w3.org/TR/2001/REC-SVG-20010904/DTD/svg10.dtd">
<svg version="1.0" xmlns="http://www.w3.org/2000/svg"
 width="570.000000pt" height="570.000000pt" viewBox="0 0 570.000000 570.000000"
 preserveAspectRatio="xMidYMid meet">

<g transform="translate(0.000000,570.000000) scale(0.100000,-0.100000)"
fill="#000000" stroke="none">
<path d="M1392 4935 c-18 -8 -46 -24 -62 -35 -41 -29 -114 -143 -150 -234 -61
-153 -73 -286 -44 -527 8 -73 16 -194 17 -269 2 -119 -1 -142 -21 -193 -49
-127 -71 -433 -36 -515 8 -21 65 -88 128 -152 170 -173 180 -199 142 -403 -38
-204 -47 -297 -47 -449 1 -235 23 -305 219 -703 67 -137 132 -281 143 -320 11
-38 26 -83 32 -100 12 -33 84 -115 99 -115 6 0 38 -13 72 -29 76 -36 161 -55
212 -48 133 19 141 19 220 -2 43 -11 122 -32 174 -46 52 -14 133 -28 180 -31
101 -8 157 5 327 71 123 48 145 51 235 33 45 -9 79 -9 151 0 137 17 426 110
412 132 -2 4 22 28 55 53 82 64 133 132 200 271 137 281 171 500 131 842 -25
211 -26 299 -7 372 21 79 54 114 160 171 166 90 259 177 316 296 46 97 61 168
67 325 5 132 10 164 59 355 82 326 87 362 81 565 -4 119 -11 194 -22 234 -51
183 -139 252 -288 227 -186 -31 -394 -152 -601 -351 -105 -101 -170 -180 -291
-355 -112 -161 -183 -236 -249 -261 -53 -20 -38 -21 -312 31 -187 35 -380 49
-569 41 -88 -3 -179 -9 -202 -12 l-41 -6 -12 58 c-48 240 -129 503 -196 640
-74 152 -257 330 -421 411 -66 32 -88 38 -152 41 -51 1 -87 -3 -109 -13z m355
-188 c119 -88 246 -253 279 -362 21 -72 27 -179 17 -345 -11 -174 -24 -209
-122 -312 -61 -65 -67 -69 -98 -63 -39 7 -39 6 -12 -46 32 -65 16 -56 -41 21
-29 39 -54 69 -56 67 -2 -2 9 -46 26 -97 16 -52 28 -96 26 -97 -1 -2 -11 6
-21 17 -29 32 -36 24 -29 -30 7 -50 -1 -61 -24 -38 -9 9 -12 5 -12 -20 0 -37
-3 -37 -58 -18 l-42 15 -11 -42 c-15 -57 -43 -109 -80 -152 -32 -36 -53 -46
-43 -20 12 31 -63 255 -86 255 -4 0 -7 -14 -8 -32 0 -21 -11 -41 -30 -61 l-30
-29 5 44 c4 32 -1 58 -17 96 -18 42 -22 65 -18 115 10 124 68 342 68 256 0
-21 68 -169 92 -202 11 -15 13 -6 10 62 -4 80 11 204 28 231 7 12 14 10 38
-13 36 -34 44 -34 31 1 -19 49 -68 242 -61 242 4 0 22 -21 41 -46 19 -24 35
-43 37 -41 2 1 -3 25 -12 52 -15 53 -56 286 -50 292 1 2 16 -27 31 -64 30 -72
52 -107 41 -63 -8 33 -25 307 -24 394 0 55 3 66 12 54 84 -121 151 -207 154
-199 2 6 -6 39 -17 73 -11 35 -23 82 -27 106 -6 38 -4 42 14 42 11 0 46 -20
79 -43z m2693 -583 c6 -14 10 -69 10 -123 0 -53 6 -148 14 -211 18 -141 13
-171 -48 -291 -29 -58 -43 -96 -37 -102 18 -18 60 3 130 68 80 73 118 84 146
42 24 -38 5 -87 -100 -247 -98 -150 -99 -156 -40 -137 91 27 134 -64 76 -159
-35 -58 -155 -121 -261 -138 -96 -15 -168 38 -188 140 -26 130 22 235 132 291
41 21 46 27 35 38 -8 7 -43 18 -79 25 -111 21 -103 4 -97 219 6 204 16 260 68
364 41 80 82 140 137 200 52 55 87 62 102 21z m-490 -275 c-31 -27 -32 -29
-10 -23 24 7 24 6 -8 -30 -17 -20 -32 -38 -32 -40 0 -2 23 4 50 15 53 20 66
13 28 -15 l-23 -17 23 6 c33 9 27 -7 -14 -34 -19 -13 -40 -33 -45 -44 -11 -20
-14 -20 49 -2 24 7 32 -12 8 -21 -8 -3 -17 -12 -20 -19 -3 -9 0 -12 10 -8 7 3
14 0 14 -7 0 -10 3 -10 15 0 22 18 18 4 -10 -37 -26 -39 -26 -55 0 -33 9 7 18
10 21 8 3 -3 -12 -20 -33 -38 l-38 -32 33 4 c22 3 32 0 32 -9 0 -7 7 -13 15
-13 18 0 20 -16 3 -23 -8 -3 -6 -6 5 -6 20 -1 23 -21 3 -21 -30 0 -25 -20 6
-28 l33 -9 -40 -13 c-22 -7 -44 -16 -50 -20 -5 -4 -28 -15 -50 -24 l-40 -16
35 30 c38 33 34 39 -8 13 l-27 -17 25 29 c22 25 23 27 5 21 -16 -6 -18 -5 -7
5 19 20 14 31 -8 19 -24 -13 -25 -7 -4 26 16 23 15 24 -1 17 -15 -5 -17 -3
-11 13 19 46 18 48 -6 26 l-26 -23 2 28 c1 16 9 42 19 57 18 27 18 27 -3 16
-26 -14 -36 -8 -16 9 19 16 10 42 -12 33 -15 -5 -15 -4 -3 11 11 14 11 17 0
17 -9 1 -7 6 6 16 14 11 16 18 7 21 -6 3 -9 10 -5 16 4 7 0 8 -12 3 -18 -6
-18 -6 -2 12 19 21 23 37 6 26 -8 -4 -8 0 0 15 10 18 9 20 -6 14 -13 -5 -12 1
7 28 14 19 25 39 25 44 0 12 83 55 105 55 9 0 2 -12 -20 -31z m-1332 -181 c-3
-33 -2 -33 39 -32 28 0 56 10 82 27 52 35 73 34 105 -4 27 -32 34 -51 38 -109
3 -30 7 -35 31 -38 41 -5 102 57 93 94 -6 23 0 20 55 -30 34 -31 68 -56 76
-56 7 0 22 9 32 19 67 67 271 18 402 -96 163 -140 429 -557 521 -813 22 -64
23 -73 23 -425 -1 -381 -10 -485 -54 -611 -11 -29 -18 -54 -16 -54 2 0 22 29
44 65 70 110 60 73 -23 -85 -126 -242 -225 -310 -335 -230 -55 41 -103 116
-256 410 -71 135 -141 267 -157 294 -29 47 -31 69 -6 49 7 -6 24 -14 38 -18
22 -6 20 -2 -16 36 -23 24 -81 94 -129 154 -113 142 -147 178 -221 230 -69 50
-99 63 -169 75 -110 18 -338 -33 -448 -100 -37 -23 -45 -25 -38 -11 6 10 27
33 48 51 l37 33 -43 -6 c-57 -7 -85 -28 -144 -108 -66 -89 -184 -218 -221
-241 l-31 -19 48 7 c26 3 47 4 47 1 0 -3 -23 -45 -51 -94 -137 -236 -208 -409
-230 -561 -21 -146 4 -248 76 -311 l39 -34 -46 5 c-85 10 -169 92 -227 223
-22 49 -116 369 -167 567 -35 135 -40 251 -19 408 9 69 19 206 22 305 5 174
-1 235 -32 332 -6 18 1 25 47 48 71 35 131 95 180 180 74 127 273 300 413 360
79 34 173 63 226 70 l54 7 -61 -44 c-149 -111 -251 -230 -261 -306 -7 -50 26
-127 61 -143 25 -12 91 -5 101 10 2 5 -2 25 -10 45 -21 49 -18 123 5 175 34
73 205 221 352 301 69 38 79 38 76 -2z m-1387 -235 c48 -54 44 -91 -16 -153
-22 -23 -39 -54 -49 -90 -12 -44 -15 -49 -15 -24 -1 17 6 52 15 79 14 40 15
54 5 82 -12 31 -10 74 5 125 6 20 28 13 55 -19z m1318 -1028 c16 -8 38 -30 49
-50 12 -19 25 -35 30 -35 4 0 25 18 46 40 30 32 45 40 74 40 47 0 106 -41 138
-96 23 -39 24 -46 12 -71 -14 -31 -81 -73 -115 -73 -35 0 -46 32 -27 73 20 42
12 87 -15 87 -10 0 -30 -17 -45 -38 -23 -34 -26 -47 -26 -128 0 -98 7 -134 24
-134 6 0 40 18 76 40 36 22 68 40 73 40 14 0 -25 -63 -69 -110 -50 -54 -118
-90 -136 -72 -6 6 -16 62 -23 124 l-11 113 -11 -55 c-7 -30 -15 -73 -18 -95
-9 -51 -21 -65 -56 -65 -67 0 -113 41 -144 131 l-15 41 41 -36 c48 -44 82 -45
113 -3 18 24 21 43 21 127 0 78 -3 103 -16 115 -15 15 -17 15 -33 0 -9 -9 -16
-27 -16 -40 0 -27 -45 -85 -66 -85 -32 0 -70 96 -52 135 18 39 103 91 156 94
7 1 26 -6 41 -14z m-221 -467 c21 -20 33 -23 102 -20 106 3 130 -7 130 -54 0
-21 -5 -65 -11 -99 -10 -58 -16 -68 -95 -156 -81 -89 -114 -134 -194 -265 -43
-70 -179 -214 -202 -214 -24 0 -58 39 -60 69 -3 53 4 77 33 118 16 23 36 58
45 78 13 32 13 36 -1 42 -9 3 -27 1 -41 -6 -72 -32 -90 0 -40 72 42 61 58 123
33 133 -8 3 -34 -7 -56 -22 -23 -15 -44 -24 -47 -21 -10 9 47 112 106 192 36
49 73 86 114 112 106 69 144 78 184 41z m435 -97 c61 -24 88 -29 148 -28 61 1
84 -4 133 -26 47 -22 57 -30 51 -44 -18 -42 13 -121 65 -168 30 -27 51 -70 44
-89 -4 -11 -19 -16 -50 -16 -25 0 -44 -5 -44 -11 0 -6 27 -51 60 -101 63 -94
72 -118 42 -118 -33 0 -145 75 -201 134 -199 211 -218 229 -276 258 -94 47
-95 49 -95 143 0 45 3 85 7 88 12 13 43 7 116 -22z m-81 -267 c57 -29 176
-134 207 -182 45 -71 91 -183 97 -240 5 -42 1 -54 -38 -116 -24 -38 -49 -71
-56 -74 -7 -2 -24 23 -43 65 l-31 68 -12 -36 c-7 -20 -23 -50 -35 -68 -26 -36
-65 -41 -126 -15 -33 14 -39 14 -61 -1 -23 -15 -24 -14 -51 27 -37 59 -52 70
-86 62 -37 -8 -71 22 -103 91 -30 63 -30 97 0 160 58 125 133 213 220 259 50
27 65 27 118 0z"/>
<path d="M3344 3509 c62 -66 114 -160 141 -254 29 -100 36 -107 30 -27 -10
137 -70 251 -164 311 -26 17 -51 31 -55 31 -5 0 17 -27 48 -61z"/>
<path d="M2310 3192 c0 -5 9 -17 21 -28 51 -46 105 -184 92 -234 -3 -11 -1
-20 5 -20 6 0 14 25 17 55 9 69 -11 127 -61 179 -37 38 -74 62 -74 48z"/>
<path d="M2595 3154 c4 -10 9 -59 11 -107 2 -76 6 -94 28 -125 37 -54 56 -106
56 -152 0 -38 -3 -42 -37 -57 -31 -13 -60 -14 -151 -9 -104 6 -116 5 -158 -15
-24 -13 -51 -30 -59 -39 -14 -15 -8 -15 42 3 83 28 161 20 255 -27 90 -44 124
-45 208 -4 90 43 169 45 257 4 34 -15 70 -37 79 -47 9 -11 22 -19 27 -19 17 0
-44 59 -98 95 -30 19 -73 37 -105 43 -73 14 -172 50 -187 70 -16 19 -9 46 34
144 38 88 39 97 16 164 l-18 49 -6 -62 c-7 -71 -46 -143 -78 -143 -21 0 -44
49 -56 120 -8 49 -37 114 -57 126 -8 5 -9 2 -3 -12z"/>
<path d="M3105 3155 c-70 -33 -115 -97 -115 -164 l1 -46 29 60 c16 33 50 84
75 113 26 28 45 52 43 52 -2 -1 -16 -7 -33 -15z"/>
<path d="M2204 3111 c-65 -16 -102 -63 -119 -153 -6 -29 -10 -35 -26 -31 -15
4 -17 9 -9 19 21 24 7 85 -23 108 -36 27 -129 28 -204 2 -49 -16 -144 -88
-133 -100 3 -3 28 1 55 9 26 8 65 15 85 15 42 0 100 -18 100 -31 0 -4 -7 -6
-15 -3 -8 4 -15 4 -15 2 0 -3 33 -21 74 -42 94 -46 121 -84 113 -156 -7 -56
-22 -90 -40 -89 -7 0 -26 28 -42 62 -17 34 -37 62 -45 62 -9 0 -33 14 -54 30
-26 19 -41 26 -43 18 -3 -8 -15 -10 -33 -6 -35 6 -121 -5 -117 -16 1 -4 -13
-20 -31 -35 -56 -48 -85 -109 -90 -191 -4 -66 -2 -78 23 -124 39 -72 113 -137
201 -177 76 -35 94 -36 94 -6 1 60 109 194 216 268 52 36 53 38 31 48 -42 21
-35 137 13 208 34 49 38 90 15 163 -17 59 -7 89 42 120 51 32 43 41 -23 26z
m-299 -436 c0 -26 -3 -30 -29 -30 -36 0 -56 26 -36 50 8 9 24 15 39 13 22 -2
26 -8 26 -33z m-181 -109 c10 -41 33 -56 87 -56 44 0 53 4 90 41 34 34 40 37
34 17 -22 -79 -45 -101 -104 -100 -72 1 -110 30 -125 95 -8 33 9 36 18 3z"/>
<path d="M3784 3026 c119 -166 203 -374 213 -527 3 -49 10 -86 14 -83 15 9 10
224 -7 294 -25 109 -76 199 -160 290 -101 107 -126 118 -60 26z"/>
<path d="M3244 3048 c39 -53 69 -126 62 -156 l-6 -27 25 28 c14 16 25 40 25
57 0 36 -40 85 -92 111 l-40 21 26 -34z"/>
<path d="M3540 3011 c30 -10 75 -28 100 -41 68 -35 162 -135 202 -215 36 -71
38 -78 58 -154 19 -72 22 -39 4 45 -41 201 -146 326 -309 368 -83 22 -126 19
-55 -3z"/>
<path d="M3423 2860 c-49 -10 -89 -30 -120 -60 -19 -17 -23 -31 -23 -88 0 -85
-14 -136 -46 -165 l-25 -24 85 -80 c54 -51 111 -93 154 -114 60 -30 76 -33
153 -34 76 0 90 3 127 27 57 38 91 77 104 120 l11 36 31 -19 c39 -24 54 -24
34 -1 -8 9 -39 58 -68 107 -29 50 -64 105 -78 124 -36 48 -112 81 -187 80
-100 -1 -156 -32 -195 -109 -25 -50 -47 -52 -56 -5 -15 82 18 139 104 180 23
11 42 23 42 28 0 4 -1 7 -2 6 -2 -1 -22 -5 -45 -9z m125 -252 c4 -36 -26 -53
-56 -33 -33 24 -52 9 -52 -42 0 -76 50 -141 127 -163 38 -12 46 -11 90 11 27
13 57 38 68 56 25 41 37 42 23 3 -15 -43 -62 -88 -109 -102 -111 -33 -250 74
-249 191 1 56 16 78 67 97 57 20 87 15 91 -18z m238 -150 c-4 -18 -14 -40 -23
-48 -14 -14 -15 -13 -8 5 4 11 10 32 13 48 2 15 9 27 14 27 6 0 8 -13 4 -32z"/>
<path d="M1557 2742 c-26 -28 -47 -88 -47 -132 0 -45 19 -130 29 -130 3 0 6
44 7 98 0 62 6 112 16 140 18 48 17 49 -5 24z"/>
<path d="M1560 2283 c0 -67 20 -166 44 -219 38 -84 136 -177 166 -159 12 7 60
-42 60 -61 0 -8 4 -14 8 -14 5 0 10 25 11 55 1 29 8 105 15 167 8 62 13 115
11 116 -2 2 -15 -19 -29 -46 -48 -95 -111 -110 -170 -40 -33 38 -96 178 -96
212 0 8 -4 18 -10 21 -6 4 -10 -9 -10 -32z"/>
<path d="M3886 2185 c-26 -52 -51 -95 -56 -95 -5 0 -7 6 -5 13 8 25 14 117 7
117 -4 0 -23 -28 -42 -63 -64 -113 -157 -186 -219 -172 -40 9 -95 70 -130 145
-17 36 -31 70 -31 77 0 6 -4 14 -9 18 -6 3 -6 -7 0 -27 5 -18 28 -98 50 -178
41 -146 98 -299 144 -391 30 -58 43 -66 19 -11 -46 105 -58 197 -27 209 9 4
29 -1 45 -10 50 -29 69 -22 113 38 45 62 116 195 144 270 23 62 51 155 46 155
-1 0 -24 -43 -49 -95z"/>
<path d="M2612 1435 c-20 -26 -22 -26 -22 -6 0 11 -4 21 -10 21 -5 0 -10 -9
-10 -20 0 -13 -5 -18 -15 -14 -9 4 -15 0 -15 -9 0 -9 -5 -19 -11 -23 -8 -5
-10 4 -7 30 5 46 -7 47 -23 1 -16 -43 -28 -45 -36 -4 -6 29 -7 30 -19 14 -18
-25 -29 -105 -17 -124 6 -9 18 -43 28 -76 16 -52 19 -57 25 -35 l7 25 8 -27
c4 -16 11 -28 16 -28 5 0 9 -4 9 -9 0 -5 5 -22 11 -38 8 -22 12 -24 20 -13 7
12 10 11 15 -7 8 -29 21 -29 29 -2 4 11 9 18 13 15 3 -4 21 8 40 26 30 29 33
30 27 11 -3 -13 -2 -23 3 -23 14 0 68 63 88 103 10 17 19 26 21 19 3 -6 9 -10
14 -6 16 10 10 148 -8 185 -9 18 -18 28 -20 22 -3 -7 -11 -9 -19 -6 -9 3 -14
-1 -14 -12 0 -9 -5 -13 -11 -10 -6 4 -13 -2 -16 -14 -8 -30 -21 -26 -25 7 -2
19 -9 27 -23 27 -11 0 -23 6 -26 14 -4 10 -11 7 -27 -14z"/>
</g>
</svg>
