<?xml version="1.0" standalone="no"?>
<!DOCTYPE svg PUBLIC "-//W3C//DTD SVG 20010904//EN"
 "http://www.w3.org/TR/2001/REC-SVG-20010904/DTD/svg10.dtd">
<svg version="1.0" xmlns="http://www.w3.org/2000/svg"
 width="275.000000pt" height="320.000000pt" viewBox="0 0 275.000000 320.000000"
 preserveAspectRatio="xMidYMid meet">

<g transform="translate(0.000000,320.000000) scale(0.100000,-0.100000)"
fill="#000000" stroke="none">
<path d="M1230 3033 c-25 -3 -52 -10 -60 -17 -8 -6 -51 -27 -95 -46 -215 -92
-354 -213 -473 -415 -23 -38 -73 -108 -112 -155 -77 -93 -91 -127 -150 -355
-17 -66 -38 -142 -47 -170 -20 -62 -115 -255 -154 -312 -27 -38 -29 -49 -29
-131 l0 -90 82 -65 c46 -36 128 -112 184 -171 82 -86 113 -111 167 -137 117
-54 191 -51 279 14 36 27 61 16 120 -55 61 -72 68 -87 68 -153 l0 -57 40 7
c22 4 40 4 40 0 0 -4 -17 -34 -37 -68 -41 -66 -48 -115 -24 -172 l13 -30 16
25 c31 45 61 70 87 70 36 0 32 -26 -16 -95 -22 -31 -38 -60 -35 -63 3 -3 26 3
50 12 41 16 85 56 111 101 10 16 13 15 43 -10 29 -24 32 -32 32 -81 0 -29 -11
-93 -25 -140 -28 -96 -30 -114 -14 -114 17 0 115 107 129 140 12 28 15 29 54
24 22 -4 44 -9 47 -13 4 -3 24 -39 46 -78 21 -40 54 -94 73 -120 l34 -48 8 79
c11 121 34 180 143 376 42 76 59 121 83 220 17 69 33 160 36 203 3 54 12 93
28 125 24 49 28 52 147 82 77 20 131 82 211 245 84 169 86 188 30 265 -34 46
-38 57 -27 71 177 247 177 247 177 439 l0 156 -42 41 c-47 46 -132 89 -245
123 -40 12 -76 27 -81 33 -6 7 -15 38 -22 70 -11 55 -18 64 -153 208 -153 162
-135 150 -298 194 -31 8 -62 22 -69 30 -10 12 -40 15 -169 13 -86 -1 -176 -3
-201 -5z m365 -93 c230 -54 223 -51 294 -127 36 -37 87 -88 114 -111 62 -56
107 -119 107 -149 0 -23 -2 -24 -42 -18 -48 8 -58 12 -58 25 0 4 9 6 20 3 27
-7 26 17 -2 52 l-21 27 -14 -26 c-16 -30 -22 -31 -49 -11 -51 39 -37 4 24 -59
40 -41 46 -44 169 -70 70 -15 132 -31 137 -36 13 -13 -3 -30 -29 -30 -99 0
-184 -51 -224 -134 -34 -68 -28 -107 20 -151 23 -20 62 -46 87 -57 42 -19 142
-107 142 -125 0 -21 -66 -85 -107 -103 -25 -11 -98 -52 -162 -90 -65 -39 -125
-70 -134 -70 -9 0 -40 -11 -69 -24 -52 -24 -55 -24 -261 -16 -121 4 -212 11
-218 17 -8 8 -7 27 1 65 7 30 10 63 8 73 -3 17 -7 15 -21 -12 -9 -18 -24 -57
-32 -88 -13 -50 -13 -61 2 -103 30 -90 98 -167 178 -202 66 -30 190 -53 244
-45 42 6 51 3 78 -19 41 -34 67 -32 133 9 30 19 61 35 70 35 8 0 42 -14 74
-31 56 -30 62 -31 109 -20 27 6 57 11 68 11 17 0 18 -3 9 -21 -21 -39 -85
-102 -117 -116 -49 -20 -94 -17 -100 7 -7 25 -8 25 -41 1 -15 -10 -49 -26 -77
-36 -60 -20 -97 -16 -233 26 -53 16 -129 32 -169 35 -62 6 -76 4 -106 -15 -19
-11 -42 -36 -50 -53 -19 -39 -11 -53 10 -21 9 13 22 23 31 23 12 0 14 -10 8
-61 -3 -33 -12 -86 -20 -117 -22 -85 -31 -182 -17 -182 6 0 11 17 11 39 0 88
76 237 109 216 24 -14 6 -389 -25 -535 -19 -86 -59 -194 -80 -211 -19 -16 -19
9 1 84 28 110 18 141 -62 181 -49 25 -55 44 -47 156 4 55 5 100 2 100 -3 0
-18 -34 -33 -75 -25 -68 -33 -79 -92 -126 -85 -68 -100 -54 -34 32 32 42 56
88 71 134 12 39 26 81 31 94 16 40 2 35 -30 -13 -38 -55 -77 -87 -97 -79 -13
5 -15 26 -12 132 l3 126 46 70 c25 39 48 78 52 88 7 18 -7 24 -18 7 -8 -13
-25 -13 -25 1 0 5 9 30 20 54 36 79 36 199 1 254 -8 12 -15 9 -41 -13 -19 -15
-42 -26 -54 -24 -17 2 -22 11 -24 50 -2 28 3 59 12 77 9 16 16 37 16 45 0 13
-4 13 -30 0 -16 -9 -40 -14 -52 -12 -21 3 -23 8 -21 53 2 55 3 56 -53 -20 -15
-21 -25 -27 -38 -22 -16 6 -18 15 -13 60 3 28 17 87 32 130 32 93 26 113 -10
35 -68 -148 -95 -70 -44 128 22 91 66 177 125 249 25 31 43 59 41 62 -9 8 -61
-24 -95 -59 -18 -18 -49 -57 -70 -87 -20 -30 -42 -54 -47 -54 -6 1 -22 32 -37
69 -26 69 -57 124 -69 124 -4 0 2 -27 12 -61 24 -77 24 -152 0 -254 -28 -119
-31 -144 -22 -149 5 -3 11 17 15 44 6 43 20 70 31 59 5 -5 43 -225 60 -344 16
-111 22 -131 60 -225 33 -81 37 -173 9 -249 -28 -80 -39 -85 -166 -89 -132 -5
-152 2 -217 74 -39 43 -52 65 -60 107 -5 28 -17 86 -25 128 -14 69 -14 83 0
134 8 32 13 59 11 61 -2 2 -12 -5 -22 -16 -10 -11 -22 -20 -27 -20 -16 0 -8
67 16 128 41 105 13 69 -55 -68 -66 -137 -91 -172 -110 -153 -16 16 1 63 91
253 48 101 89 203 105 265 74 275 91 313 200 430 31 33 76 98 100 143 57 106
131 199 209 263 68 56 232 140 316 163 83 22 286 20 385 -4z m815 -559 c34
-25 31 -43 -9 -63 -27 -13 -51 -15 -122 -11 -117 8 -139 -5 -139 -79 l0 -51
71 5 70 5 -22 -23 c-33 -35 -78 -47 -134 -34 -90 20 -114 47 -95 106 13 39 61
98 94 116 34 19 209 57 236 52 14 -3 36 -13 50 -23z m-128 -698 c62 -67 76
-129 44 -191 -18 -35 -33 -42 -92 -42 -55 0 -86 16 -186 92 -42 32 -82 58 -87
58 -24 0 -9 -30 29 -60 22 -18 47 -45 56 -61 11 -21 26 -32 59 -40 69 -18 63
-28 -17 -27 -57 0 -91 -7 -155 -31 -46 -17 -83 -26 -83 -21 0 17 38 44 92 65
33 13 54 28 56 39 4 17 -1 18 -37 12 l-41 -6 0 43 c0 24 -3 46 -6 50 -4 3 -22
0 -41 -8 -48 -20 -53 -19 -53 13 0 68 73 102 224 103 66 0 104 5 136 19 61 25
72 25 102 -7z m-589 -87 c39 -1 53 -7 78 -33 46 -45 32 -56 -60 -51 -52 3 -90
12 -121 28 -98 49 -101 77 -6 65 33 -5 82 -9 109 -9z m94 -577 c42 -85 53
-182 32 -281 -6 -29 -38 -106 -71 -171 -65 -131 -99 -214 -107 -267 -8 -45
-20 -43 -48 6 -38 68 -53 148 -53 281 0 163 11 168 55 23 33 -104 48 -87 18
20 -18 65 -13 81 17 62 15 -9 12 2 -15 60 -26 54 -35 86 -35 125 0 50 16 103
30 103 10 0 30 -48 30 -74 0 -25 28 -116 40 -129 5 -5 6 39 3 97 -6 114 3 155
41 181 29 21 38 16 63 -36z"/>
<path d="M1205 2756 c-68 -32 -145 -89 -145 -107 0 -19 63 -8 108 18 34 20 61
28 97 28 45 0 50 2 59 28 12 33 -1 61 -30 64 -10 2 -51 -12 -89 -31z"/>
<path d="M1393 2684 c-10 -15 -13 -35 -10 -53 6 -27 3 -29 -30 -36 -21 -4 -53
-15 -73 -25 -43 -22 -127 -107 -116 -117 4 -5 46 -10 93 -12 70 -3 98 1 161
22 43 14 93 29 112 32 52 11 56 16 20 31 -28 12 -31 18 -26 40 6 22 -2 34 -54
84 l-61 58 -16 -24z m-49 -125 c-11 -19 -96 -69 -106 -63 -5 3 -1 15 9 26 28
31 114 64 97 37z m46 -45 c0 -8 -7 -14 -15 -14 -15 0 -21 21 -9 33 10 9 24 -2
24 -19z"/>
<path d="M1736 2172 c-21 -29 -50 -59 -65 -66 -35 -18 -98 -29 -105 -18 -5 9
2 40 19 87 5 11 -18 -5 -51 -36 -38 -36 -77 -63 -109 -74 -78 -28 -75 -35 12
-35 81 0 107 -10 84 -33 -17 -17 -13 -27 9 -27 77 0 260 176 248 238 -2 11
-15 0 -42 -36z"/>
</g>
</svg>
