<?xml version="1.0" standalone="no"?>
<!DOCTYPE svg PUBLIC "-//W3C//DTD SVG 20010904//EN"
 "http://www.w3.org/TR/2001/REC-SVG-20010904/DTD/svg10.dtd">
<svg version="1.0" xmlns="http://www.w3.org/2000/svg"
 width="1002.000000pt" height="1239.000000pt" viewBox="0 0 1002.000000 1239.000000"
 preserveAspectRatio="xMidYMid meet">

<g transform="translate(0.000000,1239.000000) scale(0.100000,-0.100000)"
fill="#000000" stroke="none">
<path d="M5027 12370 c-165 -4 -325 -11 -357 -14 -102 -12 -191 -43 -330 -115
-74 -38 -218 -106 -320 -151 -580 -257 -928 -486 -1301 -859 -242 -242 -422
-473 -609 -781 -154 -252 -313 -475 -535 -750 -308 -382 -357 -499 -610 -1461
-182 -690 -209 -774 -355 -1089 -169 -364 -369 -744 -487 -925 -109 -166 -106
-153 -111 -565 l-3 -355 58 -45 c405 -312 594 -480 1023 -910 190 -190 377
-371 415 -402 148 -119 329 -215 542 -286 145 -49 250 -65 388 -60 182 8 305
52 493 178 147 98 181 107 267 66 68 -32 146 -105 268 -250 271 -320 285 -352
294 -678 3 -115 6 -208 7 -208 1 0 53 9 116 20 134 23 210 26 210 8 0 -7 -41
-83 -91 -168 -211 -363 -252 -508 -200 -712 19 -73 74 -215 90 -231 4 -4 37
37 73 90 155 228 340 345 433 271 23 -18 26 -26 22 -60 -8 -60 -56 -151 -162
-308 -144 -215 -169 -270 -121 -270 36 0 182 48 246 80 123 62 282 210 373
346 62 94 68 99 104 81 53 -28 183 -148 205 -190 21 -39 23 -54 22 -207 -1
-185 -24 -328 -89 -565 -110 -396 -125 -483 -87 -504 32 -17 82 19 217 154
155 156 284 315 345 427 55 100 72 111 160 103 91 -9 237 -44 255 -62 19 -18
81 -124 215 -363 125 -224 210 -359 326 -522 48 -68 89 -125 91 -127 9 -12 14
23 37 250 40 379 74 537 167 772 58 146 205 441 370 742 238 433 302 593 404
1010 87 355 135 624 160 902 24 258 62 402 148 556 76 135 102 148 562 273
345 94 539 314 885 1004 303 605 342 748 255 938 -14 30 -70 119 -125 197 -99
141 -130 197 -130 233 0 10 50 88 111 173 421 586 547 799 604 1023 38 150 45
277 45 825 l0 516 -137 129 c-261 243 -485 362 -1026 540 -139 46 -280 97
-313 114 -56 28 -62 35 -82 86 -11 30 -33 106 -48 168 -73 310 -79 319 -573
848 -499 535 -609 640 -752 715 -82 43 -210 85 -469 155 -220 60 -317 97 -374
142 -71 57 -101 61 -526 63 -212 2 -519 -1 -683 -5z m704 -340 c222 -18 383
-45 701 -121 485 -114 612 -155 729 -230 40 -27 166 -145 349 -328 157 -158
340 -338 408 -400 245 -226 410 -459 420 -594 7 -96 -10 -102 -212 -67 -136
23 -199 50 -194 83 3 20 8 22 67 19 36 -1 70 3 77 9 37 31 3 117 -99 246 l-64
83 -44 -82 c-83 -155 -94 -158 -226 -68 -99 67 -129 76 -118 33 19 -77 280
-365 386 -426 77 -45 178 -74 529 -152 360 -80 542 -127 578 -151 23 -15 28
-44 12 -74 -16 -29 -86 -48 -200 -54 -179 -9 -395 -80 -535 -176 -126 -87
-244 -223 -318 -368 -69 -135 -92 -212 -92 -312 0 -75 4 -93 33 -154 60 -127
262 -295 493 -411 158 -80 490 -354 573 -473 34 -50 30 -68 -35 -154 -106
-143 -234 -241 -477 -368 -103 -54 -286 -155 -407 -226 -491 -285 -694 -394
-739 -394 -28 0 -190 -58 -305 -109 -154 -68 -192 -74 -466 -73 -394 1 -1141
36 -1385 63 -130 14 -140 22 -140 107 0 37 12 126 26 197 26 129 38 315 21
331 -29 29 -104 -112 -176 -330 -59 -181 -86 -311 -77 -382 8 -69 58 -217 112
-334 95 -202 257 -403 433 -536 161 -122 381 -213 671 -278 244 -54 430 -69
650 -52 138 10 146 8 273 -88 179 -134 265 -126 555 48 147 88 246 136 280
136 45 0 83 -15 306 -123 255 -124 264 -125 492 -78 195 40 285 49 302 29 40
-48 -193 -335 -401 -493 -102 -78 -233 -119 -363 -113 -100 4 -130 22 -157 94
-10 27 -22 53 -27 57 -12 13 -43 0 -112 -47 -122 -83 -323 -171 -462 -201 -61
-14 -106 -16 -200 -12 -159 7 -226 23 -698 160 -164 48 -428 106 -583 128 -49
7 -158 13 -240 13 l-151 1 -79 -39 c-152 -75 -288 -242 -303 -373 -4 -39 -3
-45 13 -42 10 2 39 31 65 64 76 98 145 131 171 83 29 -55 -26 -454 -116 -838
-66 -280 -91 -640 -45 -640 26 0 43 54 50 164 14 202 62 377 160 582 122 259
263 392 306 289 70 -169 12 -1445 -96 -2077 -53 -310 -210 -785 -313 -945 -30
-48 -70 -78 -88 -67 -20 12 -3 134 45 332 55 224 70 322 64 416 -10 159 -98
261 -326 375 -80 40 -134 89 -163 149 -23 45 -24 57 -24 252 0 113 4 308 9
434 10 251 7 263 -41 158 -14 -32 -56 -137 -94 -235 -83 -215 -115 -277 -182
-352 -58 -66 -236 -213 -344 -287 -126 -84 -183 -98 -168 -40 11 44 68 140
155 257 99 134 167 245 225 367 59 125 249 698 235 712 -14 14 -72 -50 -155
-170 -79 -115 -231 -272 -292 -303 -23 -11 -58 -21 -77 -21 -80 0 -86 56 -73
654 l9 420 128 195 c248 381 307 493 280 526 -18 22 -29 19 -64 -19 -39 -41
-70 -58 -90 -50 -35 13 -28 51 37 216 74 184 91 239 112 355 33 188 29 399
-11 563 -19 77 -79 209 -100 217 -26 10 -58 -6 -129 -63 -124 -100 -236 -138
-292 -99 -35 24 -47 87 -47 240 0 150 5 171 79 345 16 36 29 83 29 105 1 54
-21 56 -118 11 -130 -60 -242 -70 -287 -25 -17 17 -19 35 -19 183 0 110 -4
167 -11 172 -16 9 -49 -27 -164 -178 -132 -175 -176 -198 -242 -132 -26 26
-26 27 -20 148 9 173 52 359 157 676 106 322 77 386 -51 115 -111 -234 -189
-345 -243 -345 -43 0 -56 46 -56 192 0 189 51 476 136 768 82 285 234 588 413
823 178 235 199 264 224 308 33 56 33 59 3 59 -62 0 -243 -118 -365 -239 -75
-74 -228 -263 -317 -391 -32 -46 -85 -113 -118 -147 -57 -62 -59 -63 -79 -46
-26 24 -92 159 -157 318 -92 229 -182 396 -244 454 -21 20 -26 22 -31 8 -6
-15 20 -132 70 -312 44 -159 58 -290 52 -485 -6 -195 -23 -304 -91 -601 -84
-365 -104 -515 -69 -526 20 -7 42 51 64 173 23 130 51 216 80 245 24 24 36 24
48 0 22 -41 160 -828 241 -1371 70 -473 94 -574 220 -894 127 -324 157 -474
147 -736 -7 -179 -26 -276 -86 -435 -104 -276 -154 -304 -576 -326 -265 -14
-526 -7 -608 15 -131 36 -240 114 -385 279 -216 243 -216 242 -315 737 -88
442 -102 576 -74 700 84 362 83 360 60 360 -10 0 -43 -25 -73 -56 -75 -76
-115 -100 -137 -83 -13 12 -15 30 -10 124 6 119 40 262 98 410 34 88 79 223
79 236 0 5 -5 9 -10 9 -22 0 -116 -165 -282 -495 -241 -479 -305 -591 -376
-662 -41 -42 -84 -45 -108 -8 -46 71 19 261 282 822 345 736 453 1006 565
1416 286 1048 359 1204 783 1672 167 185 308 383 447 631 213 382 407 644 668
904 201 200 350 309 661 482 173 97 290 155 465 233 268 119 421 165 610 184
61 6 124 13 140 15 73 8 654 5 776 -4z m3770 -2342 c42 -21 96 -55 121 -77 90
-80 86 -137 -14 -202 -118 -76 -222 -91 -523 -76 -231 11 -405 4 -468 -18 -27
-10 -64 -33 -83 -51 -52 -53 -64 -110 -64 -306 l0 -168 38 0 c20 1 150 9 287
19 138 11 251 18 253 17 1 -2 -36 -40 -83 -85 -180 -172 -349 -205 -644 -125
-291 79 -378 192 -311 405 55 178 269 438 415 505 165 76 754 205 916 201 76
-2 93 -6 160 -39z m-525 -2887 c90 -65 213 -219 269 -335 84 -174 85 -343 4
-513 -37 -78 -79 -128 -131 -154 -53 -27 -184 -42 -302 -35 -199 12 -319 74
-700 358 -271 203 -383 274 -416 263 -57 -18 -24 -94 84 -195 159 -149 242
-236 280 -295 77 -119 104 -137 273 -186 100 -29 183 -63 183 -74 0 -17 -81
-27 -289 -35 -275 -10 -326 -21 -621 -123 -187 -65 -335 -106 -346 -95 -9 9
21 60 53 89 65 60 168 118 327 183 161 67 240 131 234 190 -3 29 -6 31 -47 34
-24 2 -89 -4 -143 -12 -54 -9 -107 -16 -117 -16 -18 0 -19 12 -23 173 -4 206
-10 223 -71 213 -22 -4 -86 -24 -143 -45 -136 -52 -158 -56 -178 -36 -22 22
-22 145 0 209 23 66 99 146 181 188 166 86 329 114 757 128 350 12 375 16 636
114 125 46 190 48 246 7z m-2757 -406 c63 -8 200 -20 305 -25 207 -11 236 -16
299 -54 55 -32 194 -175 202 -208 19 -73 -16 -87 -222 -87 -168 -1 -338 18
-452 49 -170 48 -426 194 -475 272 l-20 31 23 18 c19 16 41 19 125 19 55 0
152 -7 215 -15z m670 -2260 c32 -28 131 -214 175 -331 77 -204 112 -439 103
-678 -13 -331 -59 -472 -344 -1061 -284 -586 -382 -829 -433 -1075 -32 -157
-59 -183 -118 -115 -115 131 -225 418 -266 696 -45 308 -49 1019 -5 1100 28
53 69 -27 160 -306 101 -308 139 -395 172 -395 19 0 -2 145 -48 329 -52 211
-64 293 -45 316 17 21 49 19 85 -5 17 -11 36 -20 43 -20 29 0 13 42 -132 367
-71 159 -87 227 -93 388 -6 159 15 290 61 390 28 62 48 75 75 51 39 -35 101
-204 101 -274 0 -86 78 -365 136 -492 29 -62 37 -72 45 -58 6 11 9 176 7 435
-3 371 -1 425 14 480 35 125 91 202 188 257 57 32 81 32 119 1z"/>
<path d="M4780 11291 c-254 -91 -583 -285 -738 -435 -92 -88 -98 -128 -23
-141 84 -14 232 29 406 117 177 90 206 98 388 109 88 5 170 14 185 21 37 19
60 55 79 130 15 58 16 74 5 115 -22 79 -77 123 -154 122 -24 0 -90 -17 -148
-38z"/>
<path d="M5380 10940 c-64 -95 -73 -127 -66 -252 8 -129 11 -125 -134 -159
-101 -23 -222 -64 -292 -100 -154 -77 -488 -401 -488 -474 0 -18 8 -25 43 -33
151 -38 612 -49 750 -18 77 17 103 24 432 125 94 29 228 66 299 82 214 49 224
62 95 129 -128 66 -123 60 -115 158 5 68 3 90 -11 120 -19 40 -194 225 -365
384 l-107 99 -41 -61z m-222 -538 c10 -32 -171 -165 -328 -242 -124 -59 -157
-51 -109 26 31 51 101 108 192 155 134 70 234 95 245 61z m161 -148 c40 -50
19 -114 -36 -114 -37 0 -63 27 -63 64 0 70 60 100 99 50z"/>
<path d="M6895 8899 c-24 -23 -77 -84 -116 -136 -102 -134 -207 -237 -279
-273 -118 -60 -359 -107 -408 -81 -16 8 -22 21 -22 45 0 39 41 201 70 277 11
29 17 55 14 58 -11 12 -78 -37 -209 -155 -218 -194 -318 -257 -557 -349 -101
-39 -147 -70 -130 -87 14 -14 182 -27 342 -28 254 0 356 -35 305 -103 -75
-103 -71 -94 -51 -123 12 -15 26 -19 73 -18 155 4 399 153 657 404 189 183
307 337 356 459 21 54 27 136 10 146 -5 3 -30 -13 -55 -36z"/>
</g>
</svg>
