<?xml version="1.0" standalone="no"?>
<!DOCTYPE svg PUBLIC "-//W3C//DTD SVG 20010904//EN"
 "http://www.w3.org/TR/2001/REC-SVG-20010904/DTD/svg10.dtd">
<svg version="1.0" xmlns="http://www.w3.org/2000/svg"
 width="2992.000000pt" height="2092.000000pt" viewBox="0 0 2992.000000 2092.000000"
 preserveAspectRatio="xMidYMid meet">

<g transform="translate(0.000000,2092.000000) scale(0.100000,-0.100000)"
fill="#000000" stroke="none">
<path d="M11585 18545 c-5 -1 -30 -8 -55 -15 -86 -24 -125 -48 -176 -106 -53
-62 -65 -82 -110 -179 -15 -33 -32 -67 -39 -75 -6 -8 -18 -31 -25 -50 -7 -19
-18 -48 -25 -65 -6 -16 -22 -64 -34 -105 -13 -41 -27 -86 -32 -100 -26 -74
-72 -399 -95 -665 -4 -44 -8 -89 -9 -100 -2 -11 -8 -99 -14 -195 -12 -197 -37
-479 -50 -587 -16 -125 -66 -310 -99 -365 -19 -32 -68 -58 -124 -66 -37 -4
-66 -31 -54 -50 3 -5 15 -42 27 -83 41 -143 52 -533 19 -707 -5 -30 -22 -85
-37 -123 -34 -86 -47 -91 -135 -50 -36 17 -72 31 -80 31 -24 0 -28 -25 -10
-51 9 -13 25 -49 34 -79 16 -48 18 -103 18 -447 0 -215 -3 -398 -6 -407 -12
-31 -81 23 -118 91 -27 49 -65 85 -83 79 -13 -5 -15 -16 -9 -64 17 -145 23
-171 70 -275 17 -38 15 -57 -6 -57 -21 0 -121 91 -149 135 -26 42 -49 58 -49
36 0 -9 11 -67 31 -166 12 -57 38 -134 52 -152 14 -19 47 -86 47 -96 0 -5 9
-22 21 -38 11 -16 24 -43 29 -59 7 -25 6 -30 -9 -30 -10 0 -30 9 -45 21 -47
37 -70 7 -45 -58 20 -50 39 -196 39 -293 0 -102 -15 -196 -48 -300 -11 -36
-34 -109 -51 -163 -17 -54 -40 -111 -51 -127 -11 -15 -20 -34 -21 -42 0 -7
-20 -49 -44 -93 -24 -44 -64 -120 -89 -169 -26 -48 -58 -103 -71 -120 -13 -17
-32 -49 -42 -71 -10 -22 -38 -74 -63 -115 -56 -94 -89 -155 -135 -250 -20 -41
-49 -100 -64 -130 -15 -30 -35 -82 -45 -115 -11 -33 -22 -69 -26 -80 -8 -20
-29 -97 -34 -125 -1 -8 -11 -41 -20 -73 -25 -81 -13 -91 62 -52 31 16 71 39
88 52 16 12 47 29 67 38 34 14 38 14 44 -1 6 -17 -24 -84 -38 -84 -5 0 -18
-19 -30 -42 -27 -54 -163 -254 -198 -293 -15 -16 -36 -43 -46 -60 -10 -16 -33
-43 -51 -58 -19 -16 -34 -33 -34 -40 0 -10 -141 -149 -221 -217 -23 -19 -62
-47 -88 -61 -25 -15 -47 -34 -49 -43 -4 -18 18 -22 34 -6 5 5 50 23 99 41 50
17 95 35 101 40 6 5 30 15 53 24 35 12 43 12 47 0 5 -12 -11 -53 -25 -65 -20
-16 -74 -95 -97 -141 -15 -30 -35 -63 -44 -74 -22 -25 -65 -146 -73 -202 -9
-72 4 -64 127 87 66 81 142 150 165 150 26 0 26 -1 1 -54 -40 -89 -74 -311
-67 -446 11 -216 42 -364 112 -538 18 -44 38 -51 43 -14 5 32 30 49 46 31 12
-14 19 -50 51 -284 45 -329 96 -588 160 -810 10 -33 21 -78 25 -100 4 -22 16
-67 25 -100 10 -33 21 -76 26 -95 4 -19 19 -69 33 -110 14 -41 30 -93 35 -115
15 -57 46 -151 71 -215 12 -30 26 -70 31 -87 5 -18 13 -48 18 -65 24 -87 42
-138 51 -143 6 -3 10 -17 10 -30 0 -13 4 -26 10 -30 5 -3 17 -31 26 -63 9 -31
23 -71 30 -89 8 -17 14 -39 14 -48 0 -9 8 -27 18 -40 10 -12 24 -42 31 -66 8
-24 22 -63 32 -86 11 -24 19 -46 19 -50 0 -4 20 -49 45 -100 25 -50 45 -100
45 -110 0 -10 20 -53 43 -95 24 -41 54 -100 66 -130 12 -30 36 -78 54 -108 18
-30 39 -71 47 -90 8 -19 31 -62 52 -95 20 -33 45 -76 54 -95 10 -19 37 -58 61
-87 24 -28 43 -54 43 -58 0 -3 19 -33 41 -67 35 -51 69 -114 166 -303 5 -11
15 -30 21 -42 7 -13 12 -30 12 -38 0 -9 25 -68 56 -133 31 -64 59 -126 64
-137 4 -11 27 -59 51 -108 l42 -87 40 0 c34 0 38 -2 25 -13 -14 -11 -10 -22
38 -102 30 -49 74 -110 99 -135 25 -25 45 -49 45 -53 0 -13 64 -112 102 -158
21 -26 38 -51 38 -56 0 -6 9 -18 21 -29 12 -10 27 -31 35 -46 12 -24 21 -28
57 -28 32 -1 38 -3 25 -10 -15 -9 -15 -13 -2 -40 15 -29 16 -29 77 -24 34 3
92 15 128 25 71 20 156 26 129 9 -12 -8 -13 -13 -2 -27 6 -10 16 -28 22 -40 8
-19 18 -23 52 -23 28 0 38 -3 29 -9 -10 -7 -11 -13 -2 -30 13 -24 2 -24 206
-1 55 6 158 15 229 18 76 4 131 11 133 18 2 5 -22 21 -53 33 -55 23 -85 48
-306 254 -83 76 -109 109 -95 119 1 1 83 4 181 7 123 4 181 10 183 18 2 6 -6
15 -19 18 -13 4 -81 36 -153 72 -132 65 -164 89 -337 252 -57 54 -78 83 -65
93 1 1 83 4 182 7 147 5 180 9 180 20 0 8 -11 18 -25 21 -44 13 -174 77 -229
115 -149 100 -328 262 -318 288 7 19 143 37 297 38 124 1 191 10 160 22 -8 3
-44 13 -80 22 -118 30 -144 39 -220 76 -41 20 -92 45 -113 54 -21 10 -42 26
-48 36 -5 11 -16 19 -23 19 -8 0 -37 16 -65 35 -28 19 -55 35 -60 35 -5 0 -28
16 -51 35 -23 19 -48 35 -55 35 -7 0 -40 18 -74 41 -33 22 -87 55 -119 72
-144 79 -362 264 -432 367 -13 19 -36 48 -52 64 -17 17 -38 46 -48 66 -10 20
-26 43 -35 50 -17 14 -85 115 -85 126 0 3 -13 23 -29 43 -16 20 -47 70 -68
111 -22 41 -54 98 -70 125 -16 28 -35 66 -43 85 -7 19 -26 58 -40 85 -32 59
-110 299 -110 339 0 15 -5 36 -10 47 -19 35 -23 114 -6 128 12 10 29 -3 103
-77 104 -105 234 -200 338 -248 87 -39 106 -64 85 -114 -13 -32 -67 -80 -89
-80 -7 0 -11 -10 -9 -22 2 -16 13 -26 38 -33 19 -5 42 -14 50 -19 44 -29 274
-49 483 -42 120 4 177 3 177 -5 0 -40 -128 -164 -188 -183 -16 -6 -22 -14 -20
-29 3 -19 48 -47 159 -98 9 -4 84 -22 165 -39 82 -17 169 -36 194 -41 25 -6
87 -13 138 -16 91 -6 92 -6 92 17 0 13 -11 38 -25 56 -14 18 -25 36 -25 39 0
3 -11 21 -25 39 -24 32 -68 138 -85 202 -4 18 -11 38 -16 45 -16 25 -17 43
-18 241 -1 108 -4 200 -7 203 -3 3 -25 -15 -48 -40 -52 -56 -77 -58 -98 -8 -8
21 -29 58 -46 83 -62 92 -67 99 -67 107 0 5 -18 31 -41 58 -22 27 -49 65 -59
85 -10 19 -32 48 -49 64 -17 17 -31 33 -31 37 0 8 -188 261 -200 269 -4 3 -22
29 -40 58 -17 28 -36 52 -40 52 -5 0 -28 28 -51 63 -23 34 -61 87 -85 117 -23
30 -54 78 -69 105 -15 28 -33 57 -40 65 -7 8 -25 44 -40 80 -40 94 -59 134
-68 141 -7 5 -31 84 -50 169 -5 25 -12 118 -14 208 -3 121 -7 162 -16 159 -38
-12 -111 -217 -132 -369 -6 -48 -31 -87 -45 -71 -7 7 -20 55 -50 173 -7 25
-18 68 -25 95 -25 90 -38 263 -32 420 4 83 9 160 13 172 4 16 1 25 -10 29 -12
5 -36 -12 -81 -55 -35 -33 -67 -61 -72 -61 -41 0 -67 90 -84 289 -22 250 0
450 65 594 14 32 26 63 26 70 0 6 10 35 22 64 27 67 15 86 -29 46 -16 -16 -41
-37 -54 -47 -78 -62 -178 -160 -274 -269 -106 -121 -127 -138 -140 -117 -5 8
17 88 46 165 4 11 13 36 20 55 7 19 20 44 29 55 9 11 33 55 53 97 21 42 52 95
70 117 17 22 49 66 69 98 21 32 69 92 107 133 40 43 66 79 61 84 -9 9 -101
-15 -150 -39 -95 -47 -92 -18 8 70 98 88 216 207 256 260 135 179 229 312 239
339 11 30 90 146 100 146 4 0 7 -54 7 -120 0 -89 3 -120 13 -120 12 0 57 39
114 101 18 18 62 61 98 94 37 33 83 76 103 96 20 19 53 42 72 49 19 8 37 17
40 20 4 5 105 66 152 91 10 5 25 9 33 9 8 0 15 4 15 9 0 26 -139 25 -257 -1
-81 -17 -91 -6 -39 42 24 22 48 40 55 40 6 0 33 10 59 23 43 20 62 22 212 22
103 0 180 -5 205 -12 145 -45 177 -56 240 -84 18 -8 106 -36 190 -59 17 -5 62
-20 100 -34 141 -52 395 -59 480 -14 22 12 75 39 118 61 42 21 85 49 95 61 9
12 34 34 54 50 20 15 46 42 57 59 11 18 32 48 45 67 26 36 33 74 16 85 -5 3
-30 -13 -54 -35 -27 -25 -52 -40 -63 -38 -30 6 -21 83 20 175 19 43 38 89 42
103 7 24 70 129 84 140 3 3 15 22 26 43 25 47 232 258 305 310 61 44 180 107
202 107 9 0 20 6 26 13 6 7 34 24 62 37 27 13 50 27 50 31 0 12 -71 17 -187
12 -62 -2 -113 -1 -113 4 0 14 133 72 190 83 92 17 291 40 355 40 33 0 65 4
71 8 15 10 64 110 64 132 0 9 7 33 15 52 27 66 28 335 1 448 -16 65 -16 79 1
96 15 14 32 16 125 12 59 -3 108 -2 108 2 0 8 -14 24 -101 116 -44 45 -49 71
-16 79 44 10 283 25 403 25 123 0 154 4 154 22 0 5 -23 37 -50 71 -30 37 -49
70 -48 82 3 18 10 20 89 18 72 -2 99 -7 160 -33 104 -45 190 -89 219 -114 74
-63 232 -229 268 -281 170 -250 277 -459 353 -686 48 -147 84 -324 88 -438 1
-25 4 -47 6 -51 2 -3 5 -85 6 -181 1 -154 4 -178 21 -207 19 -31 20 -39 8
-148 -19 -187 14 -524 52 -524 6 0 8 33 4 93 -6 94 2 164 19 159 14 -3 43 -91
44 -133 1 -19 5 -39 9 -45 5 -5 15 -29 22 -53 9 -28 34 -64 70 -101 87 -90
156 -114 305 -107 124 6 160 13 209 45 87 54 236 221 236 263 0 11 5 19 10 19
6 0 10 7 10 15 0 11 -7 10 -35 -6 -19 -12 -35 -17 -35 -12 1 4 7 53 14 108 7
55 12 125 10 155 -3 49 -9 80 -44 220 -5 19 -22 80 -39 135 -37 121 -70 245
-82 304 -5 24 -13 49 -18 55 -14 17 -41 280 -41 401 0 110 21 278 44 355 7 25
19 65 26 90 24 89 101 245 184 374 41 63 56 60 56 -11 l0 -58 88 87 c48 48
112 105 142 127 30 22 73 53 95 69 22 17 79 50 126 75 47 25 95 50 105 55 50
28 139 62 160 62 29 0 31 -20 5 -44 -22 -20 -119 -212 -121 -241 -4 -35 0 -45
15 -45 8 0 15 4 15 8 0 17 155 162 173 162 23 0 21 -19 -7 -61 -29 -42 -56
-105 -56 -129 0 -16 10 -17 110 -12 66 3 115 1 122 -5 7 -6 24 -13 38 -16 43
-10 170 -99 170 -118 0 -4 -19 -9 -42 -11 -51 -4 -60 -24 -29 -64 26 -33 91
-167 91 -187 0 -9 6 -28 14 -44 109 -227 130 -266 174 -310 85 -87 140 -115
297 -155 73 -18 130 -40 150 -58 11 -10 35 -26 54 -36 18 -11 42 -24 51 -29
17 -10 93 -99 115 -134 6 -9 17 -27 26 -41 9 -14 31 -65 50 -115 31 -83 33
-99 34 -210 0 -119 0 -119 -25 -125 -22 -5 -25 -11 -24 -46 1 -21 9 -73 18
-114 8 -41 21 -100 27 -130 6 -30 15 -63 20 -72 5 -10 9 -26 9 -36 0 -22 49
-101 81 -131 37 -35 107 -63 171 -69 59 -5 190 9 305 33 109 23 253 118 237
158 -6 18 -25 22 -38 10 -9 -9 -95 -32 -123 -33 -25 0 -36 12 -28 32 12 29
200 133 281 154 31 8 101 14 159 14 57 0 106 4 109 9 8 13 -50 60 -82 67 -56
12 -63 16 -60 32 6 33 165 39 258 10 102 -31 219 -113 254 -179 25 -46 17 -73
-18 -59 -41 15 -192 24 -200 11 -7 -10 29 -61 120 -171 84 -101 150 -205 205
-320 12 -25 26 -53 30 -63 5 -9 20 -52 34 -95 14 -42 29 -86 34 -97 5 -11 12
-33 15 -50 32 -198 36 -241 40 -520 2 -165 7 -313 10 -330 13 -75 26 -246 26
-342 0 -102 -32 -307 -51 -328 -5 -5 -9 -18 -9 -30 0 -11 -23 -56 -52 -99
l-51 -79 -2 -156 c-1 -148 -2 -159 -28 -208 -40 -78 -82 -105 -170 -111 -46
-3 -102 2 -152 12 -93 19 -111 11 -67 -31 16 -15 48 -45 69 -65 42 -40 73
-113 73 -173 0 -60 -52 -155 -115 -211 -71 -63 -247 -153 -316 -161 -68 -8
-78 -24 -46 -71 14 -20 39 -51 56 -69 17 -18 31 -35 31 -39 0 -4 22 -45 49
-93 50 -88 57 -103 115 -272 45 -130 61 -289 46 -461 -10 -119 -36 -225 -65
-264 -20 -28 -26 -14 -31 73 -5 83 -45 243 -75 305 -11 21 -19 42 -19 48 0 6
-6 18 -14 26 -23 23 -30 -16 -16 -94 23 -132 3 -620 -29 -726 -15 -49 -37
-132 -61 -238 -12 -53 -29 -112 -39 -131 -10 -19 -33 -72 -52 -118 -18 -46
-41 -97 -51 -114 -9 -16 -37 -70 -63 -120 -26 -49 -55 -99 -65 -110 -10 -11
-25 -33 -34 -50 -8 -16 -22 -39 -31 -50 -15 -19 -15 -19 -34 0 -10 11 -36 53
-57 94 -21 41 -60 102 -88 135 -27 34 -51 63 -53 65 -11 15 -19 -26 -25 -132
-9 -164 -21 -244 -57 -357 -30 -96 -43 -133 -60 -160 -5 -8 -28 -53 -51 -100
-23 -47 -47 -89 -54 -95 -7 -5 -21 -26 -31 -45 -22 -42 -93 -136 -129 -169
-14 -14 -26 -28 -26 -33 0 -11 -144 -150 -215 -208 -31 -25 -61 -56 -66 -70
-6 -14 -13 -90 -16 -170 -5 -157 -11 -184 -55 -245 -16 -22 -42 -61 -59 -87
-32 -50 -46 -65 -119 -124 -54 -44 -58 -53 -59 -127 -1 -88 -50 -180 -113
-213 -78 -40 -317 4 -389 72 -14 14 -50 32 -80 40 -30 9 -71 20 -91 26 -31 9
-44 7 -75 -9 -39 -20 -67 -61 -58 -85 10 -22 184 -123 280 -161 173 -70 175
-70 370 -71 187 0 207 3 310 49 148 66 161 75 251 168 49 51 126 120 169 152
44 33 93 79 110 101 107 145 134 186 173 252 23 41 42 78 42 82 0 4 7 14 16
21 15 13 46 57 141 199 24 36 49 74 55 84 7 10 23 31 34 45 12 14 24 36 28 48
4 12 19 39 33 60 14 21 40 63 56 93 16 30 44 75 62 100 17 25 46 72 65 105 18
33 36 62 40 65 4 3 25 37 48 75 23 39 54 88 70 110 15 22 34 51 40 65 7 14 26
45 42 70 16 25 42 67 57 93 16 27 41 70 57 95 50 79 155 293 177 362 12 36 28
74 35 85 8 11 14 29 14 41 0 11 7 34 14 50 18 34 66 271 66 320 0 19 7 50 15
70 12 29 18 34 39 28 30 -7 31 -5 51 146 54 413 181 727 359 889 16 14 38 36
50 48 12 12 53 38 92 58 76 40 119 75 107 86 -7 6 -43 26 -193 105 -25 13 -50
24 -56 24 -18 0 -25 30 -9 36 8 4 43 1 78 -5 117 -20 131 -12 75 43 -76 73
-147 130 -209 167 -102 61 -104 65 -102 173 2 107 27 198 75 271 17 28 75 114
127 193 53 78 105 159 116 180 86 157 105 197 128 268 64 198 75 417 31 650
-9 49 14 53 53 11 33 -37 47 -44 57 -29 6 10 -9 127 -24 190 -5 23 -15 63 -21
90 -7 26 -18 57 -25 69 -8 12 -23 50 -35 85 -12 35 -25 67 -30 73 -15 15 -10
55 6 55 8 0 40 -25 72 -55 32 -30 66 -55 75 -55 15 0 13 12 -18 103 -33 97
-59 156 -74 167 -4 3 -17 23 -29 45 -39 71 -67 114 -89 138 -28 30 -28 37 2
37 44 0 108 -44 164 -113 30 -37 60 -66 66 -64 20 7 17 100 -8 227 -37 188
-42 208 -76 303 -17 49 -29 94 -27 100 6 18 52 -34 84 -93 15 -29 34 -63 41
-76 7 -13 18 -24 24 -24 20 0 -4 265 -34 370 -5 19 -20 76 -33 127 -13 50 -28
100 -34 111 -6 12 -11 32 -11 46 0 14 -4 28 -10 31 -5 3 -10 14 -10 24 0 9 -5
22 -11 28 -5 5 -29 52 -53 104 -23 52 -53 110 -67 130 -13 20 -35 55 -49 78
-14 23 -43 66 -66 94 -22 29 -45 61 -51 71 -12 21 -53 67 -160 181 -40 42 -73
82 -73 89 0 15 49 84 74 105 16 13 15 16 -6 39 -13 14 -48 41 -78 61 -64 41
-160 140 -160 164 0 20 23 33 75 42 22 4 48 14 57 22 16 14 15 17 -20 40 -20
14 -39 29 -42 32 -3 4 -21 17 -41 29 -39 24 -48 35 -97 123 -36 65 -45 126
-62 404 -6 99 -13 187 -15 196 -5 14 -12 105 -35 422 -11 159 -1 314 50 737
12 101 13 180 3 180 -5 0 -23 -17 -40 -37 -26 -30 -34 -35 -42 -24 -11 17 -19
197 -26 606 -5 265 -20 571 -41 812 -3 33 -12 69 -19 80 -13 16 -16 13 -41
-45 -15 -34 -32 -61 -38 -59 -6 2 -14 26 -18 53 -4 27 -12 83 -18 124 -6 41
-14 89 -16 105 -23 153 -87 438 -104 460 -4 6 -11 26 -15 45 -4 19 -11 40 -15
45 -4 6 -10 24 -13 40 -5 30 -49 162 -66 200 -23 51 -62 156 -80 210 -10 33
-29 83 -41 110 -12 28 -31 76 -42 108 -25 72 -142 304 -167 332 -10 11 -30 39
-45 62 -14 23 -52 69 -84 102 -44 47 -65 61 -87 61 -41 0 -160 -37 -240 -74
-38 -18 -90 -43 -115 -54 -151 -71 -334 -224 -530 -442 -36 -40 -85 -94 -110
-121 -38 -40 -105 -119 -145 -171 -11 -14 -153 -174 -221 -248 -23 -25 -57
-63 -75 -85 -19 -22 -43 -49 -54 -61 -34 -37 -128 -142 -281 -314 -80 -91
-172 -194 -204 -230 -32 -36 -75 -85 -97 -110 -61 -72 -115 -120 -134 -120
-10 0 -21 -4 -24 -10 -3 -5 -26 -10 -51 -10 -38 0 -49 5 -84 41 -21 22 -42 49
-45 60 -4 10 -12 19 -19 19 -16 0 -29 -28 -52 -117 -10 -40 -21 -73 -25 -73
-11 0 -39 48 -39 65 0 30 -24 9 -59 -50 -47 -81 -156 -187 -230 -224 -33 -17
-67 -31 -76 -31 -8 0 -23 -4 -33 -10 -86 -47 -642 -64 -897 -27 -16 3 -66 8
-110 11 -234 18 -468 61 -505 92 -8 7 -45 26 -82 43 -73 32 -202 129 -259 193
-61 67 -77 21 -29 -80 11 -23 20 -49 20 -60 0 -10 7 -27 15 -38 16 -22 20 -60
6 -69 -14 -8 -106 86 -143 147 -51 85 -118 218 -118 233 0 23 -18 18 -26 -7
-3 -12 -5 -78 -3 -147 5 -148 -2 -156 -64 -76 -63 83 -93 152 -112 258 -3 23
-11 37 -18 35 -21 -7 -56 -88 -63 -146 -6 -54 -18 -82 -34 -82 -8 0 -100 131
-100 143 0 4 -20 40 -43 80 -24 39 -61 104 -82 142 -20 39 -43 77 -49 85 -7 8
-28 47 -47 85 -18 39 -42 79 -52 90 -9 10 -28 42 -41 70 -13 27 -40 73 -59
100 -20 28 -48 70 -63 95 -15 25 -37 56 -50 70 -12 14 -43 55 -67 92 -25 37
-63 86 -86 110 -22 24 -63 70 -92 103 -86 100 -298 312 -399 398 -52 45 -97
84 -100 87 -15 15 -129 100 -135 100 -7 0 -57 38 -86 65 -9 9 -40 27 -70 41
-30 14 -75 39 -101 56 -46 29 -101 52 -208 88 -140 46 -165 50 -327 49 -87 0
-162 -2 -168 -4z m397 -261 c33 -8 67 -19 76 -24 10 -5 38 -19 65 -31 26 -12
47 -26 47 -30 0 -4 18 -16 39 -26 89 -44 364 -303 528 -495 34 -40 81 -96 105
-124 23 -28 57 -70 73 -94 17 -23 49 -64 73 -90 23 -26 42 -52 42 -57 0 -6 20
-33 45 -61 25 -27 45 -54 45 -60 0 -5 17 -29 38 -53 42 -48 122 -155 122 -163
0 -3 14 -20 31 -38 17 -18 39 -49 49 -68 10 -19 35 -53 54 -75 20 -22 36 -43
36 -47 0 -10 69 -118 90 -143 10 -11 30 -42 46 -70 15 -27 40 -65 55 -83 16
-18 29 -37 29 -42 0 -12 61 -111 84 -135 10 -11 27 -40 38 -64 11 -25 36 -69
56 -99 39 -63 102 -186 102 -202 0 -16 -47 -57 -104 -90 -28 -16 -87 -59 -131
-95 -90 -75 -382 -361 -465 -457 -75 -86 -289 -287 -324 -304 -16 -8 -52 -17
-80 -20 -41 -4 -58 -1 -91 18 -77 45 -154 193 -184 353 -4 22 -21 81 -38 130
-17 50 -36 115 -43 145 -6 30 -16 69 -20 85 -5 17 -16 57 -25 90 -9 33 -22 74
-30 90 -17 41 -36 95 -43 125 -8 36 -47 105 -105 183 -73 99 -105 112 -272
112 -125 -1 -132 -2 -184 -30 -29 -17 -78 -56 -107 -88 -46 -49 -52 -61 -44
-78 8 -15 22 -19 63 -20 153 -4 252 -36 331 -106 26 -24 52 -43 56 -43 5 0 20
-21 35 -46 15 -25 34 -54 44 -63 16 -16 71 -122 71 -137 0 -4 11 -36 25 -70
37 -92 65 -242 65 -348 0 -121 28 -526 41 -601 14 -77 32 -119 69 -161 65 -75
26 -103 -116 -85 -50 7 -100 14 -111 17 -29 8 -56 -22 -48 -55 4 -14 29 -66
56 -115 38 -69 47 -92 38 -102 -6 -8 -15 -14 -19 -14 -5 0 -51 -20 -104 -45
-53 -25 -99 -45 -102 -45 -2 0 -45 -25 -95 -55 -50 -30 -96 -55 -103 -55 -7 0
-21 -10 -32 -21 -10 -12 -44 -37 -74 -57 -109 -69 -333 -287 -398 -387 -15
-22 -39 -55 -54 -73 -15 -18 -28 -38 -28 -44 0 -6 -17 -36 -38 -67 -71 -105
-152 -299 -152 -364 0 -18 4 -47 10 -66 12 -41 -1 -53 -95 -89 -33 -13 -64
-27 -69 -32 -6 -6 -21 -10 -34 -10 -43 0 -17 -24 66 -60 53 -23 82 -41 82 -51
0 -9 -24 -36 -52 -60 -29 -24 -87 -76 -128 -115 -42 -39 -80 -73 -85 -75 -6
-2 -25 -23 -44 -47 -31 -40 -76 -72 -101 -72 -5 0 -10 14 -10 32 0 49 20 196
37 263 8 33 16 71 19 85 10 48 54 235 65 275 6 22 24 67 39 100 41 90 52 143
47 226 -4 73 -9 95 -43 214 -10 33 -19 107 -21 167 -4 89 1 133 27 270 32 164
74 336 89 367 8 17 32 109 52 206 11 55 34 145 75 295 9 30 24 102 36 160 11
58 24 121 28 140 5 19 16 67 25 105 9 39 21 87 26 108 10 37 22 119 39 262 5
39 18 138 29 220 32 224 61 537 61 651 0 55 4 158 9 230 6 71 12 203 16 294 7
210 33 545 46 577 5 13 9 39 9 57 0 19 7 67 16 107 8 41 25 117 36 169 17 81
56 192 102 290 21 46 121 139 177 164 46 21 70 25 158 25 63 1 127 -5 163 -15z
m7269 -228 c38 -16 70 -42 107 -84 28 -33 52 -63 52 -65 0 -3 24 -56 54 -118
29 -63 65 -159 80 -214 15 -55 40 -138 56 -185 15 -47 33 -107 40 -135 16 -67
39 -162 49 -205 4 -19 13 -45 19 -57 7 -12 12 -35 12 -52 0 -16 5 -33 10 -36
6 -3 10 -22 10 -40 0 -19 6 -54 13 -77 14 -43 30 -110 42 -178 4 -19 13 -55
20 -80 7 -25 18 -70 23 -100 6 -30 18 -93 27 -140 22 -115 33 -178 40 -224 4
-21 10 -46 15 -55 5 -9 13 -50 19 -91 6 -41 18 -111 27 -155 8 -44 20 -105 24
-135 22 -140 31 -189 44 -240 15 -56 23 -105 51 -290 40 -264 47 -309 61 -362
7 -32 14 -79 14 -105 0 -27 5 -66 10 -88 21 -93 32 -535 19 -810 -11 -260 -18
-315 -38 -315 -5 0 -31 30 -57 68 -98 138 -206 240 -364 344 -47 31 -93 66
-102 77 -10 12 -24 21 -32 21 -16 0 -184 165 -223 217 -12 17 -27 43 -34 59
-6 16 -18 43 -25 61 -8 17 -14 40 -14 51 0 11 -3 27 -6 36 -8 22 -44 21 -45
-1 -1 -29 -43 -108 -59 -111 -21 -4 -54 64 -84 168 -90 321 -103 412 -105 755
-3 342 15 522 75 760 22 84 62 195 77 214 19 22 41 80 34 88 -7 6 -33 -10
-126 -75 -34 -23 -61 -46 -61 -50 0 -4 -22 -32 -48 -63 -26 -31 -52 -65 -58
-75 -9 -14 -15 -16 -23 -8 -9 8 -7 27 10 75 27 82 136 304 166 339 32 39 47
80 28 80 -42 0 -278 -252 -325 -347 -13 -27 -29 -55 -36 -63 -21 -27 -64 -154
-80 -235 -18 -93 -21 -387 -5 -505 18 -134 8 -313 -20 -344 -18 -20 -37 18
-48 94 -21 143 -111 351 -199 459 -54 67 -160 169 -222 213 -25 18 -52 38 -60
45 -8 7 -45 32 -81 55 -118 77 -184 123 -231 161 -55 45 -85 47 -123 7 -22
-23 -32 -27 -42 -19 -19 16 -16 42 7 72 11 14 20 29 20 34 0 4 17 31 38 59 47
64 62 90 55 97 -7 7 -53 -13 -78 -34 -24 -20 -196 -126 -219 -135 -26 -10 -20
44 9 82 14 18 25 36 25 41 0 4 10 19 21 33 16 20 101 143 144 209 34 51 107
160 123 181 11 14 31 43 45 65 15 22 56 78 92 125 36 47 68 93 71 103 4 9 10
17 14 17 4 0 23 24 41 53 18 28 39 56 46 60 8 5 25 26 38 47 21 34 55 76 137
171 13 14 48 56 78 92 116 140 561 580 618 611 9 5 34 25 56 44 49 43 130 81
177 81 20 1 61 -10 90 -23z m-2119 -2248 c29 -6 71 -23 93 -37 46 -29 91 -54
158 -87 26 -13 47 -28 47 -32 0 -5 22 -21 49 -36 28 -14 72 -43 100 -64 27
-20 62 -46 77 -57 109 -79 271 -237 344 -335 25 -33 55 -73 68 -89 23 -30 52
-92 52 -111 0 -23 -29 -7 -93 53 -107 98 -151 135 -178 147 -31 14 -63 33 -81
47 -26 22 -104 41 -193 48 -129 9 -129 9 -121 59 3 22 9 51 12 64 5 19 3 22
-22 22 -24 0 -81 -21 -136 -51 -39 -20 -60 -3 -72 61 -26 127 -80 129 -142 5
-24 -46 -39 -64 -56 -65 -4 0 -23 27 -43 60 -49 80 -105 96 -105 31 0 -16 -3
-43 -6 -60 -6 -26 -10 -31 -28 -25 -24 7 -86 73 -86 91 0 7 -9 17 -21 23 -41
23 -59 69 -59 158 0 115 14 118 121 27 76 -65 77 -64 103 48 28 118 27 117
100 117 35 0 88 -5 118 -12z m-2652 -108 c31 -33 64 -97 75 -145 10 -41 18
-145 12 -145 -3 0 -32 17 -64 38 -32 21 -81 46 -109 55 -27 9 -58 19 -67 23
-24 9 -22 -24 2 -50 24 -28 55 -111 46 -126 -4 -7 -16 -9 -29 -5 -71 23 -299
55 -311 44 -11 -11 13 -56 62 -113 18 -22 33 -48 33 -59 0 -17 -5 -18 -47 -13
-141 20 -180 18 -265 -9 -45 -15 -96 -34 -113 -42 -62 -32 -152 -114 -220
-202 -22 -29 -60 -77 -85 -109 -25 -31 -58 -76 -73 -99 -15 -24 -31 -43 -35
-43 -5 0 -23 -22 -40 -49 -34 -52 -59 -77 -68 -68 -7 7 87 184 128 241 16 23
45 64 64 91 74 109 114 162 149 200 20 22 48 56 63 75 78 106 385 376 482 425
27 14 51 29 54 34 4 5 21 13 38 17 18 3 39 10 48 14 21 12 119 38 155 43 74
10 87 7 115 -23z"/>
<path d="M18080 12442 c-66 -11 -158 -48 -221 -90 -159 -104 -274 -226 -326
-342 -11 -25 -34 -60 -52 -77 -31 -32 -32 -32 -69 -16 -20 8 -46 23 -58 34
-11 10 -23 19 -27 19 -29 0 33 -291 68 -320 19 -16 35 -4 35 25 0 48 83 104
108 72 5 -6 12 -54 14 -105 3 -73 8 -98 25 -120 25 -34 40 -34 56 -2 14 28 40
30 137 10 85 -18 286 -23 368 -10 75 12 144 38 197 76 17 12 40 25 53 28 12 4
41 32 63 62 23 30 45 54 49 54 7 0 48 99 65 158 4 13 25 42 46 63 21 21 39 46
39 55 0 9 -15 42 -34 73 -19 31 -51 88 -71 126 -41 79 -120 155 -160 155 -15
0 -31 10 -41 24 -8 14 -31 30 -50 36 -36 12 -170 20 -214 12z m175 -182 c33
-13 135 -114 135 -134 0 -40 -129 -74 -209 -54 -55 13 -67 22 -87 61 -40 77
68 162 161 127z m-355 -185 c0 -95 4 -123 19 -154 34 -66 133 -120 223 -121
54 0 149 32 195 66 60 45 74 22 30 -49 -41 -68 -85 -99 -159 -114 -111 -24
-276 5 -336 57 -19 16 -37 30 -41 32 -19 8 -60 79 -75 130 -26 91 -17 184 23
232 14 17 61 34 99 35 22 1 22 -1 22 -114z"/>
<path d="M13991 12345 c-106 -24 -145 -65 -60 -65 21 0 39 -4 39 -10 0 -5 -5
-10 -12 -10 -6 0 -25 -10 -42 -23 -17 -13 -57 -38 -88 -55 -32 -17 -87 -53
-122 -81 -36 -27 -75 -53 -88 -57 -26 -8 -100 -54 -110 -69 -4 -5 6 -21 22
-35 36 -31 140 -159 140 -172 0 -13 87 -137 124 -176 33 -36 144 -102 170
-102 9 0 33 -9 53 -20 21 -11 43 -20 49 -20 6 0 25 -7 42 -15 46 -24 284 -26
337 -3 94 39 183 61 243 62 60 0 64 -2 94 -38 41 -50 67 -46 87 14 9 25 19 50
22 55 4 6 9 21 12 35 4 14 25 45 47 70 58 65 75 104 60 141 -7 16 -10 43 -6
59 l6 30 -53 0 c-61 0 -105 26 -160 96 -48 60 -139 164 -161 183 -10 9 -39 35
-65 59 -129 121 -394 188 -580 147z m504 -260 c88 -75 74 -116 -47 -139 -59
-11 -113 3 -158 41 -62 53 -47 104 42 141 58 25 94 16 163 -43z m-420 -141 c0
-87 4 -116 16 -130 8 -11 20 -31 26 -45 7 -17 36 -40 80 -64 63 -35 72 -37
130 -32 45 3 81 15 132 41 60 31 111 46 111 32 0 -21 -54 -96 -89 -122 -89
-68 -223 -79 -355 -29 -170 64 -251 217 -201 381 19 63 47 85 105 82 l45 -3 0
-111z"/>
<path d="M18568 11170 c-21 -22 -38 -46 -38 -54 0 -7 -11 -24 -24 -37 -12 -13
-34 -44 -48 -69 -14 -25 -45 -79 -69 -120 -24 -41 -53 -95 -64 -120 -10 -25
-32 -68 -47 -97 -36 -68 -40 -76 -77 -156 -26 -57 -34 -67 -46 -57 -17 14 -65
98 -65 113 0 5 -10 24 -23 41 -13 17 -37 56 -55 86 -47 83 -162 198 -162 162
0 -17 80 -212 96 -234 5 -7 25 -49 43 -93 18 -44 45 -105 58 -135 14 -30 29
-64 33 -75 4 -11 13 -33 19 -50 7 -16 22 -56 33 -90 11 -33 25 -73 32 -90 19
-45 32 -83 52 -155 19 -70 30 -90 49 -90 8 0 14 31 19 99 17 242 67 535 116
676 9 28 25 77 34 110 10 33 22 71 28 85 5 13 19 51 30 83 11 33 27 71 34 86
8 14 14 33 14 42 0 8 4 19 9 25 4 5 17 34 27 64 10 30 23 58 28 61 4 4 7 12 5
18 -2 6 -21 -7 -41 -29z"/>
<path d="M13829 10913 c5 -10 20 -29 33 -43 13 -14 38 -46 55 -71 17 -25 39
-52 49 -60 9 -8 33 -36 51 -64 19 -27 54 -79 79 -115 24 -36 49 -80 55 -97 6
-18 15 -33 19 -33 12 0 160 -297 160 -319 0 -9 4 -21 10 -27 5 -5 18 -36 29
-69 11 -33 31 -91 45 -130 14 -38 26 -82 26 -97 0 -15 5 -30 10 -33 6 -3 10
-20 10 -36 0 -16 6 -58 14 -92 12 -53 24 -111 53 -269 7 -39 23 -35 23 5 0 17
4 75 10 127 42 399 53 498 70 595 10 61 25 155 34 210 9 55 23 133 32 173 21
96 8 112 -37 45 -82 -118 -111 -143 -171 -143 -73 1 -113 32 -380 300 -142
143 -265 260 -273 260 -12 0 -13 -4 -6 -17z"/>
<path d="M19416 10649 c-3 -8 -7 -104 -8 -214 -3 -197 -4 -202 -31 -254 -76
-147 -145 -221 -272 -292 -54 -31 -68 -34 -141 -34 -88 0 -112 8 -180 62 -79
63 -76 53 52 -214 30 -62 54 -117 54 -123 0 -6 4 -18 9 -28 27 -51 51 -130 51
-166 0 -38 22 -88 33 -76 13 13 97 141 97 147 0 7 61 106 71 113 3 3 23 37 44
75 21 39 48 84 60 100 21 28 66 119 94 192 7 18 19 38 27 44 8 6 14 23 14 38
0 15 4 31 8 37 5 5 17 50 27 99 22 108 28 476 7 497 -9 9 -13 8 -16 -3z"/>
<path d="M16630 9910 c-36 -4 -96 -15 -135 -24 -38 -10 -86 -21 -106 -25 -126
-27 -393 -261 -469 -411 -94 -185 -110 -324 -53 -467 27 -70 43 -99 121 -218
87 -134 109 -170 146 -244 75 -148 189 -264 323 -327 51 -24 99 -44 106 -44 6
0 21 -7 31 -15 11 -8 34 -15 52 -15 18 0 35 -4 38 -9 3 -5 29 -10 58 -13 107
-9 138 -50 138 -183 0 -97 -2 -99 -88 -124 -186 -55 -232 -71 -307 -107 -27
-13 -56 -24 -63 -24 -20 0 -164 -51 -182 -65 -8 -6 -42 -19 -75 -29 -33 -10
-71 -22 -85 -26 -29 -9 -146 -35 -245 -54 -72 -14 -294 -15 -370 -1 -100 18
-273 81 -302 111 -8 8 -44 31 -81 53 -37 21 -76 49 -87 61 -11 12 -32 28 -48
36 -59 31 -221 184 -338 320 -68 79 -237 323 -269 390 -10 22 -29 49 -41 60
-11 10 -29 35 -39 54 -16 31 -59 91 -130 183 -25 31 -20 57 10 57 11 0 23 7
27 15 7 21 -23 99 -53 134 -28 33 -104 75 -153 85 -65 12 -162 -25 -210 -80
-42 -48 -38 -69 14 -69 l40 0 17 -65 c10 -36 27 -96 38 -135 11 -38 23 -83 26
-100 3 -16 9 -39 13 -50 5 -11 16 -47 26 -80 10 -33 31 -88 47 -123 15 -34 28
-66 28 -71 0 -11 47 -127 60 -151 15 -25 45 -91 75 -160 15 -36 33 -72 40 -80
13 -15 95 -184 95 -195 0 -4 11 -21 24 -38 13 -18 40 -63 60 -101 20 -38 51
-88 69 -110 18 -23 41 -54 51 -71 29 -46 81 -105 210 -238 115 -118 147 -147
266 -240 96 -74 194 -179 228 -243 27 -53 32 -72 32 -135 0 -41 7 -138 14
-217 12 -120 18 -149 40 -186 26 -45 111 -126 132 -126 6 0 38 -14 70 -31 57
-29 61 -33 82 -94 28 -78 80 -139 158 -184 108 -63 126 -90 75 -111 -24 -9
-38 -9 -68 0 -21 7 -42 16 -47 21 -6 5 -16 9 -24 9 -8 0 -31 13 -51 29 -20 15
-52 36 -71 46 -75 38 -329 278 -387 365 -21 30 -47 66 -59 80 -12 14 -60 84
-107 155 -47 72 -102 148 -122 171 -21 23 -42 50 -48 60 -6 10 -96 103 -201
207 -105 103 -197 193 -204 200 -121 119 -245 282 -271 357 -10 28 -23 56 -30
63 -6 6 -11 17 -11 25 0 8 -6 26 -14 40 -29 56 -48 150 -66 337 -4 50 -13 114
-19 144 -6 29 -11 55 -11 57 0 2 -5 4 -10 4 -6 0 -20 -21 -31 -47 -34 -80 -36
-426 -3 -540 12 -42 -28 -26 -76 29 -25 28 -72 81 -106 117 -33 36 -91 100
-128 141 -109 121 -119 130 -133 130 -19 0 -17 -6 31 -79 24 -36 51 -82 61
-101 9 -19 35 -58 56 -87 22 -29 39 -55 39 -58 0 -11 63 -99 86 -120 12 -11
29 -34 37 -50 8 -17 26 -42 40 -55 13 -14 38 -45 56 -70 37 -52 378 -414 660
-702 223 -227 333 -350 452 -508 23 -30 49 -62 59 -70 9 -8 41 -51 71 -94 68
-100 95 -133 187 -224 60 -59 95 -83 181 -126 96 -48 137 -63 311 -112 30 -9
69 -22 85 -28 17 -7 46 -19 65 -26 19 -7 54 -26 78 -42 24 -15 47 -28 52 -28
5 0 14 -9 20 -19 5 -11 21 -26 35 -33 13 -7 62 -36 107 -64 46 -28 108 -61
138 -73 30 -13 69 -29 85 -36 89 -38 142 -48 275 -48 148 0 176 5 289 61 139
68 351 297 481 521 22 36 80 171 80 184 0 6 6 18 13 26 7 9 19 36 26 61 8 25
19 65 27 90 103 343 123 484 130 940 6 319 9 351 47 400 10 14 25 39 32 56 14
34 149 226 190 270 13 14 39 49 57 78 18 28 36 53 41 55 5 2 31 48 58 103 27
55 53 106 58 112 18 22 121 344 165 516 53 208 129 445 155 480 26 36 64 157
57 184 -13 51 -38 66 -113 66 -56 0 -77 -4 -103 -22 -53 -36 -59 -70 -64 -351
-5 -255 -13 -323 -54 -478 -54 -204 -264 -519 -398 -598 -103 -61 -216 -74
-349 -41 -49 13 -108 31 -130 40 -117 50 -199 73 -305 86 -30 3 -67 13 -82 20
-26 13 -28 19 -28 71 0 61 16 129 37 154 7 8 13 19 13 23 0 11 52 79 72 94 9
7 23 18 30 25 28 27 67 46 135 65 39 11 82 26 96 33 13 8 44 25 68 38 104 56
273 219 317 307 11 22 28 46 36 53 9 8 16 21 16 30 0 9 5 22 12 29 13 13 32
343 31 547 0 129 -14 213 -45 269 -83 150 -148 214 -283 279 -126 61 -164 70
-455 112 -128 18 -391 27 -480 15z m650 -245 c74 -8 160 -19 190 -24 101 -15
184 -56 219 -106 32 -48 28 -82 -17 -124 -43 -41 -61 -47 -282 -93 -30 -6 -64
-16 -75 -21 -41 -19 -96 -83 -128 -147 -41 -83 -45 -179 -10 -250 43 -86 76
-123 143 -159 64 -35 68 -36 197 -39 152 -4 162 -9 142 -67 -34 -94 -174 -176
-364 -215 -33 -7 -73 -16 -89 -21 -36 -11 -43 -6 -55 39 -9 33 -13 68 -26 202
-10 106 -27 275 -35 345 -5 44 -13 114 -17 155 -7 64 -11 75 -27 75 -46 0 -72
-183 -81 -574 -6 -243 -13 -301 -34 -301 -6 0 -23 13 -38 28 -15 16 -53 36
-83 45 -142 42 -273 88 -320 112 -95 48 -205 170 -181 199 13 15 23 14 81 -12
25 -11 69 -16 150 -16 101 -1 120 2 160 22 66 34 107 75 136 137 26 53 26 60
22 199 -2 80 -9 150 -15 158 -5 7 -13 24 -16 38 -4 14 -20 39 -37 55 -31 30
-32 30 -144 29 -100 -1 -119 -4 -165 -28 -67 -33 -154 -100 -217 -166 -58 -62
-115 -100 -148 -100 -34 0 -82 49 -95 97 -13 47 7 122 44 163 13 14 30 39 39
56 8 18 44 57 80 88 50 44 92 69 192 112 160 70 203 80 409 104 50 6 95 12
100 14 25 10 273 4 395 -9z m217 -2464 c54 -25 99 -94 137 -211 45 -137 43
-533 -3 -725 -10 -43 -86 -274 -103 -315 -47 -113 -135 -289 -200 -403 -16
-26 -28 -53 -28 -61 0 -7 -7 -20 -16 -27 -9 -7 -30 -37 -47 -67 -32 -58 -134
-166 -209 -221 -47 -35 -84 -51 -178 -77 -114 -32 -306 0 -390 66 -19 15 -48
34 -65 42 -46 24 -198 171 -249 241 -25 34 -59 80 -75 102 -16 22 -35 53 -41
69 -6 16 -19 41 -30 56 -11 16 -20 33 -20 39 0 7 -9 24 -20 39 -11 15 -38 74
-60 132 -23 57 -45 109 -50 115 -9 11 -27 64 -56 165 -9 30 -20 63 -25 72 -5
10 -9 23 -9 30 -1 7 -9 31 -20 53 -11 22 -19 48 -20 57 0 9 -11 52 -24 95 -13
43 -26 92 -29 108 -17 105 -29 158 -37 173 -10 19 -40 239 -40 293 0 35 18 62
36 58 5 -1 25 0 44 4 19 3 94 11 165 17 72 6 193 18 270 26 299 31 426 37 497
23 93 -17 380 -4 573 25 192 30 267 31 322 7z"/>
<path d="M13443 9522 c-22 -14 -63 -110 -86 -202 -17 -68 -29 -96 -41 -98 -9
-2 -38 17 -66 45 -137 135 -157 153 -168 153 -7 0 -12 -3 -12 -6 0 -9 110
-177 132 -201 80 -87 216 -378 225 -485 6 -55 5 -58 -31 -94 -33 -33 -40 -36
-74 -29 -79 14 -159 79 -255 205 -23 30 -50 64 -60 75 -38 42 -107 144 -107
159 0 9 -4 16 -10 16 -31 0 32 -189 90 -265 4 -5 22 -37 40 -70 35 -66 68
-106 181 -225 85 -89 124 -110 200 -110 47 0 55 3 89 39 76 79 83 200 26 431
-62 248 -78 410 -57 593 7 68 4 82 -16 69z"/>
<path d="M11340 9411 c0 -21 43 -81 75 -106 31 -23 95 -104 95 -119 0 -9 -36
-7 -62 3 -44 17 -138 34 -146 26 -4 -4 0 -10 8 -13 8 -3 35 -25 61 -49 25 -23
51 -43 56 -43 6 0 30 -17 54 -38 24 -22 62 -51 84 -65 80 -53 91 -61 130 -98
22 -20 55 -44 73 -53 17 -9 32 -20 32 -25 0 -5 26 -28 58 -52 31 -24 75 -61
97 -84 47 -46 123 -100 131 -93 3 3 -12 30 -33 59 -36 50 -73 92 -188 213 -55
58 -105 116 -105 122 0 10 31 2 105 -27 44 -17 85 -34 90 -39 6 -4 20 -10 33
-13 33 -8 29 26 -5 48 -16 10 -49 39 -74 64 -58 58 -115 105 -204 165 -38 27
-81 58 -95 71 -14 13 -41 31 -60 39 -19 8 -58 30 -85 49 -49 33 -109 67 -120
67 -3 0 -5 -4 -5 -9z"/>
<path d="M19308 7898 c-68 -61 -87 -79 -134 -129 -88 -94 -110 -129 -79 -129
16 0 24 4 83 35 54 28 58 6 12 -61 -112 -162 -171 -254 -216 -339 -15 -27 -37
-63 -49 -80 -13 -16 -26 -41 -30 -55 -4 -14 -11 -29 -15 -35 -4 -5 -15 -35
-24 -65 -10 -30 -24 -68 -31 -85 -20 -45 -45 -134 -45 -161 0 -46 21 -24 61
64 22 48 53 112 69 142 16 30 44 84 63 120 43 82 161 274 197 320 15 19 34 49
43 65 8 17 30 47 49 67 18 20 47 55 63 78 17 22 40 51 51 63 12 12 52 57 89
100 75 88 76 107 4 83 -24 -8 -62 -18 -83 -22 -38 -7 -39 -6 -34 20 6 33 -10
34 -44 4z"/>
</g>
</svg>
