<?xml version="1.0" standalone="no"?>
<!DOCTYPE svg PUBLIC "-//W3C//DTD SVG 20010904//EN"
 "http://www.w3.org/TR/2001/REC-SVG-20010904/DTD/svg10.dtd">
<svg version="1.0" xmlns="http://www.w3.org/2000/svg"
 width="1140.000000pt" height="806.000000pt" viewBox="0 0 1140.000000 806.000000"
 preserveAspectRatio="xMidYMid meet">

<g transform="translate(0.000000,806.000000) scale(0.100000,-0.100000)"
fill="#000000" stroke="none">
<path d="M4565 7461 c-65 -16 -167 -55 -190 -72 -10 -7 -101 -57 -170 -93 -42
-22 -102 -43 -222 -76 -374 -103 -444 -133 -512 -219 -49 -62 -72 -124 -81
-224 -12 -120 -30 -197 -91 -378 -89 -266 -179 -462 -265 -576 -85 -111 -165
-173 -371 -287 -61 -34 -114 -71 -133 -94 -30 -37 -70 -143 -70 -187 0 -13 -9
-45 -21 -72 -50 -115 8 -530 104 -744 101 -224 128 -329 138 -539 7 -156 15
-221 32 -270 3 -8 20 -62 38 -120 47 -145 124 -295 172 -334 37 -29 43 -31
125 -30 98 1 164 24 253 90 99 72 147 162 129 239 -5 22 -6 43 -2 47 6 5 92
-65 92 -76 0 -1 -17 -21 -37 -42 -69 -72 -100 -159 -157 -439 -41 -196 -66
-350 -66 -400 0 -65 42 -149 108 -213 69 -68 106 -91 217 -135 50 -19 102 -47
117 -61 50 -48 49 -149 -4 -321 -17 -55 -34 -104 -38 -110 -4 -5 -13 -26 -20
-45 -8 -19 -31 -71 -52 -115 -60 -123 -98 -255 -138 -470 -7 -33 -16 -80 -22
-105 -31 -143 -27 -275 10 -328 17 -23 20 -46 21 -146 2 -122 14 -210 30 -230
5 -6 19 -47 31 -90 11 -43 31 -104 44 -135 l24 -56 67 -3 c58 -3 67 -1 62 12
-21 55 -35 357 -36 784 -1 581 -1 578 122 759 56 83 87 162 87 222 0 20 -12
106 -26 191 -14 85 -22 170 -19 187 12 67 63 59 128 -21 32 -38 65 -58 235
-142 108 -53 211 -108 229 -121 18 -14 42 -45 54 -70 38 -78 19 -157 -77 -319
-69 -116 -104 -185 -104 -203 0 -9 28 12 68 52 59 58 72 67 104 67 104 0 218
-240 150 -313 -26 -28 -72 -49 -154 -72 -32 -9 -61 -21 -64 -27 -4 -6 28 -45
72 -87 96 -93 124 -128 117 -148 -3 -8 -38 -47 -77 -87 -78 -79 -216 -179
-341 -246 -170 -92 -205 -129 -231 -248 -8 -37 -22 -87 -30 -112 -8 -25 -14
-48 -14 -52 0 -5 92 -8 205 -8 240 0 212 -24 218 185 3 127 6 145 28 185 28
51 108 116 198 160 75 37 154 108 171 153 7 18 27 64 45 102 52 110 67 194 51
285 -16 88 -27 121 -100 300 -58 141 -72 189 -62 215 8 22 34 7 118 -66 58
-52 88 -70 88 -54 0 3 -33 69 -73 147 -121 238 -167 377 -137 413 14 17 76 20
130 5 193 -52 283 -70 350 -70 86 0 118 13 270 105 52 32 138 79 191 105 150
74 178 74 138 3 -55 -97 -72 -140 -79 -204 -10 -90 -35 -137 -133 -254 -113
-135 -177 -218 -174 -228 1 -4 34 -9 72 -11 44 -2 88 -11 118 -24 41 -18 47
-25 47 -51 0 -69 -73 -232 -166 -371 -55 -81 -106 -172 -100 -177 2 -2 37 -5
77 -7 178 -9 209 -66 119 -219 -65 -112 -71 -211 -23 -377 10 -34 16 -93 16
-152 l0 -98 168 0 168 0 3 202 c3 224 -3 263 -87 553 -35 121 -56 238 -48 265
10 32 27 60 36 60 6 0 43 -25 82 -55 71 -54 105 -68 105 -42 0 7 -8 22 -17 33
-12 13 -19 39 -21 83 -2 35 -21 138 -42 227 -54 223 -56 238 -35 270 15 23 21
26 57 20 22 -4 74 -24 116 -47 61 -31 78 -36 80 -24 2 8 -6 28 -18 45 -25 35
-60 132 -96 267 -86 322 -101 425 -66 455 20 17 64 34 112 43 67 13 175 72
221 122 46 49 153 229 170 286 6 18 20 80 33 139 35 163 55 181 171 159 34 -6
69 -11 78 -11 28 0 45 28 56 94 14 79 32 124 67 166 59 69 106 63 168 -24 83
-115 174 -198 254 -232 38 -15 132 -21 152 -9 14 9 72 -119 94 -206 18 -75 21
-210 5 -241 -13 -24 -54 -19 -121 15 -51 27 -183 77 -204 77 -25 0 -16 -23 37
-95 28 -39 65 -99 81 -135 29 -60 31 -73 31 -175 -1 -108 -11 -177 -54 -355
-34 -141 -45 -142 -139 -15 -39 52 -77 95 -86 95 -11 0 -14 -5 -9 -17 13 -35
36 -159 37 -198 0 -116 -57 -310 -144 -488 l-38 -78 14 -99 c9 -54 26 -129 40
-167 58 -164 77 -225 101 -338 34 -156 39 -170 55 -170 23 0 43 118 44 255 1
107 -2 133 -21 180 -40 99 -95 274 -102 320 l-6 45 106 117 c217 237 275 352
300 593 34 326 48 401 80 420 6 4 30 -14 55 -41 32 -34 48 -44 55 -37 7 7 13
84 15 205 8 408 12 448 40 448 38 0 95 -208 113 -412 8 -87 15 -117 38 -160
39 -72 147 -185 273 -282 66 -52 115 -99 133 -127 37 -60 87 -211 128 -384 27
-114 32 -158 31 -241 -1 -55 -6 -121 -12 -145 -12 -47 -26 -188 -36 -355 -8
-115 2 -135 37 -77 12 21 44 63 69 93 104 123 108 135 118 330 6 111 10 135
22 135 14 0 55 -42 155 -156 17 -19 51 -59 78 -88 67 -76 65 -99 -16 -187 -35
-38 -83 -103 -107 -144 -59 -102 -118 -178 -226 -290 -85 -88 -115 -126 -201
-253 -36 -53 -63 -132 -63 -184 0 -32 1 -33 45 -33 25 0 44 3 43 8 -3 13 14
76 29 107 9 17 52 68 97 115 243 255 477 540 538 656 43 82 54 134 39 190 -14
51 -92 155 -163 215 -70 60 -124 161 -153 283 -12 54 -101 230 -167 331 -35
55 -109 156 -163 225 -111 143 -195 265 -248 362 -42 77 -197 385 -197 392 0
2 -16 40 -36 83 -72 155 -99 239 -127 393 -25 135 -28 177 -14 189 42 34 281
138 452 196 131 45 123 38 384 327 224 247 335 387 393 494 37 68 43 87 43
140 0 54 -5 69 -49 145 -111 192 -270 375 -461 529 -66 54 -86 78 -120 142
-23 43 -58 129 -79 190 -56 165 -97 249 -158 315 -141 153 -234 294 -344 516
-36 73 -77 145 -92 161 -79 84 -206 129 -424 150 -99 9 -156 19 -172 30 -14 9
-58 57 -99 108 -163 205 -281 259 -660 303 -217 26 -248 32 -372 75 -121 41
-187 62 -260 82 -26 8 -199 12 -500 12 -253 1 -480 4 -505 8 -31 5 -66 2 -115
-11z m835 -111 c173 -13 279 -32 372 -65 102 -37 122 -42 218 -55 47 -6 157
-29 245 -50 252 -61 293 -70 340 -70 60 0 164 -34 222 -73 73 -49 108 -83 198
-192 45 -55 90 -107 99 -114 10 -8 42 -18 73 -22 85 -12 197 -84 319 -204 93
-93 103 -106 142 -199 24 -54 40 -101 37 -104 -3 -3 -18 4 -33 15 -48 35 -173
95 -188 89 -27 -11 -1 -56 164 -286 77 -107 107 -168 120 -248 14 -81 9 -92
-39 -92 -30 0 -39 -4 -41 -17 -4 -54 11 -126 64 -313 49 -173 75 -283 96 -399
4 -25 13 -46 19 -48 24 -8 48 156 59 414 7 173 13 186 67 164 81 -32 82 -30
31 78 -37 78 -94 224 -94 241 0 25 25 1 111 -107 153 -191 197 -255 213 -308
12 -38 16 -107 18 -287 2 -131 5 -238 8 -238 3 1 23 19 45 40 76 77 85 49 50
-162 -26 -155 -31 -307 -11 -309 6 -1 25 25 43 57 100 174 141 310 151 509 6
105 10 130 22 133 15 2 42 -31 201 -248 83 -114 99 -143 99 -187 0 -34 -8 -48
-63 -108 -35 -39 -83 -104 -107 -145 -104 -180 -278 -361 -524 -545 -163 -122
-207 -117 -156 17 33 86 26 95 -40 53 -58 -37 -124 -53 -145 -35 -17 15 -17
35 1 134 7 36 6 39 -12 32 -59 -23 -175 -48 -198 -42 -47 12 -34 73 56 266 67
143 83 181 108 265 13 47 10 127 -6 132 -6 2 -33 -45 -60 -104 -61 -134 -210
-432 -269 -538 -24 -44 -57 -118 -72 -165 -27 -83 -28 -90 -28 -315 0 -181 -3
-236 -15 -260 -25 -51 -42 -57 -66 -20 -60 91 -129 398 -159 705 -26 262 -18
408 30 560 47 147 116 449 161 705 7 44 20 116 29 160 17 93 20 265 5 351 -19
108 -63 257 -115 394 -47 119 -73 179 -165 372 -49 105 -213 198 -347 198 -55
0 -64 -3 -83 -27 -38 -48 -10 -109 110 -243 165 -184 209 -273 249 -503 47
-264 45 -531 -2 -640 -51 -115 -84 -322 -118 -737 -31 -384 -12 -506 146 -929
25 -69 45 -133 43 -144 -2 -11 -15 -29 -30 -40 -23 -17 -49 -22 -155 -27 -70
-4 -137 -11 -148 -17 -29 -16 -66 -59 -114 -131 -80 -119 -181 -148 -181 -51
0 31 -9 59 -19 59 -13 0 -30 -65 -46 -175 -8 -60 -20 -140 -25 -177 -21 -144
-130 -305 -277 -408 -54 -39 -267 -148 -363 -188 -114 -46 -218 -79 -293 -92
-52 -10 -78 -20 -109 -47 -86 -72 -187 -107 -296 -102 -71 4 -83 8 -157 52
-44 26 -88 47 -98 47 -9 0 -41 -12 -70 -27 -59 -31 -165 -39 -189 -15 -19 19
24 52 67 52 21 0 47 11 75 32 99 75 111 78 207 53 99 -26 108 -23 180 54 104
113 119 115 292 54 100 -35 160 -41 207 -20 77 33 111 73 208 243 32 56 70
113 85 128 15 14 76 47 137 74 159 70 207 97 241 136 46 52 49 92 13 230 -33
129 -36 166 -19 215 21 60 70 29 105 -69 19 -53 34 -65 34 -27 0 26 -25 155
-41 212 -35 126 -149 356 -252 510 -57 85 -214 239 -335 329 -99 73 -132 89
-132 65 0 -28 110 -179 229 -314 39 -44 80 -100 91 -123 19 -41 20 -46 5 -68
-14 -21 -23 -24 -80 -24 -36 0 -65 -4 -65 -9 0 -11 88 -82 175 -141 36 -25 74
-50 83 -57 26 -18 13 -21 -53 -12 -77 10 -377 11 -391 1 -6 -4 -13 -14 -16
-23 -10 -27 -348 -76 -453 -65 -160 18 -336 105 -620 309 -146 106 -207 157
-355 307 -138 140 -193 181 -241 183 -30 2 -35 -3 -71 -69 -21 -39 -42 -94
-48 -122 -10 -55 0 -185 25 -309 18 -88 19 -145 3 -161 -7 -7 -33 -12 -59 -12
-93 0 -143 62 -204 253 -40 123 -50 145 -61 134 -9 -9 13 -212 32 -292 21 -87
32 -112 82 -187 49 -75 51 -103 5 -92 -54 12 -131 52 -147 76 -18 28 -71 209
-97 333 -14 68 -19 132 -19 263 0 160 -15 395 -40 619 -24 214 -5 385 73 673
57 209 126 393 208 562 85 172 130 294 160 432 20 95 24 156 11 156 -5 0 -28
-62 -51 -137 -23 -76 -51 -163 -63 -193 -29 -76 -134 -275 -243 -460 -162
-274 -194 -334 -214 -393 -47 -135 -68 -253 -116 -637 -9 -69 -20 -158 -25
-198 -15 -108 -12 -553 5 -742 18 -214 36 -328 74 -475 53 -206 41 -218 -84
-92 -54 55 -91 102 -111 142 -28 59 -28 63 -30 240 -1 204 -4 220 -86 400 -79
171 -148 400 -192 631 -18 92 -20 114 -8 114 9 0 25 -30 103 -200 102 -223
186 -360 219 -360 18 0 20 7 20 83 -1 84 -3 107 -40 386 -14 107 -20 192 -16
245 2 44 9 155 14 246 12 221 29 258 162 350 65 45 173 152 231 230 41 55 144
255 174 340 53 146 58 179 60 380 1 107 5 209 10 225 22 81 62 129 150 181 81
48 100 53 238 69 155 18 242 46 382 120 55 29 134 64 175 78 230 79 617 113
970 87z m-1342 -3719 c87 -35 142 -101 142 -170 -1 -39 -34 -104 -78 -153 -68
-75 -122 -156 -178 -266 -78 -155 -96 -243 -50 -242 17 1 70 52 105 104 29 42
151 286 151 301 0 3 25 49 55 101 30 53 55 98 55 101 0 3 16 26 36 50 45 55
95 80 181 93 37 5 95 14 128 20 84 14 162 12 245 -5 39 -8 130 -18 201 -22 71
-3 126 -9 122 -14 -4 -4 -42 -25 -84 -47 -99 -51 -161 -94 -228 -157 -72 -67
-92 -101 -130 -225 -18 -58 -36 -116 -41 -130 -4 -14 -16 -52 -25 -85 -51
-182 -103 -310 -148 -368 -59 -77 -211 -167 -370 -221 -131 -45 -217 -60 -292
-51 -221 24 -473 144 -515 245 -28 68 8 433 60 605 46 152 212 371 355 468
116 78 136 87 200 86 33 0 79 -8 103 -18z m1478 -98 c21 -51 7 -95 -50 -165
-34 -41 -58 -59 -111 -82 l-68 -29 -43 23 c-54 28 -56 49 -10 91 19 17 38 45
42 62 9 41 44 94 71 106 16 8 25 6 39 -10 23 -26 35 -24 69 11 16 17 32 30 37
30 4 0 15 -17 24 -37z m-396 -253 c17 -22 42 -43 55 -46 28 -7 40 -31 24 -50
-6 -7 -36 -25 -66 -39 -63 -30 -126 -31 -131 -3 -4 18 42 143 60 166 16 19 24
15 58 -28z m844 17 c9 -14 6 -26 -11 -57 -16 -27 -23 -55 -23 -93 0 -71 -21
-98 -80 -106 l-44 -6 -20 -69 c-21 -69 -40 -91 -57 -65 -14 23 -10 78 8 105 9
14 33 34 54 44 57 29 69 54 69 135 0 88 25 138 67 133 14 -2 31 -11 37 -21z
m-1097 -99 c12 -11 24 -31 27 -44 4 -13 17 -34 31 -48 14 -14 25 -32 25 -40 0
-30 -146 -84 -195 -72 -31 8 -31 21 -2 119 35 117 58 134 114 85z m511 -339
c60 -44 96 -52 156 -34 27 8 62 15 78 15 23 0 28 -4 28 -25 0 -25 -25 -45 -55
-45 -9 0 -38 -22 -65 -50 -27 -27 -57 -50 -67 -50 -10 0 -38 16 -62 35 -24 19
-48 35 -53 35 -6 0 -19 -11 -29 -24 -37 -47 -92 -42 -157 16 -49 42 -98 61
-162 62 -54 1 -55 1 -55 31 l0 30 90 0 c69 0 96 -4 115 -18 35 -24 61 -21 106
11 69 50 78 51 132 11z"/>
<path d="M4040 6648 c0 -7 7 -26 15 -42 8 -15 15 -32 15 -35 0 -4 -60 -7 -132
-7 -135 1 -180 -6 -161 -25 5 -5 48 -15 96 -21 48 -6 87 -15 87 -18 0 -4 -33
-13 -74 -19 -92 -15 -142 -46 -190 -119 -32 -49 -45 -82 -31 -82 2 0 28 23 57
51 74 71 119 92 198 92 42 1 76 -5 97 -16 38 -20 112 -22 136 -4 42 31 79 227
42 227 -8 0 -20 -9 -27 -20 -18 -28 -28 -25 -75 15 -45 38 -53 42 -53 23z"/>
<path d="M5384 6562 c-24 -16 -94 -134 -113 -190 -25 -74 -28 -162 -6 -162 8
0 45 23 83 50 38 28 72 50 75 50 4 0 7 -11 7 -24 0 -35 13 -39 57 -17 54 28
184 52 276 52 103 0 124 -14 241 -160 52 -64 104 -125 115 -135 21 -19 21 -19
21 0 0 50 -129 246 -208 315 -134 118 -249 135 -395 59 -33 -17 -59 -25 -62
-19 -4 5 7 34 24 64 23 41 27 55 17 55 -14 0 -128 -89 -141 -110 -3 -5 -13
-10 -22 -10 -18 0 -13 25 24 118 25 64 27 77 7 64z"/>
<path d="M3968 6321 c-2 -32 -8 -56 -15 -59 -7 -2 -13 2 -13 8 0 16 -24 38
-54 50 -20 7 -26 6 -26 -5 0 -7 5 -17 10 -20 19 -12 10 -35 -12 -35 -39 -1
-100 -34 -171 -94 -56 -48 -74 -71 -107 -140 -55 -114 -52 -163 8 -120 21 15
22 14 22 -14 0 -36 19 -54 93 -87 64 -30 73 -45 25 -45 -29 0 -50 -18 -185
-155 -87 -90 -160 -173 -172 -198 -38 -78 -48 -336 -20 -480 13 -65 61 -151
100 -180 15 -10 57 -27 94 -38 85 -23 140 -61 176 -119 46 -75 69 -100 93
-100 30 0 71 33 101 81 34 52 101 96 209 134 133 48 156 59 205 101 61 53 156
175 193 248 27 53 31 72 31 141 l1 80 -70 125 c-62 109 -78 130 -124 161 -92
63 -315 122 -460 123 -83 1 -86 0 -150 -41 -36 -23 -83 -44 -105 -48 l-40 -6
42 39 c66 61 173 129 242 152 73 24 240 60 282 60 16 0 29 4 29 9 0 15 -40 21
-137 21 -51 0 -93 3 -93 7 0 4 9 17 21 29 16 17 25 52 40 150 31 207 29 298
-5 251 -18 -23 -26 -21 -26 6 0 13 -6 32 -14 43 -13 17 -15 15 -18 -35z m0
-207 c12 -8 22 -24 22 -35 0 -22 -10 -24 -29 -6 -10 10 -15 8 -26 -7 -8 -10
-16 -24 -18 -30 -3 -6 -11 -3 -20 9 -14 19 -16 19 -34 2 -37 -32 -53 -20 -32
26 23 50 94 72 137 41z m-174 -106 c3 -14 18 -40 32 -57 22 -26 33 -31 70 -31
45 0 52 -7 34 -41 -15 -27 -79 -26 -114 2 -50 40 -70 107 -44 149 7 11 14 17
15 13 1 -5 4 -20 7 -35z m-94 -40 c0 -43 30 -92 75 -120 19 -13 35 -26 35 -30
0 -25 -80 19 -108 60 -21 29 -37 96 -27 112 13 20 25 9 25 -22z m374 -353 c76
-12 113 -23 160 -49 69 -39 120 -85 143 -130 22 -41 28 -163 11 -196 -30 -56
-148 -25 -214 56 -72 88 -167 107 -251 52 -57 -39 -97 -58 -122 -58 -10 0 -54
17 -97 37 -72 34 -87 37 -168 38 -49 1 -91 5 -93 11 -2 5 25 40 59 78 61 65
67 69 198 121 154 62 198 66 374 40z m-404 -564 c0 -30 -21 -84 -48 -120 -34
-45 -78 -63 -126 -50 -50 14 -106 71 -106 109 0 17 2 30 4 30 2 0 27 -16 56
-35 73 -49 88 -46 150 25 55 63 70 72 70 41z m297 -20 c43 -32 64 -40 132 -51
94 -15 136 -4 221 54 29 20 56 33 61 30 17 -10 9 -60 -13 -82 -13 -11 -50 -37
-82 -56 -56 -33 -66 -36 -140 -36 -111 1 -152 20 -205 99 -63 92 -55 104 26
42z"/>
<path d="M5452 6146 c-13 -27 -29 -80 -37 -118 -17 -91 -27 -102 -87 -95 -63
8 -64 -11 -3 -65 25 -22 45 -43 45 -48 0 -5 -18 -27 -39 -49 -39 -40 -58 -77
-47 -88 3 -3 30 5 62 18 l56 24 47 -28 c200 -119 333 -127 453 -26 77 64 87
66 160 31 108 -52 180 -82 195 -82 34 0 -20 135 -85 211 -19 22 -58 55 -87 73
-28 19 -74 60 -101 91 -27 31 -85 86 -129 121 l-79 64 -66 0 c-57 0 -157 -21
-212 -44 -13 -6 -17 -1 -20 26 l-3 33 -23 -49z m271 -91 c40 -17 87 -68 87
-96 0 -21 -16 -26 -22 -8 -2 7 -18 -2 -35 -20 -31 -30 -57 -39 -67 -23 -3 5 6
19 19 30 34 30 32 46 -5 39 -28 -6 -30 -4 -30 23 0 35 -9 38 -33 10 -9 -11
-21 -20 -26 -20 -14 0 -23 37 -16 60 5 16 15 20 49 20 24 0 59 -7 79 -15z
m-114 -187 c59 -50 137 -49 220 3 74 45 88 40 44 -17 -58 -77 -160 -110 -234
-76 -72 32 -112 79 -123 145 -10 57 3 63 33 15 15 -24 42 -56 60 -70z m435
-59 c39 -31 33 -43 -18 -36 -40 6 -50 3 -93 -28 -101 -73 -135 -89 -192 -92
-56 -4 -101 10 -108 33 -3 8 20 12 74 13 87 1 134 20 193 76 59 57 102 67 144
34z"/>
<path d="M7722 1027 c-5 -6 -24 -43 -42 -82 -17 -38 -45 -99 -62 -135 -46
-100 -146 -211 -260 -288 -25 -18 -56 -44 -68 -59 -33 -42 -125 -119 -215
-179 -44 -30 -127 -94 -185 -143 -58 -50 -125 -100 -149 -112 -41 -21 -45 -21
-57 -5 -13 18 -10 34 22 118 10 26 15 50 12 54 -4 3 -40 -11 -81 -31 -41 -20
-85 -35 -98 -33 -38 5 -49 40 -32 99 21 70 14 83 -34 65 -65 -24 -128 -38
-159 -34 -26 3 -29 7 -32 40 -2 28 7 56 38 115 22 42 50 108 61 145 20 69 22
147 4 150 -10 2 -41 -55 -87 -158 -15 -34 -52 -95 -83 -135 -81 -109 -175
-320 -175 -395 l0 -24 473 0 473 0 59 60 c32 33 79 74 104 91 26 18 96 88 156
156 61 68 145 153 188 189 43 36 93 86 112 112 40 55 110 208 131 287 23 92
16 168 -14 132z"/>
</g>
</svg>
