<?xml version="1.0" standalone="no"?>
<!DOCTYPE svg PUBLIC "-//W3C//DTD SVG 20010904//EN"
 "http://www.w3.org/TR/2001/REC-SVG-20010904/DTD/svg10.dtd">
<svg version="1.0" xmlns="http://www.w3.org/2000/svg"
 width="2744.000000pt" height="3119.000000pt" viewBox="0 0 2744.000000 3119.000000"
 preserveAspectRatio="xMidYMid meet">

<g transform="translate(0.000000,3119.000000) scale(0.100000,-0.100000)"
fill="#000000" stroke="none">
<path d="M9165 31126 c-224 -43 -572 -155 -823 -265 -38 -17 -114 -57 -168
-89 -149 -88 -613 -338 -750 -404 -163 -78 -451 -172 -974 -318 -1132 -317
-1474 -438 -1743 -617 -154 -103 -329 -307 -432 -504 -97 -188 -148 -379 -180
-674 -57 -538 -145 -905 -390 -1625 -230 -672 -424 -1157 -645 -1605 -252
-511 -452 -808 -745 -1100 -257 -258 -576 -481 -1145 -800 -348 -195 -504
-299 -621 -415 -67 -67 -83 -91 -142 -210 -77 -156 -160 -399 -176 -515 -24
-165 -40 -233 -84 -352 -58 -155 -74 -230 -87 -431 -37 -530 103 -1496 317
-2192 71 -231 119 -358 235 -624 257 -587 369 -922 442 -1317 45 -244 66 -470
96 -1044 29 -550 50 -668 201 -1146 167 -531 250 -744 425 -1089 193 -383 333
-563 500 -646 107 -53 499 -55 746 -4 251 52 534 198 790 408 331 271 503 600
459 875 -8 45 -16 119 -18 165 -4 69 -3 82 10 82 42 0 367 -274 367 -309 0 -9
-52 -72 -115 -141 -64 -69 -143 -164 -176 -212 -171 -249 -294 -627 -463
-1418 -180 -847 -304 -1554 -322 -1840 -23 -372 226 -797 681 -1162 151 -121
329 -215 635 -338 289 -116 497 -230 557 -307 132 -167 151 -456 58 -888 -50
-235 -220 -786 -266 -865 -12 -19 -43 -87 -69 -150 -62 -151 -107 -251 -228
-510 -262 -564 -372 -931 -566 -1895 -52 -258 -101 -499 -109 -535 -50 -216
-80 -489 -79 -725 0 -284 39 -478 120 -610 75 -120 80 -153 92 -585 16 -582
48 -836 123 -986 44 -89 71 -168 151 -447 73 -252 129 -414 209 -599 l53 -123
54 -7 c107 -13 468 -14 481 -1 10 10 9 27 -4 85 -94 397 -144 1866 -134 3872
6 1177 16 1386 83 1686 52 230 120 371 353 724 241 365 337 554 397 786 48
185 43 292 -42 835 -78 500 -99 662 -110 855 -9 146 8 215 67 273 38 38 41 39
98 35 101 -7 175 -63 401 -304 138 -148 221 -197 1020 -599 582 -293 830 -426
897 -481 53 -43 155 -178 195 -258 45 -90 67 -158 79 -256 32 -250 -81 -554
-423 -1141 -319 -545 -441 -799 -384 -799 25 0 127 85 300 250 241 230 286
257 417 248 192 -14 400 -209 554 -517 96 -193 141 -379 133 -548 -7 -130 -30
-184 -113 -262 -105 -97 -250 -162 -635 -281 -146 -46 -228 -82 -237 -106 -11
-30 77 -135 352 -414 355 -360 435 -459 435 -538 0 -33 -49 -95 -224 -282
-363 -390 -915 -798 -1541 -1140 -363 -198 -520 -304 -656 -439 -159 -159
-209 -265 -304 -655 -29 -121 -77 -297 -105 -391 -28 -93 -52 -183 -53 -199
-2 -30 -1 -31 58 -40 33 -5 384 -9 780 -10 665 -1 723 0 766 17 107 41 138
115 145 342 2 83 9 301 14 485 11 373 25 497 69 600 103 247 391 504 817 729
243 129 378 222 535 370 133 124 188 203 263 376 35 83 94 215 131 295 288
624 323 946 170 1537 -47 180 -106 342 -321 876 -263 654 -322 842 -295 944 6
22 18 46 26 53 47 39 157 -34 505 -335 214 -184 330 -253 330 -196 0 11 -127
275 -283 588 -425 854 -579 1235 -619 1533 -9 69 -9 101 1 143 19 86 58 112
191 127 133 15 257 -3 573 -86 868 -227 1212 -276 1536 -218 171 31 373 127
776 369 332 199 584 338 880 485 298 147 472 219 550 227 72 8 89 -6 80 -62
-6 -39 -20 -67 -155 -315 -158 -292 -202 -426 -250 -765 -32 -230 -108 -406
-275 -640 -64 -89 -99 -133 -496 -615 -288 -350 -498 -634 -499 -672 0 -19
131 -39 335 -53 213 -14 397 -61 539 -138 93 -50 116 -83 116 -165 0 -179
-110 -495 -310 -892 -122 -242 -223 -415 -400 -685 -221 -338 -377 -610 -395
-687 -9 -34 -8 -34 275 -53 388 -26 544 -65 651 -162 59 -53 81 -104 87 -193
8 -133 -40 -269 -188 -535 -187 -336 -251 -577 -237 -895 8 -172 35 -332 102
-595 80 -314 95 -457 95 -887 l0 -258 699 0 699 0 6 113 c3 61 8 350 12 642
11 992 -12 1158 -305 2186 -195 686 -267 1033 -259 1242 3 84 7 99 45 177 23
47 55 98 71 113 l30 29 39 -20 c39 -20 158 -104 370 -261 194 -143 320 -203
358 -171 31 26 9 108 -48 176 -57 69 -72 121 -92 338 -26 265 -86 579 -221
1146 -138 578 -169 758 -145 847 16 60 85 158 122 173 88 37 280 -21 619 -185
259 -125 318 -147 345 -125 30 25 2 107 -84 240 -108 167 -250 585 -427 1259
-210 797 -294 1208 -297 1451 -2 132 12 192 53 242 54 66 244 147 441 189 313
66 704 269 922 478 133 126 381 500 589 886 146 270 163 320 278 835 78 348
115 480 165 585 90 189 208 226 535 171 390 -67 426 -65 488 27 44 64 69 142
107 335 73 367 158 556 329 728 132 132 255 167 376 107 73 -36 178 -142 285
-288 293 -399 610 -707 902 -873 112 -64 209 -96 353 -117 132 -20 370 -17
408 4 21 11 26 9 52 -19 66 -70 213 -397 301 -669 85 -263 115 -503 106 -853
-3 -117 -10 -234 -17 -260 -23 -92 -90 -128 -202 -108 -91 17 -135 33 -318
120 -284 133 -714 298 -827 316 -50 8 -83 -8 -83 -41 0 -38 62 -146 176 -306
220 -309 386 -605 454 -806 39 -119 55 -322 45 -613 -13 -427 -60 -723 -215
-1365 -62 -256 -102 -381 -140 -433 -76 -105 -148 -53 -418 303 -168 221 -303
379 -353 412 -31 20 -41 23 -58 13 -27 -14 -26 -21 5 -127 58 -202 134 -645
134 -788 0 -106 -24 -309 -55 -464 -103 -512 -315 -1091 -625 -1712 l-78 -155
34 -235 c61 -424 120 -671 242 -1019 195 -551 267 -800 377 -1294 130 -585
155 -666 206 -679 33 -9 48 2 74 52 66 132 108 417 127 872 13 323 1 593 -31
724 -11 44 -50 156 -86 249 -127 326 -312 900 -368 1141 -14 61 -31 151 -37
202 l-12 92 320 353 c375 414 468 521 626 722 328 416 531 807 636 1226 57
229 80 382 135 895 114 1064 175 1386 283 1489 l31 29 47 -28 c26 -15 111 -90
189 -165 144 -139 184 -165 212 -137 37 37 57 354 73 1132 25 1232 49 1537
121 1575 56 31 96 -5 164 -143 150 -311 277 -893 345 -1587 31 -318 62 -453
138 -605 152 -304 576 -752 1128 -1191 316 -251 519 -447 593 -572 133 -224
311 -744 471 -1377 152 -603 174 -748 174 -1140 1 -320 -13 -505 -50 -693 -47
-239 -94 -691 -135 -1296 -24 -370 -23 -548 4 -589 15 -24 20 -25 42 -15 15 7
60 62 107 132 97 145 189 266 335 441 169 203 240 302 293 410 89 179 116 336
145 855 28 500 44 610 91 610 55 0 251 -199 694 -705 101 -115 213 -241 249
-280 35 -38 88 -101 117 -140 167 -222 144 -332 -136 -645 -200 -224 -335
-407 -512 -698 -256 -420 -438 -649 -919 -1157 -244 -258 -331 -358 -459 -525
-167 -220 -391 -553 -450 -672 -105 -210 -178 -483 -168 -634 6 -94 12 -98
162 -102 70 -2 141 1 165 8 37 10 41 14 41 43 0 45 43 218 79 316 41 113 66
153 180 289 100 119 152 176 487 533 849 907 1671 1911 1964 2399 132 218 220
443 242 612 14 114 -2 242 -45 347 -85 211 -365 570 -633 811 -203 183 -321
342 -449 605 -79 161 -145 342 -195 530 -57 216 -167 473 -362 839 -265 499
-511 870 -998 1501 -596 774 -875 1190 -1155 1721 -183 347 -698 1380 -735
1474 -18 47 -89 209 -158 360 -296 654 -383 922 -501 1535 -80 417 -118 697
-105 783 5 30 16 56 33 72 128 128 1133 564 1921 835 107 36 240 88 296 115
230 111 377 252 1135 1090 1154 1276 1570 1804 1831 2324 97 193 125 322 115
526 -9 180 -40 261 -213 558 -314 536 -693 1026 -1164 1506 -240 244 -418 407
-700 643 -237 197 -353 313 -432 433 -148 225 -298 567 -504 1155 -85 244
-158 425 -239 593 -127 262 -211 388 -405 602 -550 608 -887 1116 -1365 2055
-255 499 -354 666 -454 764 -322 313 -852 493 -1696 576 -409 40 -642 78 -720
117 -68 35 -184 160 -530 576 -393 473 -738 719 -1235 880 -355 115 -743 186
-1540 282 -799 96 -908 120 -1521 328 -558 189 -977 315 -1089 326 -186 19
-651 27 -2000 36 -817 6 -1613 15 -1770 20 -545 20 -552 20 -625 6z m2635
-476 c990 -26 1685 -118 2186 -291 485 -167 535 -180 869 -229 359 -52 684
-120 1346 -279 792 -190 934 -219 1151 -231 253 -15 494 -79 744 -199 142 -69
200 -104 353 -219 200 -150 349 -304 696 -722 243 -293 362 -427 399 -449 45
-27 152 -58 281 -81 62 -11 147 -32 191 -46 366 -123 849 -484 1327 -991 149
-158 240 -280 302 -402 94 -189 276 -653 261 -668 -12 -12 -60 11 -157 75
-216 143 -539 302 -704 348 -43 12 -53 11 -72 -2 -82 -53 29 -249 577 -1018
319 -449 418 -606 502 -798 77 -179 139 -450 142 -623 2 -131 -21 -149 -194
-158 -162 -9 -177 -26 -166 -198 13 -213 85 -531 272 -1194 171 -611 290
-1096 369 -1510 41 -214 67 -305 95 -330 19 -17 21 -17 40 0 65 59 128 408
174 965 19 227 31 430 51 840 16 321 34 492 60 554 8 19 27 44 42 56 36 28 66
23 219 -36 79 -30 136 -47 169 -48 l50 -1 -1 50 c-2 51 -20 97 -184 455 -81
176 -240 570 -296 734 -48 139 -55 196 -27 196 41 0 229 -215 625 -716 454
-575 628 -834 693 -1026 51 -154 70 -405 80 -1063 8 -494 24 -1094 32 -1122 3
-13 8 -23 12 -23 4 0 74 63 157 140 197 185 258 216 295 149 30 -58 17 -288
-36 -624 -96 -599 -118 -810 -119 -1130 -1 -250 8 -319 41 -332 35 -14 134
132 292 425 252 469 404 919 475 1407 24 162 34 275 51 545 22 353 39 483 67
518 50 60 177 -90 798 -937 404 -553 471 -674 470 -861 -1 -127 -37 -196 -203
-382 -193 -218 -370 -450 -484 -638 -120 -197 -184 -295 -270 -417 -427 -605
-1064 -1229 -1893 -1853 -380 -286 -605 -412 -703 -393 -96 18 -88 147 28 463
63 171 81 274 51 286 -33 13 -86 -8 -226 -91 -211 -124 -352 -175 -488 -175
-82 0 -119 14 -148 57 -28 42 -24 207 10 393 34 185 42 265 27 274 -6 4 -58
-9 -115 -28 -215 -75 -588 -156 -713 -156 -78 0 -121 23 -146 79 -54 122 29
383 323 1016 169 363 249 543 302 675 79 194 158 446 174 550 30 204 6 428
-48 438 -35 7 -125 -158 -333 -603 -136 -293 -729 -1484 -875 -1760 -296 -556
-373 -722 -466 -1002 -104 -315 -114 -413 -114 -1183 -1 -607 -12 -973 -34
-1098 -25 -141 -120 -285 -188 -285 -193 0 -508 1056 -687 2308 -97 676 -144
1252 -145 1750 0 548 43 846 194 1345 227 753 492 1933 685 3055 20 116 52
290 70 387 68 349 91 648 82 1073 -6 313 -15 404 -58 619 -119 599 -363 1341
-682 2081 -155 359 -473 1036 -519 1104 -182 270 -512 506 -884 634 -249 86
-562 118 -728 76 -80 -21 -176 -144 -192 -245 -14 -89 38 -233 139 -386 92
-141 161 -225 488 -599 553 -633 739 -1000 889 -1749 141 -707 207 -1438 180
-2015 -18 -413 -61 -665 -150 -890 -118 -299 -188 -573 -264 -1045 -86 -526
-175 -1362 -241 -2255 -97 -1325 0 -1929 550 -3420 173 -467 255 -726 255
-801 0 -44 -73 -141 -136 -181 -27 -17 -71 -38 -98 -47 -63 -22 -253 -42 -506
-56 -335 -18 -597 -49 -651 -76 -90 -46 -239 -212 -420 -470 -180 -256 -264
-349 -404 -444 -168 -115 -325 -104 -375 25 -7 17 -16 78 -20 137 -10 129 -32
211 -62 232 -20 14 -24 14 -40 -1 -36 -33 -90 -218 -132 -461 -14 -77 -55
-349 -91 -604 -86 -600 -110 -696 -245 -973 -230 -471 -639 -922 -1078 -1189
-227 -139 -738 -405 -1112 -581 -475 -223 -1019 -411 -1462 -504 -291 -61
-347 -84 -493 -201 -423 -336 -844 -467 -1350 -420 -191 18 -270 48 -510 190
-174 103 -377 202 -427 207 -48 5 -146 -26 -258 -82 -206 -103 -449 -157 -646
-141 -188 14 -250 75 -169 165 49 54 136 90 244 101 148 16 208 46 471 240 52
39 137 92 189 118 l94 47 126 -1 c116 0 140 -4 311 -47 224 -57 303 -69 376
-57 102 17 143 48 389 298 127 129 261 256 300 283 100 72 179 93 309 86 122
-7 206 -29 541 -142 558 -188 744 -198 1018 -52 244 130 391 316 772 977 101
176 276 441 328 498 72 77 321 212 707 382 271 119 571 270 680 340 105 69
218 176 274 261 61 92 78 150 84 274 5 140 -16 269 -103 620 -81 328 -105 454
-112 581 -9 159 26 308 89 380 25 29 37 34 73 34 101 0 201 -129 303 -392 60
-153 96 -218 121 -218 40 0 41 84 1 312 -54 318 -123 618 -186 807 -176 525
-625 1413 -984 1946 -134 198 -279 364 -570 656 -359 359 -634 597 -963 833
-222 158 -329 220 -386 220 -44 1 -46 0 -49 -30 -10 -105 384 -655 888 -1239
239 -278 378 -465 445 -600 29 -60 57 -124 60 -142 12 -58 -52 -165 -119 -200
-24 -13 -77 -18 -230 -24 -202 -8 -296 -21 -296 -43 0 -6 28 -39 63 -72 141
-138 376 -317 779 -593 147 -100 272 -189 278 -196 10 -12 7 -16 -13 -24 -24
-9 -98 -5 -302 18 -264 31 -1331 39 -1515 12 -69 -11 -88 -25 -135 -102 -17
-28 -34 -38 -100 -61 -304 -102 -1152 -218 -1600 -218 -194 0 -340 18 -525 65
-537 136 -1166 471 -2047 1089 -719 504 -956 704 -1678 1416 -445 440 -568
552 -718 651 -126 83 -181 103 -296 103 l-93 1 -42 -46 c-131 -145 -333 -609
-358 -822 -25 -221 22 -736 109 -1182 42 -219 53 -295 60 -415 11 -204 -12
-281 -92 -309 -56 -19 -251 -26 -328 -11 -203 39 -360 190 -502 485 -74 154
-111 252 -240 635 -145 432 -177 503 -220 486 -45 -17 26 -764 110 -1164 74
-352 138 -507 335 -812 106 -164 168 -286 176 -344 6 -40 4 -46 -21 -62 -24
-16 -34 -16 -97 -6 -93 16 -237 71 -380 144 -137 71 -224 137 -257 197 -97
176 -368 1161 -425 1548 -29 193 -37 346 -46 888 -15 936 -55 1541 -175 2670
-80 758 -17 1435 224 2400 238 952 547 1826 927 2617 265 554 401 871 509
1193 194 580 322 1296 234 1313 -29 5 -100 -180 -235 -617 -123 -400 -235
-730 -290 -856 -26 -60 -118 -249 -204 -420 -247 -489 -471 -891 -888 -1600
-569 -965 -691 -1197 -794 -1510 -188 -568 -258 -970 -497 -2875 -99 -787
-104 -865 -104 -1750 1 -1038 26 -1602 104 -2350 58 -562 124 -937 259 -1478
113 -454 143 -628 120 -696 -15 -47 -39 -52 -97 -22 -140 71 -554 494 -727
743 -68 97 -146 252 -174 345 -34 110 -42 240 -52 835 -6 312 -14 606 -20 653
-33 274 -96 468 -300 915 -378 831 -640 1682 -845 2750 -54 280 -67 421 -41
431 10 4 25 -1 37 -12 27 -25 177 -325 354 -709 412 -897 729 -1454 896 -1575
55 -39 102 -41 126 -3 16 25 18 57 17 358 -1 371 -2 383 -114 1243 -126 956
-129 1043 -76 1952 38 656 58 905 82 1034 70 379 181 534 589 823 238 169 548
457 793 737 235 269 349 451 617 981 198 394 327 704 423 1020 104 341 119
473 132 1205 11 598 24 887 45 977 39 168 134 340 259 471 125 131 305 255
545 379 185 95 317 126 746 178 425 51 683 104 940 190 203 69 347 132 680
300 363 182 607 289 820 360 632 210 1595 348 2600 374 160 4 304 8 320 9 17
1 194 -3 395 -8z m-5085 -15478 c197 -43 374 -135 516 -270 139 -132 210 -260
231 -416 10 -72 8 -90 -10 -163 -40 -157 -156 -363 -299 -527 -336 -389 -530
-680 -767 -1153 -242 -485 -344 -830 -273 -933 55 -82 121 -57 283 105 114
114 203 223 271 335 112 183 473 897 552 1090 63 155 94 216 272 530 89 157
181 326 206 375 86 171 264 374 409 468 151 98 306 146 599 187 44 6 190 29
325 50 493 79 685 80 1125 5 299 -51 523 -75 930 -100 256 -16 399 -31 423
-44 18 -10 -35 -42 -323 -196 -444 -237 -621 -356 -899 -604 -364 -324 -432
-442 -636 -1096 -50 -159 -106 -337 -125 -395 -18 -58 -75 -247 -125 -420
-251 -865 -455 -1346 -675 -1588 -180 -198 -566 -453 -965 -638 -378 -175
-841 -328 -1198 -396 -101 -20 -149 -23 -352 -22 -210 0 -251 3 -385 27 -606
109 -1207 345 -1604 629 -109 79 -256 226 -300 301 -60 102 -66 145 -66 487 1
314 8 433 51 820 67 610 174 1144 285 1422 139 351 414 785 737 1163 123 144
390 407 512 505 142 114 500 348 624 409 141 70 204 82 401 76 106 -2 190 -10
250 -23z m6277 -372 c59 -99 82 -184 76 -289 -9 -138 -72 -265 -230 -463 -154
-191 -249 -258 -552 -389 l-201 -87 -115 60 c-146 77 -197 112 -221 151 -42
70 -19 127 101 247 117 118 155 177 200 309 79 234 235 421 350 421 24 0 46
-14 100 -65 103 -97 134 -92 274 44 108 104 145 133 164 129 8 -2 32 -32 54
-68z m-1682 -1052 c36 -40 106 -113 155 -163 74 -74 101 -95 150 -113 91 -34
125 -70 125 -133 0 -51 -32 -87 -128 -143 -265 -155 -521 -222 -652 -170 -46
19 -60 38 -60 86 0 110 180 588 254 676 21 23 36 32 59 32 27 0 42 -11 97 -72z
m3518 46 c59 -29 92 -75 92 -126 0 -22 -20 -76 -54 -146 -81 -163 -96 -221
-106 -402 -10 -185 -22 -243 -60 -304 -58 -91 -127 -123 -335 -153 l-120 -18
-17 -55 c-9 -30 -35 -118 -58 -195 -50 -172 -119 -319 -158 -339 -40 -20 -69
-5 -93 49 -40 90 -35 236 13 362 27 74 118 163 224 222 188 104 248 163 285
279 16 53 22 109 29 272 5 113 16 239 24 280 49 254 172 355 334 274z m-4609
-391 c29 -15 79 -52 110 -83 54 -52 68 -76 140 -231 17 -37 59 -98 96 -140 36
-41 77 -98 92 -126 24 -50 25 -54 9 -78 -56 -86 -322 -205 -566 -255 -163 -33
-270 -23 -312 29 -18 23 -19 35 -14 96 10 125 130 524 198 659 41 83 65 115
102 137 43 26 81 24 145 -8z m2108 -1407 c27 -13 93 -56 147 -95 232 -167 388
-203 606 -141 212 60 386 83 433 59 32 -17 37 -28 37 -82 0 -100 -79 -177
-199 -193 -72 -9 -136 -54 -301 -210 -144 -137 -237 -204 -280 -204 -41 0
-130 52 -271 156 -153 113 -201 139 -226 125 -10 -5 -54 -46 -98 -92 -100
-103 -150 -129 -252 -129 -119 0 -245 59 -389 182 -208 179 -428 267 -668 269
-134 0 -217 13 -232 34 -10 13 -14 50 -14 117 l0 98 294 0 c412 0 416 -1 621
-109 107 -56 224 -28 398 97 220 158 281 176 394 118z"/>
<path d="M6811 27737 c-24 -24 -2 -102 73 -257 46 -95 46 -106 -1 -114 -21 -4
-256 -11 -523 -16 -568 -10 -660 -21 -668 -77 -5 -33 31 -49 193 -83 50 -10
144 -26 210 -34 196 -27 365 -62 365 -76 0 -12 -81 -36 -175 -54 -233 -43
-307 -59 -374 -82 -233 -78 -386 -203 -547 -446 -113 -170 -169 -311 -134
-333 13 -8 68 38 245 205 165 155 276 239 390 295 112 56 178 73 333 88 162
15 337 0 443 -38 40 -15 103 -37 139 -50 185 -67 439 -51 518 32 106 113 212
485 212 745 0 164 -28 206 -109 164 -15 -8 -47 -40 -70 -71 -23 -31 -54 -60
-68 -66 -36 -13 -91 14 -192 97 -214 176 -239 192 -260 171z"/>
<path d="M12404 27341 c-68 -42 -251 -324 -384 -592 -117 -238 -172 -453 -173
-679 -1 -122 15 -184 49 -197 24 -9 114 40 269 146 409 282 398 275 412 255 7
-10 13 -41 13 -68 0 -69 17 -124 42 -137 32 -17 84 -6 195 44 220 100 495 165
856 203 189 20 522 15 606 -9 174 -51 314 -170 576 -492 449 -553 636 -765
672 -765 7 0 15 11 19 24 37 151 -426 898 -782 1262 -202 206 -473 387 -688
459 -137 46 -213 58 -361 59 -217 0 -378 -42 -653 -173 -170 -81 -223 -101
-263 -101 -23 0 -29 5 -29 21 0 31 53 158 108 257 128 234 118 271 -44 164
-124 -81 -334 -250 -429 -345 -83 -83 -114 -102 -151 -93 -57 15 -34 110 130
538 60 158 79 238 55 238 -8 0 -28 -8 -45 -19z"/>
<path d="M6516 26493 c-3 -16 -10 -85 -16 -155 -10 -117 -28 -204 -49 -236 -4
-8 -19 -12 -31 -10 -18 2 -26 14 -37 50 -23 82 -173 190 -283 205 -35 5 -40 3
-45 -19 -8 -30 18 -96 40 -104 9 -4 23 -20 31 -36 28 -54 -20 -108 -97 -108
-173 -1 -560 -241 -844 -525 -122 -122 -183 -212 -285 -420 -162 -332 -216
-546 -149 -588 26 -16 82 1 158 49 39 25 77 44 85 41 9 -4 15 -31 18 -90 8
-152 65 -209 335 -339 224 -107 303 -162 275 -190 -5 -5 -47 -13 -93 -17 -46
-5 -100 -15 -119 -23 -60 -26 -183 -131 -401 -346 -430 -422 -898 -939 -983
-1084 -185 -320 -221 -1634 -59 -2153 60 -192 209 -451 326 -568 55 -55 78
-70 174 -110 62 -26 163 -63 225 -83 275 -86 406 -146 539 -246 103 -77 166
-152 284 -333 204 -314 279 -377 405 -339 114 34 241 145 351 307 115 170 269
297 502 416 127 65 222 103 557 227 384 141 514 211 695 371 256 228 633 717
789 1023 110 216 122 276 131 658 l6 254 -172 306 c-356 635 -423 732 -599
861 -294 218 -929 426 -1575 517 -76 10 -217 18 -385 21 -349 7 -355 5 -591
-143 -217 -135 -376 -205 -520 -229 -52 -8 -97 -15 -102 -15 -4 0 26 31 65 68
351 331 798 621 1123 727 299 98 1000 245 1173 245 85 0 129 42 78 75 -48 32
-182 46 -536 55 -190 5 -357 12 -372 16 -26 6 -27 7 -13 33 7 14 35 51 61 81
26 30 56 75 66 100 82 190 219 1178 205 1470 -9 183 -30 203 -119 112 -32 -34
-63 -62 -68 -62 -16 0 -30 37 -30 78 0 85 -66 232 -105 232 -7 0 -16 -12 -19
-27z m-109 -978 c65 -19 109 -50 150 -103 27 -35 33 -53 33 -91 0 -46 -12 -71
-36 -71 -7 0 -35 18 -63 40 -28 22 -57 40 -65 40 -19 0 -91 -90 -119 -147 -12
-25 -28 -43 -37 -43 -10 0 -40 25 -67 55 -28 30 -55 55 -61 55 -5 0 -38 -23
-73 -51 -77 -62 -113 -81 -142 -77 -20 3 -22 9 -22 58 1 71 38 153 99 218 101
108 269 157 403 117z m-642 -422 c32 -163 151 -345 261 -399 47 -23 72 -28
157 -31 170 -6 197 -16 197 -71 -1 -40 -50 -123 -86 -144 -51 -30 -136 -41
-217 -28 -179 27 -327 159 -404 358 -33 85 -38 233 -10 296 20 45 64 106 76
106 5 0 16 -39 26 -87z m-396 -129 c6 -14 11 -42 11 -62 0 -62 20 -163 42
-216 55 -129 137 -226 278 -326 113 -81 145 -113 136 -136 -5 -13 -14 -15 -47
-10 -84 13 -229 104 -331 207 -107 109 -178 284 -181 452 -2 74 0 80 26 102
31 28 49 25 66 -11z m1281 -1534 c232 -26 520 -75 628 -106 278 -80 566 -255
768 -467 183 -191 230 -321 241 -667 9 -272 -18 -377 -112 -435 -43 -27 -58
-30 -146 -33 -120 -5 -213 19 -340 84 -124 64 -197 123 -334 269 -183 196
-298 272 -475 316 -70 18 -103 21 -190 16 -160 -9 -254 -45 -447 -171 -200
-130 -373 -205 -447 -193 -50 8 -213 72 -401 157 -293 133 -335 142 -755 160
-217 9 -302 18 -318 35 -19 19 159 245 332 420 170 172 243 214 692 393 370
148 531 199 709 227 126 20 395 18 595 -5z m-342 -2341 c31 -17 108 -69 171
-116 187 -137 289 -179 541 -222 392 -67 571 -29 915 197 145 95 264 156 287
147 57 -22 46 -186 -20 -293 -42 -67 -327 -262 -524 -357 -124 -61 -182 -68
-472 -62 -276 6 -347 17 -471 76 -103 49 -179 111 -258 214 -126 161 -257 379
-257 426 0 29 23 27 88 -10z m-1052 -5 c16 -63 -31 -244 -97 -376 -173 -343
-441 -468 -714 -332 -132 65 -266 195 -320 311 -20 42 -25 68 -25 132 0 44 4
83 10 86 5 3 92 -47 192 -111 368 -237 389 -233 711 125 166 183 228 226 243
165z"/>
<path d="M12726 25695 c-94 -197 -143 -350 -227 -723 -52 -233 -107 -276 -324
-251 -194 21 -243 -10 -175 -112 16 -24 96 -108 179 -187 82 -78 153 -152 156
-163 9 -27 -20 -67 -145 -204 -175 -190 -254 -335 -205 -375 20 -17 139 20
342 106 l152 64 149 -89 c374 -224 649 -342 932 -402 122 -26 347 -31 445 -10
222 46 367 123 620 326 258 207 307 214 580 88 479 -223 734 -332 810 -347 19
-4 38 -1 50 8 95 70 -161 638 -406 900 -76 81 -208 191 -355 293 -123 87 -241
195 -467 428 -217 224 -312 310 -601 544 l-199 161 -178 0 c-192 0 -339 -15
-537 -56 -124 -25 -336 -85 -425 -120 -78 -30 -89 -14 -105 151 l-8 90 -58
-120z m966 -435 c109 -24 179 -56 268 -126 122 -96 213 -228 213 -311 0 -73
-49 -100 -78 -44 -14 28 -17 29 -44 20 -17 -6 -66 -44 -109 -84 -98 -89 -160
-127 -212 -129 -49 -1 -75 22 -65 55 4 12 45 62 91 111 67 70 84 94 84 118 0
40 -30 47 -132 31 -57 -9 -83 -9 -92 -2 -8 7 -15 46 -18 101 -5 89 -17 120
-45 120 -8 0 -52 -36 -98 -80 -46 -44 -92 -80 -103 -80 -44 0 -73 65 -74 166
0 109 26 144 117 158 53 8 208 -5 297 -24z m-676 -423 c16 -17 56 -73 88 -122
36 -54 104 -135 170 -201 94 -94 124 -117 196 -153 152 -74 309 -88 479 -41
107 30 181 63 324 147 153 89 203 112 240 113 37 0 35 -22 -8 -95 -95 -157
-240 -291 -400 -371 -117 -58 -208 -83 -325 -91 -160 -10 -275 21 -440 117
-237 138 -362 331 -395 611 -14 115 16 150 71 86z m2073 -597 c57 -31 130 -94
158 -136 13 -20 13 -27 2 -40 -12 -14 -33 -15 -171 -9 -189 8 -213 2 -338 -85
-523 -365 -622 -411 -900 -414 -90 0 -168 4 -206 13 -111 24 -215 99 -185 134
17 22 57 27 286 37 300 14 435 46 596 143 63 37 96 64 286 230 184 162 332
201 472 127z"/>
<path d="M22163 4296 c-37 -32 -108 -168 -276 -536 -74 -162 -155 -338 -180
-390 -120 -251 -309 -510 -545 -748 -165 -166 -272 -255 -563 -468 -114 -84
-202 -163 -288 -262 -164 -187 -467 -434 -908 -739 -142 -99 -427 -318 -608
-468 -436 -360 -619 -499 -755 -569 -106 -55 -150 -68 -181 -52 -27 13 -69 89
-69 126 0 44 36 166 98 335 66 178 90 271 73 288 -15 15 -107 -18 -312 -111
-235 -107 -339 -144 -414 -146 -107 -2 -169 60 -181 181 -6 62 7 141 51 302
25 93 32 175 17 197 -27 40 -80 37 -209 -12 -114 -43 -333 -101 -449 -119
-120 -19 -233 -15 -271 10 -29 20 -43 73 -43 171 0 113 23 180 142 424 222
453 296 667 329 949 22 199 -12 346 -69 299 -46 -38 -133 -200 -304 -563 -114
-243 -204 -396 -363 -620 -193 -272 -319 -488 -464 -801 -181 -389 -272 -671
-288 -884 l-6 -90 1976 0 1975 0 199 198 c203 204 338 324 478 427 104 77 419
391 671 670 253 280 585 613 784 787 171 149 384 363 447 448 168 228 472 897
553 1219 66 264 65 556 -1 569 -9 2 -30 -8 -46 -22z"/>
</g>
</svg>
