<?xml version="1.0" standalone="no"?>
<!DOCTYPE svg PUBLIC "-//W3C//DTD SVG 20010904//EN"
 "http://www.w3.org/TR/2001/REC-SVG-20010904/DTD/svg10.dtd">
<svg version="1.0" xmlns="http://www.w3.org/2000/svg"
 width="800.000000pt" height="800.000000pt" viewBox="0 0 800.000000 800.000000"
 preserveAspectRatio="xMidYMid meet">

<g transform="translate(0.000000,800.000000) scale(0.100000,-0.100000)"
fill="#000000" stroke="none">
<path d="M3244 7688 c-42 -46 -99 -137 -108 -173 -4 -16 -14 -43 -21 -60 -8
-16 -19 -50 -26 -75 -7 -25 -14 -52 -17 -60 -2 -8 -8 -85 -12 -170 -8 -156
-12 -174 -67 -310 -6 -14 -14 -41 -18 -60 -4 -19 -11 -39 -15 -45 -7 -10 -35
-124 -64 -261 -11 -52 -14 -104 -10 -190 4 -71 0 -190 -9 -294 -19 -228 -8
-707 19 -845 12 -65 17 -142 18 -275 1 -206 4 -192 -81 -350 -72 -134 -93
-177 -93 -189 0 -6 -4 -11 -10 -11 -5 0 -10 -4 -10 -10 0 -5 -11 -34 -25 -64
-14 -30 -25 -59 -25 -64 0 -5 -9 -31 -21 -58 -11 -27 -26 -62 -33 -79 -24 -55
-96 -290 -100 -327 -1 -3 -4 -10 -9 -14 -4 -4 -7 -17 -7 -30 0 -12 -7 -24 -15
-28 -9 -3 -14 -18 -14 -38 0 -18 -8 -61 -18 -95 -20 -68 -57 -115 -229 -296
-52 -54 -94 -103 -94 -108 0 -5 -6 -9 -14 -9 -8 0 -17 -10 -20 -22 -3 -13 -25
-44 -49 -69 -23 -26 -53 -61 -67 -79 -14 -17 -53 -52 -87 -77 -35 -24 -63 -52
-63 -61 0 -10 -23 -41 -50 -71 l-50 -54 0 -123 c0 -68 7 -161 15 -206 26 -141
37 -193 42 -201 4 -6 85 53 103 74 10 12 105 59 120 59 8 0 28 7 44 15 38 20
209 21 225 1 6 -7 28 -16 49 -20 50 -7 114 -71 106 -103 -4 -16 -1 -25 10 -29
10 -4 16 -18 16 -40 0 -40 -3 -38 44 -19 26 11 42 26 52 52 l15 35 26 -23 c31
-30 107 -137 134 -192 12 -23 23 -43 24 -45 8 -9 46 21 59 45 l13 27 14 -25
c7 -13 16 -51 19 -83 3 -33 10 -61 17 -63 6 -3 24 15 40 39 15 24 28 45 30 47
2 2 6 1 9 -2 11 -11 13 -59 3 -85 -17 -44 -4 -57 35 -33 18 12 36 21 38 21 3
0 3 -20 1 -44 -6 -54 13 -72 28 -27 19 53 29 34 29 -54 0 -69 3 -85 15 -85 8
0 15 3 15 8 0 9 57 42 63 36 2 -2 1 -24 -3 -49 -7 -49 1 -56 32 -28 17 15 20
15 28 3 6 -8 10 -36 10 -62 0 -59 19 -64 45 -11 l18 38 10 -35 c5 -19 7 -70 4
-112 -3 -42 -3 -79 0 -82 9 -9 41 28 48 57 4 15 11 30 16 33 5 3 9 17 9 32 1
27 1 26 40 -16 48 -54 72 -124 71 -208 0 -35 2 -64 5 -64 16 0 74 37 107 68
30 29 37 43 37 74 0 21 -4 46 -9 56 -4 9 -17 35 -27 57 -21 43 -85 109 -223
229 -100 86 -142 135 -185 211 -16 28 -36 58 -44 67 -8 10 -20 41 -27 70 -14
62 -33 71 -58 28 -23 -39 -41 -39 -32 -1 7 33 -7 48 -25 26 -32 -39 -60 1 -60
86 l0 49 -55 0 c-50 0 -55 2 -55 23 1 40 49 159 76 188 44 46 54 39 54 -41 0
-38 3 -70 6 -70 3 0 19 9 35 21 l29 20 0 -35 c0 -41 0 -41 57 -20 52 20 65 13
35 -19 -12 -13 -22 -27 -22 -31 0 -9 32 -4 61 8 11 5 18 1 21 -12 4 -15 17
-21 59 -25 30 -3 85 -13 124 -21 90 -20 184 -21 212 -1 51 36 71 129 30 144
-16 6 -23 18 -25 42 -4 48 -19 59 -43 30 -26 -31 -35 -21 -15 18 23 43 21 54
-6 40 -12 -6 -33 -22 -47 -35 -32 -30 -36 -25 -17 20 18 44 2 49 -34 11 -35
-37 -44 -31 -37 25 3 28 3 50 -1 50 -12 0 -56 -32 -65 -47 -4 -7 -12 -13 -17
-13 -17 0 -11 36 16 85 34 64 27 81 -23 59 -21 -9 -44 -18 -52 -21 -24 -10 -2
39 35 77 19 20 34 39 34 43 0 16 -44 5 -75 -19 -50 -38 -51 -13 0 49 25 31 45
58 45 61 0 13 -37 5 -67 -14 -36 -22 -40 -18 -18 20 21 37 19 53 -4 40 -11 -5
-31 -10 -46 -10 -16 0 -36 -11 -51 -27 l-25 -28 6 28 c6 28 5 29 -25 22 -29
-6 -30 -5 -25 18 9 33 -12 44 -34 18 -26 -29 -45 -27 -37 4 5 18 2 25 -8 25
-8 0 -16 -6 -19 -12 -3 -9 -7 -7 -12 6 -5 11 -3 27 3 37 17 27 15 30 -15 23
-23 -6 -25 -5 -19 12 21 49 20 57 -4 49 -20 -6 -21 -4 -15 17 4 12 11 27 16
33 17 18 10 37 -12 30 -19 -6 -19 -5 -7 17 7 12 19 27 26 31 19 12 14 27 -8
27 -11 0 -28 -9 -37 -20 -38 -44 -46 -1 -11 61 21 38 19 64 -4 41 -22 -22 -27
-12 -12 23 18 44 18 65 -1 65 -11 0 -12 5 -5 26 13 34 13 37 -5 30 -19 -7 -19
8 1 39 23 35 8 52 -22 24 -40 -38 -40 -11 0 30 40 41 35 64 -7 31 -42 -34 -42
-22 2 25 56 61 55 80 -3 50 -45 -24 -42 -11 8 31 25 21 46 42 46 46 0 13 -35
9 -56 -7 -41 -31 -46 -13 -6 26 43 41 47 59 11 59 -17 0 -20 5 -14 28 4 20 1
33 -9 41 -8 7 -29 37 -46 67 -39 69 -40 137 -5 249 61 191 214 429 310 480
l37 20 19 -24 c29 -35 26 -125 -6 -185 -14 -26 -25 -50 -25 -53 0 -3 22 -3 49
0 57 7 119 42 369 208 90 60 165 109 168 109 3 0 64 29 136 65 152 76 179 79
250 34 26 -17 48 -34 48 -38 0 -4 15 -15 34 -23 32 -16 58 -38 217 -187 59
-55 74 -64 114 -69 35 -4 58 1 96 18 27 13 48 28 46 34 -5 14 -42 24 -92 25
-60 1 -85 23 -85 75 0 48 -13 66 -50 66 -34 0 -72 26 -158 106 l-72 69 -3 65
c-2 58 0 67 22 88 13 12 32 22 41 22 33 0 85 -23 115 -51 17 -16 37 -29 45
-29 7 0 34 -17 59 -38 83 -68 149 -105 201 -110 46 -4 50 -2 114 52 66 56 96
69 96 41 0 -8 16 -21 35 -29 19 -8 35 -22 35 -30 0 -25 35 -18 61 12 45 52 90
122 100 154 8 29 6 35 -17 55 -15 12 -34 25 -43 28 -9 3 -32 29 -51 57 -19 29
-46 67 -61 83 -26 28 -28 37 -31 137 -3 97 -5 109 -28 133 -32 35 -77 58 -93
48 -7 -4 -34 -15 -61 -24 -54 -19 -83 -13 -141 25 -18 12 -50 32 -73 46 -39
23 -41 28 -42 70 0 63 7 70 70 67 52 -2 55 -1 58 24 3 26 3 26 90 25 67 -1 93
-6 116 -21 28 -19 29 -19 42 0 14 19 15 19 39 -10 20 -24 26 -27 34 -16 14 21
36 7 59 -39 19 -40 109 -146 117 -138 2 2 -5 41 -16 88 -16 68 -18 89 -8 112
18 45 40 51 88 25 40 -21 43 -21 55 -4 18 23 80 22 131 -3 22 -11 43 -19 48
-20 38 -1 207 -184 254 -275 9 -16 19 -32 23 -35 12 -8 51 -91 48 -100 -2 -5
-24 4 -50 21 -47 31 -60 53 -36 61 34 12 -23 59 -129 107 -99 45 -128 -3 -82
-134 11 -33 26 -66 31 -73 6 -7 14 -49 19 -95 9 -101 22 -128 102 -204 70 -67
98 -81 132 -63 24 13 65 78 65 104 0 9 4 16 9 16 13 0 -4 -75 -23 -105 -9 -14
-21 -25 -26 -25 -17 0 -11 -36 8 -52 31 -27 114 -68 124 -62 5 3 7 17 4 29 -3
13 -2 26 3 29 12 8 51 -60 51 -89 0 -18 30 -47 135 -130 74 -58 135 -108 135
-110 0 -2 -51 -3 -114 -2 -107 1 -120 -2 -200 -33 -105 -40 -176 -97 -176
-140 0 -61 -33 -84 -47 -32 -7 28 -9 100 -2 106 43 36 180 110 245 132 46 16
84 33 84 39 0 17 -150 5 -175 -15 -5 -4 -23 -10 -40 -14 -16 -4 -43 -14 -60
-21 -70 -32 -187 -66 -227 -66 -24 0 -72 -2 -108 -5 -36 -3 -76 -1 -90 4 -26
10 -42 1 -170 -94 -82 -61 -118 -80 -130 -68 -7 7 -4 18 10 34 11 13 20 27 20
32 0 9 -31 3 -57 -11 -22 -12 -174 -164 -168 -169 3 -3 22 0 44 6 78 24 81 8
14 -65 -53 -57 -152 -105 -176 -85 -9 8 -27 6 -60 -5 -25 -8 -54 -12 -63 -9
-13 5 -8 14 27 44 26 23 40 43 35 50 -10 16 -37 15 -62 -2 -19 -13 -145 -36
-200 -36 -50 0 -38 42 21 76 26 15 34 40 9 29 -11 -4 -68 -20 -129 -35 -60
-16 -123 -33 -139 -40 -27 -10 -28 -12 -12 -29 20 -22 20 -41 -1 -56 -15 -11
-14 -14 5 -33 29 -29 28 -35 -8 -70 -35 -35 -38 -52 -10 -59 27 -7 25 -21 -2
-25 -14 -2 -24 -12 -28 -28 -7 -30 -8 -30 -87 -6 -61 19 -64 19 -83 1 -21 -19
-27 -50 -11 -59 5 -3 12 -22 15 -41 4 -19 11 -35 15 -35 15 0 115 -87 140
-121 18 -24 24 -46 25 -88 1 -42 7 -64 24 -85 12 -16 22 -34 22 -41 0 -20 31
-75 56 -100 13 -13 24 -31 24 -40 0 -27 44 -85 70 -91 14 -4 39 -19 55 -34 76
-72 87 -80 103 -80 25 0 46 -16 38 -29 -4 -6 -37 -11 -77 -11 -61 0 -79 5
-142 38 -62 32 -81 37 -134 36 -110 -2 -130 -32 -121 -187 3 -55 12 -97 26
-129 12 -26 22 -51 22 -55 0 -5 13 -33 30 -63 16 -30 35 -66 42 -80 18 -39 50
-70 69 -70 10 0 23 -9 29 -20 7 -12 21 -20 37 -20 21 0 24 -3 15 -12 -23 -23
-13 -38 23 -38 23 0 34 -4 32 -12 -1 -8 10 -14 26 -16 29 -4 36 -16 12 -26
-34 -13 -12 -26 45 -26 57 0 79 -13 45 -26 -25 -10 -17 -24 13 -24 38 0 46
-10 22 -27 -30 -21 -24 -33 15 -33 19 0 35 -4 35 -10 0 -5 12 -16 26 -23 17
-9 23 -17 15 -21 -18 -11 -13 -26 9 -26 11 0 20 -7 20 -15 0 -8 5 -15 11 -15
7 0 9 -10 5 -25 -5 -20 -2 -26 19 -31 28 -7 31 -14 13 -32 -8 -8 -8 -15 3 -28
11 -14 11 -18 -6 -31 -11 -7 -30 -16 -42 -19 -16 -4 -23 -15 -25 -37 -2 -27
-8 -33 -31 -35 -43 -5 -167 59 -205 107 -18 23 -37 41 -43 41 -36 0 -119 88
-119 126 0 12 -6 15 -24 10 -15 -4 -28 0 -37 10 -7 9 -24 20 -36 25 -15 5 -26
20 -29 39 -4 16 -13 30 -20 30 -8 0 -14 -4 -14 -8 0 -5 -6 -16 -13 -26 -12
-16 -16 -15 -51 19 l-38 36 -36 -21 c-24 -14 -37 -18 -42 -10 -8 13 -36 4 -43
-14 -3 -8 -8 -34 -12 -59 -7 -44 -7 -45 20 -39 27 5 27 4 20 -42 -8 -49 -1
-55 37 -35 18 10 20 9 16 -7 -3 -11 -9 -27 -13 -36 -5 -13 -2 -18 8 -18 9 0
18 4 22 10 13 21 33 -4 39 -51 5 -39 10 -49 21 -45 8 3 22 9 30 12 11 5 15 -1
15 -26 0 -31 1 -32 34 -27 29 5 38 1 68 -31 109 -115 179 -245 193 -357 16
-131 38 -259 61 -348 13 -54 24 -107 24 -117 0 -27 -17 -25 -26 3 -22 70 -205
249 -231 224 -2 -2 4 -20 12 -40 16 -39 20 -124 6 -145 -6 -10 -19 9 -46 63
-47 97 -113 197 -127 193 -7 -3 -10 -39 -10 -98 1 -100 3 -99 -34 -13 -8 17
-14 36 -14 42 0 25 -100 173 -113 168 -6 -2 -13 -28 -14 -58 -5 -82 -49 -226
-94 -303 -50 -87 -51 -112 -3 -65 37 36 84 112 84 136 0 8 6 13 13 11 17 -6
53 -99 68 -178 7 -36 14 -67 15 -69 4 -5 34 26 34 36 0 4 11 21 23 37 25 31
47 29 47 -4 0 -10 4 -21 9 -25 6 -3 13 -25 16 -49 8 -51 19 -71 34 -62 17 11
61 102 61 126 0 29 23 25 38 -8 31 -65 62 -157 62 -186 0 -17 5 -38 10 -46 16
-24 67 44 75 100 4 25 9 49 12 54 5 7 42 -58 43 -76 0 -4 9 -32 21 -63 15 -39
26 -55 39 -55 15 0 18 -8 18 -46 0 -28 6 -53 15 -61 13 -14 22 -11 71 22 31
20 65 49 76 63 22 28 30 26 34 -9 7 -59 19 -110 28 -115 18 -12 61 29 85 82
14 30 30 53 35 52 17 -6 78 -130 78 -159 0 -15 6 -32 14 -38 22 -18 44 94 51
256 6 156 6 158 -55 233 -73 90 -91 100 -71 38 15 -48 25 -138 15 -138 -11 0
-94 217 -94 243 0 13 9 17 40 17 50 0 51 14 3 38 l-36 19 54 12 c84 19 83 19
69 37 -7 8 -32 23 -54 34 -33 15 -37 20 -23 25 18 7 65 3 105 -10 14 -5 22 -3
22 4 0 22 -50 87 -80 104 -16 10 -30 22 -30 26 0 15 45 21 81 11 19 -6 42 -10
51 -10 22 0 24 33 3 50 -8 7 -15 19 -15 26 0 8 -4 14 -8 14 -5 0 -19 9 -32 20
-13 11 -29 20 -37 20 -7 0 -13 4 -13 10 0 20 41 29 119 26 45 -2 84 0 86 5 8
13 -62 86 -106 111 -22 12 -39 25 -39 28 0 4 34 5 75 2 87 -5 130 10 172 63
15 18 31 31 35 29 11 -7 10 -184 -1 -220 -5 -16 -36 -110 -68 -209 l-58 -180
0 -130 c0 -104 4 -144 21 -200 47 -151 56 -208 53 -336 -1 -101 1 -123 12
-121 8 2 17 9 21 15 11 17 10 199 -2 233 -13 41 -43 254 -47 347 -6 105 8 162
73 299 31 64 65 150 75 190 77 283 100 373 110 433 41 243 51 313 56 407 4 83
2 113 -10 137 l-15 29 122 4 c120 3 122 4 211 47 50 25 96 53 104 63 7 11 20
17 28 13 9 -3 23 1 33 10 10 9 46 17 96 21 102 7 130 19 165 67 25 34 29 49
29 101 0 84 -16 187 -35 222 -8 16 -15 43 -16 59 0 17 -4 39 -9 50 -5 13 -6 2
-4 -30 3 -27 5 -60 5 -73 -1 -13 6 -39 14 -59 10 -23 15 -69 15 -129 l0 -93
-47 -47 c-26 -26 -49 -42 -51 -36 -2 8 -29 12 -72 12 -54 0 -71 -4 -78 -17 -8
-14 -26 -17 -112 -16 -101 1 -102 1 -136 34 -19 18 -34 39 -34 46 0 7 -7 13
-15 13 -8 0 -21 15 -28 33 -8 17 -21 38 -30 46 -10 7 -17 20 -17 27 0 8 -7 14
-15 14 -8 0 -17 12 -20 28 -4 15 -10 34 -16 42 -5 8 -12 22 -15 30 -4 8 -23
48 -43 87 -51 103 -66 95 -36 -17 8 -30 15 -61 15 -67 0 -22 -35 -14 -61 13
-20 21 -25 39 -29 101 -3 52 -9 78 -19 81 -9 3 -11 -2 -6 -17 5 -17 2 -21 -15
-21 -26 0 -37 26 -22 51 10 16 3 26 -59 76 -70 56 -144 141 -134 151 3 3 29
-17 58 -45 28 -28 85 -70 126 -93 64 -37 77 -41 94 -30 34 21 126 23 221 6 48
-10 91 -15 94 -11 6 5 -124 134 -244 242 -38 34 -64 62 -59 63 36 1 403 -335
443 -406 9 -15 23 -17 106 -15 53 1 121 -3 151 -10 30 -7 58 -10 61 -7 3 4 0
25 -7 48 -17 57 -115 156 -194 196 -67 34 -70 41 -42 124 9 25 23 75 32 111
l17 67 52 -26 c42 -21 64 -26 125 -25 69 2 76 4 108 35 19 18 39 42 44 53 5
11 22 40 38 65 15 25 31 59 35 75 4 16 15 47 25 70 10 22 26 60 37 85 10 25
27 53 37 63 14 14 18 32 16 81 -1 45 3 70 14 87 40 56 9 209 -56 277 -34 36
-301 256 -345 284 -23 15 -28 27 -34 80 -3 35 -10 87 -13 115 -6 39 -3 61 9
87 9 19 16 38 16 44 0 5 24 58 54 118 91 183 86 162 86 393 l0 207 31 85 c89
240 109 354 120 694 13 391 8 570 -21 654 -11 34 -25 68 -30 75 -6 6 -21 25
-34 42 -25 30 -97 61 -116 49 -6 -4 -23 -8 -38 -10 -39 -5 -82 -23 -82 -34 0
-5 -6 -11 -14 -13 -27 -6 -210 -165 -286 -248 -41 -45 -95 -103 -120 -129 -25
-26 -58 -67 -75 -92 -16 -24 -33 -45 -37 -47 -5 -2 -8 -7 -8 -11 0 -4 -24 -44
-53 -89 -30 -45 -98 -171 -153 -279 -54 -109 -101 -200 -104 -203 -3 -3 -23
-39 -44 -80 -59 -112 -111 -179 -160 -201 -31 -14 -65 -19 -143 -19 -56 0
-104 4 -107 9 -3 5 -22 12 -41 15 -99 19 -215 69 -215 92 0 7 -7 14 -15 18 -8
3 -15 10 -15 15 0 5 -28 51 -62 102 -123 179 -136 206 -203 410 -26 79 -54
158 -61 176 -8 17 -14 38 -14 46 0 9 -4 18 -9 22 -5 3 -13 20 -16 38 -4 17
-13 43 -20 57 -8 14 -38 77 -68 140 -30 64 -80 163 -112 220 -32 58 -69 127
-84 154 -35 67 -41 74 -155 187 l-98 99 -62 0 c-57 0 -64 -3 -92 -32z m181
-51 c22 -17 59 -52 81 -77 55 -60 148 -200 139 -208 -4 -4 -10 0 -13 8 -3 8
-55 66 -117 128 l-111 112 -51 0 c-34 0 -55 -5 -64 -16 -27 -32 -58 -95 -65
-129 -2 -11 -13 -60 -24 -110 -11 -49 -21 -121 -22 -160 0 -63 -14 -126 -54
-240 -27 -79 -57 -242 -63 -345 -8 -137 1 -364 16 -381 6 -8 15 -32 19 -54 11
-61 61 -165 79 -165 19 0 19 35 0 115 -22 92 -19 199 7 257 19 43 25 48 54 48
26 0 36 -7 53 -36 19 -31 21 -51 21 -179 l0 -144 -35 -59 c-44 -75 -65 -162
-55 -226 11 -75 30 -79 129 -24 62 34 144 58 201 58 54 0 63 31 25 89 -30 44
-28 71 5 71 19 0 21 4 15 43 -5 29 -2 51 9 72 20 37 20 54 1 79 -16 21 -21 61
-7 52 4 -2 14 -1 21 4 11 6 10 14 -5 40 -14 25 -16 34 -6 37 6 3 12 11 12 18
0 7 7 16 16 19 10 4 14 12 10 23 -4 9 -1 20 6 24 10 6 9 15 -6 40 l-19 32 28
-7 c28 -7 28 -7 22 33 -4 31 -2 41 9 41 18 0 18 5 -2 35 -24 36 -7 31 32 -10
56 -60 74 -126 74 -273 0 -70 -5 -145 -10 -167 -5 -22 -7 -48 -4 -57 6 -22 34
-24 34 -3 0 8 9 19 20 25 18 10 20 17 14 60 -6 44 -4 51 21 76 22 22 26 32 20
60 -5 31 -4 34 18 34 21 0 25 7 42 79 21 91 18 299 -5 326 -7 8 -8 15 -3 15
14 0 30 -40 44 -111 6 -35 16 -68 20 -74 5 -5 9 -15 9 -22 0 -7 9 -32 19 -56
11 -23 33 -72 50 -110 16 -37 44 -84 60 -104 20 -24 27 -39 20 -44 -7 -4 -13
-24 -14 -44 -2 -32 -11 -46 -55 -87 -30 -27 -70 -58 -89 -69 -71 -39 -157 -94
-185 -119 -33 -28 -180 -211 -213 -264 -26 -43 -39 -96 -23 -96 6 0 33 18 59
41 41 34 53 39 77 33 34 -9 54 -26 54 -48 0 -8 5 -18 10 -21 12 -8 13 -45 1
-45 -5 0 -14 -13 -21 -29 -6 -16 -22 -39 -36 -52 -13 -12 -24 -26 -24 -30 0
-5 -35 -45 -79 -89 -59 -61 -85 -80 -105 -80 -36 0 -39 14 -22 93 7 37 10 70
6 72 -10 6 -40 -22 -40 -36 0 -6 -11 -25 -24 -42 -35 -48 -148 -284 -161 -339
-4 -16 -11 -28 -15 -28 -4 0 -10 -10 -14 -22 -9 -36 -55 -80 -79 -76 -16 2
-23 11 -25 33 -1 17 -7 39 -12 50 -16 36 -24 79 -21 116 1 22 -3 40 -13 48
-14 12 -14 17 1 49 9 21 17 47 18 58 1 12 15 39 32 60 40 52 47 76 30 116 -18
42 -129 141 -188 168 -13 6 -35 26 -47 44 -25 36 -23 44 19 133 19 40 20 49 9
159 -10 96 -9 118 2 125 10 7 18 -7 31 -54 10 -34 28 -93 39 -132 20 -66 34
-89 48 -80 9 6 2 138 -10 203 -11 62 -34 103 -84 151 l-36 35 0 180 c1 100 5
201 11 226 5 25 11 56 14 70 2 14 18 66 35 115 63 184 89 317 90 465 0 145 5
188 26 229 8 14 14 33 14 41 0 8 9 33 20 55 11 22 19 45 20 50 0 6 20 39 45
73 l45 62 53 0 c44 0 58 -5 92 -33z m2698 -373 c6 -16 13 -31 17 -34 4 -3 15
-38 24 -78 14 -64 16 -119 11 -410 -6 -333 -20 -568 -35 -587 -5 -5 -11 -32
-15 -60 -4 -27 -16 -69 -26 -92 -11 -23 -19 -48 -19 -57 0 -8 -13 -43 -30 -78
-16 -34 -30 -68 -30 -75 0 -6 -4 -13 -9 -15 -21 -8 -121 -103 -121 -115 0 -8
-7 -16 -15 -19 -25 -10 -19 -63 9 -76 32 -14 53 -5 68 29 7 15 17 31 23 35 5
4 6 8 1 8 -5 0 -1 9 9 20 10 11 22 20 27 20 5 0 8 -73 6 -172 l-3 -173 -42
-86 c-24 -47 -43 -89 -43 -91 0 -3 -12 -31 -26 -62 l-26 -57 -40 78 c-33 64
-85 158 -116 209 -25 41 -73 108 -114 159 -26 33 -58 73 -70 89 -13 16 -40 48
-60 71 -41 46 -44 61 -26 112 10 28 10 36 -2 43 -12 7 -11 13 8 33 26 28 28
37 5 37 -15 0 -15 2 2 14 17 12 18 17 7 41 -11 25 -10 29 14 50 17 14 22 25
15 29 -15 10 -14 26 2 26 6 0 19 5 27 10 13 8 12 11 -5 24 -19 15 -19 15 13
22 38 8 42 31 6 44 -28 11 -24 30 7 30 26 0 37 30 16 45 -21 15 -22 25 -3 25
17 0 86 62 86 78 0 7 -6 12 -12 12 -7 0 1 11 17 23 46 34 115 99 115 108 0 5
-11 14 -25 21 l-25 14 56 84 c50 75 74 108 115 158 21 26 41 11 71 -54 l30
-65 -17 -60 c-15 -55 -15 -62 -1 -78 22 -24 20 -67 -5 -102 -14 -20 -16 -29
-7 -29 20 0 8 -127 -16 -163 -15 -22 -16 -31 -7 -36 9 -6 5 -13 -13 -25 -37
-23 -33 -40 6 -32 25 5 30 4 20 -6 -7 -7 -12 -22 -12 -35 0 -13 -10 -29 -25
-39 -14 -9 -25 -25 -25 -36 0 -11 -7 -26 -15 -34 -21 -22 -19 -34 8 -34 21 -1
21 -1 -5 -23 -16 -13 -28 -30 -28 -38 0 -8 -18 -33 -40 -54 -34 -33 -38 -41
-24 -48 14 -8 14 -11 -1 -27 -13 -14 -14 -20 -4 -26 14 -8 129 111 129 133 0
7 8 21 18 31 24 25 49 80 56 123 4 19 15 53 26 74 11 22 20 49 20 60 0 11 6
30 14 41 8 11 11 26 7 33 -5 7 1 42 14 79 35 102 47 229 52 558 4 251 3 313
-11 378 -9 43 -16 85 -16 93 0 24 23 9 33 -23z m-464 -230 c-19 -27 -65 -89
-104 -140 -120 -157 -209 -282 -237 -334 -27 -51 -72 -180 -83 -240 -4 -19
-11 -48 -15 -65 -5 -16 -14 -51 -21 -77 -6 -26 -22 -57 -35 -69 -23 -22 -24
-22 -45 -3 -49 45 -50 43 61 265 37 75 71 146 75 159 9 29 123 223 161 276 66
89 260 292 270 281 3 -3 -9 -27 -27 -53z m-1375 -1003 c31 -49 69 -76 126 -90
77 -20 77 -24 0 -37 -158 -26 -264 -57 -350 -101 -14 -7 -37 -13 -52 -13 -24
0 -28 4 -28 26 0 35 182 224 216 224 12 0 27 7 34 15 19 23 27 19 54 -24z
m812 4 c23 -19 49 -35 57 -35 8 0 44 -31 80 -70 71 -75 91 -102 102 -138 l6
-22 -34 20 c-57 34 -176 69 -272 80 -134 16 -179 34 -142 57 7 4 31 30 52 58
48 59 75 84 94 85 8 0 33 -16 57 -35z m-891 -221 c11 -5 -14 -23 -86 -61 -77
-41 -105 -51 -113 -42 -8 8 -8 13 2 16 7 3 18 10 25 16 14 13 137 77 148 77 4
0 15 -3 24 -6z m294 -410 c24 -20 31 -34 31 -63 0 -35 4 -40 63 -79 34 -23 76
-60 92 -83 17 -23 54 -65 83 -94 28 -29 52 -56 52 -59 0 -3 -16 -6 -35 -6 -52
0 -122 73 -155 162 -12 35 -24 48 -65 69 l-50 26 -79 -33 c-44 -19 -96 -45
-117 -60 -27 -19 -47 -25 -66 -21 -15 3 -33 3 -40 0 -16 -6 -18 -33 -2 -33 19
0 -3 -22 -35 -35 -62 -25 -76 -27 -76 -11 0 9 -9 16 -20 16 -12 0 -20 7 -20
17 0 18 28 53 42 53 16 0 48 40 48 61 0 15 -4 19 -19 14 -16 -5 -18 -2 -14 15
7 26 111 120 134 120 9 0 24 11 33 25 15 23 22 25 100 25 76 0 87 -3 115 -26z
m42 -244 c28 -15 25 -44 -3 -36 -13 3 -40 6 -60 6 -47 0 -49 16 -5 29 43 12
45 13 68 1z m1122 -58 c42 -44 30 -134 -22 -162 -16 -8 -24 -4 -45 20 -28 34
-25 64 5 55 28 -9 59 4 59 24 0 23 -20 41 -46 41 -12 0 -30 3 -39 6 -14 6 -14
8 1 25 24 27 56 23 87 -9z m-1162 -72 c33 0 51 6 64 20 10 11 24 20 32 20 22
0 14 -42 -14 -72 -33 -35 -26 -43 24 -28 46 14 85 10 91 -9 3 -10 -2 -12 -19
-8 -14 4 -50 0 -82 -7 -94 -22 -151 -6 -296 82 -18 11 -40 18 -47 15 -8 -3
-14 0 -14 6 0 17 46 24 72 10 12 -6 39 -25 58 -41 31 -25 60 -36 60 -23 0 3
-10 19 -21 34 -30 41 -15 60 20 27 21 -20 37 -26 72 -26z m-976 10 c8 -16 15
-36 15 -44 0 -9 11 -18 24 -22 32 -8 54 -99 36 -147 -19 -51 -34 -81 -47 -95
-7 -7 -13 -17 -13 -21 0 -4 -9 -18 -20 -31 -37 -43 -26 -50 29 -19 28 16 22 8
-28 -39 -63 -58 -141 -100 -217 -116 -29 -6 -31 -5 -31 18 0 22 5 26 42 31 65
10 68 14 54 71 -6 27 -16 53 -20 59 -12 12 -11 172 0 180 5 3 12 19 16 36 13
59 95 169 126 169 10 0 25 -13 34 -30z m2594 -589 c49 -13 33 -29 -33 -33 -45
-3 -71 -10 -86 -23 -14 -12 -41 -20 -80 -23 -56 -4 -60 -3 -60 17 0 11 12 28
27 38 36 24 180 39 232 24z m147 -22 c43 -26 44 -44 2 -35 -32 6 -48 20 -48
44 0 17 7 15 46 -9z m-85 -99 c11 -6 19 -21 19 -35 0 -18 5 -25 20 -25 29 0
25 -10 -20 -53 -32 -30 -40 -44 -40 -72 0 -51 33 -65 98 -42 59 21 57 22 57
-8 0 -14 -5 -25 -11 -25 -14 0 -23 -19 -84 -179 -44 -118 -60 -140 -74 -105
-3 8 0 27 8 42 7 15 16 51 19 80 5 41 14 62 39 90 l32 37 -33 3 c-53 5 -101
66 -101 127 0 46 -15 45 -31 -2 -7 -21 -19 -54 -27 -73 -9 -19 -16 -37 -17
-40 -1 -3 -10 -32 -20 -65 -11 -33 -20 -65 -20 -72 0 -6 -4 -15 -8 -19 -15
-16 -7 -119 12 -151 22 -36 38 -103 24 -103 -4 0 -17 16 -28 36 -11 20 -34 48
-52 61 -29 22 -36 24 -64 14 -41 -14 -211 -15 -189 -1 8 5 27 10 41 10 58 0
130 31 176 75 48 46 76 106 89 191 6 40 4 44 -15 44 -25 0 -28 22 -5 41 31 26
45 69 43 135 -2 53 1 67 17 79 22 17 116 20 145 5z m-710 -122 c63 -69 67 -96
9 -62 -30 18 -57 14 -66 -11 -9 -23 12 -42 53 -50 41 -7 102 -58 84 -70 -11
-6 -99 33 -131 58 -17 13 -70 89 -70 100 0 4 23 7 51 7 l51 0 -21 36 c-38 64
-23 61 40 -8z m-137 27 c4 -10 -1 -15 -14 -15 -11 0 -20 7 -20 15 0 8 6 15 14
15 8 0 16 -7 20 -15z m398 -115 c36 -22 116 -27 149 -9 11 5 28 9 37 7 15 -3
14 -6 -6 -26 -18 -18 -33 -22 -90 -22 -47 0 -75 5 -92 17 -69 47 -66 75 2 33z
m-452 -43 c0 -8 12 -19 26 -25 34 -16 21 -32 -26 -32 -34 0 -41 4 -46 24 -3
14 -3 30 1 35 9 16 45 13 45 -2z m-161 -20 c16 -20 4 -26 -37 -20 -45 7 -51
11 -32 23 22 14 56 12 69 -3z m341 -57 c12 -7 12 -12 3 -21 -15 -15 -68 5 -58
21 8 13 35 13 55 0z m-305 -60 c0 -8 -10 -16 -22 -18 -22 -3 -32 16 -16 32 12
11 38 2 38 -14z m-207 -8 c2 -7 -6 -12 -17 -12 -21 0 -27 11 -14 24 9 9 26 2
31 -12z m92 8 c0 -5 -7 -10 -15 -10 -8 0 -15 5 -15 10 0 6 7 10 15 10 8 0 15
-4 15 -10z m221 -5 c-1 -15 -24 -12 -29 3 -3 9 2 13 12 10 10 -1 17 -7 17 -13z
m159 -72 c0 -19 -33 -33 -53 -22 -22 13 -22 35 0 47 19 11 53 -5 53 -25z
m-140 -33 c0 -13 -7 -20 -20 -20 -19 0 -27 20 -13 33 13 14 33 6 33 -13z
m-710 -27 c87 -30 203 -84 196 -91 -3 -2 -40 9 -83 26 -206 82 -312 81 -385
-1 -34 -38 -38 -40 -38 -19 0 13 7 36 15 52 38 73 142 85 295 33z m560 22
c-10 -12 -16 -13 -26 -4 -20 16 -18 19 12 19 22 0 25 -2 14 -15z m599 -116
c31 -11 31 -12 31 -77 -1 -106 -41 -262 -67 -262 -9 0 -45 26 -80 58 -36 31
-98 84 -140 118 l-74 60 -200 1 c-190 1 -229 7 -229 32 0 3 88 5 196 3 188 -3
200 -2 317 27 67 16 133 34 147 40 33 13 61 13 99 0z m-1091 -42 c3 -29 9 -40
30 -51 41 -21 55 -55 48 -112 -13 -92 -10 -118 22 -191 37 -82 37 -83 17 -83
-32 0 -55 38 -55 90 0 46 -4 54 -44 95 -25 24 -55 47 -68 50 -22 6 -88 98
-102 142 -10 31 27 69 74 77 22 3 40 11 40 17 0 6 8 9 18 7 12 -2 18 -14 20
-41z m-251 -152 c81 -161 134 -214 288 -290 71 -35 92 -51 83 -60 -13 -14
-283 123 -368 187 -58 43 -140 144 -140 173 0 29 23 11 75 -58 67 -89 80 -101
101 -93 16 6 15 10 -9 34 -36 35 -79 101 -72 111 2 5 -7 19 -20 31 -16 15 -25
35 -25 54 l0 30 31 -35 c17 -19 42 -56 56 -84z m448 54 c19 -17 33 -35 30 -39
-3 -5 -1 -10 3 -12 5 -1 12 -16 16 -31 10 -42 -5 -31 -63 46 -56 72 -49 91 14
36z m-55 -133 c0 -17 7 -53 15 -80 18 -60 18 -66 2 -66 -25 0 -47 67 -47 143
1 65 2 70 15 53 8 -11 15 -34 15 -50z m-2310 -93 c0 -5 -7 -17 -15 -27 -27
-36 -19 -48 25 -41 l41 7 -7 -29 c-4 -15 -10 -37 -14 -48 -15 -42 9 -58 42
-28 25 22 34 9 15 -20 -9 -13 -19 -41 -23 -61 l-7 -38 33 17 c29 15 57 13 34
-3 -5 -4 -24 -36 -42 -72 -36 -73 -77 -128 -88 -117 -4 4 -9 32 -12 62 -4 48
-7 55 -23 50 -24 -8 -34 29 -26 96 7 55 -1 60 -41 28 -26 -21 -27 -21 -30 -1
-2 10 8 41 22 67 33 61 33 75 0 75 -23 0 -25 2 -13 17 8 9 34 29 59 44 44 28
70 36 70 22z m2439 -66 c11 -18 29 -42 41 -52 31 -28 25 -35 -30 -35 -49 0
-128 29 -102 37 6 3 12 9 12 15 0 14 40 68 50 68 5 0 18 -15 29 -33z m186 -97
c23 -25 5 -50 -36 -50 -25 0 -29 4 -29 28 0 16 3 32 7 35 12 13 40 7 58 -13z
m-218 -73 c42 -31 113 -105 113 -117 0 -24 -31 -5 -98 61 -40 40 -72 73 -72
75 0 11 30 1 57 -19z m304 -130 c4 -32 12 -64 18 -70 6 -6 11 -21 11 -33 0
-30 25 -54 57 -54 15 0 23 -5 21 -12 -7 -20 -157 -23 -221 -4 -80 23 -224 133
-202 154 3 3 34 -8 69 -26 68 -35 126 -51 126 -34 0 5 -7 15 -15 22 -31 26
-14 47 33 41 7 -1 12 9 12 23 0 33 27 58 59 54 24 -3 27 -8 32 -61z m-549
-154 c2 -10 12 -18 23 -18 13 0 21 -8 23 -22 4 -24 26 -31 38 -12 4 7 13 -2
21 -20 9 -17 20 -31 25 -31 6 0 20 -10 33 -22 21 -21 22 -23 7 -80 -8 -32 -18
-58 -23 -58 -5 0 -9 5 -9 11 0 7 -10 9 -26 5 -24 -6 -25 -5 -19 24 7 30 6 31
-21 24 -25 -6 -27 -5 -22 19 6 29 -15 57 -27 37 -11 -17 -25 -11 -25 11 0 12
-8 23 -20 26 -13 3 -20 14 -20 29 0 15 -6 24 -15 24 -20 0 -19 5 7 40 24 34
45 39 50 13z m546 -233 c31 0 52 -4 52 -11 0 -16 -126 -7 -142 10 -11 11 -9
13 12 7 14 -3 49 -6 78 -6z m19 -201 c35 -12 47 -47 32 -87 -5 -14 -7 -33 -3
-44 3 -12 0 -24 -10 -31 -23 -17 -24 -82 -2 -106 20 -23 14 -41 -15 -41 -10 0
-19 -6 -19 -14 0 -39 -40 -28 -59 15 -11 26 -11 38 -1 70 11 32 11 44 0 63
-14 27 -7 46 17 46 11 0 14 6 9 24 -4 15 0 28 10 37 11 9 14 22 9 46 -7 38 -8
37 32 22z"/>
<path d="M3509 5689 c-32 -32 -56 -48 -66 -45 -8 3 -26 9 -39 12 -13 3 -24 10
-24 15 0 16 -64 9 -87 -9 -16 -12 -21 -23 -17 -39 4 -13 10 -23 14 -23 18 0
59 -79 65 -128 6 -48 9 -52 28 -46 44 14 97 55 127 99 50 72 90 215 60 215 -5
0 -33 -23 -61 -51z"/>
<path d="M5552 3660 c-12 -5 -39 -11 -58 -13 -70 -8 -68 -34 6 -91 35 -27 55
-36 70 -31 23 7 44 40 35 55 -3 5 -1 19 5 30 8 14 8 26 0 40 -12 22 -23 24
-58 10z"/>
<path d="M3331 4033 c-27 -27 -67 -63 -90 -81 -49 -39 -55 -65 -13 -56 15 3
40 10 56 15 16 5 31 9 33 9 3 0 -18 -26 -46 -57 -51 -59 -54 -83 -7 -62 34 16
43 6 28 -34 -18 -51 -16 -57 18 -50 l31 6 -22 -37 c-11 -20 -25 -39 -30 -42
-19 -12 3 -23 27 -14 14 6 40 10 57 10 l32 -1 -28 -24 c-15 -14 -35 -25 -43
-25 -8 0 -14 -5 -14 -11 0 -9 23 -10 80 -5 62 5 79 4 76 -6 -3 -7 -7 -28 -10
-46 l-6 -34 40 7 c52 9 61 2 47 -35 -15 -40 -3 -48 33 -21 29 21 30 21 30 2 0
-10 -7 -31 -14 -47 -19 -36 -13 -45 27 -33 48 14 53 11 24 -14 -33 -28 -34
-37 -3 -37 13 0 26 -7 30 -15 3 -8 10 -15 15 -15 18 0 61 47 76 85 15 34 15
38 -1 49 -16 12 -16 16 1 59 21 57 13 75 -22 47 -14 -11 -35 -20 -46 -20 -16
0 -18 4 -12 23 4 12 9 35 12 51 5 25 3 28 -12 23 -36 -15 -61 -17 -75 -8 -12
8 -12 13 -2 23 6 6 12 24 12 39 0 25 -3 27 -55 31 -78 7 -82 15 -40 79 19 29
35 59 35 66 0 9 -18 13 -60 13 -33 0 -60 2 -60 4 0 2 18 22 40 44 55 55 52 64
-17 60 -53 -3 -58 -1 -55 17 16 104 15 115 -7 115 -11 0 -43 -21 -70 -47z"/>
<path d="M5595 2650 c3 -5 13 -10 21 -10 8 0 14 5 14 10 0 6 -9 10 -21 10 -11
0 -17 -4 -14 -10z"/>
</g>
</svg>
