<?xml version="1.0" standalone="no"?>
<!DOCTYPE svg PUBLIC "-//W3C//DTD SVG 20010904//EN"
 "http://www.w3.org/TR/2001/REC-SVG-20010904/DTD/svg10.dtd">
<svg version="1.0" xmlns="http://www.w3.org/2000/svg"
 width="1936.000000pt" height="3076.000000pt" viewBox="0 0 1936.000000 3076.000000"
 preserveAspectRatio="xMidYMid meet">

<g transform="translate(0.000000,3076.000000) scale(0.100000,-0.100000)"
fill="#000000" stroke="none">
<path d="M6600 30700 c-36 -4 -82 -14 -103 -23 -82 -35 -217 -188 -370 -422
-124 -190 -171 -283 -236 -472 -33 -92 -76 -210 -96 -262 -20 -52 -63 -187
-95 -300 -66 -235 -75 -312 -105 -916 -22 -440 -48 -631 -117 -845 -11 -36
-60 -166 -108 -290 -49 -127 -102 -282 -120 -355 -18 -71 -45 -160 -61 -197
-39 -89 -85 -259 -168 -622 -148 -643 -155 -690 -150 -1066 9 -643 1 -969 -36
-1425 -28 -344 -38 -674 -37 -1280 0 -994 41 -1819 111 -2225 59 -337 74 -595
75 -1265 1 -770 13 -720 -329 -1355 -217 -403 -360 -688 -383 -760 -11 -36
-27 -68 -36 -72 -9 -4 -24 -12 -33 -16 -10 -5 -21 -24 -25 -43 -7 -34 -41
-120 -137 -343 -28 -65 -61 -152 -72 -194 -11 -42 -76 -210 -143 -372 -161
-386 -349 -956 -462 -1400 -26 -103 -53 -187 -65 -204 -12 -16 -26 -57 -31
-95 -14 -92 -26 -118 -65 -149 -45 -34 -53 -56 -63 -183 -23 -280 -111 -534
-254 -733 -127 -177 -281 -351 -714 -811 -262 -278 -407 -441 -447 -505 -17
-27 -32 -40 -48 -40 -39 0 -67 -29 -106 -113 -42 -90 -74 -133 -231 -312 -58
-66 -149 -172 -202 -236 -104 -125 -226 -237 -408 -374 -167 -126 -224 -185
-270 -280 -44 -89 -123 -190 -289 -370 l-111 -119 0 -396 c0 -569 17 -762 105
-1231 91 -479 117 -589 139 -589 32 0 281 179 397 285 100 92 378 234 536 273
45 11 113 34 151 51 119 52 222 65 522 66 293 0 381 -10 429 -51 39 -33 111
-62 209 -85 45 -10 104 -30 130 -43 118 -60 243 -180 292 -280 19 -39 21 -57
16 -102 -8 -74 0 -100 39 -123 51 -30 66 -69 73 -190 l7 -106 35 1 c19 1 76
19 125 40 128 54 195 122 249 254 21 52 43 99 47 104 13 15 196 -177 291 -304
171 -230 283 -408 415 -655 44 -82 64 -111 80 -113 57 -8 184 104 240 213 21
41 40 75 43 75 3 0 19 -26 37 -59 42 -76 68 -172 88 -328 20 -152 50 -282 69
-301 8 -9 22 -11 35 -7 33 10 115 109 194 235 40 63 80 116 89 118 11 2 24 -9
35 -30 29 -52 26 -261 -4 -346 -27 -72 -30 -144 -8 -162 26 -21 81 -4 193 59
59 34 113 61 121 61 11 0 12 -26 6 -154 -7 -159 -1 -211 31 -237 21 -18 59 21
84 88 31 83 59 133 75 133 27 0 37 -75 45 -345 9 -293 17 -341 55 -351 34 -9
65 4 75 32 14 36 152 122 239 149 l24 7 -7 -98 c-19 -279 -19 -269 -2 -286 22
-23 42 -15 119 48 38 30 74 54 82 54 22 0 52 -46 64 -98 7 -26 15 -110 20
-187 8 -153 22 -198 59 -203 36 -5 84 54 147 185 l58 118 26 -80 25 -80 1
-392 c0 -215 3 -395 8 -399 30 -30 149 100 187 204 11 31 27 76 36 100 9 23
26 55 39 70 28 33 45 91 45 154 0 26 5 50 11 54 14 8 136 -117 208 -211 27
-37 72 -110 99 -163 96 -188 129 -341 140 -667 4 -116 11 -216 15 -222 26 -42
343 162 490 315 37 39 77 92 89 119 27 60 34 172 19 273 -16 104 -139 366
-227 483 -122 163 -387 422 -799 782 -462 404 -616 576 -810 910 -32 55 -86
140 -119 188 -111 161 -137 221 -196 442 -38 144 -88 198 -149 164 -14 -8 -51
-53 -83 -102 -60 -90 -97 -123 -123 -113 -18 6 -19 45 -4 116 17 81 -5 150
-47 150 -8 0 -39 -22 -67 -49 -29 -27 -62 -52 -74 -55 -34 -11 -80 19 -104 67
-42 82 -51 135 -58 347 l-6 205 -210 6 c-115 3 -211 6 -212 7 -1 1 -9 9 -17
18 -39 38 -3 215 90 447 102 257 179 387 271 462 69 57 100 66 124 36 21 -26
26 -72 35 -301 7 -192 14 -252 30 -257 6 -2 68 35 137 82 l127 85 0 -130 c0
-127 1 -130 25 -146 23 -15 31 -13 172 35 173 59 224 69 241 49 14 -17 -14
-63 -98 -163 -27 -32 -50 -67 -50 -76 0 -36 85 -30 221 16 80 28 104 23 115
-23 19 -77 55 -93 269 -122 86 -11 241 -36 344 -56 331 -62 394 -72 505 -83
200 -20 369 -11 481 26 70 23 162 118 209 215 45 95 59 148 60 233 1 97 -22
139 -95 182 -69 39 -86 71 -100 185 -13 106 -43 172 -81 176 -23 3 -42 -10
-103 -68 -42 -39 -81 -70 -88 -67 -21 7 -8 58 43 167 79 170 70 201 -39 145
-43 -21 -96 -62 -248 -187 -24 -21 -49 -38 -54 -38 -17 0 -9 41 26 132 44 112
52 160 32 176 -24 21 -62 -2 -155 -91 -94 -91 -122 -110 -146 -101 -24 9 -29
58 -16 187 6 67 10 142 8 167 -3 42 -5 45 -31 43 -42 -3 -153 -82 -234 -167
-73 -77 -89 -86 -111 -64 -35 35 -4 155 85 332 90 179 109 249 76 281 -25 26
-80 14 -248 -55 -81 -33 -154 -60 -161 -60 -36 0 1 103 74 205 19 28 69 87
111 133 89 97 132 158 125 177 -9 23 -53 27 -112 10 -73 -22 -133 -52 -232
-120 -44 -30 -90 -55 -102 -55 -18 0 -20 4 -15 37 8 44 63 128 194 295 157
198 170 228 100 228 -57 0 -138 -29 -238 -86 -96 -54 -129 -65 -129 -41 0 7
24 60 54 117 62 121 78 176 51 186 -9 4 -45 -3 -79 -15 -35 -12 -106 -28 -158
-35 -119 -17 -164 -42 -259 -145 -64 -67 -71 -73 -65 -46 26 130 30 165 19
176 -8 8 -36 7 -107 -7 -69 -12 -99 -15 -107 -7 -8 8 -7 32 2 86 11 67 11 78
-4 101 -30 45 -66 36 -148 -39 -70 -65 -105 -83 -135 -71 -13 5 -15 22 -12 98
l3 93 -36 3 c-27 2 -41 -3 -62 -24 -15 -15 -27 -31 -27 -35 0 -23 -20 -5 -34
31 -24 60 -20 97 20 178 46 93 41 101 -56 84 -90 -15 -110 -15 -110 1 0 7 16
52 35 100 19 48 35 103 35 123 l0 37 -52 -8 c-97 -13 -93 -14 -91 26 2 43 41
135 77 181 32 42 41 80 26 108 -10 19 -18 22 -58 17 -26 -2 -55 -8 -64 -12
-55 -22 22 113 111 198 34 32 61 62 61 68 0 24 -22 48 -51 54 -57 13 -114 -13
-196 -87 -83 -75 -111 -83 -127 -36 -14 40 16 146 79 273 63 130 83 198 65
219 -15 19 -36 11 -87 -36 -75 -68 -87 -45 -43 79 72 199 79 253 40 285 -12
10 -33 18 -46 18 -21 0 -24 5 -24 34 0 18 11 64 25 100 39 104 31 123 -41 96
-66 -26 -61 37 15 165 29 49 41 81 41 108 0 70 -46 63 -152 -23 -154 -126
-143 -49 21 140 50 58 96 120 102 138 24 72 -33 67 -137 -12 -166 -126 -163
-89 7 99 87 97 163 197 173 231 4 13 1 26 -9 34 -21 17 -66 4 -187 -56 -174
-84 -160 -49 57 141 162 141 194 178 175 200 -17 21 -90 19 -147 -3 -27 -10
-77 -37 -112 -60 -69 -45 -101 -53 -101 -24 0 26 23 56 127 165 52 54 104 119
116 143 21 44 21 44 2 64 -13 12 -42 22 -85 27 l-65 8 3 110 c4 123 9 109 -89
230 -61 74 -161 243 -198 332 -103 251 -89 536 46 948 208 636 668 1416 1054
1790 115 112 151 139 286 213 l93 50 50 -63 c28 -35 59 -83 70 -107 48 -109
51 -326 7 -498 -16 -62 -52 -149 -101 -250 -42 -85 -76 -160 -76 -167 0 -16
139 -18 226 -2 251 44 462 166 1684 973 256 169 492 320 525 336 33 15 240
116 460 223 220 108 439 211 486 231 210 86 345 105 470 66 110 -34 337 -182
398 -259 20 -26 64 -56 130 -91 151 -79 224 -140 736 -615 311 -289 394 -360
463 -398 123 -67 313 -80 462 -32 151 49 320 146 320 184 0 42 -81 82 -202
100 -35 5 -115 12 -178 16 -190 11 -271 48 -320 146 -18 34 -25 71 -31 169
-15 208 -52 257 -205 271 -56 5 -102 16 -145 35 -137 62 -350 238 -703 583
l-118 116 -6 246 c-5 239 -4 248 17 292 25 52 86 111 156 153 39 23 60 28 104
27 126 -4 312 -88 452 -205 102 -85 144 -113 192 -126 55 -15 126 -62 282
-185 403 -321 691 -456 925 -434 80 7 135 39 293 170 291 242 402 308 445 265
7 -7 12 -23 12 -36 0 -34 52 -80 141 -126 107 -55 137 -80 149 -126 21 -80 85
-86 186 -17 94 62 359 424 449 612 59 121 70 186 44 241 -23 48 -139 145 -225
189 -72 37 -147 119 -276 305 -59 85 -138 192 -175 238 -105 128 -130 168
-142 219 -6 27 -16 145 -21 263 -18 376 -29 514 -45 567 -36 121 -239 296
-386 333 -42 11 -51 8 -181 -44 -382 -153 -444 -146 -846 109 -324 206 -325
206 -350 255 -22 42 -23 55 -20 195 5 236 15 245 297 245 214 0 215 1 230 99
6 36 18 72 26 80 13 13 55 17 258 19 361 5 456 -11 597 -98 36 -22 75 -40 87
-40 15 0 35 17 64 55 23 30 49 55 59 55 10 0 52 -38 95 -85 103 -114 106 -115
156 -71 21 20 47 36 57 36 46 0 109 -69 179 -197 54 -99 129 -207 240 -340 88
-106 224 -243 242 -243 22 0 18 24 -78 480 -49 231 -39 340 39 449 68 93 136
94 326 3 71 -34 140 -62 152 -62 15 0 36 14 55 36 58 66 97 79 227 79 134 -1
200 -18 370 -95 58 -26 131 -55 162 -64 81 -23 194 -111 378 -296 274 -273
511 -568 661 -823 46 -78 100 -160 120 -183 55 -64 189 -339 189 -388 0 -24
-34 -19 -103 15 -147 74 -297 203 -297 255 0 17 12 31 39 48 22 14 42 30 46
36 36 58 -141 201 -433 348 -235 120 -361 157 -449 133 -47 -13 -92 -55 -110
-103 -17 -47 -16 -186 3 -276 23 -117 107 -358 169 -492 63 -133 82 -214 110
-477 45 -405 95 -507 399 -800 216 -209 318 -284 424 -313 64 -17 140 8 202
66 99 92 202 270 220 378 10 65 16 76 36 76 19 0 19 -93 -1 -180 -37 -163
-114 -307 -183 -341 -49 -25 -62 -39 -62 -67 0 -55 25 -108 75 -157 97 -98
414 -265 501 -265 37 0 45 29 38 135 -6 86 -5 95 11 102 42 16 168 -179 196
-302 6 -27 15 -67 20 -88 19 -74 183 -225 604 -558 265 -209 475 -380 493
-401 11 -14 3 -17 -75 -22 -48 -4 -236 -6 -418 -5 -376 1 -425 -4 -621 -72
-361 -124 -604 -254 -768 -410 -95 -90 -131 -160 -140 -269 -11 -128 -43 -204
-91 -216 -76 -19 -125 136 -125 397 0 156 -4 149 129 238 251 167 660 377 941
482 170 63 270 108 305 135 19 15 19 16 2 29 -31 23 -144 29 -296 17 -189 -16
-329 -45 -416 -86 -39 -19 -120 -48 -180 -65 -61 -18 -159 -52 -220 -77 -270
-112 -532 -199 -751 -250 -87 -20 -153 -27 -327 -34 -120 -6 -280 -14 -355
-19 -148 -9 -309 -1 -384 20 -93 26 -178 -21 -593 -326 -295 -216 -403 -290
-490 -332 -100 -48 -155 -43 -155 15 0 30 14 56 63 115 45 54 79 116 71 128
-10 17 -89 9 -157 -15 -38 -14 -92 -43 -121 -65 -135 -105 -656 -635 -656
-668 0 -22 59 -15 205 23 80 20 154 34 179 32 38 -3 41 -6 44 -33 6 -63 -193
-297 -356 -420 -166 -124 -382 -225 -484 -225 -29 0 -63 8 -88 21 -49 26 -87
22 -240 -24 -83 -24 -124 -31 -195 -32 -84 0 -90 1 -93 21 -2 15 17 40 70 90
125 118 186 184 203 220 15 32 15 37 1 59 -37 57 -137 54 -242 -6 -66 -37
-199 -72 -416 -109 -238 -40 -430 -56 -486 -41 -124 34 -80 152 107 280 120
82 168 141 127 157 -8 3 -51 -6 -97 -21 -45 -14 -204 -57 -353 -96 -528 -137
-781 -214 -807 -245 -9 -11 -6 -22 17 -54 66 -91 75 -105 80 -127 11 -40 -6
-77 -57 -124 -27 -25 -49 -53 -49 -62 0 -10 31 -51 70 -93 71 -77 87 -106 75
-143 -3 -12 -51 -69 -105 -127 -159 -171 -168 -219 -48 -260 91 -31 98 -73 14
-95 -22 -5 -48 -12 -57 -15 -33 -9 -70 -58 -85 -113 -24 -82 -38 -94 -99 -88
-27 3 -142 33 -254 66 -236 71 -272 74 -326 31 -68 -54 -115 -136 -115 -201 0
-16 13 -43 34 -67 22 -27 39 -64 51 -109 51 -198 42 -183 165 -263 93 -60 306
-246 420 -366 88 -93 141 -178 160 -254 6 -25 15 -111 20 -191 13 -211 28
-261 115 -384 56 -79 65 -98 81 -166 27 -118 118 -276 229 -399 59 -66 105
-147 105 -187 0 -56 69 -171 159 -266 45 -47 78 -69 166 -112 115 -56 132 -70
382 -299 126 -116 185 -156 228 -156 134 0 233 -104 131 -138 -109 -35 -460
-33 -586 3 -30 9 -152 63 -270 120 -293 141 -309 146 -502 152 -378 12 -511
-56 -565 -287 -15 -61 -18 -117 -17 -300 2 -365 31 -528 140 -788 35 -85 64
-162 64 -171 0 -20 66 -152 234 -468 95 -180 143 -258 183 -303 60 -66 119
-105 174 -115 49 -9 82 -32 119 -84 36 -49 96 -80 157 -81 77 0 92 -19 49 -59
-87 -82 -35 -151 115 -151 80 0 115 -15 123 -50 7 -35 39 -54 119 -69 75 -14
99 -27 95 -54 -2 -14 -21 -29 -57 -47 -29 -15 -57 -34 -62 -43 -20 -35 75 -66
206 -67 104 0 234 -15 268 -31 43 -19 34 -44 -27 -72 -113 -54 -90 -95 59
-108 161 -14 172 -34 62 -122 -64 -52 -75 -74 -49 -100 17 -17 40 -22 124 -28
124 -9 132 -12 156 -53 12 -20 51 -52 95 -80 41 -26 78 -53 80 -60 3 -8 -8
-26 -24 -40 -33 -30 -38 -70 -11 -85 9 -5 38 -12 64 -16 52 -8 72 -25 82 -70
10 -38 24 -55 47 -55 25 0 34 -40 20 -95 -22 -89 -8 -113 85 -140 61 -17 94
-39 94 -61 0 -6 -16 -31 -35 -54 -19 -23 -35 -51 -35 -61 0 -11 16 -42 35 -70
19 -28 35 -55 35 -59 0 -36 -103 -102 -225 -145 -68 -24 -100 -60 -109 -125
-3 -22 -9 -59 -12 -82 -9 -56 -39 -84 -102 -93 -94 -13 -229 28 -432 131 -231
117 -313 180 -522 402 -58 62 -83 82 -102 82 -57 0 -179 81 -285 189 -106 108
-201 259 -201 321 0 35 -33 73 -58 66 -97 -28 -145 -19 -213 44 -30 27 -82 63
-116 80 -73 36 -118 84 -133 142 -41 162 -113 204 -163 95 -32 -70 -73 -117
-102 -117 -23 0 -156 112 -255 214 -24 25 -50 46 -57 46 -7 0 -64 -29 -125
-65 -133 -77 -169 -87 -202 -56 -44 42 -137 16 -170 -47 -28 -54 -82 -365 -72
-408 7 -27 30 -30 119 -15 78 13 84 3 69 -115 -26 -195 -26 -201 -7 -230 21
-32 47 -29 144 16 35 17 67 30 72 30 16 0 10 -34 -28 -143 -34 -99 -36 -108
-21 -123 23 -23 80 -11 122 26 43 38 69 38 96 1 34 -49 48 -92 69 -220 22
-126 41 -181 66 -181 7 0 50 14 94 31 102 40 111 35 111 -61 0 -89 9 -129 31
-141 12 -6 48 -5 108 3 148 19 179 1 374 -221 316 -358 532 -719 646 -1075 43
-134 57 -204 91 -461 70 -526 136 -891 239 -1320 68 -285 102 -467 95 -504
-16 -79 -67 -52 -109 59 -90 235 -611 787 -850 901 -110 53 -126 37 -84 -81
17 -47 39 -119 50 -160 50 -195 40 -520 -15 -520 -25 0 -62 58 -177 281 -138
265 -208 388 -317 554 -88 133 -192 252 -211 241 -27 -17 -34 -91 -38 -391 -3
-170 -9 -317 -13 -325 -7 -11 -22 14 -58 90 -66 140 -122 283 -129 328 -8 53
-41 122 -113 242 -117 196 -285 423 -336 456 -22 15 -27 15 -35 3 -21 -32 -40
-120 -49 -228 -36 -398 -195 -910 -397 -1276 -97 -176 -144 -276 -150 -325 -7
-50 7 -52 63 -11 143 104 361 407 414 573 30 96 33 102 58 106 27 4 61 -41
111 -149 82 -174 141 -377 212 -721 17 -87 36 -158 41 -158 30 0 138 119 138
152 0 18 83 143 123 185 37 40 91 66 117 58 28 -9 41 -38 50 -111 6 -46 15
-72 33 -94 31 -37 52 -98 72 -217 23 -136 51 -218 82 -242 35 -28 40 -27 82
17 77 81 214 374 231 494 14 97 45 113 103 53 39 -40 106 -184 185 -395 74
-198 111 -333 127 -470 17 -148 36 -194 83 -198 27 -3 40 4 85 50 97 97 164
244 198 433 22 123 36 175 49 175 26 0 151 -236 169 -317 15 -72 96 -294 137
-374 36 -73 83 -119 119 -119 51 0 61 -28 68 -196 6 -135 30 -216 74 -254 18
-17 41 -30 51 -30 75 1 373 208 534 372 53 54 103 98 111 98 23 0 36 -43 58
-198 12 -81 32 -188 44 -239 42 -165 63 -188 141 -154 89 40 185 154 266 316
62 123 135 235 154 235 48 0 270 -426 309 -591 8 -35 20 -90 26 -122 12 -66
53 -123 80 -112 87 33 162 502 189 1185 19 462 -1 562 -146 750 -180 234 -360
430 -394 430 -31 0 -30 -36 6 -160 65 -226 102 -570 62 -570 -33 0 -312 703
-374 942 -28 109 -12 123 154 132 101 5 152 19 160 44 7 22 -55 69 -176 133
l-116 62 213 48 c244 55 310 75 318 96 16 42 -60 104 -253 206 -65 34 -119 67
-121 73 -17 53 288 45 448 -11 55 -20 98 -19 106 1 10 28 -16 92 -76 181 -75
112 -176 216 -273 281 -89 60 -114 88 -95 110 40 49 204 57 357 18 149 -38
191 -41 222 -17 54 43 44 120 -27 195 -27 29 -49 64 -56 89 -6 23 -13 47 -15
54 -2 7 -18 19 -36 26 -18 8 -70 42 -115 76 -83 62 -137 91 -171 91 -56 0 -52
70 6 99 70 35 154 44 467 45 345 1 355 3 330 63 -32 75 -188 243 -325 348 -30
23 -96 67 -145 98 -50 30 -99 65 -109 76 -25 27 -46 25 309 26 247 0 299 3
350 18 140 41 232 104 350 240 70 81 134 132 147 119 30 -30 36 -650 8 -827
-6 -38 -82 -290 -170 -560 -87 -269 -206 -637 -264 -818 l-106 -327 0 -403 c0
-417 9 -612 36 -757 17 -94 24 -121 95 -357 84 -281 132 -486 160 -693 6 -48
14 -291 18 -555 6 -493 9 -515 51 -515 29 0 88 57 101 98 17 55 24 560 10 725
-6 76 -23 184 -36 240 -64 264 -159 961 -186 1367 -31 467 19 688 291 1275
243 524 264 588 540 1620 178 665 207 795 300 1354 141 850 180 1191 180 1571
0 197 -13 267 -69 377 l-40 80 247 7 c413 12 644 25 717 40 106 22 203 60 390
152 224 110 384 206 463 277 l65 59 51 -6 c43 -6 58 -3 96 18 25 14 64 34 86
45 48 24 227 56 364 66 130 9 288 31 362 51 137 35 235 109 336 253 85 121 95
157 100 361 8 355 -51 765 -140 960 -35 77 -68 207 -68 268 0 58 -27 175 -46
198 -14 17 -15 7 -9 -106 18 -389 20 -407 63 -540 23 -69 46 -150 52 -180 7
-32 14 -206 17 -420 l5 -365 -149 -146 c-81 -80 -167 -158 -190 -173 l-42 -28
-48 23 c-46 23 -57 24 -278 24 -252 0 -286 -6 -321 -60 -9 -14 -31 -33 -48
-42 -43 -22 -242 -31 -543 -23 -237 6 -251 8 -303 32 -93 42 -260 215 -276
287 -9 35 -33 61 -57 61 -38 0 -74 40 -132 149 -34 65 -83 139 -119 179 -42
48 -65 84 -73 115 -11 40 -17 46 -55 58 -50 17 -70 47 -98 146 -23 84 -384
809 -437 878 -102 132 -105 29 -9 -346 58 -226 63 -261 41 -282 -38 -38 -131
-6 -220 75 -93 85 -116 155 -135 418 -18 237 -36 320 -76 347 -39 25 -50 6
-34 -66 7 -32 9 -64 6 -70 -4 -6 -32 -11 -61 -11 -46 0 -60 5 -87 29 -30 27
-33 35 -32 83 0 34 9 68 23 94 38 71 15 101 -234 309 -174 146 -404 373 -486
480 -77 100 -105 155 -81 155 20 0 104 -65 202 -156 206 -191 405 -335 645
-467 191 -105 231 -114 315 -72 82 42 162 56 347 62 200 7 355 -6 588 -47 216
-39 340 -54 361 -42 13 7 9 17 -34 68 -76 90 -589 593 -852 835 -245 226 -376
356 -367 365 9 9 87 -36 167 -94 454 -335 1422 -1245 1648 -1550 80 -109 65
-106 457 -108 348 -2 509 -13 665 -45 52 -11 125 -22 162 -26 85 -7 88 -1 64
117 -28 138 -90 252 -219 403 -184 215 -396 387 -636 516 -146 78 -179 104
-204 160 -18 42 -19 52 -9 114 7 37 36 143 66 235 55 170 110 366 167 595 17
70 35 127 39 127 5 0 73 -32 152 -70 78 -39 179 -83 223 -98 79 -27 83 -27
335 -27 334 1 326 -2 500 174 90 91 135 144 159 191 19 36 75 132 124 215 109
182 136 239 197 425 47 144 228 572 295 699 19 36 53 89 75 116 84 106 83 103
91 365 8 251 12 278 65 380 56 107 67 173 61 340 -12 328 -141 646 -339 836
-194 187 -1134 962 -1345 1110 -113 79 -142 111 -163 184 -11 36 -29 148 -40
250 -11 102 -30 262 -41 355 -26 208 -22 296 16 386 15 35 46 118 70 184 23
66 46 129 50 140 4 11 99 207 210 435 215 441 239 495 279 631 48 166 49 189
53 1029 l4 795 116 320 c267 738 362 1096 427 1620 64 506 108 1567 110 2615
1 965 -34 1263 -193 1630 -39 91 -163 256 -244 325 -83 72 -245 147 -343 160
-37 5 -62 2 -99 -13 -27 -11 -84 -25 -125 -32 -102 -16 -213 -47 -277 -77 -54
-26 -69 -39 -88 -77 -6 -11 -35 -34 -66 -49 -206 -103 -872 -695 -1283 -1141
-121 -132 -266 -288 -321 -346 -187 -197 -282 -311 -415 -500 -41 -58 -93
-123 -116 -145 -23 -22 -45 -52 -49 -65 -8 -25 -118 -210 -232 -390 -157 -247
-346 -598 -719 -1332 -162 -318 -314 -611 -338 -650 -24 -40 -96 -170 -159
-290 -295 -551 -497 -804 -714 -893 -118 -47 -189 -57 -493 -62 -306 -6 -491
6 -520 32 -23 21 -90 43 -220 71 -421 91 -832 275 -853 384 -5 22 -20 39 -61
64 -35 23 -56 44 -60 62 -11 42 -112 203 -365 584 -418 627 -454 701 -747
1571 -90 268 -193 566 -228 662 -36 96 -70 202 -75 235 -7 43 -19 72 -44 104
-18 25 -39 67 -46 94 -41 155 -72 238 -158 414 -52 107 -136 281 -185 385
-142 300 -396 800 -531 1045 -68 124 -193 351 -276 505 -84 154 -178 314 -209
355 -31 41 -245 267 -476 503 l-420 427 -171 -1 c-93 -1 -199 -5 -235 -9z
m381 -252 c136 -69 412 -325 587 -546 196 -246 436 -612 466 -709 12 -37 -30
-30 -49 8 -30 58 -232 275 -595 643 l-365 369 -170 -6 c-196 -7 -255 -20 -302
-69 -66 -70 -179 -272 -237 -423 -28 -74 -141 -580 -175 -781 -33 -198 -41
-271 -51 -464 -6 -101 -17 -227 -25 -280 -22 -137 -83 -364 -164 -605 -109
-329 -155 -516 -221 -910 -79 -468 -94 -696 -87 -1285 8 -626 29 -841 92 -974
19 -41 46 -124 60 -183 51 -230 177 -528 277 -655 22 -29 37 -38 59 -38 71 0
75 119 15 400 -55 255 -66 341 -73 530 -6 190 5 328 38 470 25 109 105 276
148 313 30 25 39 27 119 27 69 0 94 -4 119 -20 67 -40 153 -195 174 -310 7
-41 13 -266 16 -607 l5 -543 -93 -157 c-153 -261 -223 -429 -270 -653 -53
-254 -11 -578 82 -625 72 -38 143 -16 434 130 321 162 533 227 802 245 72 5
146 15 165 23 109 46 105 156 -13 348 -123 199 -121 283 6 298 97 11 92 -6 69
247 -8 91 6 156 59 269 35 75 42 100 42 151 0 52 -5 69 -34 115 -56 89 -73
130 -79 192 l-5 58 36 -6 c24 -5 46 -2 71 10 57 27 57 52 -3 172 -28 57 -51
111 -51 121 0 10 13 28 30 40 18 14 33 37 40 63 11 42 52 89 76 89 29 0 44 42
38 105 -6 56 -4 62 20 84 40 38 34 72 -33 191 -33 57 -59 105 -58 106 1 2 41
-7 88 -18 47 -12 93 -18 102 -15 20 8 22 52 6 177 -12 103 -3 140 35 140 71 0
73 30 6 135 -27 44 -50 87 -50 98 0 18 1 18 31 0 17 -10 75 -63 128 -119 146
-154 219 -292 266 -503 40 -178 49 -312 49 -661 -1 -325 -12 -524 -38 -675
-40 -224 -26 -294 61 -311 35 -7 60 13 69 54 11 51 29 75 80 108 65 42 79 73
70 162 -3 37 -9 114 -13 172 -7 126 -5 131 95 242 89 97 99 125 82 232 -7 45
-11 95 -9 111 4 29 6 30 69 38 35 4 70 13 78 19 26 22 53 90 87 221 45 175 63
312 77 582 19 373 -11 736 -70 855 -15 30 -28 58 -30 62 -2 5 6 8 17 8 48 0
110 -154 166 -417 51 -240 63 -281 94 -348 16 -33 39 -96 51 -140 24 -90 51
-155 214 -513 128 -282 204 -422 308 -560 38 -52 76 -109 84 -128 14 -32 13
-37 -6 -61 -25 -32 -46 -107 -55 -194 -9 -98 -42 -159 -143 -261 -173 -178
-342 -307 -572 -440 -224 -129 -439 -266 -568 -363 -115 -86 -221 -201 -462
-495 -416 -510 -555 -713 -609 -890 -38 -125 -35 -180 8 -180 25 0 120 64 231
156 190 158 249 179 373 134 121 -44 169 -92 181 -183 5 -32 17 -59 38 -82 60
-69 59 -155 -1 -203 -24 -20 -53 -61 -85 -125 -37 -74 -69 -119 -142 -199 -52
-56 -94 -108 -94 -114 0 -40 -431 -498 -579 -616 -101 -81 -138 -98 -211 -98
-51 0 -65 4 -85 25 -21 20 -25 34 -25 87 0 35 7 101 16 148 57 313 67 416 40
426 -39 15 -140 -79 -161 -149 -8 -27 -48 -99 -88 -160 -195 -294 -567 -1066
-674 -1399 -29 -90 -43 -119 -72 -147 -20 -20 -42 -52 -50 -71 -48 -130 -109
-217 -202 -285 -68 -50 -112 -62 -164 -45 -42 14 -61 46 -70 121 -10 79 -31
156 -69 256 -50 130 -68 227 -72 400 -3 167 -13 205 -64 253 -40 37 -39 71 4
169 40 91 86 232 86 264 0 39 65 158 145 267 107 146 137 208 143 296 9 146
-46 241 -265 455 -190 186 -369 324 -525 405 -87 46 -196 151 -248 239 -30 51
-35 68 -34 120 1 72 15 114 106 310 38 83 76 175 85 205 23 76 20 227 -11 545
-29 287 -33 446 -13 485 8 17 21 25 37 25 37 0 59 -53 151 -361 44 -148 98
-330 120 -404 69 -232 130 -350 180 -350 38 0 42 32 36 270 -9 323 -42 589
-94 749 -58 179 -135 292 -331 486 l-132 129 0 326 c0 399 16 1004 31 1187 10
138 71 463 110 596 11 40 67 214 124 387 168 510 245 804 299 1140 45 275 56
429 66 875 12 572 22 652 107 837 24 53 50 128 58 165 18 85 30 120 93 258 27
61 57 135 67 165 27 85 71 154 334 518 l46 63 195 -3 196 -3 75 -37z m11314
-1532 c18 -20 48 -74 68 -124 20 -49 47 -107 61 -127 41 -60 103 -286 133
-485 16 -103 18 -200 17 -940 -1 -1129 -35 -2170 -89 -2730 -20 -205 -31 -264
-60 -330 -13 -31 -36 -118 -50 -194 -40 -221 -64 -306 -132 -470 -24 -59 -53
-147 -63 -195 -18 -84 -54 -175 -163 -416 -50 -112 -78 -186 -91 -245 -3 -17
-26 -39 -68 -67 -148 -98 -435 -382 -473 -469 -13 -29 -32 -55 -42 -58 -11 -3
-33 -20 -49 -37 -27 -28 -29 -36 -29 -102 0 -58 5 -81 25 -117 28 -50 83 -86
147 -96 96 -14 151 25 218 156 25 48 59 100 75 116 32 31 37 50 18 57 -28 9
106 157 143 157 5 0 12 -12 16 -27 5 -16 7 -336 6 -713 l-2 -685 -152 -310
c-83 -170 -179 -377 -214 -460 -81 -196 -198 -455 -206 -455 -3 0 -46 78 -94
173 -236 461 -486 905 -639 1137 -178 267 -565 770 -855 1108 -86 101 -172
211 -191 245 -47 84 -47 148 4 307 21 65 35 124 31 137 -3 13 -19 33 -35 45
-45 33 -39 57 36 145 84 99 95 120 69 139 -10 8 -36 14 -57 14 -21 0 -38 4
-38 8 0 4 22 24 50 45 66 49 70 70 31 168 -17 44 -31 89 -31 100 0 12 34 56
80 104 44 46 80 92 80 103 0 10 -11 29 -25 42 -36 33 -34 78 3 86 64 14 119
36 146 57 36 29 28 47 -38 96 -25 19 -46 40 -46 47 0 7 19 18 43 24 112 28
131 35 158 58 34 28 39 70 11 96 -10 9 -47 30 -81 46 -95 46 -107 102 -25 115
19 3 50 8 71 11 51 8 93 52 93 99 0 31 -9 46 -56 95 -33 35 -54 65 -51 73 3 8
23 17 44 20 21 4 63 23 93 43 78 52 257 233 266 268 8 35 -5 60 -35 64 -11 2
-21 6 -21 10 0 15 48 62 120 118 183 141 440 386 440 418 0 19 -61 71 -118
100 -98 51 -111 14 129 372 220 330 419 603 499 686 56 58 84 61 134 18 51
-45 89 -110 188 -322 l90 -193 -46 -165 c-59 -210 -78 -303 -70 -338 3 -15 19
-43 34 -62 56 -73 65 -99 65 -195 0 -98 -20 -155 -84 -249 -53 -77 -57 -105
-19 -119 29 -10 41 -82 35 -202 -12 -213 -51 -374 -118 -486 -44 -73 -49 -107
-19 -134 11 -10 20 -24 20 -31 0 -14 -45 -54 -113 -101 -57 -39 -77 -74 -56
-99 11 -14 26 -16 89 -10 41 3 87 9 103 12 33 8 37 -14 8 -40 -19 -17 -35 -68
-46 -141 -9 -60 -44 -114 -103 -160 -63 -48 -97 -99 -106 -161 -7 -55 -25 -90
-76 -149 -70 -81 -51 -125 55 -125 24 0 46 -4 50 -9 5 -9 -51 -67 -94 -97 -34
-25 -82 -93 -102 -146 -26 -71 -58 -115 -175 -237 -139 -146 -144 -157 -79
-199 19 -12 35 -26 35 -31 0 -5 -19 -33 -43 -63 -24 -29 -46 -61 -50 -70 -7
-21 17 -48 43 -48 29 0 153 105 281 237 143 148 225 254 244 320 8 27 27 66
42 86 16 19 47 59 70 89 84 107 153 272 203 488 21 91 39 140 128 350 24 55
47 133 56 184 9 49 24 106 34 125 11 20 27 52 37 71 15 28 19 59 20 155 1 110
5 130 40 240 106 332 146 545 179 965 35 427 56 1173 58 2030 2 627 -2 695
-58 985 -50 256 -63 355 -53 382 12 31 26 29 64 -11z m-1786 -928 c-50 -99
-105 -176 -554 -773 -604 -803 -864 -1173 -961 -1367 -124 -246 -264 -659
-343 -1009 -73 -325 -159 -628 -203 -717 -40 -82 -129 -185 -171 -198 -22 -7
-48 9 -127 82 -74 69 -100 116 -100 183 0 105 36 190 379 888 137 279 270 558
296 618 146 345 610 1113 830 1375 385 457 966 1043 983 991 2 -5 -11 -38 -29
-73z m-2595 -4192 c34 -19 114 -74 178 -123 115 -87 129 -95 241 -148 127 -59
583 -543 687 -728 31 -55 85 -207 73 -207 -3 0 -47 25 -98 55 -286 168 -717
295 -1220 360 -323 41 -517 87 -567 132 -30 27 -22 57 25 94 55 44 124 119
223 244 121 153 267 300 327 329 28 15 55 26 61 26 5 0 37 -15 70 -34z m-3307
-8 c16 -18 50 -62 73 -98 74 -111 138 -187 203 -238 110 -88 151 -105 462
-197 123 -37 143 -54 83 -74 -18 -6 -136 -29 -263 -51 -620 -110 -972 -210
-1328 -377 -142 -66 -200 -83 -294 -83 -82 0 -97 9 -108 66 -5 30 -1 49 24 98
111 224 752 866 865 866 49 0 101 24 152 71 64 58 89 61 131 17z m-230 -1032
c25 -24 -144 -131 -462 -292 -264 -133 -330 -156 -370 -130 -33 22 -32 50 3
65 15 7 70 41 122 76 111 74 318 187 478 261 l113 52 55 -13 c30 -7 58 -15 61
-19z m1007 -1606 c86 -13 165 -54 235 -123 76 -74 92 -112 101 -232 4 -55 12
-111 18 -125 16 -39 86 -100 217 -190 209 -144 328 -254 466 -430 37 -47 129
-152 205 -233 249 -265 305 -330 294 -342 -6 -5 -50 -12 -98 -13 -111 -5 -173
17 -283 100 -163 122 -302 326 -409 598 -51 127 -110 182 -312 287 l-157 81
-213 -90 c-255 -107 -471 -212 -576 -281 -42 -27 -104 -63 -137 -79 -60 -28
-61 -29 -190 -22 l-131 6 -32 -27 c-25 -21 -32 -34 -32 -64 0 -43 14 -61 47
-61 63 0 -12 -75 -132 -131 -107 -50 -260 -101 -293 -97 -21 2 -30 11 -38 37
-14 45 -48 71 -90 71 -44 0 -74 30 -74 73 0 70 120 217 177 217 62 0 193 177
193 259 0 58 -9 64 -79 56 l-61 -7 0 34 c0 47 52 120 166 233 155 155 340 295
388 295 35 0 98 45 141 101 53 68 81 88 141 98 70 12 466 12 548 1z m365
-1105 c131 -66 132 -183 2 -154 -24 5 -118 16 -208 23 -96 7 -169 18 -176 25
-29 29 32 69 166 107 108 30 156 30 216 -1z m4594 -173 c186 -100 258 -364
158 -578 -48 -102 -138 -184 -203 -184 -51 0 -156 105 -193 193 -33 81 -10
144 49 133 131 -24 199 -14 249 35 26 27 29 35 25 79 -6 59 -41 110 -93 134
-20 10 -79 22 -130 27 -104 9 -165 29 -165 54 0 23 49 82 88 106 71 45 133 45
215 1z m-5113 -217 c16 -8 54 -37 86 -65 82 -72 144 -93 279 -93 145 -1 205
17 277 81 72 66 98 82 128 82 37 0 50 -18 50 -69 0 -64 -43 -149 -124 -245
-110 -132 -89 -153 105 -104 124 31 260 42 319 26 36 -10 70 -45 70 -71 0 -22
-1 -22 -152 -23 -128 0 -174 -4 -280 -27 -239 -51 -382 -46 -578 19 -126 42
-337 144 -515 249 -188 112 -244 136 -312 138 -55 2 -58 3 -58 27 0 38 60 63
150 63 110 0 165 -30 420 -227 90 -70 200 -107 212 -70 2 5 -28 59 -67 119
-69 107 -94 163 -83 191 7 18 36 18 73 -1z m-3773 -24 c48 -34 103 -135 132
-241 12 -40 25 -79 31 -84 6 -6 36 -24 67 -41 114 -60 172 -190 181 -405 4
-120 3 -129 -27 -220 -42 -124 -140 -324 -184 -376 -20 -22 -47 -65 -60 -95
-13 -30 -51 -88 -84 -130 -74 -92 -99 -137 -85 -151 18 -18 80 1 178 53 52 27
94 45 94 40 0 -12 -195 -198 -280 -267 -256 -207 -556 -352 -837 -405 -83 -15
-93 -7 -93 77 0 50 4 68 20 84 22 22 21 22 199 55 202 36 224 60 196 209 -19
102 -68 262 -96 318 -25 50 -39 181 -39 378 0 240 13 342 49 397 16 24 39 79
50 123 39 143 113 285 236 450 118 158 230 258 291 260 12 0 39 -13 61 -29z
m10872 -2547 c74 -16 131 -46 131 -68 0 -30 -111 -57 -290 -71 -156 -12 -259
-43 -336 -101 -65 -50 -199 -81 -393 -90 -155 -8 -171 -3 -171 59 0 54 43 126
98 162 92 61 304 106 597 129 90 7 297 -4 364 -20z m524 -35 c78 -39 206 -127
222 -153 10 -14 15 -33 11 -41 -7 -20 -74 -20 -151 0 -114 30 -165 82 -165
168 0 41 3 47 20 47 12 0 40 -10 63 -21z m-316 -449 c29 -6 64 -21 79 -32 34
-27 63 -92 64 -141 0 -39 14 -76 34 -89 6 -4 29 -8 52 -8 22 0 49 -6 59 -14
18 -13 18 -17 5 -41 -8 -14 -71 -84 -141 -154 -73 -75 -135 -147 -147 -172
-28 -58 -37 -142 -23 -209 35 -162 160 -190 432 -97 189 65 209 63 209 -21 0
-71 -17 -109 -58 -129 -59 -29 -91 -98 -300 -639 -151 -389 -187 -474 -233
-545 -46 -72 -74 -75 -104 -9 -20 44 -12 100 29 198 28 67 60 204 76 319 26
197 53 253 210 433 56 65 77 96 68 101 -7 3 -49 9 -93 13 -63 5 -95 13 -151
41 -167 82 -294 289 -294 480 0 66 -16 136 -33 147 -14 8 -44 -17 -63 -54 -7
-14 -38 -93 -67 -175 -30 -81 -75 -197 -101 -258 -51 -119 -164 -470 -204
-630 -24 -101 -30 -116 -60 -170 -21 -39 -28 -212 -13 -332 18 -135 39 -209
92 -318 27 -55 60 -140 74 -189 28 -100 34 -196 11 -196 -18 0 -61 51 -106
127 -75 127 -175 238 -274 306 -71 48 -128 58 -202 34 -81 -26 -160 -37 -354
-47 -196 -11 -433 -1 -453 19 -19 19 61 43 178 53 423 35 771 262 949 618 81
161 154 434 159 596 2 64 -14 84 -71 84 -64 0 -100 37 -82 86 6 15 40 58 75
96 127 135 154 226 164 558 8 260 12 281 73 318 46 27 92 41 178 51 90 12 285
6 357 -9z m-3009 -412 c216 -213 369 -424 310 -429 -31 -3 -56 6 -151 52 -74
36 -112 49 -144 49 -86 0 -143 -55 -143 -139 0 -38 5 -49 40 -82 39 -37 56
-44 235 -96 136 -39 333 -203 311 -259 -14 -37 -157 9 -379 123 -157 81 -210
128 -319 277 -106 147 -154 234 -139 249 8 8 76 13 211 16 110 1 200 7 200 11
0 5 -27 55 -61 112 -34 57 -69 119 -79 138 -57 113 -24 106 108 -22z m-497 42
c10 -6 26 -25 35 -42 16 -31 16 -32 -6 -50 -27 -22 -40 -22 -84 -4 -42 17 -53
48 -32 81 18 27 53 33 87 15z m1609 -478 c30 -16 78 -41 106 -56 82 -44 184
-67 324 -73 130 -5 186 5 310 52 51 20 144 25 160 9 13 -13 -37 -77 -95 -121
-69 -53 -100 -58 -330 -58 -241 0 -292 8 -385 63 -85 49 -210 169 -210 201 0
21 3 23 33 17 17 -3 57 -19 87 -34z m-1841 -183 c24 -9 38 -23 51 -54 13 -30
32 -51 64 -71 26 -16 61 -38 79 -49 18 -12 33 -30 35 -42 5 -35 -48 -56 -158
-61 -164 -7 -206 22 -217 146 -7 84 8 116 60 131 44 13 49 13 86 0z m-675 -93
c37 -16 76 -60 76 -88 0 -35 -41 -43 -150 -29 -121 15 -200 37 -200 56 0 15
56 52 98 65 44 13 140 11 176 -4z m1465 -269 c46 -31 51 -50 19 -84 -32 -34
-107 -32 -179 5 -63 32 -77 68 -37 97 37 26 144 17 197 -18z m-1295 -198 c35
-28 35 -70 -1 -98 -92 -73 -206 9 -128 93 31 33 90 36 129 5z m-856 -51 c12
-12 22 -32 22 -44 0 -40 -95 -55 -137 -21 -20 15 -15 46 13 73 29 30 64 27
102 -8z m402 13 c13 -26 -11 -51 -50 -51 -43 0 -60 10 -60 35 0 27 11 33 62
34 27 1 40 -4 48 -18z m884 9 c33 -12 52 -46 35 -66 -30 -37 -109 0 -109 51 0
20 5 25 24 25 14 0 36 -4 50 -10z m625 -250 c102 -51 106 -131 11 -180 -55
-28 -116 -26 -162 5 -131 89 7 249 151 175z m-537 -164 c23 -17 38 -59 31 -87
-10 -42 -33 -59 -79 -59 -34 0 -47 5 -63 26 -29 37 -26 61 13 100 36 36 69 43
98 20z m-571 -43 c16 -16 -46 -83 -77 -83 -27 0 -109 69 -97 81 22 20 154 22
174 2z m-2791 -28 c282 -46 671 -182 1055 -369 157 -77 217 -115 181 -116 -32
0 -151 39 -350 115 -447 171 -741 244 -976 245 -169 0 -328 -44 -447 -123 -39
-26 -117 -96 -175 -157 -58 -60 -112 -110 -122 -110 -43 0 4 200 73 306 66
103 182 178 322 209 88 19 322 19 439 0z m5248 -498 c90 -31 120 -50 133 -85
17 -42 13 -370 -5 -516 -36 -284 -106 -567 -177 -714 -52 -108 -69 -116 -141
-72 -74 45 -105 70 -338 270 -269 231 -404 344 -638 533 l-193 157 -567 0
c-788 1 -1061 15 -1159 61 -40 19 -63 52 -48 67 4 4 372 9 818 12 783 6 816 7
932 28 172 32 785 186 929 233 173 57 181 59 286 54 67 -2 116 -11 168 -28z
m-4587 -17 c29 -16 47 -60 58 -146 6 -43 15 -95 21 -116 12 -41 68 -96 130
-128 59 -30 118 -93 148 -159 35 -75 40 -188 17 -377 -12 -98 -16 -185 -13
-276 6 -161 27 -232 150 -510 44 -101 83 -202 86 -225 l5 -43 -41 0 c-80 0
-143 45 -188 132 -33 64 -44 120 -53 274 -6 106 -13 141 -31 179 -48 100 -309
340 -420 387 -75 32 -170 136 -290 319 -148 224 -179 330 -121 420 57 91 144
143 295 179 98 23 144 43 153 68 12 33 55 42 94 22z m-1200 -470 c82 -98 139
-188 254 -405 348 -650 510 -801 1273 -1190 162 -83 251 -148 239 -178 -5 -13
-14 -15 -39 -11 -154 28 -898 399 -1294 645 -230 144 -354 249 -521 443 -169
197 -263 346 -263 419 0 111 94 30 340 -293 218 -286 281 -350 347 -350 35 0
73 15 85 33 11 17 -10 47 -88 127 -147 152 -282 358 -290 443 -5 47 -20 74
-85 142 -76 81 -93 124 -97 238 l-4 98 44 -48 c25 -26 69 -77 99 -113z m1965
-11 c143 -100 252 -218 239 -259 -5 -15 2 -30 23 -54 30 -34 55 -97 67 -167
19 -105 -68 -26 -274 251 -100 133 -139 197 -147 240 -9 43 18 40 92 -11z
m-145 -498 c11 -31 25 -99 30 -151 13 -118 30 -200 76 -365 20 -71 37 -152 37
-180 1 -49 0 -50 -30 -53 -89 -9 -165 165 -195 443 -11 106 -7 353 7 389 6 15
9 15 30 -5 13 -12 33 -47 45 -78z m-9593 -532 c1 -9 -24 -56 -56 -105 -33 -49
-62 -99 -66 -111 -26 -82 64 -96 303 -47 30 6 33 5 28 -12 -4 -10 -17 -64 -31
-119 -14 -55 -32 -120 -41 -145 -50 -140 -33 -220 47 -220 25 0 70 26 138 78
87 66 106 26 41 -92 -21 -39 -48 -97 -59 -128 -19 -51 -62 -241 -62 -274 0 -9
35 4 105 38 68 33 123 53 155 56 57 5 63 -5 26 -40 -36 -35 -89 -122 -193
-322 -145 -278 -285 -476 -338 -476 -29 0 -43 57 -70 287 -15 132 -28 182 -49
184 -6 1 -33 2 -61 3 -49 1 -50 2 -74 49 -20 40 -24 64 -25 150 0 56 3 159 8
228 14 205 -8 214 -184 77 -81 -62 -94 -67 -104 -42 -24 62 8 171 109 375 78
159 91 217 54 243 -13 9 -40 16 -60 16 -60 0 -99 11 -99 28 0 43 218 207 397
299 91 47 154 56 161 22z m10081 -170 c17 -17 60 -75 95 -128 36 -54 103 -139
150 -189 47 -51 86 -99 86 -107 0 -54 -258 -56 -449 -4 -87 25 -159 54 -184
76 -16 16 -16 18 18 45 21 18 38 44 45 67 19 70 166 271 199 271 5 0 23 -14
40 -31z m795 -463 c100 -59 131 -151 69 -206 -60 -54 -217 -65 -255 -19 -13
16 -18 39 -18 88 0 83 15 136 43 156 31 23 104 14 161 -19z m-939 -296 c88
-45 212 -149 370 -311 158 -163 200 -217 190 -248 -15 -49 -90 -11 -245 124
-135 117 -462 454 -454 466 10 17 72 3 139 -31z m1288 -361 c35 -19 48 -58 67
-204 23 -175 52 -286 86 -337 18 -25 28 -59 34 -105 11 -82 23 -117 56 -161
34 -44 95 -73 178 -83 111 -14 129 -55 37 -83 -185 -55 -678 -41 -881 25 -303
99 -830 488 -830 614 0 36 99 6 285 -87 236 -118 460 -193 511 -169 38 17 29
46 -36 116 -50 53 -60 71 -60 100 0 52 34 70 133 71 56 1 83 6 94 17 9 8 18
45 23 85 12 115 70 189 164 213 35 9 112 2 139 -12z m-2241 -826 c9 -10 21
-35 28 -56 14 -44 42 -66 96 -74 52 -8 80 -35 94 -91 22 -90 89 -121 143 -66
34 33 49 27 83 -33 65 -115 88 -144 139 -168 64 -31 158 -114 180 -160 20 -44
14 -94 -40 -288 -54 -200 -88 -247 -120 -171 l-15 37 -63 -7 c-34 -3 -74 -9
-89 -12 -27 -6 -28 -4 -28 30 0 19 5 67 12 106 16 95 11 99 -87 76 -42 -10
-82 -15 -90 -12 -12 4 -14 22 -9 93 6 96 -8 141 -53 171 -20 13 -25 11 -59
-22 -55 -54 -88 -46 -100 25 -11 69 -14 76 -40 102 -15 15 -35 27 -46 27 -11
0 -32 12 -47 28 -22 21 -29 41 -35 88 -8 70 -27 104 -61 104 -66 0 -70 25 -16
106 77 115 149 184 192 184 9 0 23 -8 31 -17z m1998 -1003 c30 -6 145 -15 255
-20 191 -8 245 -16 259 -39 16 -25 -40 -36 -179 -35 -222 2 -414 46 -423 97
-3 14 1 18 15 13 10 -3 43 -10 73 -16z m359 -850 c60 -23 89 -42 119 -74 68
-74 77 -144 37 -296 -22 -81 -24 -108 -19 -181 l7 -86 -41 -42 c-51 -52 -75
-122 -76 -216 0 -100 19 -164 70 -236 69 -99 54 -146 -52 -160 -68 -9 -90 -27
-97 -80 -22 -167 -220 -44 -267 166 -13 59 -7 112 26 215 35 112 38 148 19
200 -48 127 -56 155 -50 177 9 36 41 63 76 63 64 0 70 10 63 113 l-7 93 42 47
c48 56 56 80 47 150 -21 171 -20 177 3 177 12 0 57 -14 100 -30z"/>
<path d="M7705 22448 c-32 -17 -123 -95 -230 -198 -145 -139 -217 -190 -265
-190 -31 0 -221 58 -248 76 -14 9 -27 25 -29 35 -18 67 -284 30 -379 -54 -67
-58 -78 -106 -43 -188 16 -37 30 -53 55 -64 41 -17 91 -84 149 -200 59 -119
92 -220 110 -335 22 -139 35 -181 59 -189 27 -11 76 3 160 46 168 84 337 232
439 384 192 289 351 829 259 878 -11 6 -25 5 -37 -1z"/>
<path d="M15995 13796 c-55 -19 -145 -41 -200 -50 -150 -24 -220 -45 -246 -72
-46 -50 -17 -119 96 -221 153 -139 304 -233 376 -233 47 0 116 45 154 100 28
40 30 49 28 123 -2 65 2 90 22 138 30 71 31 100 5 154 -48 98 -92 110 -235 61z"/>
<path d="M6973 15525 c-63 -27 -153 -96 -275 -211 -68 -64 -179 -164 -248
-222 -178 -153 -236 -209 -254 -247 -22 -46 -20 -64 9 -77 31 -14 93 -2 303
58 86 24 157 43 158 41 4 -4 -89 -117 -190 -233 -91 -105 -166 -219 -166 -254
0 -48 34 -49 143 -3 36 15 73 23 95 21 35 -3 37 -5 40 -40 2 -23 -11 -80 -32
-148 -63 -194 -52 -213 107 -182 53 10 97 17 97 14 0 -18 -168 -277 -200 -308
-45 -44 -49 -58 -21 -74 30 -15 79 -12 151 11 48 16 101 23 205 27 l140 5 -88
-76 c-84 -71 -155 -115 -221 -134 -42 -12 -57 -40 -31 -60 21 -15 78 -15 485
3 73 3 131 1 139 -4 12 -8 12 -18 2 -58 -12 -44 -60 -304 -57 -304 0 0 53 9
116 20 142 25 232 26 254 4 22 -21 20 -51 -9 -141 -29 -90 -31 -126 -10 -143
23 -19 62 -4 158 61 50 35 94 58 102 55 31 -11 10 -119 -49 -253 -68 -154 -48
-174 125 -129 58 15 121 26 140 24 l34 -3 -92 -89 c-127 -122 -127 -137 6
-150 63 -6 95 -25 123 -72 29 -49 50 -58 93 -39 46 19 149 121 205 205 58 85
120 226 120 272 0 31 -6 41 -41 69 -65 51 -66 63 -14 213 57 166 69 224 56
259 -16 41 -47 34 -141 -28 -46 -31 -107 -62 -136 -71 -51 -14 -98 -11 -110 7
-3 6 8 65 25 132 41 161 51 233 37 252 -10 14 -22 12 -98 -14 -154 -52 -236
-51 -288 4 l-24 25 22 28 c37 45 55 94 60 159 9 124 -6 135 -193 152 -247 23
-305 43 -305 106 0 43 18 80 114 234 93 147 138 237 134 264 -6 40 -49 50
-268 58 -113 4 -208 8 -212 8 -21 2 2 31 121 155 191 198 216 238 169 270 -19
13 -57 16 -219 16 -166 0 -199 2 -209 16 -11 12 -9 45 10 182 30 217 32 303 6
331 -22 24 -57 26 -103 6z"/>
<path d="M16167 9613 c-16 -15 -5 -44 23 -58 38 -19 84 -19 104 1 20 20 20 27
-2 47 -19 17 -111 24 -125 10z"/>
</g>
</svg>
