<?xml version="1.0" standalone="no"?>
<!DOCTYPE svg PUBLIC "-//W3C//DTD SVG 20010904//EN"
 "http://www.w3.org/TR/2001/REC-SVG-20010904/DTD/svg10.dtd">
<svg version="1.0" xmlns="http://www.w3.org/2000/svg"
 width="373.000000pt" height="267.000000pt" viewBox="0 0 373.000000 267.000000"
 preserveAspectRatio="xMidYMid meet">

<g transform="translate(0.000000,267.000000) scale(0.100000,-0.100000)"
fill="#000000" stroke="none">
<path d="M99 2610 c-84 -8 -93 -18 -86 -115 3 -49 14 -105 30 -145 13 -36 50
-135 82 -220 102 -276 150 -354 271 -441 91 -67 106 -86 153 -200 17 -42 44
-87 59 -102 60 -58 199 -103 349 -113 66 -5 96 -11 106 -23 9 -10 17 -53 21
-114 4 -64 16 -126 33 -180 25 -76 27 -95 28 -252 0 -159 2 -175 28 -250 32
-93 69 -159 75 -133 2 9 -1 33 -7 52 -5 20 -8 36 -6 36 2 0 16 -24 33 -52 16
-29 51 -77 78 -107 47 -52 47 -53 15 -37 -48 25 -47 14 3 -32 61 -57 129 -88
251 -118 261 -63 353 -67 558 -25 124 25 141 30 170 60 l32 32 -39 -16 c-49
-21 -57 -13 -13 14 40 25 117 105 117 122 0 7 3 10 6 7 3 -3 0 -25 -7 -47 -7
-23 -10 -44 -6 -47 7 -7 47 14 45 24 -1 4 4 20 10 35 7 16 12 34 12 40 0 7 15
44 33 82 38 79 43 98 62 210 7 44 29 121 48 170 49 125 57 160 57 240 0 86 41
219 73 239 12 8 59 19 105 25 45 6 115 24 155 40 39 16 99 37 131 46 76 21
107 53 136 139 14 42 39 88 66 122 24 30 64 79 90 110 100 124 133 201 205
481 48 184 51 205 47 292 -4 85 -6 95 -29 114 -21 17 -34 19 -104 14 -148 -9
-329 -68 -475 -154 -41 -24 -131 -89 -200 -143 -69 -55 -168 -128 -220 -163
-97 -65 -157 -122 -185 -176 -24 -47 -50 -48 -197 -3 -344 106 -420 110 -673
33 -71 -21 -163 -44 -203 -51 l-72 -13 -31 29 c-17 16 -50 56 -75 89 -24 33
-58 70 -76 82 -18 11 -64 41 -103 65 -38 25 -117 87 -175 138 -126 111 -213
170 -313 210 -144 57 -348 92 -478 80z m247 -75 c61 -15 147 -48 224 -86 124
-60 126 -61 260 -198 74 -76 167 -166 207 -200 46 -39 85 -83 108 -122 19 -33
35 -62 35 -64 0 -2 -16 3 -35 11 l-36 14 35 -52 c19 -29 37 -63 41 -76 6 -21
5 -21 -21 -11 -16 5 -35 15 -43 22 -22 19 -5 -28 36 -94 41 -68 37 -89 -18
-89 -37 0 -51 -12 -29 -25 19 -12 10 -53 -16 -74 -59 -47 -233 -77 -336 -59
-81 14 -110 44 -138 139 -41 142 -39 139 -120 188 -96 58 -166 130 -212 217
-62 117 -199 549 -182 575 11 18 141 9 240 -16z m3288 -47 c28 -40 26 -52 -59
-367 -60 -227 -119 -317 -267 -412 -46 -29 -86 -57 -90 -63 -4 -6 -8 -44 -8
-83 0 -65 -3 -76 -27 -103 -76 -84 -397 -122 -454 -54 -17 21 -3 60 39 105
l37 41 -62 -7 c-75 -8 -103 -1 -103 27 0 32 29 58 64 58 27 0 28 2 16 15 -8 8
-40 21 -70 29 l-55 14 63 62 64 63 -56 -5 -55 -5 27 51 c15 30 60 82 107 126
44 41 139 134 210 206 133 134 208 190 343 258 88 44 165 64 254 65 58 1 69
-2 82 -21z m-1909 -578 c25 -6 20 -8 -27 -9 -138 -3 -262 -53 -348 -140 -44
-45 -50 -50 -35 -23 29 49 109 120 159 143 73 32 187 45 251 29z m536 -44
c116 -27 180 -83 248 -216 20 -41 50 -97 66 -125 l29 -50 -42 45 c-24 25 -58
76 -78 114 -68 132 -159 204 -292 230 -59 12 -62 14 -27 15 22 0 65 -5 96 -13z
m-857 -282 c-4 -18 -44 -65 -99 -119 -51 -51 -100 -109 -112 -135 l-22 -45 -1
56 c0 33 9 86 22 125 22 67 23 68 26 32 2 -21 5 -38 8 -38 3 0 31 18 63 39 59
40 111 93 111 113 0 6 2 9 5 6 4 -3 3 -19 -1 -34z m1049 -27 c14 -17 34 -52
46 -77 11 -25 32 -65 46 -89 14 -24 25 -56 24 -70 l-1 -26 -8 28 c-5 16 -29
50 -54 77 -29 31 -46 58 -46 74 0 37 -18 77 -48 110 -24 25 -24 27 -5 17 12
-6 33 -26 46 -44z m-916 -132 c20 -14 22 -13 25 2 3 15 7 13 22 -9 22 -33 31
-94 22 -143 -6 -30 -10 -34 -22 -25 -11 10 -14 8 -15 -11 0 -19 -5 -14 -20 21
-13 29 -23 40 -28 32 -12 -20 -36 -5 -59 37 -26 45 -28 65 -7 57 12 -4 13 -2
2 15 -10 16 -9 21 3 29 22 14 53 12 77 -5z m623 1 c37 19 84 9 77 -17 -3 -10
0 -20 6 -22 15 -5 1 -48 -28 -82 -18 -23 -27 -27 -33 -17 -11 16 -25 2 -43
-43 l-11 -30 -14 30 c-10 24 -13 26 -14 10 -1 -17 -3 -17 -11 5 -15 36 -6 120
17 154 14 22 20 26 22 14 3 -14 6 -14 32 -2z m203 -76 c-29 -17 -53 -34 -53
-38 0 -4 22 -5 50 -4 59 5 105 -9 145 -43 l30 -26 -43 21 c-68 33 -132 37
-185 11 -49 -24 -93 -79 -103 -129 -10 -50 -25 -50 -18 0 7 50 46 138 72 161
26 24 124 77 142 77 8 0 -9 -14 -37 -30z m-964 -15 c80 -40 132 -121 130 -201
0 -25 -2 -23 -15 16 -37 118 -143 160 -262 105 -67 -31 -58 -13 11 21 41 21
61 25 104 22 44 -4 51 -2 41 9 -6 8 -28 23 -47 33 -20 11 -30 19 -23 20 7 0
35 -11 61 -25z m310 -75 c2 -50 28 -142 43 -151 7 -5 23 -9 36 -9 32 0 19 -17
-19 -25 -18 -4 -51 -27 -75 -51 -24 -24 -44 -41 -44 -38 0 3 13 31 30 62 28
54 29 60 20 122 -12 81 -12 187 0 150 4 -14 9 -41 9 -60z m-329 -20 c11 0 40
-29 40 -40 0 -20 -34 -40 -69 -40 -42 0 -65 18 -59 47 4 20 47 45 66 38 8 -3
17 -5 22 -5z m1048 -6 c28 -19 28 -49 0 -68 -43 -30 -118 -9 -118 34 0 24 37
50 70 50 14 0 36 -7 48 -16z m-438 -48 c0 -34 27 -82 81 -144 16 -18 29 -37
29 -41 0 -11 -86 73 -104 102 -19 30 -32 117 -17 117 6 0 11 -15 11 -34z
m-754 -53 c10 -19 31 -44 48 -54 39 -24 116 -25 159 -2 29 14 31 14 19 0 -21
-25 -79 -40 -135 -34 -43 4 -56 10 -89 45 -24 26 -38 51 -38 67 0 33 15 24 36
-22z m1284 -38 c-24 -39 -91 -75 -141 -75 -35 0 -112 30 -123 48 -3 6 8 4 24
-5 53 -26 102 -27 154 -5 37 17 51 30 66 64 25 57 34 65 38 34 2 -15 -6 -42
-18 -61z m-955 -71 c-24 -84 -128 -184 -190 -184 -18 0 -143 129 -167 174 -26
47 -21 55 8 14 42 -59 98 -93 151 -90 40 1 44 0 38 -18 -8 -25 -4 -25 46 0 46
24 94 87 110 144 7 23 14 35 16 29 3 -7 -3 -38 -12 -69z m696 -116 c49 -51 85
-62 109 -33 7 8 22 15 35 15 31 0 83 38 122 88 18 24 33 41 33 37 0 -22 -48
-91 -108 -153 -63 -65 -73 -72 -98 -66 -38 10 -108 83 -176 184 l-58 85 48
-54 c26 -30 68 -76 93 -103z m385 86 c14 -54 -4 -137 -49 -229 -24 -49 -50
-109 -57 -133 -15 -47 -33 -67 -51 -57 -8 5 -10 34 -7 89 4 84 18 121 96 261
16 28 31 61 34 73 8 30 26 28 34 -4z m-1440 -39 c25 -34 81 -211 70 -222 -21
-22 -76 54 -76 104 0 18 -9 56 -20 85 -11 29 -20 56 -20 61 0 17 21 4 46 -28z
m899 -134 c9 -27 30 -68 47 -91 16 -24 34 -56 40 -72 20 -56 44 -15 47 78 2
62 18 70 75 34 57 -37 66 -37 106 -4 17 15 33 24 36 21 5 -5 -18 -96 -37 -146
-9 -22 -13 -23 -59 -17 -64 8 -66 -8 -6 -34 76 -32 85 -75 28 -129 -21 -20
-47 -51 -58 -69 -18 -31 -49 -50 -61 -38 -4 3 4 29 17 57 18 37 21 55 14 67
-19 29 -34 25 -34 -7 0 -47 -36 -141 -66 -172 -15 -15 -48 -37 -73 -48 -57
-24 -171 -44 -208 -35 -115 25 -118 61 -11 104 79 32 115 84 128 185 14 114
-8 142 -134 171 l-61 14 102 -5 101 -5 5 48 c17 152 34 177 62 93z m-477 -25
c0 -45 -4 -68 -14 -77 -27 -22 -15 -31 34 -25 26 4 61 3 77 -2 29 -8 29 -9
-18 -15 -68 -10 -94 -31 -112 -90 -21 -71 -19 -120 9 -175 30 -60 49 -75 114
-97 108 -35 76 -99 -50 -98 -117 1 -194 64 -223 182 -16 66 -35 102 -35 67 0
-25 -26 -19 -49 10 -38 49 -19 114 46 159 42 28 33 32 -21 10 -20 -9 -41 -13
-46 -10 -5 3 -12 27 -16 53 -3 26 -15 67 -25 91 -11 24 -17 46 -14 49 2 3 23
-12 45 -32 22 -20 44 -36 49 -36 5 0 18 11 29 25 11 14 24 25 30 25 5 0 17
-11 26 -25 31 -48 97 -22 135 53 19 37 27 25 29 -42z m289 -196 c23 -10 46
-28 52 -39 13 -24 17 -23 -74 -26 -38 -1 -89 -5 -111 -9 -32 -7 -47 -4 -68 9
-18 12 -37 16 -62 12 -29 -5 -35 -3 -32 10 13 65 187 90 295 43z m-220 -198
c-19 -18 -62 -9 -71 14 -5 14 -4 15 8 5 26 -22 60 -9 65 24 l5 30 4 -29 c2
-17 -3 -35 -11 -44z m191 -2 c15 0 38 7 50 16 12 8 22 11 22 5 0 -15 -42 -41
-67 -41 -27 0 -63 33 -63 58 1 12 5 9 16 -10 10 -20 22 -28 42 -28z m394 -113
c-26 -28 -28 -37 -6 -37 24 0 6 -19 -33 -35 -34 -14 -35 -16 -18 -29 18 -13
18 -14 -5 -26 -13 -7 -52 -15 -87 -18 -51 -4 -63 -8 -61 -21 2 -13 -8 -17 -50
-19 -41 -2 -52 -6 -48 -17 7 -20 -44 -28 -93 -15 -30 8 -47 8 -62 0 -15 -8
-24 -8 -34 0 -8 7 -27 9 -47 5 -25 -5 -38 -2 -47 9 -8 10 -30 16 -55 17 -22 0
-35 3 -28 6 26 10 10 23 -29 23 -36 0 -40 2 -34 20 5 16 2 20 -17 20 -24 0
-64 20 -40 20 23 0 12 18 -19 29 -26 9 -29 14 -20 25 9 11 6 18 -16 35 -57 44
18 11 80 -35 41 -31 71 -45 105 -49 26 -4 68 -15 94 -26 57 -23 180 -26 235
-5 21 8 73 22 116 31 61 13 93 27 150 66 78 53 103 62 69 26z"/>
</g>
</svg>
