<?xml version="1.0" standalone="no"?>
<!DOCTYPE svg PUBLIC "-//W3C//DTD SVG 20010904//EN"
 "http://www.w3.org/TR/2001/REC-SVG-20010904/DTD/svg10.dtd">
<svg version="1.0" xmlns="http://www.w3.org/2000/svg"
 width="1600.000000pt" height="1700.000000pt" viewBox="0 0 1600.000000 1700.000000"
 preserveAspectRatio="xMidYMid meet">

<g transform="translate(0.000000,1700.000000) scale(0.100000,-0.100000)"
fill="#000000" stroke="none">
<path d="M4814 13525 c-313 -88 -745 -351 -1096 -669 -162 -146 -433 -422
-596 -606 -81 -91 -248 -266 -372 -390 -303 -302 -389 -406 -469 -567 -64
-129 -117 -307 -102 -346 25 -65 108 -97 247 -97 167 0 281 55 416 199 57 61
100 125 198 292 398 684 615 962 970 1243 182 143 494 277 716 307 280 37 648
-60 769 -203 76 -89 82 -169 22 -287 -59 -115 -148 -223 -362 -436 -329 -329
-468 -539 -519 -787 -16 -75 -23 -328 -10 -315 4 4 24 49 44 101 112 284 269
473 690 828 312 263 475 450 581 669 41 86 147 114 281 73 l57 -17 43 35 c196
159 527 283 903 340 113 16 621 17 713 0 48 -8 77 -8 120 1 35 7 168 11 347
12 234 0 312 -4 403 -18 338 -55 627 -162 832 -308 l84 -61 56 17 c83 25 148
24 207 -3 44 -21 53 -31 82 -90 70 -143 160 -261 321 -422 85 -86 171 -168
190 -182 154 -113 440 -383 534 -503 112 -143 218 -339 241 -443 11 -53 18
-29 23 75 11 247 -69 457 -277 722 -36 47 -156 175 -267 285 -401 401 -473
567 -315 727 72 71 170 120 326 161 110 28 134 31 285 32 148 0 175 -2 266
-26 486 -129 867 -441 1262 -1035 109 -164 362 -582 362 -599 0 -16 93 -139
149 -197 130 -136 242 -187 405 -187 160 0 246 44 246 125 0 50 -46 200 -89
292 -85 178 -167 279 -471 582 -125 124 -281 287 -346 361 -571 645 -1043
1030 -1517 1235 -190 82 -259 99 -387 92 -127 -6 -236 -41 -368 -119 -163 -96
-273 -186 -539 -440 l-102 -97 -43 19 c-72 33 -154 21 -220 -31 l-36 -29 -64
30 c-344 161 -985 186 -1505 57 l-133 -33 -129 32 c-376 93 -836 110 -1181 44
-112 -21 -275 -72 -344 -107 -48 -24 -48 -24 -70 -5 -62 57 -157 76 -229 44
l-46 -21 -93 86 c-51 48 -120 112 -153 143 -216 206 -424 344 -600 400 -91 29
-267 37 -341 15z"/>
<path d="M7147 12450 c-308 -49 -561 -244 -647 -500 -11 -33 -20 -70 -20 -82
0 -20 5 -17 43 23 40 44 163 151 221 194 24 18 84 53 192 115 119 68 396 154
603 187 61 9 111 20 111 23 0 3 -39 14 -87 24 -100 22 -326 30 -416 16z"/>
<path d="M8560 12454 c-14 -2 -67 -12 -117 -21 -51 -9 -93 -19 -93 -22 0 -4
51 -14 114 -24 416 -64 756 -227 1000 -481 l59 -61 -7 40 c-27 145 -150 323
-290 417 -146 100 -301 147 -506 153 -74 2 -146 2 -160 -1z"/>
<path d="M8257 12095 c4 -16 7 -82 6 -145 -1 -127 -21 -238 -78 -440 -60 -211
-78 -313 -78 -445 -1 -97 4 -136 23 -205 l24 -85 8 50 c4 28 12 79 18 115 6
36 49 178 96 316 46 139 91 286 99 329 19 98 19 225 1 296 -18 69 -68 174
-101 214 l-25 30 7 -30z"/>
<path d="M7647 11990 c-40 -208 -47 -365 -22 -557 27 -205 76 -367 225 -748
146 -373 197 -530 228 -710 9 -50 9 -49 16 46 9 106 -5 309 -30 454 -24 136
-76 328 -149 550 -103 311 -152 473 -179 591 -28 122 -55 299 -57 365 -1 24
-4 55 -8 69 -6 20 -11 7 -24 -60z"/>
<path d="M4020 12033 c-8 -3 -60 -28 -115 -56 -229 -114 -309 -124 -373 -42
-11 14 -23 25 -27 25 -11 0 1 -169 14 -203 10 -26 8 -33 -30 -75 -52 -59 -62
-86 -55 -143 16 -119 120 -346 221 -481 122 -162 359 -375 630 -567 187 -132
188 -132 223 -202 60 -120 92 -309 92 -548 0 -152 11 -314 21 -304 10 10 53
207 79 355 39 230 49 439 30 608 -13 118 -41 240 -54 240 -17 0 -78 43 -313
219 -251 189 -312 240 -441 365 -150 146 -252 288 -252 350 0 82 93 198 340
424 42 39 45 48 10 35z"/>
<path d="M12087 11906 c171 -164 238 -256 238 -325 0 -38 -9 -60 -48 -123 -71
-114 -283 -329 -438 -443 -15 -11 -89 -67 -165 -124 -273 -205 -319 -239 -341
-245 -17 -6 -25 -21 -37 -74 -54 -242 -46 -545 24 -887 45 -219 54 -255 61
-255 4 0 10 98 14 218 11 361 30 497 91 632 29 66 52 90 144 152 225 152 382
279 550 448 187 186 277 324 353 537 52 143 47 189 -30 273 -33 37 -34 42 -24
72 18 49 27 198 12 198 -6 0 -11 -4 -11 -10 0 -5 -19 -23 -42 -40 -70 -51
-124 -40 -358 74 -63 31 -119 56 -125 56 -5 0 54 -61 132 -134z"/>
<path d="M6827 11184 c-4 -4 26 -17 67 -29 253 -73 399 -296 437 -670 25 -248
-22 -632 -119 -957 -16 -54 -25 -98 -21 -98 13 0 65 75 125 181 149 266 232
602 221 894 -9 235 -65 392 -181 509 -75 77 -150 120 -251 146 -79 20 -266 36
-278 24z"/>
<path d="M8992 11179 c-214 -27 -366 -132 -451 -313 -63 -132 -76 -202 -76
-416 0 -153 4 -205 23 -299 46 -227 149 -484 259 -645 58 -84 80 -97 57 -34
-44 126 -94 349 -125 563 -20 137 -18 469 4 578 37 185 96 307 198 409 72 73
152 118 246 139 100 23 1 36 -135 18z"/>
<path d="M5717 10720 c-41 -26 -91 -66 -177 -141 -237 -209 -423 -477 -509
-734 -44 -132 -54 -208 -49 -358 6 -147 24 -220 85 -342 37 -73 129 -205 143
-205 5 0 -2 27 -15 61 -62 156 -91 356 -75 516 30 318 141 566 419 943 31 41
58 77 61 80 3 3 32 39 64 80 33 41 69 85 80 98 23 26 12 27 -27 2z"/>
<path d="M10291 10683 c20 -21 75 -90 124 -153 48 -63 100 -131 116 -151 15
-20 57 -83 92 -141 258 -417 328 -792 216 -1154 -12 -38 -22 -73 -23 -79 -1
-5 -5 -17 -9 -25 -23 -42 60 64 93 121 93 158 131 339 109 519 -36 300 -194
592 -469 870 -104 105 -254 230 -275 230 -5 0 7 -17 26 -37z"/>
<path d="M6185 10425 c-113 -21 -192 -55 -300 -128 -116 -78 -178 -140 -444
-441 l-26 -29 44 24 c24 13 86 60 138 104 219 186 242 201 382 236 123 31 266
24 373 -18 238 -94 437 -349 574 -736 50 -143 54 -130 28 93 -43 375 -135 616
-291 766 -69 67 -149 108 -245 128 -91 19 -138 19 -233 1z"/>
<path d="M9535 10421 c-98 -30 -162 -70 -232 -145 -91 -98 -172 -269 -217
-456 -34 -143 -67 -395 -65 -504 l1 -51 20 60 c115 344 232 553 392 702 149
139 312 195 498 172 166 -20 296 -88 432 -225 54 -53 200 -154 224 -154 18 0
-110 142 -283 316 -156 156 -239 215 -376 266 -74 27 -99 31 -209 34 -101 3
-137 0 -185 -15z"/>
<path d="M6115 9870 c-83 -13 -210 -73 -283 -135 -43 -36 -144 -71 -279 -97
l-118 -23 65 -6 c146 -15 246 -63 376 -180 52 -46 116 -94 154 -112 64 -32 67
-32 230 -35 208 -4 293 -24 393 -94 15 -11 27 -15 27 -10 0 6 -29 50 -63 98
-83 116 -84 117 -92 199 -23 234 -113 365 -270 394 -64 12 -67 12 -140 1z
m172 -137 c36 -17 48 -29 57 -59 14 -45 -91 -57 -165 -19 -29 15 -46 53 -36
79 11 27 83 27 144 -1z m-233 -10 c-11 -27 -17 -90 -10 -117 9 -37 56 -87 101
-107 93 -43 188 -12 229 75 l24 50 16 -38 c32 -78 13 -137 -58 -178 -36 -20
-54 -23 -151 -23 -87 0 -117 4 -145 19 -55 29 -109 87 -121 128 -17 67 7 148
57 187 34 27 70 29 58 4z"/>
<path d="M9717 9865 c-136 -37 -215 -152 -237 -347 -18 -153 -26 -176 -91
-260 -32 -42 -59 -80 -59 -83 0 -3 35 12 78 34 123 62 168 72 324 71 207 0
246 15 408 163 112 102 255 166 374 167 22 0 37 2 35 5 -3 2 -54 14 -113 25
-139 27 -219 57 -280 104 -75 57 -180 106 -263 122 -89 17 -112 17 -176 -1z
m141 -146 c7 -60 -105 -109 -182 -79 -81 30 52 130 148 111 23 -5 32 -13 34
-32z m146 0 c82 -65 82 -187 0 -266 -58 -56 -128 -77 -238 -71 -159 8 -230 89
-180 206 l16 37 21 -47 c29 -61 67 -90 128 -96 145 -14 244 110 194 241 -10
25 25 23 59 -4z"/>
<path d="M4523 9203 c-139 -375 -192 -692 -180 -1093 9 -284 45 -514 127 -794
93 -318 215 -583 398 -866 122 -188 180 -258 388 -471 141 -144 142 -146 167
-225 30 -93 53 -206 102 -484 74 -424 153 -602 354 -800 165 -163 318 -232
580 -261 274 -31 582 69 709 230 l38 48 32 -38 c39 -46 115 -84 207 -104 102
-21 1008 -21 1110 0 90 19 167 57 203 101 l29 35 69 -68 c212 -209 599 -269
949 -147 119 42 211 101 316 204 193 189 279 377 344 750 46 267 85 452 112
535 25 78 29 83 148 205 287 293 415 468 575 785 176 348 282 687 336 1075 28
197 25 600 -4 789 -37 235 -93 434 -191 685 -25 62 -19 14 14 -116 57 -226 69
-340 69 -623 0 -266 -12 -394 -60 -630 -125 -618 -417 -1209 -768 -1555 -87
-85 -89 -83 -61 52 33 155 93 305 238 594 80 159 159 324 176 366 36 92 77
250 86 333 3 33 8 77 11 98 8 56 -9 44 -29 -21 -32 -98 -91 -213 -198 -383
-56 -90 -140 -224 -186 -297 -227 -361 -288 -567 -393 -1322 -74 -534 -146
-781 -284 -974 -97 -137 -250 -251 -401 -302 -73 -24 -90 -26 -195 -22 -96 4
-128 10 -196 35 -102 39 -198 94 -323 188 -94 71 -147 117 -331 290 -209 196
-396 341 -493 381 l-42 17 -35 144 c-18 79 -37 146 -40 148 -4 2 -19 -61 -35
-141 l-28 -144 -55 -25 c-116 -53 -273 -175 -505 -392 -296 -277 -465 -400
-647 -469 -69 -26 -87 -28 -210 -29 -128 0 -139 2 -210 31 -199 80 -356 234
-456 444 -87 182 -133 382 -204 881 -59 421 -97 611 -154 784 -72 216 -130
325 -355 675 -135 209 -241 407 -262 489 -29 114 -34 29 -8 -134 29 -174 83
-311 269 -679 140 -278 193 -411 225 -573 9 -45 15 -90 13 -99 -6 -33 -252
240 -343 381 -18 28 -50 77 -71 110 -96 149 -236 457 -317 695 -63 185 -121
438 -154 670 -25 177 -25 598 1 760 20 128 56 292 80 359 18 50 19 51 8 51 -4
0 -31 -62 -59 -137z m3538 -4110 c227 -156 410 -303 483 -389 l35 -41 -22 -21
c-38 -36 -114 -63 -199 -72 -84 -8 -88 -8 -259 11 -82 9 -125 9 -193 -1 -210
-30 -379 -9 -453 55 l-37 32 85 84 c103 103 467 379 500 379 4 0 31 -17 60
-37z"/>
<path d="M5720 9310 c31 -110 124 -214 239 -269 72 -34 82 -36 176 -36 64 0
112 5 134 14 l33 14 -93 19 c-173 35 -269 85 -416 215 -74 66 -81 70 -73 43z"/>
<path d="M10250 9279 c-80 -75 -162 -132 -247 -170 -60 -28 -190 -63 -258 -71
-26 -3 -23 -6 29 -22 209 -64 454 66 530 282 8 23 14 42 13 42 -1 0 -31 -28
-67 -61z"/>
<path d="M7105 8951 c-174 -108 -348 -229 -485 -335 -107 -83 -298 -266 -361
-346 l-36 -44 -94 46 c-52 25 -124 65 -161 89 -89 59 -227 186 -304 282 -35
44 -64 76 -64 73 0 -3 11 -34 24 -68 71 -188 217 -372 422 -534 46 -37 84 -69
84 -71 0 -3 -20 -59 -44 -126 -53 -146 -110 -372 -131 -518 -21 -145 -18 -159
11 -61 53 182 161 438 237 567 168 283 407 550 850 948 170 154 207 190 195
186 -2 0 -66 -40 -143 -88z"/>
<path d="M8842 8948 c508 -460 705 -666 870 -913 129 -194 247 -448 325 -705
l23 -75 -6 65 c-15 160 -69 386 -143 602 -23 65 -41 120 -41 122 0 3 28 26 63
52 98 75 243 221 308 311 56 76 138 234 153 293 7 24 6 24 -16 -5 -108 -140
-229 -254 -363 -341 -87 -56 -217 -124 -237 -124 -7 0 -25 17 -39 38 -74 104
-268 283 -459 423 -139 102 -517 349 -535 349 -3 0 41 -42 97 -92z"/>
<path d="M6851 8186 c-52 -80 -86 -120 -241 -283 -150 -157 -240 -307 -299
-500 -81 -266 -111 -543 -131 -1193 -5 -184 -13 -373 -16 -420 -4 -47 -4 -83
-1 -80 19 19 92 440 141 820 42 315 85 586 121 745 33 146 95 272 238 482 135
199 179 277 211 369 20 58 40 145 33 144 -1 -1 -26 -38 -56 -84z"/>
<path d="M9096 8235 c9 -58 41 -149 76 -219 27 -54 99 -165 236 -365 63 -94
118 -208 147 -308 32 -110 85 -407 119 -668 63 -481 122 -837 156 -940 8 -24
9 -18 5 30 -3 33 -10 211 -15 395 -24 844 -66 1136 -205 1426 -60 125 -122
207 -281 375 -103 110 -192 221 -228 284 l-16 30 6 -40z"/>
<path d="M7681 7459 c-356 -39 -614 -229 -685 -506 -28 -107 -31 -176 -11
-251 16 -59 26 -75 79 -127 71 -70 122 -92 237 -101 83 -7 201 9 236 32 25 16
39 70 29 110 -4 15 -33 51 -64 81 l-57 53 24 20 c17 14 38 20 75 20 117 0 217
-118 233 -277 8 -71 -23 -136 -80 -164 -60 -31 -122 -23 -232 31 -99 49 -168
57 -234 29 l-33 -14 98 -114 c55 -62 104 -120 109 -128 26 -37 250 -250 311
-294 72 -53 169 -103 220 -114 l32 -6 1 132 c1 73 6 175 11 228 5 53 10 123
10 155 0 33 3 56 6 53 9 -8 33 -363 34 -479 0 -64 3 -88 13 -88 25 1 146 58
213 102 88 58 235 197 366 347 150 171 169 194 165 205 -6 19 -81 38 -127 32
-24 -4 -87 -26 -140 -51 -112 -52 -163 -57 -224 -22 -59 33 -78 77 -73 162 6
109 70 216 154 259 45 23 125 21 154 -3 l24 -20 -51 -48 c-28 -26 -56 -58 -62
-70 -18 -33 -14 -82 8 -112 16 -23 31 -30 89 -39 175 -29 298 -2 396 89 63 58
89 124 88 229 0 164 -60 308 -178 425 -85 86 -180 144 -300 184 -144 48 -278
62 -500 52 -49 -2 -133 -2 -185 2 -52 3 -133 1 -179 -4z m726 -185 c215 -37
387 -144 460 -288 l15 -31 -28 27 c-115 107 -365 185 -609 190 -341 6 -578 0
-680 -18 -171 -31 -327 -96 -404 -167 l-34 -32 22 40 c68 123 209 221 381 263
116 29 104 28 470 29 236 1 347 -3 407 -13z"/>
</g>
</svg>
