<?xml version="1.0" standalone="no"?>
<!DOCTYPE svg PUBLIC "-//W3C//DTD SVG 20010904//EN"
 "http://www.w3.org/TR/2001/REC-SVG-20010904/DTD/svg10.dtd">
<svg version="1.0" xmlns="http://www.w3.org/2000/svg"
 width="4838.000000pt" height="3879.000000pt" viewBox="0 0 4838.000000 3879.000000"
 preserveAspectRatio="xMidYMid meet">

<g transform="translate(0.000000,3879.000000) scale(0.100000,-0.100000)"
fill="#000000" stroke="none">
<path d="M11395 38744 c-219 -13 -309 -32 -580 -121 -1188 -388 -2727 -1322
-4045 -2455 -726 -625 -1844 -1743 -2770 -2773 -471 -524 -875 -945 -1795
-1875 -968 -978 -1291 -1358 -1576 -1853 -297 -515 -579 -1311 -579 -1632 0
-97 36 -170 126 -254 169 -158 459 -234 904 -234 243 0 391 16 571 62 392 99
698 289 1074 666 325 326 452 514 1150 1700 1011 1718 1757 2786 2512 3600
387 417 975 950 1378 1250 716 534 1847 1030 2710 1190 218 40 371 55 620 62
1000 25 2117 -287 2648 -741 173 -149 320 -369 368 -553 23 -91 27 -251 9
-353 -48 -264 -251 -646 -548 -1029 -223 -288 -466 -553 -1042 -1136 -234
-237 -502 -514 -596 -615 -936 -1008 -1390 -1738 -1599 -2568 -71 -284 -94
-516 -102 -1028 -6 -356 -2 -454 18 -454 14 0 82 148 164 355 299 757 598
1245 1149 1875 135 155 659 678 876 875 216 196 569 505 835 730 510 432 764
663 1111 1009 628 628 976 1087 1311 1732 49 94 106 192 127 217 82 100 220
181 374 219 70 17 117 22 237 22 179 0 292 -20 541 -94 101 -30 172 -46 178
-41 327 262 446 348 680 488 576 344 1306 631 2141 841 460 116 1024 221 1295
242 317 23 836 32 1570 27 783 -6 986 -13 1228 -47 180 -25 305 -25 457 0 66
11 199 24 295 30 332 20 1283 30 1800 20 630 -12 819 -26 1189 -91 1166 -202
2202 -560 2984 -1030 188 -114 251 -156 499 -336 109 -79 204 -143 211 -143 7
0 81 20 163 45 361 108 586 121 818 48 166 -52 279 -126 345 -223 22 -34 77
-135 122 -223 194 -384 395 -689 685 -1037 187 -226 310 -357 693 -743 437
-440 654 -643 836 -783 415 -318 947 -796 1491 -1339 507 -506 670 -699 947
-1120 358 -545 604 -1051 702 -1447 32 -125 55 -77 76 152 16 176 16 594 0
740 -84 774 -381 1454 -995 2278 -267 358 -468 579 -1226 1347 -757 767 -1126
1191 -1375 1580 -91 142 -204 368 -240 480 -123 383 -38 696 274 1005 310 309
766 525 1466 695 375 92 612 111 1265 102 425 -6 498 -12 697 -53 478 -98
1105 -324 1618 -584 1175 -595 2193 -1508 3246 -2912 453 -605 885 -1265 1574
-2408 332 -551 469 -792 569 -1000 19 -41 77 -132 128 -202 548 -748 1021
-1137 1558 -1282 450 -121 1118 -84 1395 79 l45 26 0 553 0 553 -39 104 c-200
538 -456 978 -836 1434 -264 317 -516 585 -1280 1355 -772 778 -1104 1126
-1465 1530 -1136 1276 -2160 2292 -3100 3076 -1111 926 -2158 1591 -3230 2051
-634 272 -929 357 -1295 370 -552 20 -1058 -99 -1580 -371 -409 -213 -868
-525 -1280 -870 -322 -269 -1057 -946 -1545 -1423 l-76 -73 -126 55 c-174 77
-256 97 -398 98 -139 1 -251 -24 -376 -82 -94 -45 -140 -75 -260 -171 -71 -58
-89 -68 -107 -60 -12 4 -80 36 -152 70 -368 175 -728 296 -1182 399 -1293 291
-3012 301 -4518 25 -276 -50 -477 -95 -858 -190 -186 -46 -349 -84 -363 -84
-13 0 -152 32 -307 71 -596 149 -995 227 -1503 293 -1248 163 -2513 149 -3564
-38 -512 -92 -1149 -286 -1530 -467 -82 -39 -159 -69 -176 -69 -31 0 -43 8
-162 102 -174 138 -393 207 -625 195 -130 -6 -199 -25 -355 -98 l-106 -49 -40
38 c-23 21 -102 94 -176 163 -74 68 -333 309 -575 535 -639 596 -807 743
-1165 1013 -698 526 -1334 848 -1847 936 -207 35 -605 60 -788 49z"/>
<path d="M20875 34229 c-369 -35 -864 -186 -1255 -384 -347 -176 -628 -383
-900 -661 -314 -322 -528 -667 -659 -1065 -50 -152 -81 -280 -81 -336 0 -75
25 -59 213 130 238 239 618 572 857 751 167 125 766 477 1015 597 446 215
1245 468 1936 613 91 19 275 54 410 76 244 41 411 75 439 90 21 12 -15 25
-199 71 -256 64 -489 96 -868 119 -200 12 -777 11 -908 -1z"/>
<path d="M26356 34181 c-453 -85 -576 -112 -576 -131 0 -19 122 -45 510 -109
1125 -185 2024 -498 2856 -992 485 -289 880 -606 1344 -1082 90 -92 165 -165
167 -163 8 7 -36 224 -63 318 -98 337 -310 715 -586 1043 -96 114 -318 332
-423 415 -457 361 -1032 606 -1642 700 -264 40 -428 51 -853 56 l-415 4 -319
-59z"/>
<path d="M25360 32838 c0 -7 7 -38 15 -68 24 -90 38 -381 31 -670 -12 -562
-77 -920 -335 -1850 -248 -895 -299 -1188 -308 -1756 -6 -355 3 -510 41 -694
25 -124 146 -563 153 -556 3 2 29 159 58 348 29 188 67 397 84 463 47 186 159
548 316 1025 265 804 427 1338 465 1538 70 361 78 843 20 1145 -45 233 -215
636 -367 871 -42 64 -160 216 -169 216 -2 0 -4 -6 -4 -12z"/>
<path d="M22896 32533 c-44 -133 -136 -676 -170 -1003 -70 -661 -36 -1323 105
-2050 114 -583 335 -1276 754 -2355 504 -1299 670 -1753 821 -2250 76 -250
166 -619 215 -880 22 -121 44 -224 49 -229 11 -11 17 39 35 274 31 407 11 917
-61 1518 -86 727 -291 1532 -739 2892 -447 1359 -618 1942 -734 2501 -88 430
-171 992 -191 1304 -20 300 -47 390 -84 278z"/>
<path d="M7743 32481 c-28 -11 -226 -105 -440 -209 -520 -255 -686 -325 -913
-388 -94 -26 -121 -29 -256 -29 l-150 0 -76 38 c-79 38 -136 88 -238 206 -70
81 -92 84 -102 16 -7 -56 7 -360 23 -500 16 -139 38 -260 54 -299 35 -84 16
-136 -105 -275 -211 -243 -260 -340 -260 -511 0 -259 160 -738 425 -1275 233
-472 446 -796 758 -1155 132 -151 622 -641 812 -811 527 -472 996 -841 1720
-1354 387 -274 501 -362 594 -460 71 -75 89 -103 158 -243 155 -309 251 -639
317 -1087 55 -376 72 -652 86 -1385 10 -539 20 -748 45 -952 16 -124 22 -148
36 -148 15 0 28 40 79 245 89 354 226 1032 284 1406 136 876 170 1669 101
2329 -30 284 -86 602 -145 828 -40 155 -60 197 -96 206 -89 22 -374 223 -1284
906 -973 731 -1230 941 -1722 1407 -607 575 -1047 1133 -1153 1462 -58 180 23
407 257 714 164 216 520 588 898 940 113 105 244 230 293 277 116 114 116 142
0 101z"/>
<path d="M40800 32493 c0 -18 209 -230 485 -493 637 -606 938 -975 1024 -1254
26 -86 29 -236 5 -317 -35 -116 -168 -346 -308 -532 -191 -254 -373 -457 -725
-807 -479 -477 -578 -559 -1631 -1350 -1201 -901 -1275 -955 -1415 -1025 -53
-27 -87 -51 -102 -74 -47 -70 -107 -314 -157 -641 -121 -795 -95 -1761 75
-2785 76 -461 284 -1447 328 -1557 14 -37 27 -35 35 5 15 87 37 482 56 1052
46 1352 130 1911 365 2437 76 169 127 250 218 345 93 97 182 165 487 373 686
468 1202 871 1715 1339 219 199 713 694 869 871 515 580 807 1073 1075 1813
219 603 201 794 -104 1137 -143 161 -156 196 -115 314 45 133 80 412 79 631
-1 167 -6 190 -39 190 -18 0 -29 -9 -39 -30 -19 -43 -55 -78 -146 -147 -305
-232 -510 -198 -1400 229 -490 235 -635 298 -635 276z"/>
<path d="M19485 28956 c-5 -2 -23 -7 -38 -10 -17 -4 -25 -11 -21 -18 12 -19
124 -64 319 -126 621 -201 1046 -568 1352 -1169 241 -471 396 -1098 443 -1791
13 -196 13 -643 0 -882 -50 -918 -222 -1921 -486 -2837 -92 -319 -130 -493
-108 -493 60 0 341 419 583 868 440 818 740 1828 836 2812 37 374 30 915 -16
1280 -61 487 -194 908 -386 1220 -227 368 -583 698 -938 870 -286 138 -580
208 -1065 254 -160 16 -457 29 -475 22z"/>
<path d="M28610 28939 c-565 -56 -1013 -212 -1367 -478 -110 -83 -286 -251
-370 -356 -200 -248 -409 -662 -509 -1007 -81 -282 -103 -501 -111 -1088 -9
-750 14 -1026 128 -1534 209 -924 634 -1940 1077 -2576 90 -129 205 -260 228
-260 24 0 16 60 -26 185 -162 478 -333 1216 -460 1988 -93 561 -104 727 -105
1482 0 909 28 1185 171 1688 196 690 568 1233 1074 1569 197 131 383 213 632
279 203 53 237 72 186 101 -28 16 -405 21 -548 7z"/>
<path d="M14874 27050 c-283 -150 -1020 -790 -1444 -1255 -787 -865 -1350
-1848 -1589 -2775 -48 -186 -67 -284 -86 -450 -43 -364 -22 -976 46 -1328 85
-440 335 -957 704 -1451 121 -163 195 -234 195 -188 0 27 -42 160 -98 312
-184 494 -285 1034 -299 1595 -6 259 3 417 37 695 128 1017 468 1859 1195
2960 362 549 712 1016 1292 1722 163 198 171 228 47 163z"/>
<path d="M33750 26999 c0 -21 22 -51 112 -152 121 -137 384 -465 668 -837 129
-168 260 -339 293 -380 132 -168 460 -686 654 -1035 452 -811 730 -1590 832
-2325 66 -480 61 -994 -14 -1437 -46 -273 -148 -663 -261 -1003 -13 -41 -27
-84 -31 -95 l-6 -20 23 20 c33 29 145 173 239 306 327 467 530 1003 603 1599
22 176 16 612 -10 806 -152 1132 -666 2167 -1601 3228 -152 173 -588 609 -771
772 -396 353 -730 606 -730 553z"/>
<path d="M16970 25814 c-565 -79 -941 -222 -1425 -541 -477 -315 -745 -574
-1678 -1623 -174 -195 -314 -356 -312 -358 2 -2 51 23 109 55 178 97 365 238
779 587 707 596 869 701 1252 811 350 101 535 128 860 129 473 0 824 -87 1198
-296 656 -366 1217 -1021 1682 -1963 166 -336 269 -585 448 -1080 66 -184 104
-265 123 -265 31 0 16 243 -51 809 -176 1489 -532 2454 -1139 3089 -334 349
-696 535 -1232 633 -156 28 -460 35 -614 13z"/>
<path d="M31000 25820 c-259 -27 -610 -157 -849 -313 -504 -330 -903 -939
-1185 -1808 -164 -502 -288 -1175 -372 -2004 -15 -151 -31 -687 -22 -730 2
-11 31 62 67 170 414 1240 819 2044 1338 2651 125 147 364 382 499 490 303
243 635 416 959 499 236 60 321 70 610 69 299 0 439 -17 700 -84 201 -51 316
-94 520 -195 289 -142 522 -311 815 -590 225 -214 419 -366 710 -558 158 -104
296 -175 310 -161 34 34 -262 373 -930 1063 -791 817 -1173 1111 -1730 1328
-376 147 -500 168 -1060 177 -162 3 -333 1 -380 -4z"/>
<path d="M16530 23476 c-402 -63 -828 -253 -1198 -533 -176 -134 -283 -189
-531 -272 -201 -67 -377 -110 -781 -191 -235 -47 -375 -80 -360 -83 14 -3 104
-13 200 -22 344 -31 601 -100 866 -230 240 -118 414 -241 747 -528 467 -402
745 -559 1037 -586 63 -6 300 -15 525 -21 226 -6 430 -12 455 -15 25 -2 99 -9
165 -15 410 -37 684 -125 968 -310 134 -87 165 -103 183 -96 13 5 12 10 -2 38
-23 45 -192 297 -301 449 -275 382 -297 431 -328 724 -68 637 -219 1050 -489
1333 -182 190 -371 289 -668 347 -189 38 -299 40 -488 11z m458 -521 c93 -22
212 -71 281 -115 70 -46 114 -102 138 -176 24 -76 6 -111 -74 -150 -53 -26
-69 -29 -186 -33 -148 -4 -268 18 -375 69 -87 41 -122 70 -161 135 -27 45 -35
69 -39 125 -7 100 24 137 131 160 54 12 205 4 285 -15z m-780 -62 c2 -12 -6
-50 -16 -85 -28 -91 -45 -244 -40 -353 6 -111 35 -183 117 -285 169 -213 410
-332 666 -331 187 0 340 63 467 192 68 69 85 95 155 233 43 86 81 156 84 156
3 0 26 -51 51 -112 68 -169 86 -270 68 -383 -23 -142 -101 -255 -244 -350
-151 -100 -201 -114 -470 -125 -246 -10 -593 2 -684 25 -128 31 -275 125 -417
269 -110 110 -166 188 -204 281 -19 48 -25 83 -29 181 -9 239 62 438 208 584
106 106 279 168 288 103z"/>
<path d="M31611 23479 c-479 -101 -769 -338 -960 -784 -86 -200 -134 -406
-181 -775 -74 -580 -99 -648 -380 -1020 -144 -192 -230 -314 -230 -329 0 -16
75 16 360 154 511 247 581 262 1270 275 475 9 590 17 754 51 280 58 482 179
850 507 286 255 383 332 558 441 399 249 798 378 1182 382 74 0 118 10 99 22
-16 10 -234 59 -453 101 -574 113 -897 231 -1175 432 -370 268 -767 449 -1138
518 -277 52 -399 58 -556 25z m332 -520 c92 -25 131 -105 102 -207 -31 -105
-174 -214 -340 -258 -93 -24 -247 -29 -328 -10 -124 29 -177 69 -177 133 0 48
15 79 66 133 79 85 218 162 359 200 79 21 256 27 318 9z m638 -76 c159 -79
289 -261 325 -453 48 -253 -47 -516 -256 -714 -215 -202 -460 -286 -838 -286
-272 0 -479 37 -642 117 -75 36 -110 61 -166 117 -174 175 -189 384 -49 692
l36 78 54 -119 c77 -167 110 -219 190 -300 111 -113 231 -161 420 -172 119 -7
219 7 333 46 116 40 184 84 277 176 124 125 182 242 205 416 13 100 3 203 -34
326 -16 53 -21 84 -14 96 15 29 76 21 159 -20z"/>
<path d="M10056 21238 c-80 -122 -390 -971 -535 -1463 -199 -677 -328 -1326
-396 -1995 -65 -645 -73 -1509 -19 -2255 77 -1079 284 -2086 663 -3225 398
-1194 877 -2161 1632 -3296 419 -628 635 -884 1486 -1761 587 -605 591 -610
704 -983 107 -351 194 -765 374 -1764 144 -801 215 -1133 326 -1521 157 -546
364 -997 622 -1360 343 -480 856 -971 1284 -1228 257 -154 511 -262 828 -353
l119 -34 1144 0 1144 0 192 64 c387 129 695 289 946 493 117 94 218 198 335
347 l100 127 50 -58 c216 -251 372 -354 705 -463 239 -79 315 -89 840 -112
408 -18 3017 -18 3425 0 377 16 529 29 644 54 232 49 508 165 656 275 80 59
130 109 215 216 25 31 49 56 54 57 5 0 95 -85 200 -188 208 -204 303 -284 471
-396 225 -151 459 -263 749 -361 l161 -55 1146 0 1146 0 104 29 c453 128 816
304 1149 556 354 268 749 677 997 1032 423 608 663 1292 879 2518 206 1167
346 1828 465 2200 95 298 110 319 631 857 1071 1109 1535 1709 2082 2693 142
256 460 889 580 1155 425 942 729 1871 937 2863 77 369 160 864 193 1152 77
669 86 1807 20 2660 -52 677 -227 1516 -490 2342 -114 359 -338 973 -393 1078
l-26 50 -3 -38 c-4 -50 14 -140 114 -550 215 -884 262 -1228 285 -2092 16
-600 1 -1332 -37 -1785 -65 -786 -281 -1841 -569 -2785 -432 -1416 -1092
-2801 -1843 -3865 -322 -456 -607 -796 -966 -1156 -230 -229 -303 -287 -332
-263 -22 18 -15 106 26 314 65 335 159 663 282 990 157 416 295 719 740 1620
376 762 627 1282 704 1463 119 278 284 858 353 1242 24 133 71 533 78 668 5
79 3 92 -10 92 -25 0 -61 -72 -122 -250 -102 -293 -227 -565 -427 -924 -136
-243 -231 -399 -736 -1206 -595 -950 -599 -956 -744 -1210 -578 -1011 -847
-1893 -1143 -3755 -31 -192 -101 -664 -156 -1050 -55 -385 -116 -799 -135
-920 -272 -1706 -557 -2587 -1072 -3315 -422 -596 -1112 -1098 -1777 -1294
-199 -58 -226 -61 -510 -60 -526 3 -726 35 -1070 171 -390 154 -793 391 -1273
750 -383 287 -589 465 -1283 1114 -756 705 -1289 1150 -1740 1449 -196 130
-319 198 -472 261 -123 50 -127 53 -136 88 -6 20 -44 178 -86 351 -145 606
-207 836 -224 826 -22 -14 -81 -269 -186 -804 -41 -206 -76 -376 -79 -379 -3
-3 -81 -40 -173 -82 -198 -91 -285 -139 -493 -276 -421 -276 -920 -690 -1650
-1369 -938 -873 -1499 -1324 -2045 -1646 -313 -184 -721 -359 -940 -405 -110
-22 -329 -35 -631 -35 -443 0 -555 16 -798 112 -612 243 -1115 629 -1518 1166
-149 198 -266 390 -393 647 -393 795 -564 1526 -895 3830 -250 1734 -392 2451
-634 3177 -279 840 -507 1280 -1349 2603 -546 857 -750 1206 -991 1695 -128
259 -180 385 -231 559 -45 155 -61 194 -77 189 -37 -13 -29 -238 23 -608 48
-345 113 -628 218 -940 158 -471 335 -866 863 -1925 407 -818 547 -1117 694
-1487 172 -432 293 -876 348 -1276 20 -145 20 -172 0 -172 -101 0 -818 779
-1231 1338 -147 198 -493 731 -630 972 -396 691 -891 1818 -1184 2690 -215
643 -422 1501 -559 2319 -117 703 -135 961 -135 2001 0 744 6 927 41 1310 42
469 228 1362 371 1787 30 90 53 170 51 180 -5 26 -25 27 -42 1z m14430 -17626
c332 -219 939 -662 1285 -939 440 -352 673 -572 938 -886 13 -16 11 -22 -30
-63 -169 -175 -475 -295 -859 -338 -310 -35 -404 -32 -922 24 -539 59 -602 60
-1008 10 -600 -73 -1045 -65 -1410 26 -229 57 -358 126 -534 287 l-60 54 230
225 c126 124 274 265 329 313 600 526 1760 1384 1871 1385 12 0 88 -44 170
-98z"/>
<path d="M33755 21063 c-514 -476 -893 -717 -1381 -877 -244 -79 -531 -149
-748 -182 -55 -8 -102 -16 -104 -19 -12 -11 19 -27 116 -59 347 -116 678 -121
1031 -16 461 137 863 452 1106 865 64 108 95 176 145 315 43 121 54 160 43
159 -5 0 -98 -84 -208 -186z"/>
<path d="M14804 21186 c-3 -8 10 -61 30 -119 128 -384 438 -751 829 -981 118
-69 316 -159 427 -194 l85 -27 360 1 c328 0 368 2 455 21 82 18 256 80 247 89
-1 1 -115 26 -252 54 -535 110 -753 179 -1055 336 -147 77 -311 183 -470 305
-105 80 -165 130 -483 406 -121 105 -164 132 -173 109z"/>
<path d="M27420 20002 c0 -13 189 -190 605 -567 2456 -2227 3279 -3181 4016
-4655 320 -640 536 -1182 775 -1945 92 -295 88 -295 58 10 -41 421 -144 954
-294 1513 -97 363 -160 566 -327 1061 l-146 435 49 45 c28 26 106 89 175 141
220 168 398 327 700 629 380 381 543 570 714 831 152 231 361 620 469 873 50
117 101 275 92 285 -8 8 -12 3 -149 -170 -440 -557 -953 -1027 -1490 -1367
-311 -197 -815 -461 -924 -485 -28 -7 -37 -2 -78 35 -25 23 -84 93 -130 154
-319 424 -1032 1086 -1772 1642 -586 442 -2343 1592 -2343 1535z"/>
<path d="M21069 19937 c-1134 -690 -2236 -1452 -2789 -1931 -476 -413 -991
-926 -1260 -1256 -56 -69 -106 -126 -110 -128 -15 -6 -638 308 -830 418 -219
126 -332 202 -505 341 -377 303 -729 650 -1018 1003 -161 196 -251 292 -241
256 16 -60 141 -384 191 -494 244 -542 672 -1112 1203 -1604 143 -132 291
-259 585 -499 83 -67 168 -137 189 -156 l39 -33 -35 -105 c-20 -57 -75 -214
-123 -349 -265 -745 -481 -1595 -579 -2280 -79 -548 -65 -606 53 -213 245 816
688 1866 1025 2425 335 557 755 1118 1266 1693 478 537 1202 1256 1960 1945
118 108 339 308 490 445 493 448 633 585 602 585 -5 0 -56 -28 -113 -63z"/>
<path d="M28865 16755 c33 -315 215 -827 417 -1172 112 -193 363 -579 683
-1050 334 -494 408 -616 556 -918 158 -325 235 -530 308 -822 141 -561 325
-1630 466 -2693 261 -1974 499 -3410 637 -3840 40 -127 46 -94 28 165 -13 190
-36 803 -60 1610 -43 1420 -83 2214 -151 2965 -119 1324 -316 2148 -708 2955
-246 508 -472 813 -1091 1475 -521 558 -890 1017 -1047 1305 l-44 80 6 -60z"/>
<path d="M19583 16534 c-304 -454 -373 -538 -1022 -1224 -243 -257 -355 -389
-515 -601 -398 -529 -641 -1040 -839 -1764 -287 -1050 -402 -2202 -482 -4860
-18 -613 -42 -1231 -56 -1465 -19 -338 -23 -490 -11 -490 70 0 361 1676 592
3415 212 1596 427 2863 565 3338 54 185 105 323 196 527 149 334 333 645 769
1300 512 769 656 1012 785 1329 96 236 217 682 203 749 -2 10 -73 -87 -185
-254z"/>
<path d="M23150 13434 c-380 -33 -628 -78 -945 -169 -829 -240 -1478 -722
-1843 -1370 -105 -188 -190 -412 -252 -670 -62 -258 -75 -355 -74 -565 1 -209
17 -309 81 -504 57 -170 154 -299 373 -494 270 -240 482 -319 941 -352 369
-25 860 51 975 153 75 65 118 203 112 352 -3 77 -8 98 -32 138 -38 67 -159
209 -247 292 -41 39 -110 104 -153 145 l-78 74 48 43 c76 66 150 101 240 114
323 46 642 -121 852 -444 144 -223 235 -527 236 -787 0 -212 -52 -350 -184
-482 -162 -163 -370 -219 -623 -167 -127 26 -242 68 -482 179 -225 104 -332
143 -465 170 -192 39 -350 23 -548 -58 -99 -40 -111 -47 -99 -61 68 -79 483
-561 595 -689 78 -90 184 -216 236 -280 185 -229 990 -999 1286 -1229 206
-160 546 -353 790 -448 86 -33 278 -80 288 -70 3 3 9 225 13 493 8 503 16 672
50 1072 10 129 24 345 30 480 16 387 27 402 59 84 48 -482 92 -1190 109 -1774
9 -285 17 -342 48 -354 60 -23 629 247 904 430 286 189 764 624 1199 1089 277
297 855 959 953 1093 57 78 63 96 43 127 -38 57 -222 113 -401 122 -99 4 -119
2 -200 -22 -147 -43 -278 -93 -504 -192 -322 -142 -461 -183 -615 -183 -204 0
-451 138 -547 306 -52 92 -71 189 -72 364 0 102 6 188 17 250 33 186 119 395
229 560 72 107 234 266 335 327 121 74 211 97 382 97 196 0 249 -19 398 -141
13 -11 -16 -44 -190 -215 -114 -112 -222 -228 -241 -258 -53 -82 -71 -155 -64
-264 8 -161 76 -280 189 -335 157 -76 700 -132 984 -102 376 40 674 172 927
411 197 187 296 367 345 625 24 129 23 525 -1 685 -92 601 -353 1082 -822
1512 -348 320 -703 523 -1194 682 -533 173 -967 226 -1731 210 -485 -10 -672
-10 -1215 -2 -220 3 -420 4 -445 2z m2220 -744 c168 -5 361 -15 430 -21 598
-52 1243 -304 1648 -642 96 -81 253 -242 315 -324 82 -107 183 -279 202 -343
6 -19 -12 -6 -71 51 -340 328 -965 593 -1716 728 -425 77 -691 91 -1733 91
-1573 0 -1964 -38 -2628 -256 -446 -147 -798 -333 -1017 -538 -114 -108 -115
-108 -50 9 173 310 377 527 695 740 297 199 648 339 1103 439 213 47 312 57
627 66 422 11 1857 11 2195 0z"/>
</g>
</svg>
