<?xml version="1.0" standalone="no"?>
<!DOCTYPE svg PUBLIC "-//W3C//DTD SVG 20010904//EN"
 "http://www.w3.org/TR/2001/REC-SVG-20010904/DTD/svg10.dtd">
<svg version="1.0" xmlns="http://www.w3.org/2000/svg"
 width="340.000000pt" height="270.000000pt" viewBox="0 0 340.000000 270.000000"
 preserveAspectRatio="xMidYMid meet">

<g transform="translate(0.000000,270.000000) scale(0.100000,-0.100000)"
fill="#000000" stroke="none">
<path d="M1551 2614 c16 -61 48 -154 64 -185 22 -41 18 -46 -12 -17 -88 80
-175 111 -313 110 -58 0 -129 -7 -160 -15 l-55 -14 90 5 c83 4 215 -10 242
-26 6 -4 -46 -7 -115 -7 -154 0 -236 -23 -346 -95 -81 -54 -127 -101 -213
-215 -80 -106 -154 -174 -293 -270 -187 -128 -278 -228 -309 -340 -7 -22 -16
-110 -21 -195 -9 -163 -21 -215 -67 -285 l-26 -40 27 25 c62 57 89 131 110
305 16 136 26 169 56 185 25 13 25 13 1 -58 -11 -31 -26 -106 -35 -166 -9 -60
-19 -121 -22 -135 l-5 -26 14 25 c8 14 27 66 42 115 38 128 43 139 44 89 1
-58 -34 -189 -65 -243 -15 -25 -43 -66 -63 -91 l-36 -45 31 22 c50 36 104 102
130 157 13 30 23 43 23 31 1 -30 -42 -116 -80 -160 l-34 -40 41 32 c22 17 60
53 83 78 24 26 45 45 47 43 6 -7 -54 -97 -84 -125 -15 -14 -40 -34 -57 -45
-27 -18 -28 -19 -5 -13 14 4 37 14 52 21 35 18 48 18 48 -1 0 -8 4 -15 10 -15
6 0 7 -23 4 -59 -8 -69 10 -94 20 -28 4 23 18 60 31 82 l25 40 -6 -55 -5 -55
19 40 c39 80 69 98 38 24 -7 -19 -17 -56 -20 -84 -4 -27 -9 -63 -12 -80 -3
-18 12 3 38 55 43 84 159 222 174 207 4 -4 -4 -20 -17 -35 -55 -60 -138 -197
-126 -208 2 -3 23 21 46 51 24 31 45 54 49 51 3 -3 -2 -14 -10 -23 -9 -10 -30
-44 -48 -76 -18 -31 -39 -61 -48 -66 -13 -7 -7 -15 33 -40 51 -33 40 -42 -22
-16 -45 19 -53 19 -28 -2 20 -15 19 -15 -5 -10 l-25 6 25 -19 c16 -12 20 -20
11 -20 -10 0 -5 -10 13 -29 19 -20 29 -42 31 -68 6 -69 105 -253 137 -253 6 0
20 -7 30 -17 22 -20 24 -6 2 25 -24 34 -2 26 37 -14 18 -20 43 -40 54 -46 12
-6 6 4 -14 26 -44 46 -34 46 25 1 55 -42 90 -62 80 -46 -10 15 4 13 34 -4 35
-20 62 -19 33 2 -42 29 -23 34 25 7 l47 -27 -40 41 c-45 48 -40 53 13 17 20
-14 40 -25 43 -25 4 0 24 -7 45 -16 l39 -16 -30 -24 c-35 -28 -35 -28 28 -9
54 16 62 7 15 -18 l-33 -18 45 6 c25 3 56 9 70 12 34 8 17 -10 -35 -37 -22
-11 -31 -19 -20 -16 11 3 43 8 70 12 54 7 54 -2 0 -31 l-30 -17 43 5 c46 6 51
1 25 -19 -27 -20 -4 -18 107 11 52 13 97 22 100 19 3 -3 -6 -14 -19 -25 l-23
-19 33 0 c19 0 53 9 77 20 45 20 48 19 31 -11 -9 -17 -1 -15 53 13 84 44 81
43 69 20 -18 -33 -13 -34 26 -7 45 30 57 32 43 5 -14 -26 0 -26 33 0 33 26 37
25 37 -7 1 -27 1 -27 16 -8 15 20 16 20 40 -8 l24 -28 0 30 c0 37 6 38 38 9
l25 -23 -12 22 c-17 34 -14 35 30 13 48 -25 57 -22 28 9 -23 25 -18 41 6 21
13 -11 14 -10 9 4 -5 14 -2 15 32 2 22 -7 57 -16 79 -20 l40 -7 -32 17 c-32
16 -47 42 -19 31 21 -8 94 -18 79 -11 -28 12 -11 21 25 13 20 -5 51 -8 67 -8
l30 1 -32 9 c-48 14 -40 23 15 16 58 -6 136 6 110 18 -28 11 -21 22 14 23 39
1 110 31 102 44 -3 4 9 11 26 14 17 4 33 11 36 15 3 5 11 9 17 9 7 -1 1 -10
-13 -22 l-25 -21 25 8 c14 4 41 17 61 30 32 20 36 21 32 6 -2 -9 -32 -32 -66
-51 -63 -35 -60 -54 5 -31 48 17 57 12 18 -9 l-35 -20 40 6 c74 12 164 44 195
70 49 42 34 9 -17 -36 -45 -40 -46 -42 -13 -25 54 28 99 65 126 104 28 41 34
19 8 -30 -15 -29 -15 -30 4 -20 11 6 30 27 42 46 25 41 36 41 20 0 -17 -44 -4
-40 23 7 30 51 67 168 67 209 0 35 4 36 45 4 20 -15 40 -43 50 -74 l18 -49 24
29 c31 36 43 79 43 153 0 44 3 57 11 49 7 -7 10 -36 7 -77 -3 -49 -1 -62 7
-49 5 10 9 65 9 123 -2 115 10 109 22 -11 6 -63 9 -70 15 -44 8 27 -3 174 -18
235 -4 19 -3 22 6 14 7 -6 17 -41 24 -78 6 -36 15 -66 19 -66 13 0 9 89 -7
160 -8 36 -22 99 -31 140 -8 41 -26 94 -39 118 -28 49 -14 57 16 10 17 -28 19
-29 14 -8 -4 14 -14 38 -22 53 -15 30 -12 44 6 32 18 -11 43 -65 52 -114 7
-38 8 -32 4 34 -3 67 -19 138 -52 234 -4 11 -3 13 5 6 17 -16 62 -134 82 -215
21 -83 25 -69 10 30 -14 86 -46 183 -81 248 -16 28 -26 52 -21 52 9 0 26 -26
65 -100 49 -94 22 -7 -33 107 -28 56 -50 104 -50 108 0 13 -93 141 -131 180
-49 52 -50 64 -1 29 21 -16 10 -2 -28 35 -105 99 -278 226 -384 281 -100 51
-154 88 -155 103 -1 5 5 5 12 2 6 -3 1 2 -13 12 -14 10 -41 33 -60 51 -31 30
-33 33 -12 29 13 -3 22 -4 20 -2 -50 46 -234 169 -274 185 -112 42 -309 19
-407 -47 -28 -19 -53 -30 -57 -26 -3 4 -30 41 -59 81 -29 39 -55 72 -57 72 -1
0 3 -19 12 -42 8 -22 13 -43 11 -45 -2 -1 -24 28 -50 65 -25 37 -58 78 -71 91
l-25 24 10 -39z m654 -180 c57 -16 128 -54 129 -69 0 -5 18 -22 40 -37 22 -14
85 -70 140 -125 97 -94 105 -99 203 -137 65 -24 115 -51 139 -72 20 -19 35
-36 33 -39 -2 -2 -35 5 -72 15 -37 10 -67 15 -67 10 0 -11 91 -66 197 -119
106 -53 140 -84 218 -197 l64 -94 -42 28 c-69 47 -74 48 -34 6 47 -49 88 -119
76 -131 -5 -5 4 -53 20 -112 16 -57 25 -99 21 -94 -5 4 -38 67 -74 138 -77
155 -126 216 -72 89 52 -121 52 -135 0 -59 -81 120 -186 238 -285 318 -60 48
-70 47 -25 -4 71 -78 132 -188 192 -346 14 -38 21 -63 16 -58 -4 6 -26 32 -48
60 l-39 50 -5 -35 c-4 -31 -9 -22 -38 78 -18 62 -40 132 -50 157 l-17 44 2
-147 c2 -96 0 -140 -6 -127 -7 14 -10 -1 -10 -55 -1 -52 -4 -70 -11 -60 -5 8
-10 27 -10 43 0 15 -4 27 -9 27 -5 0 -7 -10 -4 -22 3 -13 2 -19 -3 -15 -4 4
-12 45 -15 90 -4 45 -12 83 -18 85 -6 2 -11 18 -11 35 0 18 -8 70 -17 117 -13
67 -18 80 -24 60 -5 -19 -7 -20 -8 -6 -2 33 -72 227 -116 323 -58 125 -94 174
-173 236 -92 73 -106 80 -197 112 -65 22 -91 26 -139 22 -76 -7 -172 -54 -225
-112 -38 -41 -55 -75 -31 -60 6 4 6 -3 -1 -18 -10 -23 -15 -25 -68 -20 -40 4
-70 0 -106 -14 l-50 -19 -42 30 c-55 38 -142 47 -194 21 -60 -31 -98 -65 -134
-120 -120 -188 -145 -312 -110 -550 8 -55 15 -136 15 -180 0 -87 -19 -249 -29
-239 -3 3 -11 22 -17 42 l-11 37 -7 -50 c-15 -100 -37 -182 -71 -265 -19 -47
-27 -76 -19 -65 26 34 77 138 90 185 11 41 12 42 13 14 2 -51 -37 -182 -74
-252 l-34 -65 30 29 c36 35 74 113 92 191 18 74 67 162 118 207 31 28 47 36
77 35 l37 0 -43 -14 c-71 -22 -101 -61 -143 -184 -11 -30 -23 -57 -28 -61 -4
-3 -20 -41 -35 -85 -40 -122 -114 -208 -196 -230 -20 -5 -18 -2 10 15 74 46
112 98 43 58 -36 -21 -37 -21 -20 -2 27 33 21 34 -35 10 -37 -15 -75 -23 -126
-24 -73 -2 -97 11 -42 23 52 11 40 20 -28 20 -50 0 -79 6 -114 23 -27 13 -48
27 -48 30 1 4 40 26 88 49 172 83 332 242 332 331 0 19 9 47 21 63 45 63 103
259 77 259 -4 0 -8 -5 -8 -11 0 -15 -52 -130 -57 -126 -2 2 8 28 21 58 43 95
66 205 76 371 10 171 26 249 69 337 63 130 105 173 230 234 l74 37 42 -19 c22
-10 61 -37 85 -60 72 -68 58 -37 -17 38 -69 69 -111 91 -175 91 -46 0 -131
-21 -178 -45 -46 -23 -130 -99 -130 -117 0 -6 12 3 28 19 38 42 101 79 171
103 90 30 95 23 12 -17 -92 -44 -224 -170 -265 -251 -15 -30 -26 -56 -24 -58
2 -2 24 24 48 57 56 76 163 178 224 212 62 35 69 34 20 -2 -155 -114 -214
-258 -269 -651 -32 -223 -74 -348 -157 -460 -40 -54 -40 -54 -8 -25 19 17 42
39 52 50 23 27 22 13 -3 -37 -23 -45 -120 -148 -140 -148 -7 0 5 16 27 35 l39
34 -30 0 c-16 1 -54 -10 -82 -24 -29 -13 -53 -22 -53 -20 0 3 17 24 37 47 l38
41 -30 -7 c-27 -7 -25 -3 26 46 84 81 112 134 117 229 3 44 2 79 0 79 -3 0
-24 -24 -47 -54 -23 -30 -49 -57 -58 -60 -8 -4 -1 10 17 31 36 41 84 136 78
155 -2 6 -18 -14 -36 -44 -50 -89 -56 -77 -7 14 40 77 83 201 99 290 l7 37
-53 -15 c-202 -59 -334 -148 -393 -263 -14 -28 -39 -101 -56 -163 -32 -111
-67 -208 -54 -146 14 70 18 151 7 144 -7 -4 -12 -14 -12 -22 0 -15 -37 -94
-44 -94 -3 0 0 15 4 33 10 35 20 177 13 177 -2 0 -15 -12 -29 -27 -20 -22 -24
-24 -19 -8 4 11 16 44 26 72 19 53 24 83 13 83 -12 0 -50 -24 -61 -39 -6 -9
-14 -13 -17 -10 -4 3 9 26 28 50 25 32 71 66 176 129 169 100 229 156 329 302
122 181 251 292 398 344 86 30 162 31 283 3 73 -17 97 -27 125 -54 38 -35 44
-34 19 5 -8 14 11 -3 44 -38 l60 -62 6 53 c4 30 4 67 0 83 l-6 29 37 -36 c36
-35 37 -39 26 -69 -6 -18 -11 -44 -11 -58 0 -23 3 -21 30 19 48 73 140 131
244 154 66 15 133 12 211 -11z m19 -74 c114 -39 199 -124 270 -267 83 -167
189 -477 220 -642 18 -93 22 -326 6 -336 -5 -3 -10 3 -10 15 0 12 -4 18 -10
15 -5 -3 -10 -18 -10 -33 0 -24 -2 -23 -19 14 -23 51 -117 134 -151 134 -15 0
-35 -7 -46 -15 -18 -14 -17 -14 13 -15 17 0 44 -5 60 -12 l28 -11 -35 -7 -35
-7 37 -2 c50 -1 57 -18 11 -27 l-38 -8 40 -8 c22 -5 54 -20 70 -34 17 -14 23
-24 15 -21 -8 2 -26 8 -39 12 -23 7 -22 4 12 -36 31 -36 37 -50 37 -89 0 -53
-34 -128 -80 -177 -16 -18 -30 -34 -30 -36 0 -12 63 3 96 22 24 15 33 17 25 7
-19 -23 1 -20 27 4 24 23 35 12 26 -26 -5 -19 -4 -25 5 -20 20 13 13 -122 -10
-184 -11 -30 -20 -63 -20 -72 0 -9 -7 -22 -15 -29 -12 -10 -14 -5 -14 27 -1
36 -2 37 -13 17 -11 -21 -13 -18 -30 37 -36 123 -125 235 -230 289 -26 13 -47
30 -47 38 0 7 12 32 27 54 31 46 43 137 25 188 -8 23 -8 31 1 31 7 1 1 9 -11
20 -34 28 -97 43 -146 34 -22 -5 -45 -9 -51 -9 -5 0 -17 -5 -25 -10 -18 -11
10 37 43 72 36 40 1 24 -42 -18 -38 -39 -41 -40 -42 -18 0 22 -1 23 -9 4 -6
-17 -9 -14 -15 17 -10 53 -29 36 -21 -19 6 -48 -10 -96 -24 -73 -11 18 -23
-25 -16 -55 5 -20 3 -23 -10 -18 -14 5 -15 3 -5 -15 13 -24 3 -29 -18 -10 -11
11 -13 10 -8 -5 7 -20 -4 -16 -35 11 -26 22 -21 3 10 -42 40 -57 63 -71 217
-126 138 -50 231 -97 263 -134 17 -19 16 -19 -10 -2 -29 19 -109 27 -114 11
-2 -5 29 -27 69 -47 40 -21 88 -54 107 -74 l35 -35 -50 24 c-27 14 -63 28 -80
32 -16 3 -3 -6 30 -20 84 -37 87 -44 16 -38 -42 4 -61 2 -61 -6 0 -6 7 -11 15
-11 25 0 88 -35 114 -64 28 -30 24 -32 -26 -11 -19 8 -36 15 -37 15 -2 0 17
-21 41 -46 46 -50 57 -75 21 -50 -35 25 -39 19 -17 -19 14 -23 17 -35 9 -35
-7 0 -10 -8 -7 -20 5 -21 -7 -28 -18 -10 -12 19 -22 10 -17 -16 l5 -26 -44 27
c-24 15 -53 35 -63 44 -22 18 -17 6 18 -42 l21 -29 -23 -18 c-28 -23 -43 -18
-104 31 -26 22 -49 39 -52 39 -10 0 7 -35 28 -59 l21 -24 -45 5 c-40 4 -53 13
-110 72 -65 68 -134 114 -211 141 -56 20 -77 40 -85 82 -8 43 0 51 28 27 19
-17 21 -17 15 -2 -8 22 6 23 23 3 7 -8 17 -15 23 -15 7 0 7 4 -1 12 -23 23
-12 26 25 7 53 -27 75 -24 39 4 l-29 23 26 26 c51 51 44 112 -19 168 -68 59
-211 73 -299 29 -92 -46 -112 -109 -57 -178 36 -45 39 -66 15 -93 -25 -28 -6
-34 23 -7 l26 24 -8 -30 -7 -30 25 23 c28 26 38 28 38 7 0 -20 10 -19 26 3 12
15 13 11 8 -28 -4 -25 -8 -46 -9 -48 -1 -1 -24 -8 -52 -15 -78 -21 -140 -62
-186 -127 -52 -72 -187 -176 -158 -122 17 32 14 48 -7 29 -9 -8 -30 -20 -45
-26 -36 -14 -45 5 -23 48 24 45 20 48 -16 14 -51 -48 -107 -71 -95 -39 3 8 29
46 56 84 28 39 51 74 51 78 0 5 -24 -16 -53 -47 -56 -61 -105 -95 -94 -65 4 9
22 41 42 71 l35 55 -55 -45 c-79 -64 -136 -57 -106 13 10 25 8 24 -19 -8 -16
-19 -30 -31 -30 -27 0 19 35 75 68 110 42 43 33 48 -21 11 -59 -40 -54 -22 10
35 55 49 62 62 22 41 -24 -13 -24 -9 0 38 25 49 68 89 128 118 l48 23 -55 2
-55 1 45 13 45 13 -37 1 c-88 2 -22 32 122 54 25 4 25 4 -2 6 -15 0 -39 6 -55
12 -27 12 -27 12 37 30 l65 18 -59 -6 c-47 -4 -58 -3 -54 8 6 21 131 59 231
72 77 10 86 13 81 29 -4 13 0 18 15 18 12 0 20 3 20 8 -1 4 -1 14 0 22 1 11 4
11 13 2 19 -19 30 -14 18 7 -20 38 -11 91 25 155 25 44 35 74 34 102 l-1 39
-7 -37 c-10 -47 -40 -95 -51 -79 -4 8 -10 0 -14 -21 l-7 -33 -19 24 -20 23 0
-36 c0 -20 -7 -53 -15 -72 -12 -29 -19 -34 -35 -29 -15 5 -18 3 -14 -9 3 -9 1
-16 -5 -16 -6 0 -11 7 -11 16 0 38 -36 75 -106 108 -39 19 -82 47 -94 63 -13
15 -21 21 -18 12 6 -17 -12 -18 -46 -4 -13 6 -21 4 -24 -4 -4 -11 -6 -11 -13
0 -7 11 -9 11 -9 1 0 -7 -4 -10 -10 -7 -6 4 -10 97 -10 248 0 199 4 258 19
335 45 214 141 331 273 332 58 0 68 -12 23 -29 -42 -15 -39 -44 4 -35 22 4 20
2 -11 -15 -36 -20 -63 -51 -88 -101 -9 -19 -4 -16 22 12 40 42 86 64 101 49
17 -17 -12 -41 -88 -76 -47 -21 -82 -45 -103 -71 -42 -51 -40 -60 7 -28 45 30
121 54 165 53 28 0 27 -2 -19 -19 -48 -19 -164 -120 -138 -120 7 0 15 5 18 10
7 11 99 60 112 60 4 0 -9 -14 -30 -31 -41 -34 -81 -103 -91 -159 l-7 -35 17
30 c44 77 142 185 169 185 3 0 -13 -24 -36 -52 -51 -64 -84 -136 -98 -213 -17
-92 -12 -96 17 -15 15 41 42 100 59 130 32 56 88 118 98 108 3 -3 -2 -25 -11
-49 -18 -49 -21 -184 -5 -234 8 -25 9 -17 10 45 1 41 7 93 13 115 12 38 12 36
20 -72 12 -184 27 -201 21 -23 -3 85 -3 153 0 149 4 -3 13 -52 22 -109 9 -57
18 -106 20 -109 7 -6 6 13 -5 97 -5 41 -10 105 -11 142 -1 59 2 73 25 102 15
20 26 48 26 66 0 28 3 31 30 30 18 -1 32 -7 35 -17 3 -10 27 -43 54 -75 56
-67 108 -184 127 -286 11 -58 12 -61 13 -24 2 62 -28 192 -56 247 -13 27 -22
51 -20 53 3 3 19 -9 36 -27 36 -36 82 -122 117 -219 l24 -65 -6 50 c-3 28 -14
74 -24 103 -10 29 -15 50 -10 47 11 -7 78 -179 86 -223 4 -18 11 -35 16 -38
10 -6 5 29 -17 131 -7 33 -12 62 -9 64 7 7 42 -82 55 -143 11 -51 14 -55 22
-35 14 38 -1 128 -32 195 -27 58 -54 88 -171 193 l-35 31 85 -39 c113 -51 165
-63 93 -22 -59 35 -79 57 -38 41 39 -15 39 -14 -5 30 -37 37 -88 120 -74 120
4 0 23 -15 44 -32 20 -18 63 -50 96 -70 32 -21 70 -45 84 -54 14 -9 -3 11 -37
45 -33 33 -59 61 -56 61 2 0 23 -13 46 -28 68 -46 70 -47 58 -25 -5 11 -36 43
-67 72 -32 28 -54 51 -50 51 5 0 38 -14 75 -32 45 -21 89 -54 139 -103 39 -40
72 -71 72 -69 0 22 -146 224 -162 224 -6 0 -9 3 -6 6 4 3 16 0 28 -6 12 -6 24
-10 26 -7 9 8 -96 79 -143 97 -37 14 -42 18 -24 23 11 3 42 -1 68 -9 65 -20
74 -17 33 9 -19 12 -64 29 -100 39 -62 16 -64 17 -32 24 18 3 35 10 37 14 8
13 -88 21 -124 10 -33 -9 -58 -6 -30 5 8 2 32 12 54 20 l40 15 -38 -4 c-21 -3
-52 -12 -69 -20 -42 -22 -46 -20 -13 6 83 65 213 85 319 48z m-234 -94 c0 -3
-25 -19 -56 -36 -30 -18 -53 -34 -50 -37 2 -3 30 4 61 16 70 26 102 27 55 1
-34 -19 -35 -19 -8 -20 43 0 44 -20 1 -20 -55 0 -73 -15 -31 -25 l33 -8 -28
-4 c-27 -4 -28 -5 -10 -18 16 -12 13 -12 -22 -3 -22 5 -51 11 -65 11 -16 1
-29 11 -36 27 -15 33 11 70 68 99 38 19 88 28 88 17z m-272 -143 c-3 -24 -8
-29 -37 -31 -18 -2 -38 1 -43 6 -15 15 27 52 58 52 22 0 25 -4 22 -27z m122
-43 c0 -21 -15 -27 -25 -10 -7 12 2 30 16 30 5 0 9 -9 9 -20z m18 -95 l12 -30
-20 24 c-11 13 -20 30 -20 39 0 21 13 6 28 -33z m-27 -16 c68 -49 69 -54 4
-18 -71 38 -85 49 -64 49 9 0 36 -14 60 -31z m-997 -156 c-13 -54 -92 -250
-137 -338 -67 -134 -149 -239 -257 -331 l-45 -38 46 50 c60 65 75 90 93 161
30 115 70 187 155 277 45 47 45 48 12 30 -43 -24 -107 -97 -149 -171 -34 -60
-35 -42 -1 36 l19 44 -21 -18 c-11 -11 -38 -56 -60 -100 -44 -91 -47 -93 -19
-11 22 64 72 157 95 176 8 7 15 17 15 23 0 20 -72 -58 -94 -103 -13 -25 -36
-97 -51 -160 -26 -111 -59 -190 -78 -190 -5 0 -6 7 -3 15 11 30 35 131 51 218
36 195 109 285 335 406 52 28 96 51 98 51 1 0 -1 -12 -4 -27z m2204 -358 c69
-122 203 -493 218 -599 l6 -41 -30 50 c-30 51 -62 86 -62 68 0 -5 11 -43 25
-83 30 -89 31 -105 4 -62 -26 41 -35 36 -16 -9 7 -19 17 -47 21 -64 l8 -30
-36 40 c-37 42 -43 36 -27 -25 5 -19 12 -48 15 -65 l7 -30 -25 30 c-24 29 -25
29 -20 5 4 -15 -7 -3 -27 30 -39 66 -80 122 -86 116 -2 -2 3 -21 11 -41 9 -21
16 -43 16 -49 0 -17 -51 72 -77 134 -31 77 -30 26 2 -64 27 -77 13 -73 -30 9
-24 47 -26 48 -19 15 8 -45 55 -137 89 -175 23 -26 26 -36 21 -75 -8 -57 -26
-77 -27 -30 -1 34 -1 34 -14 -11 -7 -26 -20 -57 -30 -70 -14 -20 -16 -20 -10
-4 12 33 18 192 7 176 -8 -11 -12 -5 -17 25 -7 46 -35 127 -41 121 -3 -2 0
-16 6 -31 13 -35 13 -106 0 -106 -5 0 -10 -8 -10 -17 -1 -10 -7 -31 -15 -48
-14 -29 -14 -23 -1 38 5 19 3 26 -4 22 -6 -4 -10 11 -11 42 -2 46 -2 46 -9 13
l-6 -35 -8 40 c-11 59 -47 178 -52 173 -2 -3 2 -27 10 -54 30 -105 30 -176 0
-272 -4 -11 2 -8 16 8 l21 25 -12 -25 c-14 -29 -39 -60 -49 -60 -4 0 -5 11 -2
25 6 31 -11 33 -27 3 -13 -25 -11 -18 20 67 25 67 24 215 -1 200 -3 -2 -12 18
-18 46 -12 49 -11 50 27 107 42 63 54 92 76 197 l14 70 -3 -75 c-3 -69 -2 -73
10 -45 17 39 17 24 0 -47 -7 -32 -12 -58 -10 -58 12 0 46 90 58 157 12 68 14
72 15 34 1 -62 11 -46 25 46 l12 78 28 -50 c15 -27 25 -42 22 -32 -4 11 -9 31
-12 45 l-6 27 17 -23 c9 -13 30 -62 46 -110 l29 -87 -4 70 -3 70 26 -55 c23
-49 26 -67 26 -170 0 -63 -3 -130 -8 -149 -4 -19 -4 -31 0 -27 4 4 14 43 23
88 19 98 11 232 -21 347 -20 74 -91 231 -144 321 -16 28 -19 35 -6 20 11 -14
38 -57 59 -95z m-2244 -62 c-13 -58 -61 -122 -179 -239 -67 -66 -130 -135
-140 -152 -11 -18 -23 -32 -26 -32 -14 0 11 65 42 107 16 24 27 43 23 43 -4 0
-27 -16 -50 -36 -24 -19 -44 -33 -44 -30 0 27 42 71 150 156 70 55 150 124
176 154 27 30 50 55 52 55 1 1 0 -11 -4 -26z m1976 -239 c0 -61 -30 -155 -71
-226 -46 -79 -71 -102 -35 -31 40 76 76 181 82 239 8 61 24 73 24 18z m51 -47
c-19 -103 -97 -238 -155 -269 -14 -7 -8 3 16 30 56 62 89 134 129 282 16 58
23 28 10 -43z m-1942 -9 c-24 -35 -66 -74 -94 -85 -10 -3 11 23 46 59 35 35
65 63 67 62 2 -1 -7 -17 -19 -36z m1490 -9 c6 -18 11 -45 11 -60 0 -67 -64
-138 -111 -124 -20 7 -19 8 10 26 50 30 72 75 69 137 -3 59 5 67 21 21z m-934
-19 c17 -32 20 -80 6 -80 -5 0 -15 -2 -23 -5 -10 -4 -13 9 -13 55 -1 33 3 60
7 60 4 0 14 -13 23 -30z m685 -29 c0 -33 5 -63 10 -66 17 -10 11 -25 -10 -25
-20 0 -43 28 -54 65 -6 21 26 85 44 85 6 0 10 -26 10 -59z m128 47 c18 -18 15
-25 -15 -31 -35 -7 -58 10 -42 29 14 17 41 18 57 2z m-868 -11 c0 -19 -48 -39
-67 -29 -13 8 -13 11 2 25 20 20 65 23 65 4z m-150 -139 c0 -5 -7 -8 -15 -8
-13 0 -35 28 -35 45 0 9 49 -28 50 -37z m619 -127 c8 -5 11 -16 7 -26 -5 -15
-15 -17 -63 -12 -58 6 -80 18 -69 36 8 13 105 14 125 2z m761 -16 c0 -2 -10
-9 -22 -15 -22 -11 -22 -10 -4 4 21 17 26 19 26 11z m-672 -67 c-2 -14 -11
-24 -23 -25 -11 -2 -14 0 -7 3 6 3 12 14 12 25 0 10 5 19 11 19 6 0 9 -10 7
-22z m-1215 -115 c-23 -2 -64 -2 -90 0 -26 2 -7 3 42 3 50 0 71 -1 48 -3z
m202 -138 c-16 -57 -30 -76 -20 -27 l6 27 -17 -30 c-29 -50 -65 -95 -97 -117
-29 -21 -30 -21 -23 -2 5 10 21 52 37 93 15 41 34 79 40 85 9 8 10 7 5 -4 -4
-8 0 -6 8 4 9 11 16 25 16 30 0 6 4 5 9 -3 7 -11 10 -9 16 8 3 12 11 19 16 16
5 -4 10 0 10 7 1 7 4 3 6 -10 2 -12 -3 -47 -12 -77z m1804 49 c-12 -62 -29
-91 -27 -44 1 31 22 90 32 90 2 0 0 -20 -5 -46z m-2119 14 c3 -4 16 -9 29 -11
12 -2 27 -10 32 -18 7 -11 9 -12 9 0 0 10 3 11 14 2 11 -9 15 -9 18 0 3 9 12
7 33 -4 24 -13 26 -16 11 -17 -20 0 -20 0 0 -16 16 -13 16 -15 2 -10 -19 6
-26 -18 -8 -29 6 -3 10 -11 10 -17 0 -7 -6 -6 -15 2 -17 15 -19 7 -5 -21 14
-25 2 -24 -29 4 l-25 22 22 -38 c19 -32 19 -36 4 -28 -23 12 -44 37 -75 91
-23 39 -27 42 -27 20 -1 -25 -1 -25 -17 -5 -15 20 -15 20 -10 -2 3 -13 3 -23
1 -23 -9 0 -42 83 -38 95 5 13 55 15 64 3z m1254 -137 c17 -6 15 -9 -12 -20
-23 -10 -35 -10 -52 -1 -16 9 -25 9 -33 1 -14 -14 -44 -14 -53 0 -3 6 0 15 7
20 17 10 116 11 143 0z m212 -114 c23 -18 40 -36 37 -40 -3 -5 3 -15 13 -23
18 -14 17 -15 -11 -10 -16 2 -39 8 -49 12 -14 5 -17 4 -12 -4 9 -15 -9 -15
-56 2 -39 14 -49 8 -23 -14 24 -20 11 -23 -30 -6 -48 20 -48 20 -43 -9 5 -22
3 -25 -16 -19 -11 3 -25 10 -30 15 -16 14 -24 11 -32 -13 -6 -21 -7 -21 -21 7
l-15 28 -25 -32 c-30 -38 -43 -39 -43 -3 l-1 27 -24 -30 -25 -30 0 29 0 29
-22 -20 c-13 -11 -31 -23 -41 -26 -15 -6 -17 -3 -11 15 6 21 6 21 -37 -4 -24
-14 -54 -29 -67 -33 -21 -6 -22 -5 -11 14 19 29 8 34 -36 16 -20 -9 -39 -15
-41 -13 -7 7 109 129 137 143 37 20 64 19 132 -5 53 -19 59 -19 97 -4 26 11
55 14 83 11 29 -4 55 0 87 13 54 23 82 19 136 -23z"/>
<path d="M937 1085 c-43 -90 -156 -194 -292 -268 -83 -46 -44 -41 54 6 45 22
90 56 143 109 69 68 76 73 63 41 -30 -71 -130 -171 -205 -204 -51 -23 -33 -29
27 -8 69 23 114 56 151 112 41 60 84 176 80 217 l-3 33 -18 -38z"/>
<path d="M2307 2225 c77 -52 184 -201 219 -307 9 -27 18 -48 20 -45 6 5 -35
125 -58 172 -38 74 -89 134 -150 174 -33 23 -65 41 -72 41 -6 0 13 -16 41 -35z"/>
<path d="M2225 2208 c90 -67 156 -143 204 -237 60 -114 68 -105 12 12 -60 125
-135 207 -217 237 l-29 10 30 -22z"/>
<path d="M2290 1729 c74 -75 124 -163 181 -316 36 -98 92 -165 169 -205 30
-15 55 -26 57 -24 2 2 -25 27 -61 55 -77 60 -85 72 -141 195 -23 52 -64 127
-90 167 -49 73 -160 199 -176 199 -4 0 23 -32 61 -71z"/>
<path d="M2475 1720 c3 -19 36 -84 74 -145 38 -60 81 -132 95 -160 15 -27 24
-39 20 -25 -19 71 -50 136 -105 215 -34 49 -68 102 -76 119 l-14 31 6 -35z"/>
<path d="M1853 1443 c2 -101 7 -187 12 -192 15 -15 12 318 -3 349 -9 20 -11
-13 -9 -157z"/>
<path d="M1400 1313 c1 -5 7 -19 15 -33 21 -37 18 -44 -10 -26 -17 11 -25 13
-25 4 0 -6 -11 -1 -25 12 -28 26 -31 23 -13 -15 7 -16 32 -35 67 -51 31 -15
66 -36 79 -47 l22 -20 0 51 c0 55 -25 97 -41 70 -7 -11 -9 -11 -9 0 0 7 -5 10
-11 7 -5 -4 -15 7 -22 24 -10 28 -28 43 -27 24z"/>
<path d="M372 760 c0 -14 2 -19 5 -12 2 6 2 18 0 25 -3 6 -5 1 -5 -13z"/>
</g>
</svg>
